<svg width="48" height="48" viewBox="0 0 48 48" fill="none" xmlns="http://www.w3.org/2000/svg"><path opacity=".2" fill-rule="evenodd" clip-rule="evenodd" d="M19.758 9.53A17.237 17.237 0 0 1 24.041 9c1.516 0 2.866.178 4.216.535a.998.998 0 0 1 .632.505c.129.25.145.543.045.805l-2.105 5.514a1.001 1.001 0 0 1-1.077.631c-.594-.084-1.118-.157-1.71-.157-.594 0-1.117.073-1.712.157a1.001 1.001 0 0 1-1.072-.619l-2.19-5.514a.985.985 0 0 1 .042-.817.999.999 0 0 1 .646-.51ZM8.04 21.11a.992.992 0 0 1 .804-.046l5.514 2.088c.428.162.69.596.633 1.05l-.024.197c-.076.595-.135 1.066-.135 1.601 0 .535.06 1.006.135 1.601l.024.197a.991.991 0 0 1-.633 1.05l-5.514 2.088a.992.992 0 0 1-1.31-.672A16.486 16.486 0 0 1 7 26c0-1.498.176-2.92.535-4.264a.992.992 0 0 1 .506-.627Zm25.191-9.964a1.026 1.026 0 0 0-1.451.433l-2.678 5.529c-.217.447-.082.985.32 1.277a9.687 9.687 0 0 1 2.192 2.192c.292.402.83.537 1.277.32l5.53-2.678a1.026 1.026 0 0 0 .432-1.451 16.409 16.409 0 0 0-5.622-5.622ZM31.638 31.42a1.046 1.046 0 0 1 1.306-.309l5.49 2.741c.259.13.45.36.528.635a.996.996 0 0 1-.12.811c-1.381 2.174-3.324 4.18-5.66 5.558a1.05 1.05 0 0 1-.835.1 1.03 1.03 0 0 1-.635-.54l-2.614-5.482a1.006 1.006 0 0 1 .328-1.255c.844-.603 1.555-1.371 2.212-2.259Zm-9.52 3.589a.992.992 0 0 0-1.054.645l-2.004 5.514a.993.993 0 0 0 .676 1.298c1.346.36 2.852.535 4.264.535 1.498 0 2.92-.176 4.264-.535a.991.991 0 0 0 .676-1.298l-2.004-5.514a.992.992 0 0 0-1.055-.645c-.679.085-1.285.16-1.881.16-.596 0-1.202-.075-1.881-.16Zm-6.465-23.963c.28.085.51.286.635.55l2.614 5.578c.22.471.058 1.033-.381 1.312-.81.515-1.507 1.276-2.188 2.127-.3.375-.82.494-1.253.287l-5.49-2.614a1.035 1.035 0 0 1-.443-1.467 16.55 16.55 0 0 1 5.671-5.67c.251-.151.555-.188.835-.103Zm.709 20.378a1.04 1.04 0 0 0-1.294-.317l-5.49 2.678a1.018 1.018 0 0 0-.43 1.448 16.48 16.48 0 0 0 5.67 5.622 1.043 1.043 0 0 0 1.47-.444l2.614-5.53a1.02 1.02 0 0 0-.328-1.265 9.73 9.73 0 0 1-2.212-2.192Z" fill="#fff"/><path fill-rule="evenodd" clip-rule="evenodd" d="M19.758 7.53A17.237 17.237 0 0 1 24.041 7c1.516 0 2.866.178 4.216.535a.998.998 0 0 1 .632.506c.129.25.145.541.045.804l-2.105 5.514a1.001 1.001 0 0 1-1.077.631c-.594-.084-1.118-.157-1.71-.157-.594 0-1.117.073-1.712.157a1.001 1.001 0 0 1-1.072-.619l-2.19-5.514a.985.985 0 0 1 .042-.818.999.999 0 0 1 .646-.508ZM8.04 19.11a.992.992 0 0 1 .804-.046l5.514 2.088c.428.162.69.596.633 1.05l-.024.197c-.076.595-.135 1.066-.135 1.601 0 .535.06 1.006.135 1.601l.024.197a.991.991 0 0 1-.633 1.05l-5.514 2.088a.992.992 0 0 1-1.31-.672A16.486 16.486 0 0 1 7 24c0-1.498.176-2.92.535-4.264a.992.992 0 0 1 .506-.627Zm25.191-9.964a1.026 1.026 0 0 0-1.451.433l-2.678 5.529c-.217.447-.082.985.32 1.277a9.687 9.687 0 0 1 2.192 2.192c.292.402.83.537 1.277.32l5.53-2.678a1.026 1.026 0 0 0 .432-1.451 16.409 16.409 0 0 0-5.622-5.622ZM31.638 29.42a1.046 1.046 0 0 1 1.306-.309l5.49 2.741c.259.13.45.36.528.635a.996.996 0 0 1-.12.811c-1.381 2.174-3.324 4.18-5.66 5.558a1.05 1.05 0 0 1-.835.1 1.03 1.03 0 0 1-.635-.54l-2.614-5.482a1.006 1.006 0 0 1 .328-1.255c.844-.603 1.555-1.371 2.212-2.259Zm-9.52 3.589a.992.992 0 0 0-1.054.645l-2.004 5.514a.993.993 0 0 0 .676 1.298c1.346.36 2.852.535 4.264.535 1.498 0 2.92-.176 4.264-.535a.991.991 0 0 0 .676-1.298l-2.004-5.514a.992.992 0 0 0-1.055-.645c-.679.085-1.285.16-1.881.16-.596 0-1.202-.075-1.881-.16ZM15.654 9.045c.28.085.51.286.635.55l2.614 5.578c.22.471.058 1.033-.381 1.312-.81.515-1.507 1.276-2.188 2.127-.3.375-.82.494-1.253.287l-5.49-2.614a1.035 1.035 0 0 1-.443-1.467 16.551 16.551 0 0 1 5.671-5.67c.251-.151.555-.188.835-.103Zm.709 20.378a1.04 1.04 0 0 0-1.294-.317l-5.49 2.678a1.018 1.018 0 0 0-.43 1.448 16.48 16.48 0 0 0 5.67 5.622 1.043 1.043 0 0 0 1.47-.444l2.614-5.53a1.02 1.02 0 0 0-.328-1.265 9.73 9.73 0 0 1-2.212-2.192Z" fill="#E92B37"/><path opacity=".8" fill-rule="evenodd" clip-rule="evenodd" d="M19.758 7.53A17.237 17.237 0 0 1 24.041 7c1.516 0 2.866.178 4.216.535a.998.998 0 0 1 .632.506c.129.25.145.541.045.804l-2.105 5.514a1.001 1.001 0 0 1-1.077.631c-.594-.084-1.118-.157-1.71-.157-.594 0-1.117.073-1.712.157a1.001 1.001 0 0 1-1.072-.619l-2.19-5.514a.985.985 0 0 1 .042-.818.999.999 0 0 1 .646-.508Zm1.604 1.686 1.471 3.706c.374-.042.775-.074 1.21-.074.429 0 .827.031 1.197.073l1.417-3.711a14.48 14.48 0 0 0-2.615-.226c-.944 0-1.808.077-2.68.232Z" fill="#FFCBC8"/><path opacity=".4" fill-rule="evenodd" clip-rule="evenodd" d="M8.04 19.11a.992.992 0 0 1 .805-.046l5.514 2.088c.428.162.69.596.633 1.05l-.024.197c-.076.595-.135 1.066-.135 1.601 0 .535.06 1.006.135 1.601l.024.197a.991.991 0 0 1-.633 1.05l-5.514 2.088a.992.992 0 0 1-1.31-.672A16.486 16.486 0 0 1 7 24c0-1.498.176-2.92.535-4.264a.992.992 0 0 1 .506-.627Zm1.173 2.215A15.14 15.14 0 0 0 8.984 24c0 .936.077 1.828.229 2.675l3.715-1.406a11.26 11.26 0 0 1-.08-1.269c0-.45.035-.867.08-1.27l-3.715-1.405Z" fill="#FFCBC8"/><path fill-rule="evenodd" clip-rule="evenodd" d="M32.411 9.043c.276-.083.574-.045.821.103a16.409 16.409 0 0 1 5.622 5.622 1.026 1.026 0 0 1-.433 1.451l-5.529 2.678a1.026 1.026 0 0 1-1.277-.32 9.687 9.687 0 0 0-2.192-2.192 1.026 1.026 0 0 1-.32-1.277l2.678-5.53c.125-.259.354-.453.63-.535Zm.708 2.48-1.809 3.734c.522.438.995.91 1.433 1.433l3.734-1.809a14.366 14.366 0 0 0-3.358-3.358Zm-1.481 17.896a1.046 1.046 0 0 1 1.306-.309l5.49 2.741c.259.13.45.36.528.635a.996.996 0 0 1-.12.811c-1.381 2.174-3.324 4.18-5.66 5.558a1.05 1.05 0 0 1-.835.1 1.03 1.03 0 0 1-.635-.54l-2.614-5.482a1.006 1.006 0 0 1 .328-1.255c.844-.603 1.555-1.371 2.212-2.259Zm1.134 1.887a12.008 12.008 0 0 1-1.454 1.49l1.76 3.69a15.275 15.275 0 0 0 3.374-3.342l-3.68-1.838Z" fill="#FFCBC8"/><path opacity=".8" fill-rule="evenodd" clip-rule="evenodd" d="M21.064 33.653a.992.992 0 0 1 1.055-.645c.679.085 1.285.16 1.881.16.596 0 1.202-.075 1.881-.16a.992.992 0 0 1 1.055.645l2.004 5.514a.993.993 0 0 1-.676 1.298A16.487 16.487 0 0 1 24 41c-1.412 0-2.918-.176-4.264-.535a.991.991 0 0 1-.676-1.298l2.004-5.514Zm1.595 1.417-1.349 3.712c.875.155 1.8.234 2.69.234.942 0 1.838-.078 2.69-.232l-1.35-3.714c-.433.046-.884.081-1.34.081-.456 0-.907-.035-1.34-.08Z" fill="#FFCBC8"/><path opacity=".6" fill-rule="evenodd" clip-rule="evenodd" d="M15.653 9.045c.28.085.51.286.635.55l2.614 5.578c.22.471.058 1.033-.381 1.312-.81.515-1.507 1.276-2.188 2.127-.3.375-.82.494-1.253.287l-5.49-2.614a1.035 1.035 0 0 1-.443-1.467 16.551 16.551 0 0 1 5.671-5.67c.251-.151.555-.188.835-.103Zm-4.103 5.88 3.693 1.76c.42-.486.89-.973 1.423-1.407l-1.746-3.724a14.495 14.495 0 0 0-3.37 3.372Zm3.518 14.18a1.04 1.04 0 0 1 1.294.318 9.73 9.73 0 0 0 2.212 2.192c.4.29.539.82.328 1.265l-2.614 5.53a1.043 1.043 0 0 1-1.47.444 16.48 16.48 0 0 1-5.67-5.622 1.018 1.018 0 0 1 .43-1.448l5.49-2.678Zm-3.527 4.008a14.43 14.43 0 0 0 3.379 3.355l1.758-3.718a11.604 11.604 0 0 1-1.45-1.436l-3.687 1.799Z" fill="#FFCBC8"/><path opacity=".2" d="M35.032 23c-1.038 0-1.903.337-2.448.972v-.894H31V30h1.663v-3.5c0-1.387.799-2.087 1.983-2.087 1.065 0 1.69.596 1.69 1.828V30H38v-3.967C38 23.946 36.736 23 35.032 23ZM24 31c2.878 0 5-2.111 5-5s-2.122-5-5-5-5 2.125-5 5 2.122 5 5 5Zm0-1.583c-1.87 0-3.263-1.43-3.263-3.417 0-1.986 1.393-3.417 3.263-3.417 1.87 0 3.263 1.43 3.263 3.417 0 1.986-1.393 3.417-3.263 3.417Z" fill="#fff"/><path d="M35.032 21c-1.038 0-1.903.337-2.448.972v-.894H31V28h1.663v-3.5c0-1.387.799-2.087 1.983-2.087 1.065 0 1.69.596 1.69 1.828V28H38v-3.967C38 21.946 36.736 21 35.032 21ZM24 29c2.878 0 5-2.111 5-5s-2.122-5-5-5-5 2.125-5 5 2.122 5 5 5Zm0-1.583c-1.87 0-3.263-1.43-3.263-3.417 0-1.986 1.393-3.417 3.263-3.417 1.87 0 3.263 1.43 3.263 3.417 0 1.986-1.393 3.417-3.263 3.417Z" fill="#fff"/></svg>