<svg width="48" height="48" viewBox="0 0 48 48" fill="none" xmlns="http://www.w3.org/2000/svg"><path opacity=".2" fill-rule="evenodd" clip-rule="evenodd" d="M19.342 10.06a1 1 0 0 0-.52-.044l-11 4A1 1 0 0 0 7 15v26a1 1 0 0 0 1.179.984l10.734-3.952 10.745 3.908a1 1 0 0 0 .52.044l11-4A1 1 0 0 0 42 37V11a1 1 0 0 0-1.179-.984l-10.734 3.952-10.745-3.908Z" fill="#fff"/><path d="M19 9 8 13v26l11-4 11 4 11-4V9l-11 4-11-4Z" fill="#E92B37"/><path opacity=".6" fill-rule="evenodd" clip-rule="evenodd" d="M18.821 8.016a1 1 0 0 1 .52.044l10.746 3.908 10.734-3.952A1 1 0 0 1 42 9v26a1 1 0 0 1-.821.984l-11 4a1 1 0 0 1-.52-.044l-10.746-3.908-10.734 3.952A1 1 0 0 1 7 39V13a1 1 0 0 1 .821-.984l11-4ZM9 13.835v23.967l9-3.47v-23.95l-9 3.453Zm20 23.737L20 34.3V10.428l9 3.272v23.872Zm2 .046 9-3.453V10.198l-9 3.47v23.95Z" fill="#FFCBC8"/><path fill-rule="evenodd" clip-rule="evenodd" d="M18.821 8.016a1 1 0 0 1 .52.044l10.746 3.908 10.734-3.952A1 1 0 0 1 42 9v26a1 1 0 0 1-.821.984l-11 4a1 1 0 0 1-.52-.044l-10.746-3.908-10.734 3.952A1 1 0 0 1 7 39V13a1 1 0 0 1 .821-.984l11-4ZM9 13.835v23.967l9.821-3.786a1 1 0 0 1 .52.044l10.746 3.908L40 34.165V10.198l-9.821 3.786a1 1 0 0 1-.52-.044l-10.746-3.908L9 13.835Z" fill="#FFCBC8"/><path opacity=".2" d="M30 11a8 8 0 0 0-8 8c0 5.4 7.05 11.5 7.35 11.76a1 1 0 0 0 1.3 0C31 30.5 38 24.4 38 19a8 8 0 0 0-8-8Zm0 10a2 2 0 1 1 0-4 2 2 0 0 1 0 4Z" fill="#fff"/><path d="M30 8a8 8 0 0 0-8 8c0 5.4 7.05 11.5 7.35 11.76a1 1 0 0 0 1.3 0C31 27.5 38 21.4 38 16a8 8 0 0 0-8-8Zm0 10a2 2 0 1 1 0-4 2 2 0 0 1 0 4Z" fill="#E92B37"/><path d="M30 8a8 8 0 0 0-8 8c0 5.4 7.05 11.5 7.35 11.76a1 1 0 0 0 1.3 0C31 27.5 38 21.4 38 16a8 8 0 0 0-8-8Zm0 17.65c-2.13-2-6-6.31-6-9.65a6 6 0 1 1 12 0c0 3.34-3.87 7.66-6 9.65ZM30 12a4 4 0 1 0 0 8 4 4 0 0 0 0-8Zm0 6a2 2 0 1 1 0-4 2 2 0 0 1 0 4Z" fill="#fff"/><circle cx="30" cy="16" r="2" fill="#E92B37"/></svg>