<svg width="48" height="48" viewBox="0 0 48 48" fill="none" xmlns="http://www.w3.org/2000/svg"><path opacity=".1" d="M43 26c0 9.941-8.059 18-18 18S7 35.941 7 26 15.059 8 25 8s18 8.059 18 18Z" fill="#FA6069"/><path d="M43 24c0 9.941-8.059 18-18 18S7 33.941 7 24 15.059 6 25 6s18 8.059 18 18Z" fill="#FFF5F6"/><path opacity=".6" fill-rule="evenodd" clip-rule="evenodd" d="M24 33v6.8c-1.13-.44-2.414-1.644-3.575-3.966A19.46 19.46 0 0 1 19.293 33H24Zm2 0v6.8c1.13-.44 2.414-1.644 3.575-3.966A19.46 19.46 0 0 0 30.707 33H26Zm5.247-2H26v-6h5.986a31.266 31.266 0 0 1-.74 6Zm1.549 2c-.74 2.558-1.785 4.718-3.037 6.28A16.036 16.036 0 0 0 38.231 33h-5.435Zm6.596-2h-6.098c.393-1.861.634-3.882.692-6h6.983a15.908 15.908 0 0 1-1.578 6ZM24 31h-5.247a31.266 31.266 0 0 1-.739-6H24v6Zm-7.294 0a33.59 33.59 0 0 1-.692-6H9.03a15.907 15.907 0 0 0 1.577 6h6.098Zm-4.937 2a16.036 16.036 0 0 0 8.472 6.28c-1.252-1.562-2.297-3.722-3.037-6.28h-5.435Zm20.217-10H26v-6h5.247c.415 1.825.676 3.849.739 6ZM26 8.2V15h4.707a19.46 19.46 0 0 0-1.132-2.834C28.414 9.845 27.13 8.64 26 8.2ZM33.986 23a33.599 33.599 0 0 0-.692-6h6.098a15.908 15.908 0 0 1 1.577 6h-6.983Zm-1.19-8h5.435a16.035 16.035 0 0 0-8.472-6.28c1.252 1.562 2.297 3.722 3.037 6.28Zm-13.503 0H24V8.2c-1.13.44-2.414 1.644-3.575 3.966A19.46 19.46 0 0 0 19.293 15ZM24 17h-5.247a31.266 31.266 0 0 0-.739 6H24v-6Zm-3.76-8.28c-1.25 1.562-2.296 3.722-3.036 6.28h-5.435a16.035 16.035 0 0 1 8.472-6.28ZM16.707 17h-6.098a15.907 15.907 0 0 0-1.577 6h6.983c.058-2.118.299-4.139.692-6ZM25 6c9.941 0 18 8.059 18 18s-8.059 18-18 18S7 33.941 7 24 15.059 6 25 6Z" fill="#FA6069"/><path fill-rule="evenodd" clip-rule="evenodd" d="M25 40c8.837 0 16-7.163 16-16S33.837 8 25 8 9 15.163 9 24s7.163 16 16 16Zm0 2c9.941 0 18-8.059 18-18S34.941 6 25 6 7 14.059 7 24s8.059 18 18 18Z" fill="#FA6069"/><path d="M46 10.084a3.08 3.08 0 0 0-5.26-2.18l-2.81 2.81-6.49-2.16a1 1 0 0 0-1 .24l-2.38 2.36a1 1 0 0 0 .29 1.61l5.18 2.35-2.6 2.6-1.71-.86a1 1 0 0 0-1.16.15l-1.77 1.81a1 1 0 0 0 0 1.41l6.49 6.49a1 1 0 0 0 1.41 0l1.81-1.77a1 1 0 0 0 .19-1.16l-.86-1.71 2.6-2.6 2.35 5.18a1 1 0 0 0 1.61.29l2.36-2.36a1 1 0 0 0 .24-1l-2.16-6.49 2.77-2.83a3.05 3.05 0 0 0 .9-2.18Z" fill="#fff"/><path d="M46 10.084a3.08 3.08 0 0 0-5.26-2.18l-2.81 2.81-6.49-2.16a1 1 0 0 0-1 .24l-2.38 2.36a1 1 0 0 0 .29 1.61l5.18 2.35-2.6 2.6-1.71-.86a1 1 0 0 0-1.16.15l-1.77 1.81a1 1 0 0 0 0 1.41l6.49 6.49a1 1 0 0 0 1.41 0l1.81-1.77a1 1 0 0 0 .19-1.16l-.86-1.71 2.6-2.6 2.35 5.18a1 1 0 0 0 1.61.29l2.36-2.36a1 1 0 0 0 .24-1l-2.16-6.49 2.77-2.83a3.05 3.05 0 0 0 .9-2.18Zm-2.32.77-3.24 3.24a1.001 1.001 0 0 0-.24 1l2.16 6.48-.9.9-2.35-5.17a1 1 0 0 0-1.62-.29l-4.12 4.16a1 1 0 0 0-.19 1.15l.82 1.68-.56.56-5.03-5.04.59-.52 1.71.86a1 1 0 0 0 1.15-.19l4.14-4.16a1 1 0 0 0-.29-1.62l-5.21-2.35.9-.9 6.48 2.16a1 1 0 0 0 1-.24l3.24-3.24a1.07 1.07 0 0 1 1.53 0 1 1 0 0 1 .32.76 1.06 1.06 0 0 1-.29.77Z" fill="#242429"/></svg>