<svg width="24" height="24" viewBox="0 0 24 24" fill="none" xmlns="http://www.w3.org/2000/svg"><path fill-rule="evenodd" clip-rule="evenodd" d="M7.035 8.262c.012-.482.148-.758.308-.919.16-.16.437-.296.919-.308.489-.012 1.125.108 1.879.398 1.29.497 2.793 1.438 4.255 2.757l-4.206 4.206c-1.319-1.462-2.26-2.965-2.757-4.255-.29-.754-.41-1.39-.398-1.88Zm-1.618 2.182a8.007 8.007 0 0 0 1.263 7.462l2.094-2.094c-1.486-1.631-2.598-3.368-3.207-4.953a9.924 9.924 0 0 1-.15-.415ZM5.93 5.93c-3.905 3.905-3.905 10.237 0 14.142a1 1 0 0 0 1.414 0l5.907-5.907 6.36 6.361a1 1 0 0 0 1.415-1.414l-6.36-6.36 5.406-5.408a1 1 0 0 0 0-1.414c-3.905-3.905-10.237-3.905-14.142 0Zm4.515-.512a8.007 8.007 0 0 1 7.462 1.263l-2.094 2.094c-1.631-1.486-3.368-2.598-4.953-3.207a9.924 9.924 0 0 0-.415-.15Z" fill="#E92B37"/></svg>