<svg width="24" height="24" viewBox="0 0 24 24" fill="none" xmlns="http://www.w3.org/2000/svg"><path d="M20 4H4a3 3 0 0 0-3 3v13a1 1 0 0 0 1 1h4a1 1 0 0 0 .83-.45L8.54 18h6.92l1.71 2.55A1 1 0 0 0 18 21h4a1 1 0 0 0 1-1V7a3 3 0 0 0-3-3Zm1 15h-2.46l-1.71-2.5A.999.999 0 0 0 16 16H8a1 1 0 0 0-.83.45L5.46 19H3v-5h18v5ZM7 12v-1a1 1 0 0 1 1-1h2a1 1 0 0 1 1 1v1H7Zm6 0v-1a1 1 0 0 1 1-1h2a1 1 0 0 1 1 1v1h-4Zm8 0h-2v-1a3 3 0 0 0-3-3h-2a3 3 0 0 0-2 .78A3 3 0 0 0 10 8H8a3 3 0 0 0-3 3v1H3V7a1 1 0 0 1 1-1h16a1 1 0 0 1 1 1v5Z" fill="#E92B37"/></svg>