<svg width="34" height="16" viewBox="0 0 34 16" fill="none" xmlns="http://www.w3.org/2000/svg"><rect width="34" height="16" rx="4" fill="#A5A5C5"/><path d="M23.255 12c1.876 0 3.245-1.279 3.245-3.5S25.13 5 23.255 5C21.37 5 20 6.279 20 8.5s1.37 3.5 3.255 3.5Zm0-1.558c-.674 0-1.159-.529-1.159-1.942 0-1.413.485-1.942 1.16-1.942.663 0 1.148.529 1.148 1.942 0 1.413-.485 1.942-1.149 1.942Zm-6.669-2.865c-.661 0-1.192.173-1.583.5.1-1.029.772-1.567 1.773-1.567.451 0 .892.077 1.292.346l.722-1.366c-.511-.317-1.273-.49-2.064-.49C14.513 5 13 6.337 13 8.683 13 10.865 14.282 12 16.245 12 17.778 12 19 11.106 19 9.702c0-1.289-1.092-2.125-2.414-2.125Zm-.46 3.067c-.602 0-.982-.346-.982-.846 0-.51.4-.856.971-.856s.962.327.962.846c0 .53-.39.856-.952.856Zm-5.998-2.899 1.508-1.53V5H6.374v1.5h2.87l-1.3 1.324v1.225h.864c.79 0 1.112.255 1.112.667 0 .46-.457.715-1.154.715-.686 0-1.435-.196-2.017-.568L6 11.323c.749.442 1.82.677 2.828.677C11.023 12 12 10.882 12 9.716c0-.98-.645-1.726-1.872-1.97Z" fill="#fff"/><circle cx="27" cy="3" r="1" fill="#fff"/></svg>