<svg width="32" height="32" viewBox="0 0 32 32" fill="none" xmlns="http://www.w3.org/2000/svg"><path d="M16 9.333a1.333 1.333 0 0 0-1.334 1.333v5.333a1.334 1.334 0 0 0 2.667 0v-5.333a1.333 1.333 0 0 0-1.334-1.333Zm1.226 11.493a1.011 1.011 0 0 0-.12-.24l-.16-.2a1.334 1.334 0 0 0-1.453-.28c-.162.067-.31.162-.44.28a1.333 1.333 0 0 0-.387.947c.002.174.038.346.107.506a1.2 1.2 0 0 0 .72.72 1.252 1.252 0 0 0 1.013 0 1.2 1.2 0 0 0 .72-.72c.068-.16.105-.332.107-.506a1.826 1.826 0 0 0 0-.267.853.853 0 0 0-.107-.24Zm-1.227-18.16a13.333 13.333 0 1 0 0 26.667 13.333 13.333 0 0 0 0-26.667Zm0 24a10.667 10.667 0 1 1 0-21.334 10.667 10.667 0 0 1 0 21.334Z" fill="#407BC1"/></svg>