<svg width="32" height="32" viewBox="0 0 32 32" fill="none" xmlns="http://www.w3.org/2000/svg"><path d="M2 16C2 8.268 8.268 2 16 2c6.269 0 11.575 4.12 13.36 9.8" stroke="#A5A5C5" stroke-width="1.5"/><path d="M26 10.667 30 12V8" stroke="#A5A5C5" stroke-width="1.5" stroke-linecap="round" stroke-linejoin="round"/><path d="M30 16c0 7.732-6.268 14-14 14-6.269 0-11.575-4.12-13.36-9.8" stroke="#A5A5C5" stroke-width="1.5"/><path d="M6 21.333 2 20v4" stroke="#A5A5C5" stroke-width="1.5" stroke-linecap="round" stroke-linejoin="round"/><path d="m10.67 16.125 1.34-1.393v-1.107H7.334v1.366h2.552L8.73 16.196v1.116h.767c.703 0 .99.233.99.608 0 .42-.407.651-1.027.651a3.37 3.37 0 0 1-1.793-.517L7 19.384c.666.402 1.618.616 2.515.616 1.95 0 2.82-1.018 2.82-2.08 0-.893-.574-1.572-1.665-1.795Zm5.747-.232c-.61 0-1.1.16-1.461.464.092-.955.712-1.455 1.636-1.455.416 0 .823.071 1.193.321l.666-1.268c-.472-.294-1.175-.455-1.905-.455-2.043 0-3.44 1.241-3.44 3.42 0 2.026 1.184 3.08 2.996 3.08 1.415 0 2.543-.83 2.543-2.134 0-1.196-1.008-1.973-2.228-1.973Zm-.426 2.848c-.554 0-.906-.321-.906-.786 0-.473.37-.794.897-.794s.888.303.888.785c0 .491-.36.795-.879.795ZM22.152 20C23.799 20 25 18.812 25 16.75c0-2.063-1.202-3.25-2.848-3.25-1.654 0-2.856 1.188-2.856 3.25 0 2.063 1.202 3.25 2.857 3.25Zm0-1.446c-.591 0-1.017-.491-1.017-1.804 0-1.313.426-1.804 1.017-1.804.583 0 1.008.492 1.008 1.804 0 1.313-.425 1.804-1.008 1.804Z" fill="#4B4B61"/><circle cx="24" cy="12" r="1" fill="#4B4B61"/></svg>