<svg width="34" height="34" viewBox="0 0 34 34" fill="none" xmlns="http://www.w3.org/2000/svg"><circle cx="17" cy="17" r="16" fill="#fff" stroke="#8D8D9F" stroke-width="2"/><path fill-rule="evenodd" clip-rule="evenodd" d="M28.25 8.152c.05-.103.05-.154.05-.257-.05-.103-.2 0-.35 0-.948.566-1.747 1.183-2.646 1.801-3.445-3.911-9.288-4.889-13.932-2.11-.05 0-.05.052-.1.052v.051c4.544-2.676 10.337-1.595 13.632 2.367-.449.36-.898.72-1.398 1.132-.649.515-1.448 1.441-2.147 1.904-.25 0-.25-.206-.3-.411-.1-.515-.1-.67-.549-.927-.4-.103-.699-.051-.998.258-.35.308-.4.463-.3.926 0 .154.1.309.3.463.05.103.15.052.15.206-.05.154-.15.36-.3.514-.5.206-.65.103-1.199-.102-.1-.258-.2-.412-.1-.67.4-.566.75-1.183 1.149-1.955.25-.823.15-1.801-.3-2.521-.599-.927-1.048-1.133-2.097-1.441-1.198-.258-1.947.36-2.547.926-1.398 1.544-1.847 3.55-2.946 5.61-.649 1.44-1.398 2.778-2.097 4.219a50.875 50.875 0 0 1-1.947 3.653c-.8-1.543-1.249-3.139-1.249-4.785h-.05c0 1.698.35 3.396 1.199 4.991-.6 1.08-1.199 2.11-1.798 3.19-.649 1.133-1.398 2.265-2.047 3.449-.05.154-.05.257.05.308.5-.103 2.147-2.418 2.447-2.881.699-.978 1.348-1.904 1.947-2.934.05.052.1.155.15.206-.8 1.287-1.748 2.78-1.648 2.985.5 0 .849-.67 1.298-1.132.3-.412.6-.772.899-1.184.6.72 1.248 1.338 1.947 1.853a16.423 16.423 0 0 0-1.797 4.014c-.999.566-.899.36-1.049 2.212 0 .567-.05 1.184-.05 1.75.15.309.2-.051.35-.36.45-1.03.849-2.059 1.248-3.088.8-1.39 1.548-2.676 2.397-3.86 3.346 1.905 7.59 2.008 11.135-.154 5.244-3.087 6.991-9.88 3.895-15.129a9.976 9.976 0 0 0-.849-1.183l.9-.772c.499-.412.998-.772 1.647-1.184ZM7.927 22.922a32.502 32.502 0 0 0 1.548-2.625c.5-.824 1.048-1.647 1.598-2.522.15-.309.35-.514.25-.051-.3.463-.55.926-.9 1.492a81.722 81.722 0 0 1-1.348 2.213c-.1.206-.549.875-1.048 1.698 0-.051-.05-.103-.1-.206Zm.649.874.15-.154c1.498-2.11 2.996-4.272 4.144-6.587.1-.206.25-.155.2.051-.5.926-.999 1.75-1.498 2.676-.5.926-1.148 1.956-1.748 2.882-.25.412-.849 1.132-.25.772 1.898-1.801 3.696-4.735 4.994-7.05.3-.206.2-.052.05.257-.899 1.595-1.848 3.242-2.946 4.786-.05.926 1.398-.926 2.197-1.904a19.162 19.162 0 0 0 2.497-4.014c.3-.257.3-.257.25.206a35.891 35.891 0 0 1-1.748 3.756c-1.299 2.11-2.547 4.169-4.195 6.124a7.889 7.889 0 0 1-2.097-1.801Zm17.327-12.402c2.996 5.043 1.298 11.579-3.745 14.615-3.346 2.007-7.29 1.955-10.486.257 1.298-1.75 2.696-3.345 4.544-4.837.849-.309 2.147-.824 2.896-.875-.35.309-.699.463-1.098.772-.45.36-1.249.772-1.898 1.544-.2-.155-.45.154-.65.308-.399.412-2.296 1.904-1.897 2.265.95-.72 1.848-1.441 2.797-2.007 2.247-1.338 4.394-2.625 6.99-3.654.7-.309 1.149-.412.25-.72-1.298-.31-2.347-.36-3.545-.31-.75.104-1.498.258-2.297.31-.25 0-.2-.155-.1-.31.35-.256.5-.462.799-.771.999-.823 1.897-1.853 1.897-3.088.55-.257 1.149-.72 1.548-1.132.45-.36.8-.823 1.249-1.235.699-.669 1.398-1.44 2.147-2.161.2.412.4.72.6 1.03Z" fill="#8D8D9F"/></svg>