<svg width="40" height="40" viewBox="0 0 40 40" fill="none" xmlns="http://www.w3.org/2000/svg"><path d="M14.583 17.788 8.76 14.229a.733.733 0 0 1-.256-.268.67.67 0 0 1-.082-.34v-.003a.673.673 0 0 1 .1-.334.74.74 0 0 1 .271-.258l5.274-2.948a.813.813 0 0 1 .71.008l.018.008.017.008 8.829 4.023.46.21.442-.248 3.797-2.122.003-.002a7.888 7.888 0 0 1 2.859-.949 7.97 7.97 0 0 1 3.019.187 7.82 7.82 0 0 1 2.708 1.292c.45.334.832.927.97 1.172.096.168.123.36.083.544a.696.696 0 0 1-.13.23.757.757 0 0 1-.238.186l-.017.01-.018.009-24.928 13.812-.002.001a4.437 4.437 0 0 1-2.66.511 4.369 4.369 0 0 1-2.446-1.122l-.025-.023-.026-.022-5.243-4.231a.707.707 0 0 1-.221-.335.662.662 0 0 1 .002-.388.709.709 0 0 1 .23-.337.793.793 0 0 1 .407-.171h.001l8.438-.993.197-.023.173-.096 3.072-1.712 1.496-.834-1.461-.893Z" stroke="#fff" stroke-width="2"/></svg>