<svg width="70" height="70" viewBox="0 0 70 70" fill="none" xmlns="http://www.w3.org/2000/svg"><path fill-rule="evenodd" clip-rule="evenodd" d="m35.376 47.348 7.028 2.864 13.82-35.461-7.7-.52-13.148 33.117Zm7.148 3.152 14.011-35.95-8.153-.55-13.288 33.471 7.43 3.029Z" fill="#fff"/><path d="m42.08 47-7.482-3.043L48.304 9.5l8.234.493L42.081 47Z" fill="url(#a)"/><path fill-rule="evenodd" clip-rule="evenodd" d="m33.4 43.716 11.357-28.172-7.953-.81L26.398 40.88l7.002 2.836Zm.118.284 11.548-28.644-8.402-.856-10.547 26.502 7.4 2.998Z" fill="#fff"/><path d="m33.094 40.5-7.473-3.024L36.561 10l8.507.802L33.094 40.5Z" fill="url(#b)"/><path fill-rule="evenodd" clip-rule="evenodd" d="m24.992 36.214 8.298-20.262-7.606-1.207-7.756 18.604 7.064 2.865Zm.119.286 8.486-20.723L25.55 14.5l-7.91 18.97 7.471 3.03Z" fill="#fff"/><path d="m24.103 34-7.459-3 8.378-20 8.078 1.155L24.103 34Z" fill="url(#c)"/><path d="M58.05 33v-.642l.23-.163.229-.164c.176-.126.33-.243.458-.35.128-.11.227-.214.296-.315.07-.1.104-.202.104-.304 0-.085-.029-.148-.087-.19-.056-.043-.141-.065-.255-.065-.074 0-.15.01-.23.028-.077.017-.154.04-.23.07-.078.03-.154.064-.23.102a4.945 4.945 0 0 0-.217.12l-.087-.915a3.959 3.959 0 0 1 .885-.193c.116-.013.232-.019.35-.019.27 0 .497.037.682.11.185.074.325.18.42.32a.852.852 0 0 1 .142.496c0 .14-.028.279-.084.415a1.317 1.317 0 0 1-.268.397c-.12.127-.278.25-.473.37l-.41.25-.125-.182h1.375V33H58.05Zm4.484.5c-.28 0-.516-.045-.71-.136a1.225 1.225 0 0 1-.464-.379 1.587 1.587 0 0 1-.257-.555 2.744 2.744 0 0 1-.08-.673c0-.338.05-.639.148-.903a1.3 1.3 0 0 1 .477-.626c.218-.152.505-.228.862-.228.27 0 .5.044.69.131.19.087.345.21.465.367.12.156.21.342.266.555.056.214.084.447.084.7 0 .346-.052.65-.157.912a1.287 1.287 0 0 1-.484.614c-.218.147-.498.221-.84.221Zm-.01-.908a.238.238 0 0 0 .206-.107.7.7 0 0 0 .11-.296 2.56 2.56 0 0 0 .033-.437c0-.17-.012-.317-.036-.441a.697.697 0 0 0-.112-.294.239.239 0 0 0-.2-.104.244.244 0 0 0-.206.104.698.698 0 0 0-.114.291 2.503 2.503 0 0 0-.034.444c0 .166.01.311.031.437a.698.698 0 0 0 .11.296.249.249 0 0 0 .212.107ZM64.53 33v-.642l.184-.163.184-.164a6.42 6.42 0 0 0 .366-.35c.103-.11.182-.214.237-.315a.622.622 0 0 0 .083-.304c0-.085-.023-.148-.07-.19-.044-.043-.112-.065-.204-.065a.65.65 0 0 0-.183.028c-.062.017-.123.04-.185.07a1.84 1.84 0 0 0-.183.102c-.06.038-.117.078-.174.12l-.07-.915a2.634 2.634 0 0 1 .988-.212c.216 0 .398.037.546.11.148.074.26.18.336.32.076.137.114.302.114.496a1.314 1.314 0 0 1-.282.812 1.97 1.97 0 0 1-.378.37l-.328.25-.1-.182h1.099V33h-1.98Zm2.993 0v-.642l.184-.163.183-.164a6.8 6.8 0 0 0 .366-.35c.103-.11.182-.214.237-.315a.626.626 0 0 0 .083-.304c0-.085-.023-.148-.069-.19-.045-.043-.113-.065-.205-.065-.059 0-.12.01-.183.028-.061.017-.123.04-.185.07a1.84 1.84 0 0 0-.183.102c-.06.038-.117.078-.174.12l-.07-.915a2.668 2.668 0 0 1 .987-.212c.217 0 .4.037.547.11.148.074.26.18.336.32.076.137.114.302.114.496a1.314 1.314 0 0 1-.282.812 1.97 1.97 0 0 1-.378.37l-.328.25-.1-.182h1.099V33h-1.979ZM14.89 28.6c-.203 0-.402-.008-.598-.023a6.722 6.722 0 0 1-.562-.066 4.776 4.776 0 0 1-.504-.11 2.997 2.997 0 0 1-.426-.163l.096-1.892c.144.105.284.195.422.268.14.07.28.126.421.168.14.04.28.071.417.092.14.018.283.026.426.026.392 0 .7-.045.926-.136.229-.091.39-.226.483-.405.096-.182.145-.407.145-.674v-.748c0-.223-.035-.408-.106-.554a.85.85 0 0 0-.294-.352 1.228 1.228 0 0 0-.438-.18 2.546 2.546 0 0 0-.536-.054c-.187 0-.379.02-.575.062-.196.04-.4.105-.61.193a4.517 4.517 0 0 0-.654.34l-.15-1.902a4.368 4.368 0 0 1 .992-.321c.194-.041.393-.072.598-.093a5.62 5.62 0 0 1 .632-.035c.553 0 1.035.084 1.448.25.416.165.76.397 1.032.696.275.3.48.65.614 1.052.138.4.207.834.207 1.303 0 .672-.134 1.252-.4 1.739a2.717 2.717 0 0 1-1.163 1.127c-.506.26-1.121.391-1.844.391Zm-1.098-2.54v-1.435h2.704v1.435h-2.704Zm7.94 2.398h-2.466v-6.276h2.783c.5 0 .911.035 1.233.105.322.068.573.165.755.29.181.127.307.275.378.445.073.17.11.357.11.56 0 .27-.053.503-.159.7a1.32 1.32 0 0 1-.421.474c-.179.12-.38.204-.606.251v.141c.29.068.531.165.724.29.196.124.343.285.44.485.096.2.144.446.144.74 0 .278-.042.53-.127.752a1.25 1.25 0 0 1-.448.564c-.214.155-.51.274-.891.356-.378.082-.86.123-1.449.123Zm-.35-1.47h.561a.543.543 0 0 0 .246-.053.36.36 0 0 0 .167-.162.624.624 0 0 0 .061-.296.575.575 0 0 0-.11-.37c-.073-.093-.191-.14-.355-.14h-1.089v-1.312h.966a.581.581 0 0 0 .255-.053.36.36 0 0 0 .167-.162.586.586 0 0 0 .06-.287.681.681 0 0 0-.1-.387c-.064-.1-.174-.15-.33-.15h-.5v3.372Zm7.396 1.612c-.602 0-1.119-.089-1.55-.265a2.817 2.817 0 0 1-1.044-.726 3.003 3.003 0 0 1-.597-1.048 3.997 3.997 0 0 1-.189-1.228c0-.61.117-1.163.352-1.659a2.73 2.73 0 0 1 1.088-1.188c.492-.297 1.121-.445 1.888-.445.582 0 1.086.085 1.51.255.424.17.774.407 1.049.709.275.3.478.647.61 1.043.135.396.202.822.202 1.277 0 .628-.123 1.188-.369 1.68a2.739 2.739 0 0 1-1.106 1.167c-.491.285-1.106.427-1.844.427Zm-.026-1.744a.89.89 0 0 0 .461-.119c.135-.079.249-.189.342-.33.097-.14.17-.303.22-.488.05-.185.075-.383.075-.595 0-.217-.028-.42-.084-.607a1.54 1.54 0 0 0-.228-.488 1.042 1.042 0 0 0-.347-.326.833.833 0 0 0-.439-.119.899.899 0 0 0-.456.119c-.135.076-.25.185-.347.326-.097.137-.171.3-.224.488a2.23 2.23 0 0 0-.079.608c0 .21.025.409.075.594.05.185.121.348.215.488.096.141.213.251.35.33.138.08.293.12.466.12Zm4.951 1.725a3.757 3.757 0 0 1-.693-.061 4.235 4.235 0 0 1-.268-.057l.075-1.765c.064.008.115.016.153.022.041.003.077.004.106.004.172 0 .314-.084.425-.25.112-.168.198-.42.26-.758a9.37 9.37 0 0 0 .131-1.28l.053-1.119.052-1.135h4.97v6.276h-2.16v-5.924l.992 1.426h-2.928l1.137-1.343c-.032.44-.066.876-.101 1.308l-.1 1.355a22.684 22.684 0 0 1-.142 1.418 3.42 3.42 0 0 1-.28 1.038 1.36 1.36 0 0 1-.597.634c-.264.141-.625.211-1.084.211Zm12.392.019c-.603 0-1.117-.089-1.54-.265a2.75 2.75 0 0 1-1.028-.726 2.949 2.949 0 0 1-.57-1.048 4.177 4.177 0 0 1-.18-1.228 4.2 4.2 0 0 1 .188-1.28c.126-.4.319-.75.58-1.053a2.63 2.63 0 0 1 1.013-.704c.416-.17.91-.255 1.484-.255.577 0 1.075.085 1.497.255.424.17.772.407 1.045.709.275.3.478.647.61 1.043.134.396.202.822.202 1.277 0 .628-.123 1.188-.369 1.68a2.746 2.746 0 0 1-1.102 1.167c-.488.285-1.099.427-1.83.427Zm-5.97-.142v-6.276h2.16v6.276h-2.16Zm1.633-2.253v-1.778h2.361v1.778h-2.361Zm4.31.651a.85.85 0 0 0 .448-.119c.135-.079.249-.189.342-.33.094-.14.166-.303.216-.488.05-.185.074-.383.074-.595 0-.217-.028-.42-.083-.607a1.598 1.598 0 0 0-.224-.488 1.06 1.06 0 0 0-.342-.326.875.875 0 0 0-.883 0 1.006 1.006 0 0 0-.342.326 1.66 1.66 0 0 0-.22.488c-.05.188-.074.39-.074.608 0 .21.023.409.07.594.05.185.122.348.215.488.094.141.208.251.342.33.135.08.289.12.461.12Zm8.966 1.602-.114-.334.33.334h-4.89v-6.276h2.16v5.924l-.967-1.426h5.272v1.585-.568.761h-1.79Zm-1.172-.352v-5.924h2.16v5.924h-2.16Zm3.822.352v-6.276h2.098v2.737h.145l.636-1.034a309.35 309.35 0 0 0 1.054-1.703h1.808v6.276h-2.098v-2.737h-.136l-.654 1.043-.557.884-.505.81h-1.791Zm6.558 0c.085-.161.184-.349.299-.563a445.607 445.607 0 0 0 .689-1.299l.68-1.28.856.704a3.12 3.12 0 0 1-.944-.128 1.798 1.798 0 0 1-.663-.374 1.585 1.585 0 0 1-.39-.594 2.267 2.267 0 0 1-.128-.784c0-.513.105-.91.312-1.192.208-.285.507-.483.896-.595.392-.114.861-.171 1.409-.171H70v6.276h-2.116v-5.924L69 23.8h-1.68a.446.446 0 0 0-.194.04.376.376 0 0 0-.145.11.547.547 0 0 0-.088.18.872.872 0 0 0-.03.243c0 .24.05.397.149.47.102.074.22.11.35.11h.918v1.295h-1.475l1.23-.793-.839 1.761-.285.599-.307.642h-2.362Z" fill="#fff"/><path d="M1.607 28.458v-5.924l.799 1.514H0v-1.866h5.364v1.866H2.96l.799-1.514v5.924H1.607Zm4.69 0v-6.276h2.827c.541 0 .998.063 1.37.189.371.123.652.343.842.66.193.314.29.756.29 1.325 0 .449-.078.84-.233 1.175-.152.332-.389.59-.71.775-.32.185-.731.277-1.234.277H8.158V25.07h.764A.562.562 0 0 0 9.22 25a.406.406 0 0 0 .167-.212c.035-.093.053-.21.053-.352 0-.102-.01-.192-.03-.268a.539.539 0 0 0-.093-.198.39.39 0 0 0-.15-.12.445.445 0 0 0-.192-.039H7.403l.748-.879c0 .337.262.27.262.593v4.934H6.297Z" fill="#83E9FF"/><defs><linearGradient id="a" x1="38.339" y1="45.478" x2="53.303" y2="8.678" gradientUnits="userSpaceOnUse"><stop stop-color="#C218FE"/><stop offset=".343" stop-color="#E824F4"/><stop offset=".488" stop-color="#F929F0"/></linearGradient><linearGradient id="b" x1="29.494" y1="39.043" x2="41.506" y2="9.361" gradientUnits="userSpaceOnUse"><stop stop-color="#C218FE"/><stop offset=".41" stop-color="#F929F0"/></linearGradient><linearGradient id="c" x1="20.533" y1="32.564" x2="29.347" y2="10.646" gradientUnits="userSpaceOnUse"><stop stop-color="#C218FE"/><stop offset=".374" stop-color="#F929F0"/></linearGradient></defs></svg>