<svg width="70" height="70" viewBox="0 0 70 70" fill="none" xmlns="http://www.w3.org/2000/svg"><g clip-path="url(#a)"><path fill-rule="evenodd" clip-rule="evenodd" d="M69.754 61.59c.082-.073.164-.145.244-.218 0-.012 0-.03-.012-.042a2.3 2.3 0 0 0-.028-.018.91.91 0 0 1-.165-.121l-8.64-8.64a5.617 5.617 0 0 0-.188-.2c4.692-5.043 7.195-10.974 7.28-17.85.085-6.88-2.213-12.92-6.839-18.018-4.299-4.74-9.662-7.6-16.023-8.392-8.277-1.034-15.485 1.415-21.658 7.062l-2.536-2.534c-1.685-1.684-3.367-3.364-5.034-5.036l-.333.303-.23.211c3.217 3.217 6.428 6.427 9.65 9.626-3.253 3.344-5.387 7.286-6.276 11.875-.889 4.577-.453 9.046 1.288 13.393-.768.357-1.433.84-2.056 1.379-.37.319-.733.645-1.097.97-.242.218-.485.435-.729.65.073-.235.169-.456.264-.675l.045-.105c.211-.477.38-.967.356-1.505-.03-.575-.423-.968-1.003-.974-.466-.006-.89.145-1.3.345-1.167.568-2.177 1.36-3.15 2.2a3.93 3.93 0 0 1-.206.17 9.326 9.326 0 0 1-.067-.417c-.157-1.185-.75-1.857-1.91-2.165-.78-.211-1.572-.187-2.358-.066-1.337.205-2.576.683-3.755 1.336-.986.544-1.893 1.197-2.588 2.098-.29.375-.532.774-.641 1.24-.2.834.115 1.505.84 1.741.224.072.478.139.708.103l.159-.023c.705-.101 1.422-.204 2.102-.4 1.282-.37 2.262-1.24 3.229-2.117a.665.665 0 0 0 .115-.139c.145-.212.133-.447-.018-.598-.164-.158-.405-.164-.617.006a4.051 4.051 0 0 0-.28.25c-.045.044-.09.088-.137.13-1.077 1.01-2.274 1.802-3.791 1.96a4.271 4.271 0 0 1-1.077-.018c-.38-.061-.502-.273-.393-.642.073-.266.176-.55.351-.75.369-.435.762-.864 1.21-1.215 1.112-.882 2.394-1.457 3.748-1.862.889-.266 1.79-.423 2.721-.266 1.022.175 1.548.816 1.536 1.856-.012.647-.224 1.234-.52 1.79a15.124 15.124 0 0 1-3.459 4.36c-.236.206-.464.424-.69.641l-.138.132a.954.954 0 0 0-.181.23.453.453 0 0 0 .084.563c.157.157.333.12.496.018.157-.097.296-.212.435-.327 1.73-1.463 3.114-3.21 4.209-5.182a7.564 7.564 0 0 1 1.886-2.237c.889-.713 1.82-1.354 2.915-1.71.138-.048.286-.078.451-.11l.208-.042c-.009.08-.012.155-.015.227-.006.14-.012.265-.052.378-.088.25-.19.495-.29.74-.066.158-.132.316-.194.475-.774 2.032-1.88 3.882-3.126 5.653a2.024 2.024 0 0 0-.248.43c-.12.29-.048.49.206.634.194.115.35.061.544-.205l.115-.163c.235-.333.471-.668.69-1.016a26.08 26.08 0 0 1 3.313-4.275c.883-.925 1.814-1.802 2.95-2.418.103-.055.21-.104.32-.153.072-.033.145-.066.219-.102.04.08.075.157.11.23.053.116.103.223.162.327a.396.396 0 0 1 .006.423c-.17.32-.337.642-.505.963-.269.515-.538 1.03-.813 1.54-.563 1.046-1.089 2.104-1.44 3.241-.157.502-.271 1.004-.169 1.536.146.762.847 1.119 1.506.738.35-.198.688-.42 1.027-.642l.351-.229.333-.236c.002.029.006.052.009.071.004.03.007.05.003.068-.17.859.925 1.772 1.863 1.367.677-.297 1.281-.696 1.88-1.119.035-.026.072-.051.112-.079l.112-.078.064.256c.036.15.07.29.117.427.14.4.375.538.774.4.345-.122.677-.315.998-.509.139-.078.211-.084.332.012 4.033 3.157 8.604 4.85 13.726 5.043a23.195 23.195 0 0 0 5.448-.441c4.462-.907 8.332-2.963 11.62-6.113l.194-.17c3.683 3.683 7.353 7.353 11.023 11.03l.318-.285ZM57.012 49.727l-.032-.006-.002-.122c-.003-.075-.006-.145.002-.205.176-.985-.538-1.838-1.5-2.05-.555-.12-1.1-.096-1.583.242a1.36 1.36 0 0 0-.417.436c-.11.205-.267.326-.46.435a4.056 4.056 0 0 0-1.622 1.592.44.44 0 0 1-.083.113l-.214.191a70.938 70.938 0 0 1-1.83 1.599c-.115.096-.257.16-.41.229-.079.035-.16.072-.243.116-.073-.484-.03-.883.14-1.246.165-.34.36-.664.556-.989.069-.113.138-.227.205-.341a.556.556 0 0 1 .078-.096c.02-.02.038-.04.055-.061.019-.024.038-.047.059-.07.11-.128.223-.26.147-.444-.096-.222-.328-.242-.539-.26h-.006c-.526-.043-.81-.26-.967-.768-.033-.109-.057-.22-.082-.33a4.183 4.183 0 0 0-.081-.33 1.04 1.04 0 0 0-.151-.32c-.127-.163-.351-.169-.496-.018a1.087 1.087 0 0 0-.17.242c-.217.363-.435.726-.64 1.094-.557.98-1.403 1.687-2.25 2.395-.967.81-1.995 1.542-3.168 2.043-.387.164-.78.285-1.21.248-.465-.036-.683-.26-.586-.713.103-.46.248-.92.441-1.348.153-.334.349-.65.543-.964l.177-.288.247-.407c.185-.303.37-.606.545-.911.103-.175.242-.242.441-.242.702.004 1.4.003 2.1.001l1.05-.001c.182 0 .364 0 .545-.006.242-.012.38-.127.417-.333.03-.193-.084-.423-.284-.49a1.492 1.492 0 0 0-.466-.06l-2.854-.036a.112.112 0 0 1-.04-.01l-.056-.014.038-.062c.027-.045.053-.088.083-.126.175-.236.353-.47.532-.704.178-.235.356-.469.532-.705a2.26 2.26 0 0 0 .224-.362c.084-.182.06-.363-.097-.496-.163-.14-.357-.145-.52-.018a1.921 1.921 0 0 0-.417.41c-.502.66-.998 1.331-1.488 2.002a.372.372 0 0 1-.308.182c-.375.03-.75.066-1.119.139a.843.843 0 0 0-.435.254c-.242.266-.103.604.254.64.134.014.267-.004.401-.022.054-.007.108-.015.161-.02.056-.004.112-.013.174-.022l.056-.008c-.584 1.37-1.73 2.147-2.886 2.931l-.234.159c.018-.08.038-.16.058-.24.052-.209.103-.417.13-.631.054-.411.09-.828.096-1.24.012-.75.042-1.493.339-2.2a.65.65 0 0 0-.194-.78c-.145-.115-.284-.133-.423.006a.95.95 0 0 0-.181.2c-.847 1.372-1.96 2.514-3.127 3.603a20.82 20.82 0 0 1-1.953 1.614c-.568.411-1.245.605-1.953.641-.387.018-.646-.205-.852-.538l.435-.266c.925-.562 1.82-1.173 2.618-1.905.4-.368.762-.761.992-1.257.181-.387.187-.756-.073-1.113-.302-.411-.725-.496-1.19-.435-.478.06-.914.254-1.319.514-.985.629-1.693 1.487-2.237 2.527-.197.386-.499.717-.8 1.047-.114.126-.228.252-.337.38-.024.024-.133.018-.17-.012a8.461 8.461 0 0 1-.604-.544c-.042-.042-.048-.17-.018-.23.087-.179.183-.35.28-.52l.131-.236c.097-.175.103-.368-.036-.508a.572.572 0 0 0-.387-.163c-.115 0-.242.115-.32.212-.18.215-.357.435-.534.656a39.26 39.26 0 0 1-.64.783 4.672 4.672 0 0 1-1.729 1.294 2.095 2.095 0 0 1-.604.163c-.363.036-.55-.145-.569-.514-.018-.43.145-.798.4-1.13a9.089 9.089 0 0 1 1.807-1.796c.756-.563 1.584-.75 2.497-.63.212.025.424.037.545-.175.102-.181.09-.374-.049-.526a.64.64 0 0 0-.284-.163c-.846-.224-1.645-.06-2.418.303-.16.074-.312.156-.472.241l-.182.097-.044-.055a1.86 1.86 0 0 1-.095-.12c-.302-.466-.601-.933-.9-1.4l-.901-1.4c-.085-.127-.073-.242-.03-.38a6.7 6.7 0 0 0 .193-.835c.06-.435-.145-.732-.563-.859l-.047-.015c-.035-.012-.07-.025-.104-.021-.429.036-.562-.23-.695-.58a23.767 23.767 0 0 1-1.342-5.551 22.597 22.597 0 0 1-.025-4.91c.569-5.254 2.703-9.783 6.404-13.556 3.216-3.277 7.092-5.387 11.585-6.343a22.237 22.237 0 0 1 6.264-.411c10.019.75 18.14 7.927 20.407 17.33.526 2.158.737 4.347.592 6.56-.344 5.224-2.267 9.807-5.677 13.774-.055.066-.127.15-.206.169-.562.145-1.125.278-1.687.411a.139.139 0 0 1-.059-.005Zm9.909-21.048c2.056 9.378-1.427 18.019-6.488 23.086-.532-.539-1.058-1.07-1.584-1.609l.2-.112c.141-.077.29-.16.435-.244.102-.067.205-.134.29-.218.218-.212.2-.472-.043-.726 4.294-5.508 6.132-11.682 4.97-18.623-.912-5.442-3.524-9.989-7.715-13.58-4.48-3.84-9.704-5.708-15.612-5.557-5.9.145-10.968 2.358-15.273 6.319l-1.765-1.766c2.998-2.848 6.493-4.892 10.502-6.046 4.003-1.15 8.048-1.325 12.123-.508 10.02 2.001 17.82 9.795 19.96 19.584ZM50.807 51.777c.06-.055.12-.11.212-.188.23 1.451 1.505 1.717 2.467 1.615.96-.127 1.674-.696 2.291-1.391.254-.284.47-.611.682-.934l.122-.185c.079-.12.157-.187.303-.187.099 0 .198-.003.298-.005a7.34 7.34 0 0 1 .512-.001c-3.628 3.47-7.915 5.569-12.903 6.18-5.333.646-10.291-.478-14.856-3.32 1.082-.121 2.08-.43 2.956-1.13l.145.229c.623.955 1.512 1.276 2.588.877 1.076-.4 2.032-1.022 2.95-1.706.061-.048.122-.09.182-.133.005-.008.016-.008.03-.006h.019l-.044.219a4.19 4.19 0 0 0-.09.555c-.017.23-.011.472.043.696.12.532.526.852 1.119.937.622.09 1.203-.066 1.76-.308.366-.162.722-.35 1.078-.538.178-.094.356-.188.535-.279a.798.798 0 0 1 .193-.052c.032-.006.066-.012.098-.02.043-.013.087-.023.132-.034.107-.025.215-.05.31-.105.73-.424 1.33-1.01 1.904-1.627a14.104 14.104 0 0 0 1.717-2.25c.024-.047.054-.09.103-.156l.284.407c.153.22.305.439.46.657l-.077.215c-.142.397-.292.818-.425 1.248-.07.227-.114.468-.159.707l-.04.218c-.146.726.434 1.343 1.245 1.095.248-.079.495-.2.701-.351.306-.227.598-.476.89-.724l.265-.225ZM21.48 45.645c.617.926 1.216 1.833 1.802 2.721-.173.196-.345.392-.516.59-.365.418-.73.837-1.116 1.236-.804.823-1.802 1.385-2.872 1.978.007-.1.01-.197.014-.29.008-.224.015-.43.07-.617l.082-.277c.176-.599.353-1.199.62-1.749.427-.872.896-1.726 1.369-2.588.182-.332.366-.666.547-1.004Zm34.104 4.807c.014.01.032.022.06.037l-.053.07c-.586.773-1.157 1.527-2.149 1.768-.375.09-.725.006-1.04-.2-.357-.23-.508-.64-.399-1.094.194-.798.69-1.39 1.342-1.862.037-.03.158-.024.182.012.52.67 1.24 1.01 2.025 1.251.01.003.019.01.032.019ZM36.62 48.627c.025-.023.053-.048.085-.08.067 1.156.03 2.232-.586 3.2-.314.507-.72.882-1.372.84-.55-.03-.89-.369-1.131-.822-.024-.043.018-.14.06-.182.083-.08.17-.159.256-.237.12-.11.242-.22.355-.337L36.5 48.74c.036-.036.072-.069.12-.114Zm-5.955-.085c.66-.526 1.385-.804 1.923-.708-.047.074-.089.15-.13.223-.088.155-.172.305-.287.424-.309.327-.63.653-.992.92-.492.361-1.005.698-1.518 1.035l-.465.307a.336.336 0 0 1-.062.029l-.077.031c.375-.913.87-1.669 1.608-2.261Zm25.372 1.056a7.527 7.527 0 0 0-.025.105c-.085-.022-.17-.042-.255-.062-.458-.108-.903-.213-1.245-.555-.338-.32-.332-.671.006-.98a.358.358 0 0 1 .236-.078c.145.012.296.048.442.084.731.182.98.539.882 1.282a2.022 2.022 0 0 1-.041.204Zm-29.9 2.408c-.243-.096-.243-.338-.05-.61.17.145.321.278.533.471a1.86 1.86 0 0 0-.187.074c-.12.052-.224.098-.297.065Zm1.846-.267c.057-.062.114-.124.179-.192.078.266.139.478.2.695-.007.012-.019.024-.03.037-.09-.072-.182-.142-.281-.217-.068-.051-.14-.105-.216-.164.051-.054.1-.106.148-.16Zm8.874-10.277h.26l-.002-.254a8.013 8.013 0 0 1 .014-.702c0-.145-.055-.193-.194-.212-.292-.04-.582-.086-.872-.131a40.593 40.593 0 0 0-1.075-.159c-.23-.03-.272-.12-.272-.332.01-2.231.008-4.46.007-6.686v-2.227c0-.38-.012-.756-.024-1.137v-.018l-.128-4.444c0-.013.007-.024.016-.039a.282.282 0 0 0 .026-.051l.077.175.044.103 3.556 8.67a1494.35 1494.35 0 0 1 2.963 7.226c.072.17.15.23.332.218a5.56 5.56 0 0 1 .84 0c.26.024.375-.067.472-.315 1.792-4.63 3.594-9.25 5.397-13.872l.758-1.945c.03-.08.067-.158.103-.236a.174.174 0 0 0 .028.006l.027.006v.236l.001 1.916a901.52 901.52 0 0 1-.001 3.822c-.005 1.153-.012 2.307-.019 3.46-.01 1.734-.02 3.467-.024 5.198 0 .206-.048.284-.266.309-.67.072-1.348.163-2.02.254-.078.012-.205.072-.205.114-.014.271-.013.546-.012.822v.206h7.867l-.001-.239c-.001-.232-.002-.454.007-.68.006-.175-.067-.211-.224-.23-.25-.028-.5-.058-.75-.088-.5-.06-1-.121-1.5-.165-.241-.025-.278-.127-.278-.327-.002-.55-.008-1.1-.014-1.649-.008-.729-.016-1.456-.016-2.184 0-3.066.006-6.138.012-9.203 0-.617.007-1.234.013-1.85.005-.412.01-.823.011-1.234 0-.175.03-.278.255-.296.761-.067 1.53-.163 2.291-.26.067-.012.188-.067.188-.109.009-.253.007-.51.006-.774v-.272h-.303l-1.663-.001a682.693 682.693 0 0 0-3.325.001c-.218 0-.301-.017-.35.017-.048.033-.061.116-.14.316-2.03 5.233-4.055 10.473-6.08 15.713l-.003.007c-.015.038-.033.074-.053.115l-.062.133c-.054-.114-.084-.181-.114-.247a4392.993 4392.993 0 0 1-3.235-7.921c-.538-1.322-1.078-2.641-1.618-3.96a3060.106 3060.106 0 0 1-1.63-3.995c-.036-.093-.072-.184-.223-.184-1.096.004-2.19.003-3.284.001l-1.638-.001c-.127 0-.181.042-.181.17.004.18.003.362.001.543l-.001.273c0 .127.066.169.181.18l.81.102c.44.057.881.114 1.325.159.337.031.336.076.329.276-.002.032-.003.07-.003.11v15.395l-.001.224c-.002.146-.003.29.001.435.006.151-.042.218-.2.236-.449.058-.896.122-1.344.186-.305.043-.61.087-.917.129-.133.018-.181.078-.181.205 0 .064 0 .128.002.192.002.162.005.325-.008.485-.018.236.072.29.296.29 1.483-.008 2.97-.007 4.455-.006h1.483Z" fill="#fff"/></g><defs><clipPath id="a"><path fill="#fff" d="M0 0h70v70H0z"/></clipPath></defs></svg>