<svg width="70" height="70" viewBox="0 0 70 70" fill="none" xmlns="http://www.w3.org/2000/svg"><path d="M36.5 28.617a1.649 1.649 0 0 1-.623.635c-.289.17-.638.248-1.049.248-1.383 0-2.082-.79-2.082-2.386V23.66H31.5v-.403l2.128-2.757h.395v1.781h2.431v1.38h-2.431v3.237c0 .449.091.774.273.96.183.186.456.279.836.279.259 0 .471-.047.654-.155.182-.108.35-.232.47-.387l.244 1.022Z" fill="#fff"/><path fill-rule="evenodd" clip-rule="evenodd" d="M26.5 43.17a2.01 2.01 0 0 1-.394.511 2.91 2.91 0 0 1-.627.41c-.248.117-.54.219-.86.292a3.828 3.828 0 0 1-1.021.117 4.27 4.27 0 0 1-1.546-.292 4.286 4.286 0 0 1-1.312-.805 4.271 4.271 0 0 1-.905-1.272 4.01 4.01 0 0 1-.335-1.638c0-.585.117-1.127.335-1.624.234-.497.525-.921.905-1.272a4.034 4.034 0 0 1 1.312-.805 4.269 4.269 0 0 1 1.546-.292c.364 0 .685.03.992.102.32.074.598.176.83.293.249.117.467.263.628.41.175.146.306.306.394.467l-.38 1.097c-.218-.248-.524-.453-.933-.629a2.938 2.938 0 0 0-1.283-.278c-.89 0-1.59.234-2.13.688-.524.453-.787 1.053-.787 1.828 0 .38.073.731.204 1.038.146.308.35.57.598.79.248.22.554.38.919.512.365.117.758.19 1.196.19.481 0 .919-.088 1.327-.278.394-.19.715-.41.933-.658l.394 1.097Zm2.95-2.663c0 .38.06.729.191 1.035.132.306.308.568.542.787.235.218.498.379.806.51.308.116.645.175 1.011.175.366 0 .689-.059.996-.175.323-.117.586-.292.82-.51.235-.219.411-.496.543-.787.132-.306.19-.641.19-1.02s-.058-.714-.19-1.02a2.222 2.222 0 0 0-.542-.802 2.815 2.815 0 0 0-.82-.524 2.815 2.815 0 0 0-.997-.19c-.366 0-.703.059-1.011.19a2.264 2.264 0 0 0-.806.524c-.234.219-.41.496-.542.802-.117.306-.19.641-.19 1.005Zm6.213-1.588c.22.495.337 1.02.337 1.588a3.86 3.86 0 0 1-.337 1.589 3.829 3.829 0 0 1-.864 1.267c-.367.35-.777.642-1.275.846a4.186 4.186 0 0 1-3.062 0 4.198 4.198 0 0 1-1.29-.846 3.651 3.651 0 0 1-.85-1.267A4.102 4.102 0 0 1 28 40.507c0-.568.103-1.093.322-1.588a4.3 4.3 0 0 1 .85-1.268 4.1 4.1 0 0 1 1.29-.845A3.918 3.918 0 0 1 32 36.5c.542 0 1.04.102 1.524.306a3.985 3.985 0 0 1 2.14 2.113Zm7.436-2.105a3.409 3.409 0 0 0-1.459-.314c-.586 0-1.068.105-1.459.314-.391.194-.647.434-.752.733v-.868H38V44.5h1.474v-5.04a1.65 1.65 0 0 1 .24-.582c.121-.18.287-.33.467-.449.196-.135.406-.24.632-.314.24-.075.466-.105.722-.105.27 0 .526.045.767.135.24.075.436.21.617.389.18.164.33.373.421.628.105.254.165.523.165.852V44.5h1.474v-5.054c.046-.21.12-.404.241-.583.12-.18.286-.33.467-.449.195-.12.406-.224.631-.299.241-.075.467-.105.722-.105.271 0 .527.045.767.135.241.075.437.21.617.389.18.164.331.373.421.628.106.254.166.523.166.852V44.5H50.5v-4.53c0-.614-.105-1.122-.316-1.556a3.024 3.024 0 0 0-.782-1.077 3.289 3.289 0 0 0-1.113-.628 3.777 3.777 0 0 0-1.204-.209c-.661 0-1.233.12-1.684.344-.452.24-.828.538-1.113.942a2.927 2.927 0 0 0-1.189-.972Z" fill="#fff"/><path d="M50 32.5H20v1h30v-1Z" fill="#fff"/><path d="M35 13.886c5.636 0 10.95 2.202 14.938 6.191 3.99 3.989 6.191 9.286 6.191 14.938 0 5.637-2.202 10.95-6.19 14.939-3.99 3.989-9.287 6.19-14.939 6.19a21.006 21.006 0 0 1-14.938-6.19c-3.99-3.989-6.176-9.318-6.176-14.954 0-5.637 2.202-10.95 6.191-14.938 3.989-3.974 9.286-6.176 14.923-6.176Zm0-1.386c-12.428 0-22.5 10.072-22.5 22.5S22.572 57.5 35 57.5 57.5 47.428 57.5 35 47.428 12.5 35 12.5Z" fill="#fff"/></svg>