<svg width="32" height="32" viewBox="0 0 32 32" fill="none" xmlns="http://www.w3.org/2000/svg"><path opacity=".1" d="M24.2 6.8C21.7 4.4 18.5 3 15 3c-1.7 0-3.4.3-5 1S7 5.6 5.8 6.8C3.4 9.3 2 12.5 2 16c0 3 1 5.9 2.9 8.2l-2.6 2.6c-.1.2-.2.4-.3.7v.7l.1.1c.1.2.3.4.5.5.2.1.4.2.7.2H15c3.5 0 6.7-1.4 9.2-3.8 2.5-2.5 3.8-5.7 3.8-9.2 0-3.5-1.4-6.7-3.8-9.2Z" fill="#E92B37"/><path d="M3 14c0-3.2 1.3-6.2 3.5-8.5 1.1-1.1 2.4-2 3.9-2.6 1.5-.6 3-.9 4.6-.9 3.2 0 6.2 1.3 8.5 3.5C25.7 7.8 27 10.8 27 14s-1.3 6.2-3.5 8.5C21.2 24.7 18.2 26 15 26H3.1l-.1-.1v-.2c0-.1 0-.1.1-.2l2.6-2.6.6-.6-.6-.7C4 19.5 3 16.8 3 14Z" fill="#fff"/><path d="M3.3 27c-.3 0-.5-.1-.7-.2-.2-.1-.3-.3-.5-.5l-.1-.1v-.7c0-.2.2-.5.3-.7L5 22.2C3.1 19.9 2 17 2 14c0-3.5 1.4-6.7 3.8-9.2C7.1 3.6 8.5 2.6 10.1 2c1.6-.7 3.3-1 5-1 3.5 0 6.7 1.4 9.2 3.8C26.6 7.3 28 10.5 28 14c0 3.5-1.4 6.7-3.8 9.2-2.5 2.4-5.7 3.8-9.2 3.8H3.3ZM15 3c-1.4 0-2.9.3-4.2.8-1.3.6-2.5 1.4-3.5 2.4C5.2 8.3 4 11.1 4 14c0 2.5.9 5 2.5 6.9l1.2 1.4L5 25h10c2.9 0 5.7-1.1 7.8-3.2C24.9 19.7 26 17 26 14c0-2.9-1.1-5.7-3.2-7.8C20.7 4.1 18 3 15 3Z" fill="#E92B37"/><path d="M9 11h10c.6 0 1 .4 1 1s-.4 1-1 1H9c-.6 0-1-.4-1-1s.4-1 1-1Zm0 4h6c.6 0 1 .4 1 1s-.4 1-1 1H9c-.6 0-1-.4-1-1s.4-1 1-1Z" fill="#E92B37"/><path opacity=".2" d="M29.998 22.3c-.1-.4-.5-.7-.9-.7l-4.1-.4-1.6-3.6c-.2-.4-.5-.6-.9-.6s-.8.2-.9.6l-1.6 3.6-4.1.3c-.4 0-.7.3-.9.7-.2.4 0 .8.3 1.1l3.1 2.6-.9 3.8c-.1.4.1.8.4 1 .3.2.8.3 1.1.1l3.5-2.1 3.5 2.1c.2.1.3.1.5.1s.4-.1.6-.2c.3-.2.5-.6.4-1l-.9-3.8 3.1-2.6c.3-.2.4-.6.3-1Z" fill="#242429"/><path d="m22.5 25.6 4 2.4-1.1-4.4 3.5-3-4.7-.4-1.7-4.2-1.8 4.2-4.7.4 3.5 3-1 4.4 4-2.4Z" fill="#fff"/><path d="M26.498 29c-.2 0-.3 0-.5-.1l-3.5-2.1-3.5 2.1c-.3.2-.8.2-1.1-.1-.3-.2-.5-.6-.4-1l.9-3.8-3.1-2.6c-.3-.3-.4-.7-.3-1.1.1-.4.5-.7.9-.7l4.1-.3 1.6-3.6c.2-.4.5-.6.9-.6s.8.2.9.6l1.6 3.6 4.1.3c.4 0 .7.3.9.7.2.4 0 .8-.3 1.1l-3.1 2.6.9 3.8c.1.4-.1.8-.4 1-.2.1-.4.2-.6.2Zm-4-4.4c.2 0 .3 0 .5.1l2 1.2-.5-2.2c-.1-.4 0-.8.3-1l1.7-1.4-2.3-.2c-.4 0-.7-.3-.8-.6l-.9-2.1-.9 2.1c-.1.3-.5.6-.8.6l-2.3.2 1.7 1.4c.3.2.4.6.3 1l-.5 2.2 2-1.2c.2 0 .3-.1.5-.1Z" fill="#242429"/></svg>