<svg width="40" height="40" viewBox="0 0 40 40" xmlns="http://www.w3.org/2000/svg"><path fill-rule="evenodd" clip-rule="evenodd" d="M34.172 5.813C30.412 2.066 25.412.003 20.084 0 9.106 0 .17 8.891.166 19.82a19.713 19.713 0 0 0 2.658 9.909L0 40l10.558-2.756a19.977 19.977 0 0 0 9.518 2.412h.008c10.976 0 19.912-8.892 19.916-19.82.002-5.297-2.068-10.277-5.828-14.023Z"/><path fill-rule="evenodd" clip-rule="evenodd" d="M28.985 23.814c-.492-.238-2.911-1.392-3.362-1.552-.451-.159-.78-.238-1.107.24-.328.477-1.271 1.551-1.558 1.87-.287.318-.574.358-1.066.12-.493-.24-2.078-.743-3.958-2.369-1.463-1.265-2.45-2.827-2.737-3.304-.287-.478-.03-.736.216-.974.221-.214.492-.557.738-.836.246-.278.328-.477.492-.796.164-.318.082-.597-.041-.835-.123-.24-1.107-2.587-1.517-3.542-.4-.93-.805-.805-1.108-.82a20.245 20.245 0 0 0-.943-.016c-.328 0-.86.12-1.312.597-.45.478-1.722 1.632-1.722 3.98s1.763 4.616 2.01 4.934c.245.319 3.47 5.137 8.405 7.204 1.174.491 2.091.785 2.806 1.005 1.178.363 2.251.311 3.099.189.945-.137 2.911-1.155 3.321-2.269.41-1.114.41-2.07.287-2.268-.123-.2-.45-.319-.943-.558Z" fill="#fff"/></svg>