<svg width="25" height="24" viewBox="0 0 25 24" fill="none" xmlns="http://www.w3.org/2000/svg"><path d="M23.906 9.95c-.1-.4-.4-.7-.8-.8-1.3-.2-3.8-.2-6.2 1-.6-3.7-2.7-6-4.2-7-.4-.2-.9-.2-1.2 0-1.5.9-3.7 3.3-4.2 7-2.5-1.2-5-1.2-6.4-1-.4.1-.7.4-.8.8-.2.9-.5 4 3.1 7.4 2.2 2.1 5.1 2.7 7.3 2.7.4 0 .8 0 1.2-.1.3.1.5.1.8 0 .3 0 .7.1 1.2.1 1.8 0 4.8-.4 7.2-2.7 3.5-3.4 3.2-6.5 3-7.4Zm-11.9-4.6c1.1 1 2.6 3.1 2.8 6.2l-.3.3c-1.2 1.1-1.9 2.1-2.4 3-.5-.9-1.3-2-2.4-3-.2-.1-.3-.1-.4-.2.1-3.2 1.6-5.3 2.7-6.3Zm-7.4 10.6c-2.1-2.1-2.5-3.9-2.5-4.9 1.3-.1 3.8.2 6 2.3 2 1.9 2.7 3.6 2.8 4.8-1.3 0-4.1-.1-6.3-2.2Zm14.8 0c-2.2 2.1-5 2.2-6.3 2.1.1-1.2.9-2.9 2.8-4.8 2.2-2.1 4.8-2.3 6-2.3 0 1.1-.4 2.9-2.5 5Z" fill="#E92B37"/></svg>