<svg width="24" height="24" viewBox="0 0 24 24" fill="none" xmlns="http://www.w3.org/2000/svg"><path d="M11.968 2a10 10 0 0 0-8.4 4.59 10 10 0 0 0 14.66 13.2A10 10 0 0 0 11.968 2Zm2 2.26a8 8 0 0 1 5.74 5.74 9.78 9.78 0 0 0-4.74 1.38 15.705 15.705 0 0 0-2.4-2.21 10.06 10.06 0 0 0 1.4-4.91Zm-2-.26a7.9 7.9 0 0 1-1.14 4.07c-.15-.08-.29-.17-.44-.24a15.52 15.52 0 0 0-4.09-1.47A8 8 0 0 1 11.968 4Zm-7 4.16a13.75 13.75 0 0 1 4.49 1.44l.13.08A7.93 7.93 0 0 1 3.968 12a8 8 0 0 1 1-3.84Zm5 11.58A8 8 0 0 1 4.228 14a9.9 9.9 0 0 0 7.08-3.21 14.006 14.006 0 0 1 2 1.8 10 10 0 0 0-3.34 7.15Zm2 .26a7.998 7.998 0 0 1 2.56-5.85c.06.08.12.15.17.23a14 14 0 0 1 1.84 4.18 7.93 7.93 0 0 1-4.57 1.44Zm6.21-3a16.001 16.001 0 0 0-1.8-3.75l-.21-.25a7.93 7.93 0 0 1 3.8-1 8 8 0 0 1-1.79 5Z" fill="#E92B37"/></svg>