<svg width="64" height="40" viewBox="0 0 64 40" fill="none" xmlns="http://www.w3.org/2000/svg"><path opacity=".2" d="M58 22c4 0 5.5-1.1 5.6-1.2.3-.2.4-.5.4-.8V6c0-.4-.2-.7-.6-.9-.3-.2-.8-.1-1.1.1 0 0-1.2.8-4.4.8-1.7 0-3.2-.5-4.7-1S50 4 48 4c-4 0-5.5 1.1-5.6 1.2-.3.2-.4.5-.4.8v14c0 .4.2.7.6.9.3.2.7.1 1-.1.1 0 1.2-.8 4.4-.8 1.7 0 3.2.5 4.7 1 1.6.5 3.3 1 5.3 1Zm4-2.6c-.6.2-1.8.6-4 .6-1.7 0-3.2-.5-4.7-1-1.6-.5-3.3-1-5.3-1-1.8 0-3.1.2-4 .5V6.6c.6-.2 1.8-.6 4-.6 1.7 0 3.2.5 4.7 1 1.6.5 3.3 1 5.3 1 1.8 0 3.1-.2 4-.5v11.9Z" fill="#242429"/><path d="M43 18s1.3-1 5-1 6.3 2 10 2 5-1 5-1V4s-1.3 1-5 1-6.3-2-10-2-5 1-5 1v14Z" fill="#fff"/><path d="M42.4 3.2C42.5 3.1 44 2 48 2c2 0 3.7.5 5.3 1 1.5.5 3 1 4.7 1 3.2 0 4.4-.8 4.4-.8.3-.2.7-.3 1.1-.1.3.2.5.5.5.9v14c0 .3-.1.6-.4.8-.1.1-1.6 1.2-5.6 1.2-2 0-3.7-.5-5.3-1-1.5-.5-3-1-4.7-1-2.2 0-3.4.4-4 .6V26c0 .6-.4 1-1 1s-1-.4-1-1V4c0-.3.1-.6.4-.8ZM48 16c2 0 3.7.5 5.3 1 1.5.5 3 1 4.7 1 2.2 0 3.4-.4 4-.6V5.5c-.9.3-2.2.5-4 .5-2 0-3.7-.5-5.3-1-1.5-.5-3-1-4.7-1-2.2 0-3.4.4-4 .6v11.9c.9-.3 2.2-.5 4-.5Z" fill="#242429"/><path d="M11 35a4 4 0 1 0 0-8 4 4 0 0 0 0 8Z" fill="#fff"/><path d="M11 36c-2.8 0-5-2.2-5-5s2.2-5 5-5 5 2.2 5 5-2.2 5-5 5Zm0-8c-1.7 0-3 1.3-3 3s1.3 3 3 3 3-1.3 3-3-1.3-3-3-3Z" fill="#E92B37"/><path d="M27 35a4 4 0 1 0 0-8 4 4 0 0 0 0 8Z" fill="#fff"/><path d="M27 36c-2.8 0-5-2.2-5-5s2.2-5 5-5 5 2.2 5 5-2.2 5-5 5Zm0-8c-1.7 0-3 1.3-3 3s1.3 3 3 3 3-1.3 3-3-1.3-3-3-3Z" fill="#E92B37"/><path d="M43 35a4 4 0 1 0 0-8 4 4 0 0 0 0 8Z" fill="#fff"/><path d="M43 36c-2.8 0-5-2.2-5-5s2.2-5 5-5 5 2.2 5 5-2.2 5-5 5Zm0-8c-1.7 0-3 1.3-3 3s1.3 3 3 3 3-1.3 3-3-1.3-3-3-3Z" fill="#242429"/><path opacity=".1" d="M11.6 35.9c-.2.1-.4.1-.6.1-.2 0-.4 0-.6-.1-2.1-.3-3.9-1.9-4.3-3.9-.1.3-.1.7-.1 1 0 2.8 2.2 5 5 5s5-2.2 5-5c0-.3 0-.7-.1-1-.4 2.1-2.2 3.7-4.3 3.9Zm16 0c-.2.1-.4.1-.6.1-.2 0-.4 0-.6-.1-2.1-.3-3.9-1.9-4.3-3.9-.1.3-.1.7-.1 1 0 2.8 2.2 5 5 5s5-2.2 5-5c0-.3 0-.7-.1-1-.4 2.1-2.2 3.7-4.3 3.9Z" fill="#E92B37"/><path opacity=".1" d="M43.6 35.9c-.2.1-.4.1-.6.1-.2 0-.4 0-.6-.1-2.1-.3-3.9-1.9-4.3-3.9-.1.3-.1.7-.1 1 0 2.8 2.2 5 5 5s5-2.2 5-5c0-.3 0-.7-.1-1-.4 2.1-2.2 3.7-4.3 3.9Z" fill="#242429"/><path opacity=".4" d="M18 30h2c.6 0 1 .4 1 1s-.4 1-1 1h-2c-.6 0-1-.4-1-1s.4-1 1-1ZM2 30h2c.6 0 1 .4 1 1s-.4 1-1 1H2c-.6 0-1-.4-1-1s.4-1 1-1Zm32 0h2c.6 0 1 .4 1 1s-.4 1-1 1h-2c-.6 0-1-.4-1-1s.4-1 1-1Z" fill="#E92B37"/><path opacity=".4" d="M51 30h2c.6 0 1 .4 1 1s-.4 1-1 1h-2c-.6 0-1-.4-1-1s.4-1 1-1Z" fill="#242429"/></svg>