<svg width="32" height="32" viewBox="0 0 32 32" fill="none" xmlns="http://www.w3.org/2000/svg"><path opacity=".1" fill-rule="evenodd" clip-rule="evenodd" d="M6 15c0-4.883 4.385-9 10-9s10 4.117 10 9v3h-4a1 1 0 0 0-1 1v8a1 1 0 0 0 1 1h2c.729 0 1.412-.195 2-.535V28a2 2 0 0 1-2 2h-7a1 1 0 1 0 0 2h7a4 4 0 0 0 4-4V15c0-6.163-5.464-11-12-11S4 8.837 4 15h.034a.99.99 0 0 0-.02.197v3.634A.94.94 0 0 0 4 19v5a4 4 0 0 0 4 4h2a1 1 0 0 0 1-1v-8a1 1 0 0 0-1-1H6.014v-2.803a.99.99 0 0 0-.02-.197H6Zm20 9v-4h-3v6h1a2 2 0 0 0 2-2ZM6 20v4a2 2 0 0 0 2 2h1v-6H6Z" fill="#E92B37"/><path d="M5 17h5v8H8a3 3 0 0 1-3-3v-5Zm22 0h-5v8h2a3 3 0 0 0 3-3v-5Z" fill="#fff"/><path fill-rule="evenodd" clip-rule="evenodd" d="M6 13c0-4.883 4.385-9 10-9s10 4.117 10 9v3h-4a1 1 0 0 0-1 1v8a1 1 0 0 0 1 1h2c.729 0 1.412-.195 2-.535V26a2 2 0 0 1-2 2h-7a1 1 0 1 0 0 2h7a4 4 0 0 0 4-4V13c0-6.163-5.464-11-12-11S4 6.837 4 13h.034a.99.99 0 0 0-.02.197v3.634A.94.94 0 0 0 4 17v5a4 4 0 0 0 4 4h2a1 1 0 0 0 1-1v-8a1 1 0 0 0-1-1H6.014v-2.803a.99.99 0 0 0-.02-.197H6Zm20 9v-4h-3v6h1a2 2 0 0 0 2-2ZM6 18v4a2 2 0 0 0 2 2h1v-6H6Z" fill="#E92B37"/></svg>