<svg width="22" height="22" viewBox="0 0 22 22" fill="none" xmlns="http://www.w3.org/2000/svg"><path d="M11.4 13.9c-1.9 0-3.8.1-5.8 0-1.9 0-3.4-1.4-3.6-3.3-.1-1.4.6-2.8 1.8-3.4.9-.5 2-.7 3-.5.1 0 .2 0 .2-.1.6-1.9 2.2-3.3 4.1-3.5 2.8-.4 5.4 1.3 6 3.9.1.2.1.5.1.7 0 .1.1.2.2.3.8.1 1.4.6 1.9 1.1 1 1.2.9 3.1-.3 4.1-.2.2-.5.3-.7.4-.5.2-1 .4-1.5.4-1.8-.1-3.6-.1-5.4-.1Z" fill="#9FB8F7"/><path d="m10.2 16.4.8-.4c.8-.4 1.5.7.7 1.1l-.8.4.8.4c.8.4.1 1.5-.7 1.1l-.8-.4v.8c-.1.4-.4.7-.8.6-.3 0-.6-.3-.6-.6v-.8L8 19c-.8.4-1.5-.7-.7-1.1l.8-.4-.8-.4c-.6-.4-.1-1.5.7-1.1l.8.4v-.8c.1-.4.4-.7.8-.6.3 0 .6.3.6.6v.8Z" fill="#7296F0"/></svg>