<svg width="22" height="22" viewBox="0 0 22 22" fill="none" xmlns="http://www.w3.org/2000/svg"><path d="M11 7c2.2 0 4 1.8 4 4s-1.8 4-4 4-4-1.8-4-4 1.8-4 4-4Zm0-5c.6 0 1 .4 1 1v2c0 .6-.4 1-1 1s-1-.4-1-1V3c0-.6.4-1 1-1Zm0 14c.6 0 1 .4 1 1v2c0 .6-.4 1-1 1s-1-.4-1-1v-2c0-.6.4-1 1-1Zm6-6h2c.6 0 1 .4 1 1s-.4 1-1 1h-2c-.6 0-1-.4-1-1s.4-1 1-1ZM3 10h2c.6 0 1 .4 1 1s-.4 1-1 1H3c-.6 0-1-.4-1-1s.4-1 1-1Zm14.4-5.4c.4.4.4 1 0 1.4L16 7.5c-.4.4-1 .4-1.4 0-.4-.4-.4-1 0-1.4L16 4.6c.3-.4 1-.4 1.4 0Zm-9.9 9.9c.4.4.4 1 0 1.4l-1.4 1.4c-.4.4-1 .4-1.4 0-.4-.4-.4-1 0-1.4l1.4-1.4c.3-.4 1-.4 1.4 0Zm8.4 0 1.4 1.4c.4.4.4 1 0 1.4-.4.4-1 .4-1.4 0L14.5 16c-.4-.4-.4-1-.1-1.4.3-.4 1.1-.5 1.5-.1ZM6 4.6 7.4 6c.4.4.4 1 .1 1.4-.4.4-1 .4-1.4.1L6 7.4 4.6 6c-.4-.4-.4-1 0-1.4.4-.4 1.1-.4 1.4 0Z" fill="#F7BE33"/></svg>