<svg width="22" height="22" viewBox="0 0 22 22" fill="none" xmlns="http://www.w3.org/2000/svg"><path d="M14 14a3 3 0 1 0 0-6 3 3 0 0 0 0 6Zm0-11c.6 0 1 .4 1 1v2c0 .6-.4 1-1 1s-1-.4-1-1V4c0-.6.4-1 1-1Zm5 7h2c.6 0 1 .4 1 1s-.4 1-1 1h-2c-.6 0-1-.4-1-1s.4-1 1-1Zm0 4.6 1.4 1.4c.4.4.4 1 0 1.4-.4.4-1 .4-1.4 0L17.6 16c-.4-.4-.4-1 0-1.4.4-.4 1-.4 1.4 0ZM9 4.6 10.4 6c.4.4.4 1 0 1.4-.4.4-1 .4-1.4 0L7.6 6c-.4-.4-.4-1 0-1.4.4-.4 1-.4 1.4 0Zm10 0L17.6 6c-.4.4-.4 1 0 1.4.4.4 1 .4 1.4 0L20.4 6c.4-.4.4-1 0-1.4-.3-.4-1-.4-1.4 0Z" fill="#F7BE33"/><path d="M8.3 19c-1.7 0-3.4.1-5 0-1.7-.1-3-1.3-3.2-3-.1-1.3.5-2.5 1.6-3.1.8-.5 1.8-.7 2.7-.5.1 0 .2 0 .2-.1.4-1.7 1.9-3 3.6-3.2 2.4-.4 4.6 1.2 5.2 3.6.1.2.1.4.1.6 0 .1.1.2.2.2.7.1 1.3.5 1.7 1 .9 1.1.8 2.8-.4 3.8-.2.1-.4.3-.6.4-.4.2-.8.3-1.3.3H8.3Z" fill="#9FB8F7"/></svg>