<svg width="48" height="48" viewBox="0 0 48 48" fill="none" xmlns="http://www.w3.org/2000/svg"><path opacity=".1" d="M9 8h20c1.7 0 3 1.3 3 3v28c0 1.7-1.3 3-3 3H9c-1.7 0-3-1.3-3-3V11c0-1.7 1.3-3 3-3Z" fill="#FA6069"/><path d="M9 7h20c1.1 0 2 .9 2 2v28c0 1.1-.9 2-2 2H9c-1.1 0-2-.9-2-2V9c0-1.1.9-2 2-2Z" fill="#FFF5F6"/><path d="M29 40H9c-1.7 0-3-1.3-3-3V9c0-1.7 1.3-3 3-3h20c1.7 0 3 1.3 3 3v28c0 1.7-1.3 3-3 3ZM9 8c-.6 0-1 .4-1 1v28c0 .6.4 1 1 1h20c.6 0 1-.4 1-1V9c0-.6-.4-1-1-1H9Z" fill="#FA6069"/><path opacity=".5" d="M14 8h-2v30h2V8Z" fill="#FA6069"/><path opacity=".1" d="M13 19h30c1.7 0 3 1.3 3 3v12c0 1.7-1.3 3-3 3H13c-1.7 0-3-1.3-3-3V22c0-1.7 1.3-3 3-3Z" fill="#FA6069"/><path d="M13 18h30c1.1 0 2 .9 2 2v12c0 1.1-.9 2-2 2H13c-1.1 0-2-.9-2-2V20c0-1.1.9-2 2-2Z" fill="#fff"/><path d="M43 35H13c-1.7 0-3-1.3-3-3V20c0-1.7 1.3-3 3-3h30c1.7 0 3 1.3 3 3v12c0 1.7-1.3 3-3 3ZM13 19c-.6 0-1 .4-1 1v12c0 .6.4 1 1 1h30c.6 0 1-.4 1-1V20c0-.6-.4-1-1-1H13Z" fill="#FA6069"/><path opacity=".6" d="M17 23h12c.6 0 1 .4 1 1s-.4 1-1 1H17c-.6 0-1-.4-1-1s.4-1 1-1Zm0 4h12c.6 0 1 .4 1 1s-.4 1-1 1H17c-.6 0-1-.4-1-1s.4-1 1-1Z" fill="#FA6069"/><path opacity=".4" d="M39 18c-.6 0-1 .4-1 1v2c0 .6.4 1 1 1s1-.4 1-1v-2c0-.6-.4-1-1-1Zm-1 7c0-.6.4-1 1-1s1 .4 1 1v2c0 .6-.4 1-1 1s-1-.4-1-1v-2Zm0 6c0-.6.4-1 1-1s1 .4 1 1v2c0 .6-.4 1-1 1s-1-.4-1-1v-2Z" fill="#FA6069"/><path opacity=".2" d="M41.948 18.621c-.139-.575-.695-1.007-1.25-1.007l-5.695-.575-2.223-5.176c-.278-.575-.694-.863-1.25-.863s-1.111.288-1.25.863l-2.223 5.176-5.695.432c-.556 0-.972.431-1.25 1.006s0 1.15.417 1.582l4.306 3.738-1.25 5.465c-.14.575.138 1.15.555 1.438.417.287 1.111.43 1.528.143l4.862-3.02 4.862 3.02c.277.144.416.144.694.144.278 0 .556-.144.834-.287.416-.288.694-.863.555-1.438l-1.25-5.465 4.306-3.738c.417-.288.556-.863.417-1.438Z" fill="#242429"/><path d="m31.574 24.4 5.891 3.6-1.62-6.6L41 16.9l-6.922-.6-2.504-6.3-2.652 6.3-6.922.6 5.155 4.5-1.473 6.6 5.892-3.6Z" fill="#fff"/><path d="m31.997 24.937-.527-.327-.527.327-4.861 3.013-.02.013-.02.013s-.012.008-.04.015a.305.305 0 0 1-.093.008c-.07-.004-.1-.028-.11-.038l-.07-.072-.081-.056a.395.395 0 0 1-.13-.17.331.331 0 0 1-.021-.206l.003-.012 1.25-5.452.134-.586-.454-.393-4.266-3.696a.657.657 0 0 1-.14-.622.33.33 0 0 1 .119-.17.286.286 0 0 1 .16-.07h.037l.038-.002 5.695-.43.604-.046.239-.557 2.213-5.142c.079-.158.147-.218.179-.24.025-.018.066-.039.162-.039.114 0 .2.031.245.06.02.012.027.02.028.022 0 .001.003.004.005.014l.02.082.034.078 2.222 5.165.24.557.603.045 5.696.43.037.003h.038c.006 0 .01.001.015.003a.24.24 0 0 1 .062.042c.073.063.172.188.273.396.01.022.012.033.012.038 0 .007 0 .027-.011.062a.935.935 0 0 1-.21.318l-4.268 3.699-.455.393.135.586 1.25 5.452.003.012c.014.06.01.13-.022.206a.418.418 0 0 1-.098.145 2.677 2.677 0 0 1-.242.113.504.504 0 0 1-.068.023 3.411 3.411 0 0 1-.161-.004.4.4 0 0 1-.033-.014l-4.823-2.989Z" stroke="#242429" stroke-width="2"/></svg>