<svg width="48" height="48" viewBox="0 0 48 48" fill="none" xmlns="http://www.w3.org/2000/svg"><g opacity=".1"><path d="M7 6h28c1.1 0 2 .9 2 2v26c0 1.1-.9 2-2 2H7c-1.1 0-2-.9-2-2V8c0-1.1.9-2 2-2Z" fill="#fff"/><path d="M35 37H7c-1.7 0-3-1.3-3-3V8c0-1.7 1.3-3 3-3h28c1.7 0 3 1.3 3 3v26c0 1.7-1.3 3-3 3ZM7 7c-.6 0-1 .4-1 1v26c0 .6.4 1 1 1h28c.6 0 1-.4 1-1V8c0-.6-.4-1-1-1H7Z" fill="#FA6069"/></g><g opacity=".6"><path d="M7 4h28c1.1 0 2 .9 2 2v26c0 1.1-.9 2-2 2H7c-1.1 0-2-.9-2-2V6c0-1.1.9-2 2-2Z" fill="#fff"/><path d="M35 35H7c-1.7 0-3-1.3-3-3V6c0-1.7 1.3-3 3-3h28c1.7 0 3 1.3 3 3v26c0 1.7-1.3 3-3 3ZM7 5c-.6 0-1 .4-1 1v26c0 .6.4 1 1 1h28c.6 0 1-.4 1-1V6c0-.6-.4-1-1-1H7Z" fill="#FA6069"/><path d="M36 9H6V5h30v4Z" fill="#FFF9FA"/></g><path opacity=".4" d="M8 8a1 1 0 1 0 0-2 1 1 0 0 0 0 2Zm3 0a1 1 0 1 0 0-2 1 1 0 0 0 0 2Zm25 1H6v2h30V9Z" fill="#FA6069"/><g opacity=".1"><path d="M13 12h28c1.1 0 2 .9 2 2v26c0 1.1-.9 2-2 2H13c-1.1 0-2-.9-2-2V14c0-1.1.9-2 2-2Z" fill="#fff"/><path d="M41 43H13c-1.7 0-3-1.3-3-3V14c0-1.7 1.3-3 3-3h28c1.7 0 3 1.3 3 3v26c0 1.7-1.3 3-3 3ZM13 13c-.6 0-1 .4-1 1v26c0 .6.4 1 1 1h28c.6 0 1-.4 1-1V14c0-.6-.4-1-1-1H13Z" fill="#FA6069"/></g><path d="M13 10h28c1.1 0 2 .9 2 2v26c0 1.1-.9 2-2 2H13c-1.1 0-2-.9-2-2V12c0-1.1.9-2 2-2Z" fill="#fff"/><path d="M41 41H13c-1.7 0-3-1.3-3-3V12c0-1.7 1.3-3 3-3h28c1.7 0 3 1.3 3 3v26c0 1.7-1.3 3-3 3ZM13 11c-.6 0-1 .4-1 1v26c0 .6.4 1 1 1h28c.6 0 1-.4 1-1V12c0-.6-.4-1-1-1H13Z" fill="#FA6069"/><path opacity=".4" d="M40 19H14v12h26V19Z" fill="#FA6069"/><path opacity=".6" d="M15 34h8c.6 0 1 .4 1 1s-.4 1-1 1h-8c-.6 0-1-.4-1-1s.4-1 1-1Z" fill="#FA6069"/><path opacity=".8" d="M42 15H12v2h30v-2Z" fill="#FA6069"/><path d="M42 15H12v-4h30v4Z" fill="#FFF9FA"/><path opacity=".7" d="M14 14a1 1 0 1 0 0-2 1 1 0 0 0 0 2Zm3 0a1 1 0 1 0 0-2 1 1 0 0 0 0 2Z" fill="#FA6069"/><path opacity=".2" d="M47.9 34.2c0-.1 0-.1 0 0-.1-.2-.1-.3-.2-.3l-.2-.2-10-5.5c-.3-.2-.7-.2-1 0l-10 5.5c-.3.1-.5.4-.5.8s.2.7.5.9l2.5 1.4V43c0 1.7 1.3 3 3 3h10c1.7 0 3-1.3 3-3v-6.2l1-.6V40c0 .6.4 1 1 1s1-.4 1-1v-5.5c0-.1 0-.2-.1-.3Z" fill="#242429"/><path d="M47.9 32.2c0-.1 0-.1 0 0-.1-.2-.1-.3-.2-.3l-.2-.2-10-5.5c-.3-.2-.7-.2-1 0l-10 5.5c-.3.1-.5.4-.5.8s.2.7.5.9l2.5 1.4V41c0 1.7 1.3 3 3 3h10c1.7 0 3-1.3 3-3v-6.2l1-.6V38c0 .6.4 1 1 1s1-.4 1-1v-5.5c0-.1 0-.2-.1-.3Z" fill="#fff"/><path d="M47.9 32.2c0-.1 0-.1 0 0-.1-.2-.1-.3-.2-.3l-.2-.2-10-5.5c-.3-.2-.7-.2-1 0l-10 5.5c-.3.1-.5.4-.5.8s.2.7.5.9l2.5 1.4V41c0 1.7 1.3 3 3 3h10c1.7 0 3-1.3 3-3v-6.2l1-.6V38c0 .6.4 1 1 1s1-.4 1-1v-5.5c0-.1 0-.2-.1-.3ZM37 28.1l7.9 4.4-7.9 4.4-7.9-4.4 7.9-4.4ZM43 41c0 .6-.4 1-1 1H32c-.6 0-1-.4-1-1v-5.2l5.5 3c.2.2.3.2.5.2s.3 0 .5-.1l5.5-3V41Z" fill="#242429"/></svg>