<svg width="48" height="48" viewBox="0 0 48 48" fill="none" xmlns="http://www.w3.org/2000/svg"><circle opacity=".1" cx="23" cy="25" r="20" fill="#FA6069"/><circle cx="23" cy="22" r="19" fill="#fff" stroke="#FA6069" stroke-width="2"/><circle cx="23" cy="22" r="16" fill="#FFF5F6"/><circle cx="23" cy="22" r="15" stroke="#FA6069" stroke-opacity=".5" stroke-width="2"/><circle cx="23" cy="17" r="4" fill="#fff" stroke="#FA6069" stroke-width="2"/><path d="M16 29c.725-2.863 3.584-5 7-5s6.275 2.137 7 5" stroke="#FA6069" stroke-width="2" stroke-linecap="round"/><path opacity=".2" d="m42.87 43-3.71-5.68A7 7 0 1 0 26 34a6.899 6.899 0 0 0 .84 3.32L23.13 43a.999.999 0 0 0 .87 1.5h2.87l1.46 2.46a1 1 0 0 0 .18.22 1 1 0 0 0 .69.28h.14a1 1 0 0 0 .73-.49L33 42.65 35.93 47a.999.999 0 0 0 .73.48h.14a1 1 0 0 0 .7-.28.872.872 0 0 0 .17-.21l1.46-2.46H42a1 1 0 0 0 .87-.5 1 1 0 0 0 0-1.03Z" fill="#242429"/><path d="m42.87 41-3.71-5.68A7 7 0 1 0 26 32a6.899 6.899 0 0 0 .84 3.32L23.13 41a.999.999 0 0 0 .87 1.5h2.87l1.46 2.46a1 1 0 0 0 .18.22 1 1 0 0 0 .69.28h.14a1 1 0 0 0 .73-.49L33 40.65 35.93 45a.999.999 0 0 0 .73.48h.14a1 1 0 0 0 .7-.28.872.872 0 0 0 .17-.21l1.46-2.46H42a1 1 0 0 0 .87-.5 1 1 0 0 0 0-1.03Z" fill="#fff"/><path d="m42.874 41-3.71-5.68A7 7 0 1 0 26.004 32a6.899 6.899 0 0 0 .84 3.32L23.134 41a.999.999 0 0 0 .87 1.5h2.87l1.46 2.46a1 1 0 0 0 .18.22 1 1 0 0 0 .69.28h.14a1 1 0 0 0 .73-.49l2.93-4.32 2.93 4.35a.999.999 0 0 0 .73.48h.14a1 1 0 0 0 .7-.28.872.872 0 0 0 .17-.21l1.46-2.46h2.87a1 1 0 0 0 .87-.5 1 1 0 0 0 0-1.03Zm-13.68 1.53-.89-1.49a1 1 0 0 0-.85-.49h-1.73l2.43-3.48a7 7 0 0 0 3.57 1.84l-2.53 3.62Zm3.81-5.53a5 5 0 1 1 0-10 5 5 0 0 1 0 10Zm5.55 3.55a1 1 0 0 0-.85.49l-.89 1.49-2.52-3.65a7.06 7.06 0 0 0 3.56-1.84l2.43 3.48-1.73.03Z" fill="#242429"/></svg>