<svg width="48" height="48" viewBox="0 0 48 48" fill="none" xmlns="http://www.w3.org/2000/svg"><path opacity=".1" d="M38 19.94a1.306 1.306 0 0 0-.06-.27v-.09a1.071 1.071 0 0 0-.19-.28l-10-10a1.071 1.071 0 0 0-.28-.19h-.09a.88.88 0 0 0-.33-.11H13a3 3 0 0 0-3 3v28a3 3 0 0 0 3 3h22a3 3 0 0 0 3-3V19.94Zm-10-7.53L34.59 19H29a1 1 0 0 1-1-1v-5.59ZM36 40a1 1 0 0 1-1 1H13a1 1 0 0 1-1-1V12a1 1 0 0 1 1-1h13v7a3 3 0 0 0 3 3h7v19Z" fill="#FA6069"/><path d="M38 17.94a1.306 1.306 0 0 0-.06-.27v-.09a1.071 1.071 0 0 0-.19-.28l-10-10a1.071 1.071 0 0 0-.28-.19h-.09a.88.88 0 0 0-.33-.11H13a3 3 0 0 0-3 3v28a3 3 0 0 0 3 3h22a3 3 0 0 0 3-3V17.94Z" fill="#fff"/><path d="M28 10.41 34.59 17H29a1 1 0 0 1-1-1v-5.59Z" fill="#FFF5F6"/><path d="M38 17.94a1.306 1.306 0 0 0-.06-.27v-.09a1.071 1.071 0 0 0-.19-.28l-10-10a1.071 1.071 0 0 0-.28-.19h-.09a.88.88 0 0 0-.33-.11H13a3 3 0 0 0-3 3v28a3 3 0 0 0 3 3h22a3 3 0 0 0 3-3V17.94Zm-10-7.53L34.59 17H29a1 1 0 0 1-1-1v-5.59ZM36 38a1 1 0 0 1-1 1H13a1 1 0 0 1-1-1V10a1 1 0 0 1 1-1h13v7a3 3 0 0 0 3 3h7v19Z" fill="#FA6069"/><path opacity=".6" d="M16 22h12c.6 0 1 .4 1 1s-.4 1-1 1H16c-.6 0-1-.4-1-1s.4-1 1-1Zm0 4h12c.6 0 1 .4 1 1s-.4 1-1 1H16c-.6 0-1-.4-1-1s.4-1 1-1Zm0 4h12c.6 0 1 .4 1 1s-.4 1-1 1H16c-.6 0-1-.4-1-1s.4-1 1-1Zm0 4h4c.6 0 1 .4 1 1s-.4 1-1 1h-4c-.6 0-1-.4-1-1s.4-1 1-1Z" fill="#FA6069"/><path d="M45.302 33.08a3.001 3.001 0 0 0-2.3-1.08h-4.56l.56-1.43A4.128 4.128 0 0 0 35.11 25a1 1 0 0 0-.91.59L31.35 32H29a3 3 0 0 0-3 3v7a3 3 0 0 0 3 3h12.731a3 3 0 0 0 2.95-2.46l1.27-7a3 3 0 0 0-.65-2.46ZM31 43h-2a1 1 0 0 1-1-1v-7a1 1 0 0 1 1-1h2v9Zm13.002-7.82-1.27 7a1 1 0 0 1-1 .82H33v-9.79l2.72-6.12a2.11 2.11 0 0 1 1.38 2.78l-.53 1.43a2 2 0 0 0 1.87 2.7H43a1.001 1.001 0 0 1 .77.36.999.999 0 0 1 .23.82Z" fill="#242429" fill-opacity=".2"/><path d="M45.302 31.08a3.001 3.001 0 0 0-2.3-1.08h-4.56l.56-1.43A4.128 4.128 0 0 0 35.11 23a1 1 0 0 0-.91.59L31.35 30H29a3 3 0 0 0-3 3v7a3 3 0 0 0 3 3h12.731a3 3 0 0 0 2.95-2.46l1.27-7a2.998 2.998 0 0 0-.65-2.46Z" fill="#fff"/><path d="M45.302 31.08a3.001 3.001 0 0 0-2.3-1.08h-4.56l.56-1.43A4.128 4.128 0 0 0 35.11 23a1 1 0 0 0-.91.59L31.35 30H29a3 3 0 0 0-3 3v7a3 3 0 0 0 3 3h12.731a3 3 0 0 0 2.95-2.46l1.27-7a3 3 0 0 0-.65-2.46ZM31 41h-2a1 1 0 0 1-1-1v-7a1 1 0 0 1 1-1h2v9Zm13.002-7.82-1.27 7a1 1 0 0 1-1 .82H33v-9.79l2.72-6.12a2.11 2.11 0 0 1 1.38 2.78l-.53 1.43a2 2 0 0 0 1.87 2.7H43a1.001 1.001 0 0 1 .77.36.999.999 0 0 1 .23.82Z" fill="#242429"/></svg>