<svg width="48" height="48" viewBox="0 0 48 48" fill="none" xmlns="http://www.w3.org/2000/svg"><path opacity=".1" d="M26.024 10a16.956 16.956 0 0 0-12.004 4.979 17.01 17.01 0 0 0-4.972 12.02 16.827 16.827 0 0 0 3.836 10.76l-3.395 3.4a1.7 1.7 0 0 0-.356 1.854 1.7 1.7 0 0 0 1.613.986h15.278c4.502 0 8.82-1.791 12.004-4.98A17.01 17.01 0 0 0 43 27a17.01 17.01 0 0 0-4.972-12.02A16.964 16.964 0 0 0 26.024 10Z" fill="#FA6069"/><path d="M10.048 25.003v-.004c0-4.243 1.683-8.313 4.68-11.313A15.975 15.975 0 0 1 26.024 9c4.237 0 8.3 1.685 11.296 4.686a16.01 16.01 0 0 1 0 22.627c-2.996 3-7.06 4.686-11.296 4.686H10.703a.696.696 0 0 1-.655-.39.702.702 0 0 1 .152-.746l.002-.002 3.39-3.395.641-.642-.577-.7a15.827 15.827 0 0 1-3.608-10.121Z" fill="#fff" stroke="#FA6069" stroke-width="2"/><path opacity=".7" fill-rule="evenodd" clip-rule="evenodd" d="M19 20h14c.6 0 1 .4 1 1s-.4 1-1 1H19c-.6 0-1-.4-1-1s.4-1 1-1Zm0 4h14c.6 0 1 .4 1 1s-.4 1-1 1H19c-.6 0-1-.4-1-1s.4-1 1-1Zm6 4h-6c-.6 0-1 .4-1 1s.4 1 1 1h6c.6 0 1-.4 1-1s-.4-1-1-1Z" fill="#FA6069"/><path opacity=".2" d="M11 25c-4.398 0-8-3.602-8-8s3.602-8 8-8 8 3.602 8 8-3.602 8-8 8Z" fill="#fff" stroke="#FA6069" stroke-width="2"/><path d="M11 23c-4.398 0-8-3.602-8-8s3.602-8 8-8 8 3.602 8 8-3.602 8-8 8Z" fill="#fff" stroke="#FA6069" stroke-width="2"/><path fill-rule="evenodd" clip-rule="evenodd" d="M9.536 10.401A3 3 0 0 1 11.037 10a3 3 0 0 1 1 5.82V16a1 1 0 1 1-2 0v-1a1 1 0 0 1 1-1 1 1 0 1 0-.502-1.867 1 1 0 0 0-.368.367 1 1 0 1 1-1.73-1 3.001 3.001 0 0 1 1.1-1.099ZM11.001 20a1 1 0 1 0 0-2 1 1 0 0 0 0 2Z" fill="#FA6069"/><path opacity=".2" d="M45.631 30.401a4.78 4.78 0 0 1 1.012 1.55 4.891 4.891 0 0 1 0 3.67 4.784 4.784 0 0 1-1.011 1.549l-6.626 6.78-6.625-6.78-.002-.003a4.836 4.836 0 0 1-1.375-3.207 4.857 4.857 0 0 1 1.127-3.31 4.602 4.602 0 0 1 3.001-1.621 4.545 4.545 0 0 1 3.269.907 1 1 0 0 0 1.208.002 4.548 4.548 0 0 1 3.093-.914 4.585 4.585 0 0 1 2.93 1.377Z" fill="#fff" stroke="#242429" stroke-width="2" stroke-linejoin="round"/><path d="M45.631 28.401a4.78 4.78 0 0 1 1.012 1.55 4.891 4.891 0 0 1 0 3.67 4.784 4.784 0 0 1-1.011 1.549l-6.626 6.78-6.625-6.78-.002-.003a4.836 4.836 0 0 1-1.375-3.207 4.857 4.857 0 0 1 1.127-3.31 4.602 4.602 0 0 1 3.001-1.621 4.545 4.545 0 0 1 3.269.907 1 1 0 0 0 1.208.002 4.548 4.548 0 0 1 3.093-.914 4.585 4.585 0 0 1 2.93 1.377Z" fill="#fff" stroke="#242429" stroke-width="2" stroke-linejoin="round"/></svg>