<svg width="48" height="48" viewBox="0 0 48 48" fill="none" xmlns="http://www.w3.org/2000/svg"><path opacity=".1" d="M32 17h-2V9c0-1.1-.9-2-2-2H18c-1.1 0-2 .9-2 2v8h-2c-1.7 0-3 1.3-3 3v20c0 1.7 1.3 3 3 3h1v1c0 .6.4 1 1 1s1-.4 1-1v-1h12v1c0 .6.4 1 1 1s1-.4 1-1v-1h1c1.7 0 3-1.3 3-3V20c0-1.7-1.3-3-3-3ZM18 9h10v1H18V9Zm0 3h10v5H18v-5Z" fill="#FA6069"/><path d="M14 16h18c1.1 0 2 .9 2 2v20c0 1.1-.9 2-2 2H14c-1.1 0-2-.9-2-2V18c0-1.1.9-2 2-2Z" fill="#FFF5F6"/><path d="M32 15h-2V7c0-1.1-.9-2-2-2H18c-1.1 0-2 .9-2 2v8h-2c-1.7 0-3 1.3-3 3v20c0 1.7 1.3 3 3 3h1v1c0 .6.4 1 1 1s1-.4 1-1v-1h12v1c0 .6.4 1 1 1s1-.4 1-1v-1h1c1.7 0 3-1.3 3-3V18c0-1.7-1.3-3-3-3ZM18 7h10v1H18V7Zm0 3h10v5H18v-5Zm15 28c0 .6-.4 1-1 1H14c-.6 0-1-.4-1-1V18c0-.6.4-1 1-1h18c.6 0 1 .4 1 1v20Z" fill="#FA6069"/><path opacity=".5" d="M21 20h4c.6 0 1 .4 1 1v2c0 .6-.4 1-1 1h-4c-.6 0-1-.4-1-1v-2c0-.6.4-1 1-1Z" fill="#FA6069"/><path opacity=".7" d="M15 39V17c0-.6.4-1 1-1s1 .4 1 1v22c0 .6-.4 1-1 1s-1-.4-1-1Zm14 0V17c0-.6.4-1 1-1s1 .4 1 1v22c0 .6-.4 1-1 1s-1-.4-1-1Z" fill="#FA6069"/><path opacity=".2" d="M35.8 36.1c-.6.6-1.4.8-2.1.8-.8 0-1.5-.3-2.1-.8L28 32.6c-.6-.6-.9-1.3-.9-2.1s.3-1.6.9-2.1c1.2-1.1 3.1-1.1 4.2 0l1.5 1.5 5-4.8H28c-1.7 0-3 1.3-3 3v12c0 1.7 1.3 3 3 3h12c1.7 0 3-1.3 3-3V29.2l-7.2 6.9Z" fill="#242429"/><path d="M28 24h12c1.1 0 2 .9 2 2v12c0 1.1-.9 2-2 2H28c-1.1 0-2-.9-2-2V26c0-1.1.9-2 2-2Z" fill="#fff"/><path d="M41 31.1V38c0 .6-.4 1-1 1H28c-.6 0-1-.4-1-1V26c0-.6.4-1 1-1h10.6l2-1.9c-.2-.1-.4-.1-.6-.1H28c-1.7 0-3 1.3-3 3v12c0 1.7 1.3 3 3 3h12c1.7 0 3-1.3 3-3v-8.8l-2 1.9Z" fill="#242429"/><path d="M44 25c0-.3-.1-.5-.3-.7-.4-.4-1.1-.4-1.5 0l-7.9 7.6c-.4.4-1 .4-1.4 0l-2.2-2.1c-.2-.2-.5-.3-.7-.3-.2 0-.5.1-.7.3-.2.2-.3.4-.3.7 0 .3.1.5.3.7l3.6 3.5c.4.4 1.1.4 1.5 0l9.3-9c.2-.2.3-.4.3-.7Z" fill="#242429"/></svg>