<svg width="48" height="48" viewBox="0 0 48 48" fill="none" xmlns="http://www.w3.org/2000/svg"><g clip-path="url(#a)"><path opacity=".1" d="M35 41.995H9c-1.7 0-3-1.3-3-3v-24c0-1.7 1.3-3 3-3h26c1.7 0 3 1.3 3 3v24c0 1.6-1.3 3-3 3Zm-26-28c-.6 0-1 .4-1 1v24c0 .6.4 1 1 1h26c.6 0 1-.4 1-1v-24c0-.6-.4-1-1-1H9Z" fill="#FA6069"/><path d="M36 16.995H8v21h28v-21Z" fill="#fff"/><path d="M36 11.995H8v5h28v-5Z" fill="#FFF5F6"/><path d="M35 9.996h-6.6c1-.7 1.8-1.5 2.2-2.5.5-1.3.2-2.7-.9-3.8-1.2-1.2-2.7-1.6-4.2-1-1.7.7-3 2.5-3.8 4.5-.7-1.9-2.1-3.7-3.7-4.4-1.4-.6-2.9-.2-4.2 1-1.1 1.1-1.4 2.4-.9 3.8.4.9 1.2 1.8 2.2 2.5H9c-1.7 0-3 1.3-3 3V37c0 1.7 1.3 3 3 3h26c1.7 0 3-1.3 3-3V13.096c0-1.8-1.3-3.1-3-3.1Zm-8.7-5.4c.2 0 .4-.1.6-.1.4 0 .8.2 1.4.7.7.7.6 1.2.4 1.6-.6 1.4-3.1 2.8-5.6 3.1.4-2.3 1.8-4.7 3.2-5.3Zm-11.1.6c.5-.5 1-.7 1.4-.7.2 0 .4.1.6.1 1.4.6 2.9 3 3.2 5.3-2.5-.3-5-1.7-5.6-3.1-.2-.4-.3-.9.4-1.6ZM36 36.9c0 .6-.4 1.1-1 1.1H9c-.6 0-1-.4-1-1V12.996c0-.6.4-1 1-1h26c.6 0 1 .4 1 1V36.9Z" fill="#FA6069"/><path opacity=".7" d="M23 11.995h-2v28h2v-28Z" fill="#FA6069"/><path d="M36 16.995H8v2h28v-2Z" fill="#FA6069"/><path opacity=".3" d="M36 18.995H8v2h28v-2Z" fill="#FA6069"/><path opacity=".15" d="m47.798 33.395-5-6c-.2-.3-.5-.4-.8-.4h-10c-.3 0-.6.1-.8.4l-5 6c-.3.4-.3 1 .1 1.3l10 10c.2.2.5.3.7.3.2 0 .5-.1.7-.3l10-10c.4-.4.4-.9.1-1.3Z" fill="#242429"/><path d="m47.798 31.395-5-6c-.2-.3-.5-.4-.8-.4h-10c-.3 0-.6.1-.8.4l-5 6c-.3.4-.3 1 .1 1.3l10 10c.2.2.5.3.7.3.2 0 .5-.1.7-.3l10-10c.4-.4.4-.9.1-1.3Z" fill="#fff"/><path d="m47.798 31.395-5-6c-.2-.3-.5-.4-.8-.4h-10c-.3 0-.6.1-.8.4l-5 6c-.3.4-.3 1 .1 1.3l10 10c.2.2.5.3.7.3.2 0 .5-.1.7-.3l10-10c.4-.4.4-.9.1-1.3Zm-12.9-.4h-5.8l2.9-3.4 2.9 3.4Zm-.8-4h5.7l-2.8 3.4-2.9-3.4Zm7.9.6 2.9 3.4h-5.7l2.8-3.4Zm-5 13-7.6-7.6h15.2l-7.6 7.6Z" fill="#242429"/><path opacity=".2" d="M8 31.995c-4.4 0-8-3.6-8-8s3.6-8 8-8 8 3.6 8 8-3.6 8-8 8Z" fill="#FA6069"/><path d="M8 28.995a7 7 0 1 0 0-14 7 7 0 0 0 0 14Z" fill="#fff"/><path d="M8 29.995c-4.4 0-8-3.6-8-8s3.6-8 8-8 8 3.6 8 8-3.6 8-8 8Zm0-14c-3.3 0-6 2.7-6 6s2.7 6 6 6 6-2.7 6-6-2.7-6-6-6Z" fill="#FA6069"/><path d="M11 20.995H9v-2c0-.6-.4-1-1-1s-1 .4-1 1v2H5c-.6 0-1 .4-1 1s.4 1 1 1h2v2c0 .6.4 1 1 1s1-.4 1-1v-2h2c.6 0 1-.4 1-1s-.4-1-1-1Z" fill="#FA6069"/></g><defs><clipPath id="a"><path fill="#fff" d="M0 0h48v48H0z"/></clipPath></defs></svg>