<svg width="48" height="48" viewBox="0 0 48 48" fill="none" xmlns="http://www.w3.org/2000/svg">
<path opacity="0.2" d="M43 26C43 35.9411 34.9411 44 25 44C15.0589 44 7 35.9411 7 26C7 16.0589 15.0589 8 25 8C34.9411 8 43 16.0589 43 26Z" fill="white"/>
<path d="M43 24C43 33.9411 34.9411 42 25 42C15.0589 42 7 33.9411 7 24C7 14.0589 15.0589 6 25 6C34.9411 6 43 14.0589 43 24Z" fill="#E92B37"/>
<path opacity="0.6" fill-rule="evenodd" clip-rule="evenodd" d="M24 33V39.8002C22.8704 39.36 21.5863 38.1564 20.4249 35.8335C20.0022 34.9882 19.6213 34.038 19.2934 33H24ZM26 33V39.8002C27.1296 39.36 28.4137 38.1564 29.5751 35.8335C29.9978 34.9882 30.3787 34.038 30.7066 33H26ZM31.2466 31H26V25H31.9856C31.9233 27.1515 31.6617 29.175 31.2466 31ZM32.796 33C32.0561 35.558 31.0106 37.718 29.7592 39.2803C33.2444 38.1959 36.2186 35.9521 38.2306 33H32.796ZM39.3915 31H33.2941C33.6872 29.139 33.9283 27.1183 33.9863 25H40.9693C40.8372 27.1412 40.284 29.1685 39.3915 31ZM24 31H18.7534C18.3383 29.175 18.0767 27.1515 18.0144 25H24V31ZM16.7059 31C16.3128 29.139 16.0716 27.1183 16.0137 25H9.03074C9.16278 27.1412 9.71596 29.1685 10.6085 31H16.7059ZM11.7694 33C13.7814 35.9521 16.7556 38.1959 20.2408 39.2803C18.9894 37.718 17.9439 35.558 17.204 33H11.7694ZM31.9856 23H26V17H31.2466C31.6617 18.825 31.9233 20.8485 31.9856 23ZM26 8.19984V15H30.7066C30.3787 13.962 29.9978 13.0118 29.5751 12.1665C28.4137 9.84362 27.1296 8.64 26 8.19984ZM33.9863 23C33.9283 20.8817 33.6872 18.861 33.2941 17H39.3915C40.284 18.8315 40.8372 20.8588 40.9693 23H33.9863ZM32.796 15H38.2306C36.2186 12.0479 33.2444 9.80407 29.7592 8.71974C31.0106 10.282 32.0561 12.442 32.796 15ZM19.2934 15H24V8.19984C22.8704 8.64 21.5863 9.84362 20.4249 12.1665C20.0022 13.0118 19.6213 13.962 19.2934 15ZM24 17H18.7534C18.3383 18.825 18.0767 20.8485 18.0144 23H24V17ZM20.2408 8.71974C18.9894 10.282 17.9439 12.442 17.204 15H11.7694C13.7814 12.0479 16.7556 9.80407 20.2408 8.71974ZM16.7059 17H10.6085C9.71596 18.8315 9.16278 20.8588 9.03074 23H16.0137C16.0716 20.8817 16.3128 18.861 16.7059 17ZM25 6C34.9411 6 43 14.0589 43 24C43 33.9411 34.9411 42 25 42C15.0589 42 7 33.9411 7 24C7 14.0589 15.0589 6 25 6Z" fill="#FEDCC4"/>
<path fill-rule="evenodd" clip-rule="evenodd" d="M25 40C33.8366 40 41 32.8366 41 24C41 15.1634 33.8366 8 25 8C16.1634 8 9 15.1634 9 24C9 32.8366 16.1634 40 25 40ZM25 42C34.9411 42 43 33.9411 43 24C43 14.0589 34.9411 6 25 6C15.0589 6 7 14.0589 7 24C7 33.9411 15.0589 42 25 42Z" fill="#FEDCC4"/>
<path d="M46.0008 10.0842C46.0016 9.47445 45.8214 8.87814 45.4831 8.37086C45.1447 7.86358 44.6634 7.46816 44.1 7.23469C43.5367 7.00122 42.9168 6.94022 42.3188 7.05941C41.7207 7.17861 41.1716 7.47263 40.7408 7.90423L37.9308 10.7142L31.4408 8.55423C31.268 8.49992 31.0837 8.49356 30.9076 8.53583C30.7315 8.5781 30.5701 8.66741 30.4408 8.79423L28.0608 11.1542C27.948 11.2683 27.8644 11.4078 27.8168 11.561C27.7693 11.7143 27.7594 11.8767 27.7878 12.0345C27.8162 12.1924 27.8822 12.3411 27.9802 12.4681C28.0782 12.5951 28.2053 12.6967 28.3508 12.7642L33.5308 15.1142L30.9308 17.7142L29.2208 16.8542C29.0362 16.7543 28.8248 16.715 28.6166 16.7419C28.4084 16.7689 28.2139 16.8606 28.0608 17.0042L26.2908 18.8142C26.1045 19.0016 26 19.255 26 19.5192C26 19.7834 26.1045 20.0369 26.2908 20.2242L32.7808 26.7142C32.9682 26.9005 33.2216 27.005 33.4858 27.005C33.75 27.005 34.0034 26.9005 34.1908 26.7142L36.0008 24.9442C36.1509 24.7957 36.2501 24.6035 36.2842 24.3951C36.3184 24.1867 36.2856 23.9729 36.1908 23.7842L35.3308 22.0742L37.9308 19.4742L40.2808 24.6542C40.3484 24.7997 40.4499 24.9268 40.5769 25.0248C40.7039 25.1228 40.8526 25.1888 41.0105 25.2172C41.1684 25.2457 41.3308 25.2357 41.484 25.1882C41.6372 25.1407 41.7767 25.057 41.8908 24.9442L44.2508 22.5842C44.3776 22.4549 44.4669 22.2936 44.5092 22.1174C44.5515 21.9413 44.5451 21.757 44.4908 21.5842L42.3308 15.0942L45.1008 12.2642C45.388 11.9788 45.6155 11.639 45.77 11.2647C45.9246 10.8905 46.003 10.4891 46.0008 10.0842Z" fill="#E92B37"/>
<path d="M46.0008 10.0842C46.0016 9.47445 45.8214 8.87814 45.4831 8.37086C45.1447 7.86358 44.6634 7.46816 44.1 7.23469C43.5367 7.00122 42.9168 6.94022 42.3188 7.05941C41.7207 7.17861 41.1716 7.47263 40.7408 7.90423L37.9308 10.7142L31.4408 8.55423C31.268 8.49992 31.0837 8.49356 30.9076 8.53583C30.7315 8.5781 30.5701 8.66741 30.4408 8.79423L28.0608 11.1542C27.948 11.2683 27.8644 11.4078 27.8168 11.561C27.7693 11.7143 27.7594 11.8767 27.7878 12.0345C27.8162 12.1924 27.8822 12.3411 27.9802 12.4681C28.0782 12.5951 28.2053 12.6967 28.3508 12.7642L33.5308 15.1142L30.9308 17.7142L29.2208 16.8542C29.0362 16.7543 28.8248 16.715 28.6166 16.7419C28.4084 16.7689 28.2139 16.8606 28.0608 17.0042L26.2908 18.8142C26.1045 19.0016 26 19.255 26 19.5192C26 19.7834 26.1045 20.0369 26.2908 20.2242L32.7808 26.7142C32.9682 26.9005 33.2216 27.005 33.4858 27.005C33.75 27.005 34.0034 26.9005 34.1908 26.7142L36.0008 24.9442C36.1509 24.7957 36.2501 24.6035 36.2842 24.3951C36.3184 24.1867 36.2856 23.9729 36.1908 23.7842L35.3308 22.0742L37.9308 19.4742L40.2808 24.6542C40.3484 24.7997 40.4499 24.9268 40.5769 25.0248C40.7039 25.1228 40.8526 25.1888 41.0105 25.2172C41.1684 25.2457 41.3308 25.2357 41.484 25.1882C41.6372 25.1407 41.7767 25.057 41.8908 24.9442L44.2508 22.5842C44.3776 22.4549 44.4669 22.2936 44.5092 22.1174C44.5515 21.9413 44.5451 21.757 44.4908 21.5842L42.3308 15.0942L45.1008 12.2642C45.388 11.9788 45.6155 11.639 45.77 11.2647C45.9246 10.8905 46.003 10.4891 46.0008 10.0842ZM43.6808 10.8542L40.4408 14.0942C40.314 14.2236 40.2247 14.3849 40.1824 14.561C40.1401 14.7371 40.1465 14.9214 40.2008 15.0942L42.3608 21.5742L41.4608 22.4742L39.1108 17.3042C39.0441 17.1574 38.9429 17.0289 38.8158 16.9296C38.6886 16.8304 38.5394 16.7633 38.3808 16.7342C38.2209 16.705 38.0562 16.7153 37.9011 16.7641C37.7461 16.8129 37.6052 16.8987 37.4908 17.0142L33.3708 21.1742C33.2229 21.322 33.125 21.5124 33.0909 21.7187C33.0568 21.925 33.0883 22.1367 33.1808 22.3242L34.0008 24.0042L33.4408 24.5642L28.4108 19.5242L29.0008 19.0042L30.7108 19.8642C30.8983 19.9568 31.1101 19.9882 31.3163 19.9541C31.5226 19.92 31.713 19.8221 31.8608 19.6742L36.0008 15.5142C36.1157 15.4002 36.2012 15.26 36.25 15.1057C36.2988 14.9513 36.3093 14.7875 36.2808 14.6281C36.2523 14.4688 36.1855 14.3188 36.0862 14.191C35.9869 14.0631 35.8581 13.9613 35.7108 13.8942L30.5008 11.5442L31.4008 10.6442L37.8808 12.8042C38.0536 12.8585 38.2379 12.8649 38.414 12.8226C38.5901 12.7804 38.7515 12.691 38.8808 12.5642L42.1208 9.32423C42.2204 9.22233 42.3394 9.14137 42.4708 9.08609C42.6022 9.03082 42.7433 9.00234 42.8858 9.00234C43.0283 9.00234 43.1694 9.03082 43.3008 9.08609C43.4321 9.14137 43.5511 9.22233 43.6508 9.32423C43.7551 9.42087 43.8376 9.53865 43.8928 9.66971C43.948 9.80076 43.9746 9.94208 43.9708 10.0842C43.9762 10.2254 43.9534 10.3663 43.9036 10.4985C43.8538 10.6307 43.778 10.7517 43.6808 10.8542Z" fill="white"/>
</svg>
