<svg width="48" height="48" viewBox="0 0 48 48" fill="none" xmlns="http://www.w3.org/2000/svg">
<path opacity="0.1" fill-rule="evenodd" clip-rule="evenodd" d="M19.7575 9.53092C21.1791 9.1783 22.5237 9 24.0421 9C25.558 9 26.9079 9.17769 28.2577 9.5348C28.531 9.60711 28.7606 9.79086 28.8897 10.0405C29.0188 10.2902 29.0354 10.5825 28.9352 10.8449L26.8299 16.3592C26.6641 16.7936 26.2167 17.0556 25.7533 16.99C25.1586 16.9057 24.6352 16.8328 24.0421 16.8328C23.449 16.8328 22.9256 16.9057 22.3309 16.99C21.8724 17.055 21.4288 16.799 21.2591 16.3714L19.0696 10.8571C18.9641 10.5914 18.9791 10.2934 19.1108 10.0395C19.2426 9.78551 19.4782 9.6002 19.7575 9.53092ZM8.04055 21.1094C8.29023 20.9813 8.58248 20.9649 8.84491 21.0643L14.3592 23.152C14.7875 23.3141 15.0491 23.7482 14.9923 24.2023L14.9676 24.3988C14.8923 24.9942 14.8328 25.4652 14.8328 26C14.8328 26.5348 14.8923 27.0058 14.9676 27.6012L14.9923 27.7977C15.0491 28.2519 14.7875 28.6859 14.3592 28.848L8.84491 30.9357C8.58248 31.0351 8.29023 31.0187 8.04055 30.8906C7.79086 30.7626 7.60711 30.5349 7.5348 30.2639C7.17636 28.9204 7 27.4978 7 26C7 24.5022 7.17636 23.0796 7.5348 21.7361C7.60711 21.4651 7.79086 21.2374 8.04055 21.1094ZM33.232 11.1462C32.985 10.998 32.6871 10.9605 32.4111 11.0427C32.1351 11.125 31.9064 11.3195 31.7809 11.5787L29.1027 17.1078C28.8862 17.5548 29.0209 18.0926 29.4226 18.3847C30.2861 19.0127 30.9873 19.7139 31.6153 20.5774C31.9074 20.9791 32.4452 21.1138 32.8922 20.8973L38.4213 18.2191C38.6805 18.0936 38.875 17.8649 38.9573 17.5889C39.0395 17.3129 39.002 17.015 38.8538 16.768C37.4713 14.4638 35.5362 12.5287 33.232 11.1462ZM31.6381 31.419C31.9371 31.0149 32.4904 30.8841 32.9436 31.1104L38.4338 33.8512C38.6927 33.9805 38.8844 34.2107 38.9622 34.4857C39.04 34.7607 38.9966 35.0551 38.8427 35.2972C37.4606 37.4706 35.5184 39.4771 33.1817 40.855C32.9306 41.0031 32.6275 41.0397 32.3474 40.9558C32.0673 40.8718 31.8366 40.6752 31.7123 40.4146L29.0979 34.9328C28.8874 34.4914 29.0251 33.9653 29.4263 33.6785C30.2701 33.0754 30.9812 32.3067 31.6381 31.419ZM22.1188 35.0077C21.6597 34.9503 21.222 35.2181 21.0639 35.6531L19.0597 41.1675C18.9646 41.429 18.9838 41.7185 19.1124 41.9653C19.241 42.2121 19.4673 42.3935 19.7361 42.4652C21.0819 42.8243 22.5884 43 24 43C25.4978 43 26.9204 42.8236 28.2639 42.4652C28.5327 42.3935 28.759 42.2121 28.8876 41.9653C29.0162 41.7185 29.0354 41.429 28.9403 41.1675L26.9361 35.6531C26.778 35.2181 26.3403 34.9503 25.8812 35.0077C25.2024 35.0926 24.5959 35.1672 24 35.1672C23.4041 35.1672 22.7976 35.0926 22.1188 35.0077ZM15.6526 11.045C15.9326 11.1304 16.1634 11.3305 16.2877 11.5956L18.902 17.1729C19.1229 17.644 18.9596 18.2059 18.5206 18.4852C17.7114 19.0002 17.0139 19.7605 16.333 20.6115C16.0329 20.9868 15.5139 21.106 15.0801 20.8994L9.58993 18.285C9.32656 18.1596 9.12835 17.9289 9.0441 17.6496C8.95985 17.3703 8.99739 17.0684 9.14748 16.8183C10.542 14.494 12.494 12.542 14.8183 11.1475C15.0693 10.9968 15.3725 10.9596 15.6526 11.045ZM16.3619 31.4226C16.0658 31.019 15.5198 30.8852 15.0681 31.1055L9.57796 33.7837C9.31829 33.9103 9.124 34.139 9.0422 34.4142C8.9604 34.6894 8.99858 34.986 9.14748 35.232C10.542 37.5362 12.494 39.4713 14.8183 40.8538C15.0694 41.0031 15.3725 41.0401 15.6526 40.9554C15.9327 40.8707 16.1634 40.6724 16.2877 40.4095L18.9021 34.8804C19.1126 34.4352 18.9749 33.9045 18.5737 33.6153C17.7027 32.9873 16.9954 32.2861 16.3619 31.4226Z" fill="#FA6069"/>
<path fill-rule="evenodd" clip-rule="evenodd" d="M19.7575 7.53092C21.1791 7.1783 22.5237 7 24.0421 7C25.558 7 26.9079 7.17769 28.2577 7.5348C28.531 7.60711 28.7606 7.79086 28.8897 8.04054C29.0188 8.29023 29.0354 8.58248 28.9352 8.84491L26.8299 14.3592C26.6641 14.7936 26.2167 15.0556 25.7533 14.99C25.1586 14.9057 24.6352 14.8328 24.0421 14.8328C23.449 14.8328 22.9256 14.9057 22.3309 14.99C21.8724 15.055 21.4288 14.799 21.2591 14.3714L19.0696 8.85711C18.9641 8.59138 18.9791 8.29342 19.1108 8.03947C19.2426 7.78551 19.4782 7.6002 19.7575 7.53092ZM8.04055 19.1094C8.29023 18.9813 8.58248 18.9649 8.84491 19.0643L14.3592 21.152C14.7875 21.3141 15.0491 21.7482 14.9923 22.2023L14.9676 22.3988C14.8923 22.9942 14.8328 23.4652 14.8328 24C14.8328 24.5348 14.8923 25.0058 14.9676 25.6012L14.9923 25.7977C15.0491 26.2519 14.7875 26.6859 14.3592 26.848L8.84491 28.9357C8.58248 29.0351 8.29023 29.0187 8.04055 28.8906C7.79086 28.7626 7.60711 28.5349 7.5348 28.2639C7.17636 26.9204 7 25.4978 7 24C7 22.5022 7.17636 21.0796 7.5348 19.7361C7.60711 19.4651 7.79086 19.2374 8.04055 19.1094ZM33.232 9.1462C32.985 8.99802 32.6871 8.96048 32.4111 9.04274C32.1351 9.125 31.9064 9.31949 31.7809 9.57869L29.1027 15.1078C28.8862 15.5548 29.0209 16.0926 29.4226 16.3847C30.2861 17.0127 30.9873 17.7139 31.6153 18.5774C31.9074 18.9791 32.4452 19.1138 32.8922 18.8973L38.4213 16.2191C38.6805 16.0936 38.875 15.8649 38.9573 15.5889C39.0395 15.3129 39.002 15.015 38.8538 14.768C37.4713 12.4638 35.5362 10.5287 33.232 9.1462ZM31.6381 29.419C31.9371 29.0149 32.4904 28.8841 32.9436 29.1104L38.4338 31.8512C38.6927 31.9805 38.8844 32.2107 38.9622 32.4857C39.04 32.7607 38.9966 33.0551 38.8427 33.2972C37.4606 35.4706 35.5184 37.4771 33.1817 38.855C32.9306 39.0031 32.6275 39.0397 32.3474 38.9558C32.0673 38.8718 31.8366 38.6752 31.7123 38.4146L29.0979 32.9328C28.8874 32.4914 29.0251 31.9653 29.4263 31.6785C30.2701 31.0754 30.9812 30.3067 31.6381 29.419ZM22.1188 33.0077C21.6597 32.9503 21.222 33.2181 21.0639 33.6531L19.0597 39.1675C18.9646 39.429 18.9838 39.7185 19.1124 39.9653C19.241 40.2121 19.4673 40.3935 19.7361 40.4652C21.0819 40.8243 22.5884 41 24 41C25.4978 41 26.9204 40.8236 28.2639 40.4652C28.5327 40.3935 28.759 40.2121 28.8876 39.9653C29.0162 39.7185 29.0354 39.429 28.9403 39.1675L26.9361 33.6531C26.778 33.2181 26.3403 32.9503 25.8812 33.0077C25.2024 33.0926 24.5959 33.1672 24 33.1672C23.4041 33.1672 22.7976 33.0926 22.1188 33.0077ZM15.6526 9.04501C15.9326 9.13043 16.1634 9.3305 16.2877 9.59563L18.902 15.1729C19.1229 15.644 18.9596 16.2059 18.5206 16.4852C17.7114 17.0002 17.0139 17.7605 16.333 18.6115C16.0329 18.9868 15.5139 19.106 15.0801 18.8994L9.58993 16.285C9.32656 16.1596 9.12835 15.9289 9.0441 15.6496C8.95985 15.3703 8.99739 15.0684 9.14748 14.8183C10.542 12.494 12.494 10.542 14.8183 9.14748C15.0693 8.99683 15.3725 8.9596 15.6526 9.04501ZM16.3619 29.4226C16.0658 29.019 15.5198 28.8852 15.0681 29.1055L9.57796 31.7837C9.31829 31.9103 9.124 32.139 9.0422 32.4142C8.9604 32.6894 8.99858 32.986 9.14748 33.232C10.542 35.5362 12.494 37.4713 14.8183 38.8538C15.0694 39.0031 15.3725 39.0401 15.6526 38.9554C15.9327 38.8707 16.1634 38.6724 16.2877 38.4095L18.9021 32.8804C19.1126 32.4352 18.9749 31.9045 18.5737 31.6153C17.7027 30.9873 16.9954 30.2861 16.3619 29.4226Z" fill="#FFF5F6"/>
<path opacity="0.8" fill-rule="evenodd" clip-rule="evenodd" d="M19.7575 7.53092C21.1791 7.1783 22.5237 7 24.0421 7C25.558 7 26.9079 7.17769 28.2577 7.5348C28.531 7.60711 28.7606 7.79086 28.8897 8.04054C29.0188 8.29023 29.0354 8.58248 28.9352 8.84491L26.8299 14.3592C26.6641 14.7936 26.2167 15.0556 25.7533 14.99C25.1586 14.9057 24.6352 14.8328 24.0421 14.8328C23.449 14.8328 22.9256 14.9057 22.3309 14.99C21.8724 15.055 21.4288 14.799 21.2591 14.3714L19.0696 8.85711C18.9641 8.59138 18.9791 8.29342 19.1108 8.03947C19.2426 7.78551 19.4782 7.6002 19.7575 7.53092ZM21.3618 9.2164L22.8332 12.922C23.207 12.8797 23.6082 12.8485 24.0421 12.8485C24.4719 12.8485 24.8696 12.8791 25.2404 12.9208L26.6572 9.20984C25.8297 9.05969 24.977 8.98432 24.0421 8.98432C23.0976 8.98432 22.2336 9.06122 21.3618 9.2164Z" fill="#FA6069"/>
<path opacity="0.4" fill-rule="evenodd" clip-rule="evenodd" d="M8.04055 19.1094C8.29023 18.9813 8.58248 18.9649 8.84491 19.0643L14.3592 21.152C14.7875 21.3141 15.0491 21.7482 14.9923 22.2023C14.9839 22.2694 14.9756 22.3348 14.9676 22.3988C14.8923 22.9942 14.8328 23.4652 14.8328 24C14.8328 24.5348 14.8923 25.0058 14.9676 25.6012C14.9756 25.6652 14.9839 25.7306 14.9923 25.7977C15.0491 26.2519 14.7875 26.6859 14.3592 26.848L8.84491 28.9357C8.58248 29.0351 8.29023 29.0187 8.04055 28.8906C7.79086 28.7626 7.60711 28.5349 7.5348 28.2639C7.17636 26.9204 7 25.4978 7 24C7 22.5022 7.17636 21.0796 7.5348 19.7361C7.60711 19.4651 7.79086 19.2374 8.04055 19.1094ZM9.21297 21.3245C9.06118 22.1725 8.98432 23.0639 8.98432 24C8.98432 24.9361 9.06118 25.8275 9.21297 26.6755L12.928 25.2691C12.8829 24.867 12.8485 24.4497 12.8485 24C12.8485 23.5503 12.8829 23.133 12.928 22.7309L9.21297 21.3245Z" fill="#FA6069"/>
<path fill-rule="evenodd" clip-rule="evenodd" d="M32.4111 9.04274C32.6871 8.96048 32.985 8.99802 33.232 9.1462C35.5362 10.5287 37.4713 12.4638 38.8538 14.768C39.002 15.015 39.0395 15.3129 38.9573 15.5889C38.875 15.8649 38.6805 16.0936 38.4213 16.2191L32.8922 18.8973C32.4452 19.1138 31.9074 18.9791 31.6153 18.5774C30.9873 17.7139 30.2861 17.0127 29.4226 16.3847C29.0209 16.0926 28.8862 15.5548 29.1027 15.1078L31.7809 9.57869C31.9064 9.31949 32.1351 9.125 32.4111 9.04274ZM33.1189 11.523L31.3103 15.257C31.8321 15.6949 32.3051 16.1679 32.743 16.6897L36.477 14.8811C35.5524 13.5839 34.4161 12.4476 33.1189 11.523Z" fill="#FA6069"/>
<path fill-rule="evenodd" clip-rule="evenodd" d="M31.6381 29.419C31.9371 29.0149 32.4904 28.8841 32.9436 29.1104L38.4338 31.8512C38.6927 31.9805 38.8844 32.2107 38.9622 32.4857C39.04 32.7607 38.9966 33.0551 38.8427 33.2972C37.4606 35.4706 35.5184 37.4771 33.1817 38.855C32.9306 39.0031 32.6275 39.0397 32.3474 38.9558C32.0673 38.8718 31.8366 38.6752 31.7123 38.4146L29.0979 32.9328C28.8874 32.4914 29.0251 31.9653 29.4263 31.6785C30.2701 31.0754 30.9812 30.3067 31.6381 29.419ZM32.7721 31.3063C32.3353 31.834 31.856 32.3373 31.3184 32.7958L33.0781 36.4856C34.3734 35.5622 35.517 34.4076 36.4524 33.1437L32.7721 31.3063Z" fill="#FA6069"/>
<path opacity="0.8" fill-rule="evenodd" clip-rule="evenodd" d="M21.0639 33.6531C21.222 33.2181 21.6597 32.9503 22.1188 33.0077C22.7976 33.0926 23.4041 33.1672 24 33.1672C24.5959 33.1672 25.2024 33.0926 25.8812 33.0077C26.3403 32.9503 26.778 33.2181 26.9361 33.6531L28.9403 39.1675C29.0354 39.429 29.0162 39.7185 28.8876 39.9653C28.759 40.2121 28.5327 40.3935 28.2639 40.4652C26.9204 40.8236 25.4978 41 24 41C22.5884 41 21.0819 40.8243 19.7361 40.4652C19.4673 40.3935 19.241 40.2121 19.1124 39.9653C18.9838 39.7185 18.9646 39.429 19.0597 39.1675L21.0639 33.6531ZM22.6592 35.0702L21.3103 38.7817C22.1853 38.9368 23.1106 39.0157 24 39.0157C24.9417 39.0157 25.8381 38.9379 26.6907 38.7843L25.3408 35.0702C24.9075 35.1164 24.4558 35.1515 24 35.1515C23.5442 35.1515 23.0925 35.1164 22.6592 35.0702Z" fill="#FA6069"/>
<path opacity="0.6" fill-rule="evenodd" clip-rule="evenodd" d="M15.6526 9.04501C15.9326 9.13043 16.1634 9.3305 16.2877 9.59563L18.902 15.1729C19.1229 15.644 18.9596 16.2059 18.5206 16.4852C17.7114 17.0002 17.0139 17.7605 16.333 18.6115C16.0329 18.9868 15.5139 19.106 15.0801 18.8994L9.58993 16.285C9.32656 16.1596 9.12835 15.9289 9.0441 15.6496C8.95985 15.3703 8.99739 15.0684 9.14748 14.8183C10.542 12.494 12.494 10.542 14.8183 9.14748C15.0693 8.99683 15.3725 8.9596 15.6526 9.04501ZM11.5496 14.9258L15.2428 16.6845C15.6633 16.1987 16.1336 15.7115 16.6656 15.2782L14.9198 11.5539C13.6187 12.4834 12.4785 13.6243 11.5496 14.9258Z" fill="#FA6069"/>
<path opacity="0.6" fill-rule="evenodd" clip-rule="evenodd" d="M15.0681 29.1055C15.5198 28.8852 16.0658 29.019 16.3619 29.4226C16.9954 30.2861 17.7027 30.9873 18.5737 31.6153C18.9749 31.9045 19.1126 32.4352 18.9021 32.8804L16.2877 38.4095C16.1634 38.6724 15.9327 38.8707 15.6526 38.9554C15.3725 39.0401 15.0694 39.0031 14.8183 38.8538C12.494 37.4713 10.542 35.5362 9.14748 33.232C8.99858 32.986 8.9604 32.6894 9.0422 32.4142C9.124 32.139 9.31829 31.9103 9.57796 31.7837L15.0681 29.1055ZM11.5407 33.113C12.4712 34.4085 13.6146 35.5438 14.9199 36.4682L16.678 32.75C16.1497 32.3113 15.6709 31.8373 15.2278 31.3143L11.5407 33.113Z" fill="#FA6069"/>
<path opacity="0.2" d="M35.0323 23C33.9943 23 33.1293 23.337 32.5836 23.9722V23.0778H31V30H32.6635V26.5C32.6635 25.113 33.462 24.413 34.6464 24.413C35.711 24.413 36.3365 25.0093 36.3365 26.2407V30H38V26.0333C38 23.9463 36.7357 23 35.0323 23Z" fill="#242429"/>
<path opacity="0.2" d="M24 31C26.878 31 29 28.8889 29 26C29 23.1111 26.878 21 24 21C21.122 21 19 23.125 19 26C19 28.875 21.122 31 24 31ZM24 29.4167C22.13 29.4167 20.7374 27.9861 20.7374 26C20.7374 24.0139 22.13 22.5833 24 22.5833C25.87 22.5833 27.2626 24.0139 27.2626 26C27.2626 27.9861 25.87 29.4167 24 29.4167Z" fill="#242429"/>
<path d="M35.0323 21C33.9943 21 33.1293 21.337 32.5836 21.9722V21.0778H31V28H32.6635V24.5C32.6635 23.113 33.462 22.413 34.6464 22.413C35.711 22.413 36.3365 23.0093 36.3365 24.2407V28H38V24.0333C38 21.9463 36.7357 21 35.0323 21Z" fill="#242429"/>
<path d="M24 29C26.878 29 29 26.8889 29 24C29 21.1111 26.878 19 24 19C21.122 19 19 21.125 19 24C19 26.875 21.122 29 24 29ZM24 27.4167C22.13 27.4167 20.7374 25.9861 20.7374 24C20.7374 22.0139 22.13 20.5833 24 20.5833C25.87 20.5833 27.2626 22.0139 27.2626 24C27.2626 25.9861 25.87 27.4167 24 27.4167Z" fill="#242429"/>
</svg>
