<svg width="48" height="48" viewBox="0 0 48 48" fill="none" xmlns="http://www.w3.org/2000/svg">
<path opacity="0.2" fill-rule="evenodd" clip-rule="evenodd" d="M19.3417 10.0602C19.1752 9.99964 18.9955 9.98443 18.8211 10.0161L7.82111 14.0161C7.34562 14.1026 7 14.5167 7 15V41C7 41.2965 7.1316 41.5778 7.35925 41.7678C7.58691 41.9578 7.88715 42.0369 8.17889 41.9839L18.9126 38.0323L29.6583 41.9398C29.8248 42.0004 30.0045 42.0156 30.1789 41.9839L41.1789 37.9839C41.6544 37.8974 42 37.4833 42 37V11C42 10.7035 41.8684 10.4223 41.6407 10.2323C41.4131 10.0423 41.1129 9.96309 40.8211 10.0161L30.0874 13.9677L19.3417 10.0602Z" fill="white"/>
<path d="M19 9L8 13V39L19 35L30 39L41 35V9L30 13L19 9Z" fill="#E92B37"/>
<path opacity="0.6" fill-rule="evenodd" clip-rule="evenodd" d="M18.8211 8.01614C18.9955 7.98443 19.1752 7.99964 19.3417 8.06021L30.0874 11.9677L40.8211 8.01614C41.1129 7.96309 41.4131 8.04226 41.6407 8.23226C41.8684 8.42225 42 8.70348 42 9.00001V35C42 35.4833 41.6544 35.8974 41.1789 35.9839L30.1789 39.9839C30.0045 40.0156 29.8248 40.0004 29.6583 39.9398L18.9126 36.0323L8.17889 39.9839C7.88715 40.0369 7.58691 39.9578 7.35925 39.7678C7.1316 39.5778 7 39.2965 7 39V13C7 12.5167 7.34562 12.1026 7.82111 12.0161L18.8211 8.01614ZM9 13.8346V37.8018L18 34.3326V10.3824L9 13.8346ZM29 37.5723L20 34.2996V10.4277L29 13.7004V37.5723ZM31 37.6177L40 34.1654V10.1982L31 13.6674V37.6177Z" fill="#FFCBC8"/>
<path fill-rule="evenodd" clip-rule="evenodd" d="M18.8211 8.01613C18.9955 7.98442 19.1752 7.99964 19.3417 8.06021L30.0874 11.9677L40.8211 8.01613C41.1129 7.96309 41.4131 8.04225 41.6407 8.23225C41.8684 8.42225 42 8.70348 42 9V35C42 35.4833 41.6544 35.8974 41.1789 35.9839L30.1789 39.9839C30.0045 40.0156 29.8248 40.0004 29.6583 39.9398L18.9126 36.0323L8.17889 39.9839C7.88715 40.0369 7.58691 39.9577 7.35925 39.7678C7.1316 39.5778 7 39.2965 7 39V13C7 12.5167 7.34562 12.1026 7.82111 12.0161L18.8211 8.01613ZM9 13.8346V37.8018L18.8211 34.0161C18.9955 33.9844 19.1752 33.9996 19.3417 34.0602L30.0874 37.9677L40 34.1654V10.1982L30.1789 13.9839C30.0045 14.0156 29.8248 14.0004 29.6583 13.9398L18.9126 10.0323L9 13.8346Z" fill="#FFCBC8"/>
<path opacity="0.2" d="M30 11C27.8783 11 25.8434 11.8429 24.3431 13.3431C22.8429 14.8434 22 16.8783 22 19C22 24.4 29.05 30.5 29.35 30.76C29.5311 30.9149 29.7616 31.0001 30 31.0001C30.2384 31.0001 30.4689 30.9149 30.65 30.76C31 30.5 38 24.4 38 19C38 16.8783 37.1571 14.8434 35.6569 13.3431C34.1566 11.8429 32.1217 11 30 11ZM30 21C29.6044 21 29.2178 20.8827 28.8889 20.6629C28.56 20.4432 28.3036 20.1308 28.1522 19.7654C28.0009 19.3999 27.9613 18.9978 28.0384 18.6098C28.1156 18.2219 28.3061 17.8655 28.5858 17.5858C28.8655 17.3061 29.2219 17.1156 29.6098 17.0384C29.9978 16.9613 30.3999 17.0009 30.7654 17.1522C31.1308 17.3036 31.4432 17.56 31.6629 17.8889C31.8827 18.2178 32 18.6044 32 19C32 19.5304 31.7893 20.0391 31.4142 20.4142C31.0391 20.7893 30.5304 21 30 21Z" fill="white"/>
<path d="M30 8C27.8783 8 25.8434 8.84285 24.3431 10.3431C22.8429 11.8434 22 13.8783 22 16C22 21.4 29.05 27.5 29.35 27.76C29.5311 27.9149 29.7616 28.0001 30 28.0001C30.2384 28.0001 30.4689 27.9149 30.65 27.76C31 27.5 38 21.4 38 16C38 13.8783 37.1571 11.8434 35.6569 10.3431C34.1566 8.84285 32.1217 8 30 8ZM30 18C29.6044 18 29.2178 17.8827 28.8889 17.6629C28.56 17.4432 28.3036 17.1308 28.1522 16.7654C28.0009 16.3999 27.9613 15.9978 28.0384 15.6098C28.1156 15.2219 28.3061 14.8655 28.5858 14.5858C28.8655 14.3061 29.2219 14.1156 29.6098 14.0384C29.9978 13.9613 30.3999 14.0009 30.7654 14.1522C31.1308 14.3036 31.4432 14.56 31.6629 14.8889C31.8827 15.2178 32 15.6044 32 16C32 16.5304 31.7893 17.0391 31.4142 17.4142C31.0391 17.7893 30.5304 18 30 18Z" fill="#E92B37"/>
<path d="M30 8C27.8783 8 25.8434 8.84285 24.3431 10.3431C22.8429 11.8434 22 13.8783 22 16C22 21.4 29.05 27.5 29.35 27.76C29.5311 27.9149 29.7616 28.0001 30 28.0001C30.2384 28.0001 30.4689 27.9149 30.65 27.76C31 27.5 38 21.4 38 16C38 13.8783 37.1571 11.8434 35.6569 10.3431C34.1566 8.84285 32.1217 8 30 8ZM30 25.65C27.87 23.65 24 19.34 24 16C24 14.4087 24.6321 12.8826 25.7574 11.7574C26.8826 10.6321 28.4087 10 30 10C31.5913 10 33.1174 10.6321 34.2426 11.7574C35.3679 12.8826 36 14.4087 36 16C36 19.34 32.13 23.66 30 25.65ZM30 12C29.2089 12 28.4355 12.2346 27.7777 12.6741C27.1199 13.1136 26.6072 13.7384 26.3045 14.4693C26.0017 15.2002 25.9225 16.0044 26.0769 16.7804C26.2312 17.5563 26.6122 18.269 27.1716 18.8284C27.731 19.3878 28.4437 19.7688 29.2196 19.9231C29.9956 20.0775 30.7998 19.9983 31.5307 19.6955C32.2616 19.3928 32.8864 18.8801 33.3259 18.2223C33.7654 17.5645 34 16.7911 34 16C34 14.9391 33.5786 13.9217 32.8284 13.1716C32.0783 12.4214 31.0609 12 30 12ZM30 18C29.6044 18 29.2178 17.8827 28.8889 17.6629C28.56 17.4432 28.3036 17.1308 28.1522 16.7654C28.0009 16.3999 27.9613 15.9978 28.0384 15.6098C28.1156 15.2219 28.3061 14.8655 28.5858 14.5858C28.8655 14.3061 29.2219 14.1156 29.6098 14.0384C29.9978 13.9613 30.3999 14.0009 30.7654 14.1522C31.1308 14.3036 31.4432 14.56 31.6629 14.8889C31.8827 15.2178 32 15.6044 32 16C32 16.5304 31.7893 17.0391 31.4142 17.4142C31.0391 17.7893 30.5304 18 30 18Z" fill="white"/>
<circle cx="30" cy="16" r="2" fill="#E92B37"/>
</svg>
