<svg width="24" height="24" viewBox="0 0 24 24" fill="none" xmlns="http://www.w3.org/2000/svg">
<path fill-rule="evenodd" clip-rule="evenodd" d="M7.03489 8.26186C7.04683 7.77989 7.1827 7.50359 7.34315 7.34315C7.50359 7.1827 7.77989 7.04683 8.26186 7.03489C8.75093 7.02278 9.38728 7.14345 10.141 7.43335C11.4313 7.92961 12.9336 8.87108 14.3961 10.1897L10.1897 14.3961C8.87108 12.9336 7.92961 11.4313 7.43335 10.141C7.14345 9.38728 7.02278 8.75093 7.03489 8.26186ZM5.41742 10.4441C4.5809 12.932 5.00169 15.7497 6.6798 17.906L8.77382 15.812C7.28828 14.1805 6.17634 12.4442 5.56665 10.859C5.51339 10.7205 5.46356 10.5821 5.41742 10.4441ZM5.92893 5.92893C2.02369 9.83418 2.02369 16.1658 5.92893 20.0711C6.31946 20.4616 6.95262 20.4616 7.34315 20.0711L13.2499 14.1644L19.6107 20.5252C20.0012 20.9157 20.6344 20.9157 21.0249 20.5252C21.4155 20.1347 21.4155 19.5015 21.0249 19.111L14.6641 12.7501L20.0711 7.34315C20.4616 6.95262 20.4616 6.31946 20.0711 5.92893C16.1658 2.02369 9.83418 2.02369 5.92893 5.92893ZM10.4441 5.41742C12.932 4.5809 15.7497 5.00169 17.906 6.6798L15.812 8.77382C14.1805 7.28828 12.4442 6.17634 10.859 5.56665C10.7205 5.51339 10.5821 5.46356 10.4441 5.41742Z" fill="#E92B37"/>
</svg>
