<svg width="24" height="24" viewBox="0 0 24 24" fill="none" xmlns="http://www.w3.org/2000/svg">
<path d="M20 4H4C3.20435 4 2.44129 4.31607 1.87868 4.87868C1.31607 5.44129 1 6.20435 1 7V20C1 20.2652 1.10536 20.5196 1.29289 20.7071C1.48043 20.8946 1.73478 21 2 21H6C6.16471 20.9991 6.32665 20.9576 6.47145 20.8791C6.61625 20.8006 6.73941 20.6876 6.83 20.55L8.54 18H15.46L17.17 20.55C17.2606 20.6876 17.3838 20.8006 17.5285 20.8791C17.6733 20.9576 17.8353 20.9991 18 21H22C22.2652 21 22.5196 20.8946 22.7071 20.7071C22.8946 20.5196 23 20.2652 23 20V7C23 6.20435 22.6839 5.44129 22.1213 4.87868C21.5587 4.31607 20.7956 4 20 4ZM21 19H18.54L16.83 16.5C16.7454 16.3531 16.6248 16.2302 16.4796 16.1428C16.3344 16.0553 16.1694 16.0062 16 16H8C7.83529 16.0009 7.67335 16.0424 7.52855 16.1209C7.38375 16.1994 7.26059 16.3124 7.17 16.45L5.46 19H3V14H21V19ZM7 12V11C7 10.7348 7.10536 10.4804 7.29289 10.2929C7.48043 10.1054 7.73478 10 8 10H10C10.2652 10 10.5196 10.1054 10.7071 10.2929C10.8946 10.4804 11 10.7348 11 11V12H7ZM13 12V11C13 10.7348 13.1054 10.4804 13.2929 10.2929C13.4804 10.1054 13.7348 10 14 10H16C16.2652 10 16.5196 10.1054 16.7071 10.2929C16.8946 10.4804 17 10.7348 17 11V12H13ZM21 12H19V11C19 10.2044 18.6839 9.44129 18.1213 8.87868C17.5587 8.31607 16.7956 8 16 8H14C13.2599 8.00441 12.5476 8.28221 12 8.78C11.4524 8.28221 10.7401 8.00441 10 8H8C7.20435 8 6.44129 8.31607 5.87868 8.87868C5.31607 9.44129 5 10.2044 5 11V12H3V7C3 6.73478 3.10536 6.48043 3.29289 6.29289C3.48043 6.10536 3.73478 6 4 6H20C20.2652 6 20.5196 6.10536 20.7071 6.29289C20.8946 6.48043 21 6.73478 21 7V12Z" fill="#E92B37"/>
</svg>
