<svg width="34" height="34" viewBox="0 0 34 34" fill="none" xmlns="http://www.w3.org/2000/svg">
<circle cx="17" cy="17" r="16" fill="white" stroke="#242429" stroke-width="2"/>
<path fill-rule="evenodd" clip-rule="evenodd" d="M28.2501 8.15215C28.3001 8.04923 28.3 7.99777 28.3 7.89486C28.2501 7.79194 28.1003 7.89486 27.9505 7.89486C27.0018 8.46091 26.2028 9.07843 25.304 9.69595C21.8585 5.78501 16.0162 4.80727 11.3723 7.5861C11.3224 7.5861 11.3224 7.63756 11.2724 7.63756C11.2724 7.68902 11.2724 7.63756 11.2724 7.68902C15.8164 5.01311 21.6088 6.09376 24.9045 10.0562C24.4551 10.4164 24.0057 10.7766 23.5063 11.1883C22.8572 11.7029 22.0583 12.6292 21.3592 13.0923C21.1095 13.0923 21.1095 12.8865 21.0596 12.6806C20.9597 12.166 20.9597 12.0116 20.5103 11.7543C20.1108 11.6514 19.8112 11.7029 19.5116 12.0116C19.1621 12.3204 19.1121 12.4748 19.212 12.9379C19.212 13.0923 19.3119 13.2467 19.5116 13.401C19.5615 13.504 19.6614 13.4525 19.6614 13.6069C19.6115 13.7613 19.5116 13.9671 19.3618 14.1215C18.8624 14.3273 18.7126 14.2244 18.1634 14.0186C18.0635 13.7613 17.9636 13.6069 18.0635 13.3496C18.463 12.7835 18.8125 12.166 19.212 11.3941C19.4617 10.5708 19.3618 9.59303 18.9124 8.87259C18.3132 7.94632 17.8638 7.74048 16.8151 7.43172C15.6167 7.17442 14.8677 7.79194 14.2685 8.35799C12.8703 9.90179 12.4209 11.9087 11.3224 13.9671C10.6732 15.408 9.92419 16.7459 9.22511 18.1868C8.6259 19.4218 7.97675 20.6569 7.27767 21.8404C6.47872 20.2967 6.02931 18.7014 6.02931 17.0547C5.97937 17.0547 6.02931 17.0547 5.97937 17.0547C5.97937 18.7529 6.32891 20.451 7.1778 22.0463C6.57858 23.1269 5.97937 24.1561 5.38016 25.2368C4.73101 26.3689 3.982 27.501 3.33285 28.6846C3.28291 28.839 3.28291 28.9419 3.38278 28.9934C3.88213 28.8904 5.52996 26.5747 5.82957 26.1116C6.52865 25.1339 7.1778 24.2076 7.77701 23.1784C7.82694 23.2299 7.87688 23.3328 7.92681 23.3842C7.12786 24.6707 6.17911 26.1631 6.27898 26.3689C6.77832 26.3689 7.12786 25.6999 7.57727 25.2368C7.87688 24.8251 8.17649 24.4649 8.47609 24.0532C9.0753 24.7737 9.72445 25.3912 10.4235 25.9058C9.72445 27.0379 9.12524 28.2729 8.6259 29.9196C7.62721 30.4857 7.72708 30.2798 7.57727 32.1324C7.57727 32.6985 7.52734 33.316 7.52734 33.882C7.67714 34.1908 7.72708 33.8306 7.87688 33.5218C8.32629 32.4926 8.72576 31.4634 9.12524 30.4342C9.92419 29.0448 10.6732 27.7583 11.5221 26.5747C14.8677 28.4788 19.1121 28.5817 22.6575 26.4204C27.9006 23.3328 29.6483 16.5401 26.5523 11.2912C26.3027 10.8795 26.0031 10.4678 25.7035 10.1076C26.0031 9.85033 26.3027 9.59303 26.6023 9.33573C27.1016 8.92405 27.601 8.56383 28.2501 8.15215ZM7.92681 22.9211C8.47609 22.0977 8.97544 21.2229 9.47478 20.2967C9.97412 19.4733 10.5234 18.6499 11.0727 17.7751C11.2225 17.4664 11.4222 17.2605 11.3224 17.7237C11.0227 18.1868 10.7731 18.6499 10.4235 19.216C9.97412 19.9879 9.52471 20.7083 9.0753 21.4288C8.97544 21.6346 8.52603 22.3036 8.02668 23.1269C8.02668 23.0755 7.97675 23.024 7.92681 22.9211ZM8.57596 23.7959C8.6259 23.7445 8.67583 23.693 8.72576 23.6415C10.2238 21.5317 11.7218 19.3704 12.8703 17.0547C12.9702 16.8489 13.12 16.9003 13.0701 17.1062C12.5707 18.0324 12.0714 18.8558 11.572 19.7821C11.0727 20.7083 10.4235 21.7375 9.82432 22.6638C9.57465 23.0755 8.97544 23.7959 9.57465 23.4357C11.4722 21.6346 13.2698 18.7014 14.5681 16.3857C14.8677 16.1799 14.7678 16.3343 14.618 16.643C13.7192 18.2383 12.7704 19.885 11.6719 21.4288C11.622 22.355 13.0701 20.5025 13.869 19.5248C14.8677 18.2897 15.6666 17.0032 16.3657 15.5109C16.6653 15.2536 16.6653 15.2536 16.6154 15.7167C16.1161 16.9518 15.5668 18.1868 14.8677 19.4733C13.5694 21.5831 12.321 23.6415 10.6732 25.597C9.87426 25.1339 9.17517 24.5164 8.57596 23.7959ZM25.9032 11.3941C28.8993 16.4372 27.2015 22.9726 22.1581 26.0087C18.8125 28.0156 14.8677 27.9642 11.6719 26.266C12.9702 24.5164 14.3684 22.9211 16.2159 21.4288C17.0648 21.12 18.3631 20.6054 19.1121 20.554C18.7626 20.8627 18.413 21.0171 18.0136 21.3259C17.5642 21.6861 16.7652 22.0977 16.1161 22.8696C15.9163 22.7153 15.6666 23.024 15.4669 23.1784C15.0674 23.5901 13.1699 25.0824 13.5694 25.4426C14.5182 24.7222 15.417 24.0018 16.3657 23.4357C18.6128 22.0977 20.76 20.8113 23.3565 19.7821C24.0556 19.4733 24.505 19.3704 23.6062 19.0616C22.3079 18.7529 21.2593 18.7014 20.0609 18.7529C19.3119 18.8558 18.5628 19.0102 17.7639 19.0616C17.5142 19.0616 17.5642 18.9072 17.664 18.7529C18.0136 18.4956 18.1634 18.2897 18.463 17.981C19.4617 17.1576 20.3605 16.1284 20.3605 14.8934C20.9098 14.6361 21.509 14.1729 21.9084 13.7613C22.3579 13.401 22.7074 12.9379 23.1568 12.5262C23.8559 11.8573 24.555 11.0854 25.304 10.3649C25.5037 10.7766 25.7035 11.0854 25.9032 11.3941Z" fill="#242429"/>
</svg>
