<svg width="28" height="28" viewBox="0 0 28 28" fill="none" xmlns="http://www.w3.org/2000/svg">
<g opacity="0.7">
<path d="M14.0004 4C12.4665 3.99993 10.9532 4.35274 9.5774 5.03113C8.20165 5.70952 7.0004 6.69531 6.06659 7.91222C5.13278 9.12914 4.49143 10.5446 4.19216 12.049C3.8929 13.5535 3.94374 15.1066 4.34075 16.5882C4.73776 18.0699 5.4703 19.4403 6.4817 20.5936C7.4931 21.7468 8.75625 22.6519 10.1734 23.2389C11.5906 23.8259 13.1238 24.0789 14.6544 23.9786C16.185 23.8782 17.6721 23.427 19.0004 22.66C19.1199 22.5975 19.2256 22.5114 19.311 22.407C19.3963 22.3027 19.4597 22.1821 19.4973 22.0525C19.5349 21.923 19.5459 21.7872 19.5296 21.6533C19.5134 21.5194 19.4702 21.3902 19.4027 21.2735C19.3352 21.1567 19.2448 21.0548 19.1369 20.9739C19.029 20.893 18.9058 20.8347 18.7748 20.8026C18.6438 20.7705 18.5077 20.7653 18.3746 20.7872C18.2415 20.8091 18.1143 20.8576 18.0004 20.93C16.4754 21.8105 14.7024 22.1632 12.9565 21.9334C11.2105 21.7036 9.58919 20.9041 8.3439 19.659C7.09862 18.4138 6.29897 16.7926 6.06897 15.0467C5.83897 13.3008 6.19146 11.5277 7.07179 10.0026C7.95212 8.47741 9.31108 7.28532 10.9379 6.61119C12.5648 5.93706 14.3686 5.81855 16.0697 6.27404C17.7708 6.72953 19.274 7.73358 20.3463 9.13046C21.4186 10.5273 22 12.239 22.0004 14V14.75C22.0004 15.2141 21.8161 15.6592 21.4879 15.9874C21.1597 16.3156 20.7146 16.5 20.2504 16.5C19.7863 16.5 19.3412 16.3156 19.013 15.9874C18.6848 15.6592 18.5004 15.2141 18.5004 14.75V10.5C18.5004 10.2348 18.3951 9.98043 18.2075 9.79289C18.02 9.60536 17.7657 9.5 17.5004 9.5C17.2679 9.49483 17.0408 9.57088 16.8583 9.71507C16.6758 9.85926 16.5492 10.0626 16.5004 10.29C15.7654 9.78158 14.8942 9.5063 14.0004 9.5C13.2476 9.491 12.5045 9.67102 11.8393 10.0236C11.1741 10.3762 10.6079 10.89 10.1927 11.5181C9.77755 12.1461 9.52657 12.8683 9.4628 13.6185C9.39902 14.3687 9.52449 15.1229 9.82771 15.812C10.1309 16.5011 10.6022 17.1032 11.1984 17.563C11.7945 18.0228 12.4965 18.3257 13.2401 18.4439C13.9836 18.5621 14.745 18.4918 15.4543 18.2396C16.1637 17.9873 16.7985 17.5611 17.3004 17C17.7756 17.6153 18.4307 18.0673 19.1746 18.293C19.9185 18.5188 20.7143 18.5071 21.4512 18.2596C22.1882 18.0121 22.8297 17.5411 23.2866 16.9121C23.7435 16.2831 23.993 15.5274 24.0004 14.75V14C24.0004 12.6868 23.7418 11.3864 23.2392 10.1732C22.7367 8.95991 22.0001 7.85752 21.0715 6.92893C20.1429 6.00035 19.0405 5.26375 17.8273 4.7612C16.614 4.25866 15.3137 4 14.0004 4ZM14.0004 16.5C13.506 16.5 13.0226 16.3534 12.6115 16.0787C12.2004 15.804 11.88 15.4135 11.6907 14.9567C11.5015 14.4999 11.452 13.9972 11.5485 13.5123C11.6449 13.0273 11.883 12.5819 12.2327 12.2322C12.5823 11.8826 13.0278 11.6445 13.5127 11.548C13.9977 11.4516 14.5003 11.5011 14.9571 11.6903C15.414 11.8795 15.8044 12.2 16.0791 12.6111C16.3538 13.0222 16.5004 13.5055 16.5004 14C16.5004 14.663 16.237 15.2989 15.7682 15.7678C15.2994 16.2366 14.6635 16.5 14.0004 16.5Z" fill="#A5A5C5"/>
</g>
</svg>
