<svg width="24" height="24" viewBox="0 0 24 24" fill="none" xmlns="http://www.w3.org/2000/svg">
<path d="M16.8815 11.6641C17.282 11.6691 17.6795 11.5937 18.0505 11.4426C18.4215 11.2915 18.7584 11.0676 19.0415 10.7841L21.8715 7.95409C22.0577 7.76673 22.1623 7.51328 22.1623 7.24909C22.1623 6.98491 22.0577 6.73145 21.8715 6.54409C21.7785 6.45036 21.6679 6.37597 21.5461 6.3252C21.4242 6.27443 21.2935 6.24829 21.1615 6.24829C21.0295 6.24829 20.8988 6.27443 20.7769 6.3252C20.6551 6.37597 20.5445 6.45036 20.4515 6.54409L17.5915 9.36409C17.4985 9.45782 17.3879 9.53221 17.2661 9.58298C17.1442 9.63375 17.0135 9.65989 16.8815 9.65989C16.7495 9.65989 16.6188 9.63375 16.4969 9.58298C16.3751 9.53221 16.2645 9.45782 16.1715 9.36409L19.7115 5.83409C19.8047 5.74085 19.8787 5.63016 19.9291 5.50834C19.9796 5.38652 20.0056 5.25595 20.0056 5.12409C20.0056 4.99223 19.9796 4.86166 19.9291 4.73984C19.8787 4.61802 19.8047 4.50733 19.7115 4.41409C19.6183 4.32085 19.5076 4.24689 19.3857 4.19643C19.2639 4.14597 19.1333 4.12 19.0015 4.12C18.8696 4.12 18.7391 4.14597 18.6172 4.19643C18.4954 4.24689 18.3847 4.32085 18.2915 4.41409L14.7615 7.95409C14.5752 7.76673 14.4707 7.51328 14.4707 7.24909C14.4707 6.98491 14.5752 6.73145 14.7615 6.54409L17.5915 3.71409C17.6847 3.62085 17.7587 3.51016 17.8092 3.38834C17.8596 3.26652 17.8856 3.13595 17.8856 3.00409C17.8856 2.87223 17.8596 2.74166 17.8092 2.61984C17.7587 2.49802 17.6847 2.38733 17.5915 2.29409C17.4983 2.20085 17.3876 2.12689 17.2657 2.07643C17.1439 2.02597 17.0134 2 16.8815 2C16.7496 2 16.6191 2.02597 16.4972 2.07643C16.3754 2.12689 16.2647 2.20085 16.1715 2.29409L13.3415 5.12409C12.7797 5.68659 12.4641 6.44909 12.4641 7.24409C12.4641 8.03909 12.7797 8.80159 13.3415 9.36409L12.0415 10.6541L3.77149 2.35409L3.67149 2.29409C3.62037 2.24949 3.56312 2.21245 3.50149 2.18409L3.32149 2.11409L3.20149 2.03409H3.13149H2.93149C2.87187 2.02456 2.81111 2.02456 2.75149 2.03409C2.69095 2.05613 2.63375 2.08641 2.58149 2.12409L2.42149 2.22409H2.35149L2.29149 2.32409C2.24917 2.37689 2.21231 2.43385 2.18149 2.49409C2.1522 2.55507 2.12877 2.61869 2.11149 2.68409C2.11149 2.68409 2.11149 2.75409 2.11149 2.79409C1.86883 4.4855 2.02354 6.21019 2.56337 7.83141C3.1032 9.45262 4.01329 10.9258 5.22149 12.1341L7.86149 14.7641L2.45149 20.1641C2.35776 20.2571 2.28337 20.3677 2.2326 20.4895C2.18183 20.6114 2.15569 20.7421 2.15569 20.8741C2.15569 21.0061 2.18183 21.1368 2.2326 21.2587C2.28337 21.3805 2.35776 21.4911 2.45149 21.5841C2.54493 21.6768 2.65575 21.7501 2.77758 21.7999C2.89942 21.8496 3.02988 21.8749 3.16149 21.8741C3.2931 21.8749 3.42356 21.8496 3.5454 21.7999C3.66724 21.7501 3.77805 21.6768 3.87149 21.5841L9.94149 15.6041L12.7715 12.7741L14.7715 10.7741C15.3295 11.3381 16.0881 11.6581 16.8815 11.6641ZM9.23149 13.4841L6.60149 10.8441C5.15995 9.38282 4.25734 7.47536 4.04149 5.43409L10.6515 12.0341L9.23149 13.4841ZM15.4715 14.0541C15.2832 13.8645 15.0273 13.7574 14.76 13.7565C14.4928 13.7555 14.2361 13.8608 14.0465 14.0491C13.8569 14.2374 13.7498 14.4933 13.7489 14.7606C13.7479 15.0278 13.8532 15.2845 14.0415 15.4741L20.3415 21.7741C20.5325 21.9479 20.7833 22.0411 21.0415 22.0341C21.1731 22.0349 21.3036 22.0096 21.4254 21.9599C21.5472 21.9101 21.658 21.8368 21.7515 21.7441C21.8452 21.6511 21.9196 21.5405 21.9704 21.4187C22.0212 21.2968 22.0473 21.1661 22.0473 21.0341C22.0473 20.9021 22.0212 20.7714 21.9704 20.6495C21.9196 20.5277 21.8452 20.4171 21.7515 20.3241L15.4715 14.0541Z" fill="#E92B37"/>
</svg>
