<svg width="12" height="12" viewBox="0 0 12 12" fill="none" xmlns="http://www.w3.org/2000/svg">
<path fill-rule="evenodd" clip-rule="evenodd" d="M10.2929 0.292893C10.6834 -0.0976309 11.3166 -0.0976309 11.7071 0.292893C12.0977 0.683418 12.0977 1.31658 11.7071 1.70711L7.41424 6L11.7071 10.2929C12.0977 10.6834 12.0977 11.3166 11.7071 11.7071C11.3166 12.0976 10.6834 12.0976 10.2929 11.7071L6.00003 7.41421L1.70714 11.7071C1.31661 12.0976 0.683448 12.0976 0.292924 11.7071C-0.0976009 11.3166 -0.0976009 10.6834 0.292924 10.2929L4.58582 6L0.292924 1.70711C-0.0976006 1.31658 -0.0976006 0.683418 0.292924 0.292893C0.683448 -0.0976309 1.31661 -0.0976309 1.70714 0.292893L6.00003 4.58579L10.2929 0.292893Z" fill="#A5A5C5"/>
</svg>
