<svg width="32" height="32" viewBox="0 0 32 32" fill="none" xmlns="http://www.w3.org/2000/svg">
<path d="M2 16C2 8.26801 8.26801 2 16 2C22.2687 2 27.5751 6.12005 29.3591 11.8" stroke="#A5A5C5" stroke-width="1.5"/>
<path d="M26 10.6667L30 12V8" stroke="#A5A5C5" stroke-width="1.5" stroke-linecap="round" stroke-linejoin="round"/>
<path d="M30 16C30 23.732 23.732 30 16 30C9.7313 30 4.42489 25.8799 2.64092 20.2" stroke="#A5A5C5" stroke-width="1.5"/>
<path d="M6 21.3333L2 20V24" stroke="#A5A5C5" stroke-width="1.5" stroke-linecap="round" stroke-linejoin="round"/>
<path d="M10.6704 16.125L12.0109 14.7321V13.625H7.33283V14.9911H9.88451L8.72886 16.1964V17.3125H9.49621C10.1988 17.3125 10.4854 17.5446 10.4854 17.9196C10.4854 18.3393 10.0787 18.5714 9.45923 18.5714C8.84904 18.5714 8.18339 18.3929 7.66566 18.0536L7 19.3839C7.66566 19.7857 8.61791 20 9.5147 20C11.4654 20 12.3345 18.9821 12.3345 17.9196C12.3345 17.0268 11.7613 16.3482 10.6704 16.125Z" fill="#4B4B61"/>
<path d="M16.4166 15.8929C15.8064 15.8929 15.3164 16.0536 14.9559 16.3571C15.0483 15.4018 15.6678 14.9018 16.5923 14.9018C17.0083 14.9018 17.4151 14.9732 17.7849 15.2232L18.4506 13.9554C17.9791 13.6607 17.2764 13.5 16.546 13.5C14.5029 13.5 13.1068 14.7411 13.1068 16.9196C13.1068 18.9464 14.2902 20 16.1023 20C17.5168 20 18.6447 19.1696 18.6447 17.8661C18.6447 16.6696 17.637 15.8929 16.4166 15.8929ZM15.9913 18.7411C15.4366 18.7411 15.0853 18.4196 15.0853 17.9554C15.0853 17.4821 15.4551 17.1607 15.9821 17.1607C16.5091 17.1607 16.8696 17.4643 16.8696 17.9464C16.8696 18.4375 16.5091 18.7411 15.9913 18.7411Z" fill="#4B4B61"/>
<path d="M22.1525 20C23.7981 20 25 18.8125 25 16.75C25 14.6875 23.7981 13.5 22.1525 13.5C20.4976 13.5 19.2957 14.6875 19.2957 16.75C19.2957 18.8125 20.4976 20 22.1525 20ZM22.1525 18.5536C21.5608 18.5536 21.1355 18.0625 21.1355 16.75C21.1355 15.4375 21.5608 14.9464 22.1525 14.9464C22.7349 14.9464 23.1602 15.4375 23.1602 16.75C23.1602 18.0625 22.7349 18.5536 22.1525 18.5536Z" fill="#4B4B61"/>
<circle cx="24" cy="12" r="1" fill="#4B4B61"/>
</svg>
