<svg width="32" height="32" viewBox="0 0 32 32" fill="none" xmlns="http://www.w3.org/2000/svg">
<path d="M15.9994 9.33268C15.6457 9.33268 15.3066 9.47316 15.0565 9.72321C14.8065 9.97325 14.666 10.3124 14.666 10.666V15.9993C14.666 16.353 14.8065 16.6921 15.0565 16.9422C15.3066 17.1922 15.6457 17.3327 15.9994 17.3327C16.353 17.3327 16.6921 17.1922 16.9422 16.9422C17.1922 16.6921 17.3327 16.353 17.3327 15.9993V10.666C17.3327 10.3124 17.1922 9.97325 16.9422 9.72321C16.6921 9.47316 16.353 9.33268 15.9994 9.33268ZM17.226 20.826C17.1968 20.741 17.1565 20.6603 17.106 20.586L16.946 20.386C16.7585 20.201 16.5204 20.0757 16.2618 20.0258C16.0031 19.976 15.7355 20.0039 15.4927 20.106C15.3311 20.1735 15.1823 20.2682 15.0527 20.386C14.9291 20.5106 14.8313 20.6584 14.765 20.8208C14.6986 20.9833 14.665 21.1572 14.666 21.3327C14.6681 21.5069 14.7044 21.6791 14.7727 21.8393C14.8326 22.0048 14.9281 22.1551 15.0525 22.2795C15.177 22.4039 15.3272 22.4995 15.4927 22.5593C15.6523 22.6299 15.8249 22.6663 15.9994 22.6663C16.1739 22.6663 16.3464 22.6299 16.506 22.5593C16.6715 22.4995 16.8217 22.4039 16.9462 22.2795C17.0706 22.1551 17.1661 22.0048 17.226 21.8393C17.2943 21.6791 17.3306 21.5069 17.3327 21.3327C17.3392 21.2439 17.3392 21.1548 17.3327 21.066C17.3097 20.981 17.2738 20.9 17.226 20.826ZM15.9994 2.66602C13.3623 2.66602 10.7844 3.448 8.59175 4.91309C6.3991 6.37817 4.69013 8.46055 3.68096 10.8969C2.67179 13.3333 2.40775 16.0141 2.92222 18.6006C3.43669 21.187 4.70656 23.5627 6.57126 25.4274C8.43597 27.2921 10.8117 28.562 13.3982 29.0765C15.9846 29.591 18.6655 29.3269 21.1018 28.3177C23.5382 27.3086 25.6205 25.5996 27.0856 23.4069C28.5507 21.2143 29.3327 18.6364 29.3327 15.9993C29.3327 14.2484 28.9878 12.5146 28.3177 10.8969C27.6477 9.27923 26.6656 7.80937 25.4274 6.57126C24.1893 5.33314 22.7195 4.35102 21.1018 3.68096C19.4841 3.01089 17.7503 2.66602 15.9994 2.66602ZM15.9994 26.666C13.8897 26.666 11.8274 26.0404 10.0733 24.8684C8.31915 23.6963 6.95198 22.0304 6.14464 20.0813C5.33731 18.1322 5.12607 15.9875 5.53765 13.9184C5.94922 11.8493 6.96512 9.94864 8.45688 8.45688C9.94864 6.96512 11.8493 5.94922 13.9184 5.53764C15.9875 5.12606 18.1322 5.3373 20.0813 6.14463C22.0304 6.95197 23.6963 8.31914 24.8684 10.0733C26.0404 11.8274 26.666 13.8897 26.666 15.9993C26.666 18.8283 25.5422 21.5414 23.5418 23.5418C21.5414 25.5422 18.8283 26.666 15.9994 26.666Z" fill="#407BC1"/>
</svg>
