<svg width="34" height="16" viewBox="0 0 34 16" fill="none" xmlns="http://www.w3.org/2000/svg">
<rect width="34" height="16" rx="4" fill="#A5A5C5"/>
<path d="M23.2553 12C25.1305 12 26.5 10.7212 26.5 8.5C26.5 6.27885 25.1305 5 23.2553 5C21.3695 5 20 6.27885 20 8.5C20 10.7212 21.3695 12 23.2553 12ZM23.2553 10.4423C22.581 10.4423 22.0964 9.91346 22.0964 8.5C22.0964 7.08654 22.581 6.55769 23.2553 6.55769C23.919 6.55769 24.4036 7.08654 24.4036 8.5C24.4036 9.91346 23.919 10.4423 23.2553 10.4423Z" fill="white"/>
<path d="M16.586 7.57692C15.9249 7.57692 15.394 7.75 15.0033 8.07692C15.1035 7.04808 15.7746 6.50962 16.7763 6.50962C17.227 6.50962 17.6678 6.58654 18.0684 6.85577L18.7896 5.49038C18.2788 5.17308 17.5175 5 16.7262 5C14.5125 5 13 6.33654 13 8.68269C13 10.8654 14.2821 12 16.2454 12C17.778 12 19 11.1058 19 9.70192C19 8.41346 17.9082 7.57692 16.586 7.57692ZM16.1252 10.6442C15.5242 10.6442 15.1436 10.2981 15.1436 9.79808C15.1436 9.28846 15.5442 8.94231 16.1152 8.94231C16.6861 8.94231 17.0768 9.26923 17.0768 9.78846C17.0768 10.3173 16.6861 10.6442 16.1252 10.6442Z" fill="white"/>
<path d="M10.1283 7.7451L11.636 6.21569V5H6.37435V6.5H9.24437L7.94454 7.82353V9.04902H8.80763C9.59792 9.04902 9.92028 9.30392 9.92028 9.71569C9.92028 10.1765 9.46274 10.4314 8.76603 10.4314C8.07972 10.4314 7.33102 10.2353 6.7487 9.86274L6 11.3235C6.7487 11.7647 7.81976 12 8.82842 12C11.0225 12 12 10.8824 12 9.71569C12 8.73529 11.3553 7.9902 10.1283 7.7451Z" fill="white"/>
<circle cx="27" cy="3" r="1" fill="white"/>
</svg>
