<svg width="24" height="24" viewBox="0 0 24 24" fill="none" xmlns="http://www.w3.org/2000/svg">
<path fill-rule="evenodd" clip-rule="evenodd" d="M7 5C4.79086 5 3 6.79086 3 9V16C3 18.2091 4.79086 20 7 20H17C19.2091 20 21 18.2091 21 16V9C21 6.79086 19.2091 5 17 5H7ZM5.81952 7.38537C6.15038 7.14307 6.55848 7 7 7H17C17.4415 7 17.8496 7.14307 18.1805 7.38539L12 12.6829L5.81952 7.38537ZM5 9.31708V16C5 17.1046 5.89543 18 7 18H17C18.1046 18 19 17.1046 19 16V9.31711L12.6508 14.7593C12.2763 15.0803 11.7237 15.0803 11.3492 14.7593L5 9.31708Z" fill="#A5A5C5"/>
</svg>
