<svg width="24" height="24" viewBox="0 0 24 24" fill="none" xmlns="http://www.w3.org/2000/svg">
<g opacity="0.7">
<path d="M19.4386 12.9994C19.2186 12.9994 18.9886 12.9294 18.7686 12.8794C18.3231 12.7812 17.8853 12.6509 17.4586 12.4894C16.9947 12.3206 16.4848 12.3294 16.0269 12.514C15.5691 12.6986 15.1957 13.046 14.9786 13.4894L14.7586 13.9394C13.7846 13.3976 12.8896 12.7246 12.0986 11.9394C11.3134 11.1484 10.6405 10.2534 10.0986 9.27938L10.5186 8.99938C10.962 8.7823 11.3094 8.40891 11.494 7.95107C11.6786 7.49323 11.6874 6.98329 11.5186 6.51938C11.3599 6.0918 11.2296 5.65418 11.1286 5.20938C11.0786 4.98938 11.0386 4.75938 11.0086 4.52938C10.8872 3.825 10.5183 3.18712 9.96826 2.73062C9.41825 2.27412 8.72333 2.02899 8.00864 2.03938H5.00864C4.57767 2.03533 4.15089 2.12419 3.75735 2.29991C3.36381 2.47563 3.01275 2.73408 2.72807 3.05766C2.44339 3.38125 2.23177 3.76237 2.10762 4.17509C1.98348 4.58781 1.94972 5.02244 2.00864 5.44938C2.54137 9.63876 4.45466 13.5313 7.44629 16.512C10.4379 19.4928 14.3373 21.3919 18.5286 21.9094H18.9086C19.6461 21.9105 20.358 21.6399 20.9086 21.1494C21.225 20.8664 21.4777 20.5196 21.6501 20.1317C21.8225 19.7438 21.9106 19.3238 21.9086 18.8994V15.8994C21.8964 15.2048 21.6434 14.5359 21.193 14.007C20.7425 13.4782 20.1225 13.122 19.4386 12.9994ZM19.9386 18.9994C19.9385 19.1414 19.908 19.2817 19.8494 19.411C19.7908 19.5403 19.7053 19.6557 19.5986 19.7494C19.4869 19.8459 19.3562 19.9179 19.215 19.961C19.0738 20.004 18.9252 20.0171 18.7786 19.9994C15.0335 19.5192 11.5549 17.8059 8.89135 15.1297C6.22783 12.4535 4.53105 8.96672 4.06864 5.21938C4.05272 5.0729 4.06667 4.92471 4.10964 4.78377C4.15261 4.64283 4.22371 4.51207 4.31864 4.39938C4.41235 4.29271 4.5277 4.20722 4.65701 4.1486C4.78633 4.08997 4.92665 4.05956 5.06864 4.05938H8.06864C8.30118 4.05421 8.52826 4.13026 8.71078 4.27445C8.8933 4.41864 9.01985 4.62195 9.06864 4.84938C9.10864 5.12271 9.15864 5.39271 9.21864 5.65938C9.33416 6.18652 9.4879 6.70456 9.67864 7.20938L8.27864 7.85938C8.15893 7.9143 8.05126 7.99233 7.96179 8.08898C7.87233 8.18562 7.80284 8.29899 7.75731 8.42257C7.71178 8.54615 7.69111 8.67751 7.69648 8.8091C7.70186 8.94069 7.73318 9.06992 7.78864 9.18938C9.22784 12.2721 11.7059 14.7502 14.7886 16.1894C15.0321 16.2894 15.3052 16.2894 15.5486 16.1894C15.6733 16.1448 15.788 16.0758 15.8858 15.9866C15.9837 15.8973 16.0628 15.7895 16.1186 15.6694L16.7386 14.2694C17.2556 14.4543 17.7832 14.6079 18.3186 14.7294C18.5853 14.7894 18.8553 14.8394 19.1286 14.8794C19.3561 14.9282 19.5594 15.0547 19.7036 15.2372C19.8478 15.4198 19.9238 15.6468 19.9186 15.8794L19.9386 18.9994Z" fill="#A5A5C5"/>
</g>
</svg>
