<svg width="34" height="34" viewBox="0 0 34 34" fill="none" xmlns="http://www.w3.org/2000/svg">
<circle cx="17" cy="17" r="16" fill="white" stroke="#8D8D9F" stroke-width="2"/>
<path fill-rule="evenodd" clip-rule="evenodd" d="M28.2501 8.15215C28.3 8.04923 28.3 7.99777 28.3 7.89486C28.2501 7.79194 28.1003 7.89486 27.9505 7.89486C27.0017 8.46091 26.2028 9.07843 25.3039 9.69595C21.8585 5.78501 16.0161 4.80727 11.3722 7.5861C11.3223 7.5861 11.3223 7.63756 11.2724 7.63756C11.2724 7.68902 11.2724 7.63756 11.2724 7.68902C15.8164 5.01311 21.6088 6.09376 24.9045 10.0562C24.4551 10.4164 24.0056 10.7766 23.5063 11.1883C22.8572 11.7029 22.0582 12.6292 21.3591 13.0923C21.1094 13.0923 21.1094 12.8865 21.0595 12.6806C20.9596 12.166 20.9596 12.0116 20.5102 11.7543C20.1108 11.6514 19.8112 11.7029 19.5115 12.0116C19.162 12.3204 19.1121 12.4748 19.2119 12.9379C19.2119 13.0923 19.3118 13.2467 19.5115 13.401C19.5615 13.504 19.6613 13.4525 19.6613 13.6069C19.6114 13.7613 19.5115 13.9671 19.3617 14.1215C18.8624 14.3273 18.7126 14.2244 18.1633 14.0186C18.0634 13.7613 17.9636 13.6069 18.0634 13.3496C18.4629 12.7835 18.8125 12.166 19.2119 11.3941C19.4616 10.5708 19.3617 9.59303 18.9123 8.87259C18.3131 7.94632 17.8637 7.74048 16.8151 7.43172C15.6167 7.17442 14.8676 7.79194 14.2684 8.35799C12.8703 9.90179 12.4209 11.9087 11.3223 13.9671C10.6732 15.408 9.92414 16.7459 9.22506 18.1868C8.62585 19.4218 7.9767 20.6569 7.27762 21.8404C6.47867 20.2967 6.02926 18.7014 6.02926 17.0547C5.97932 17.0547 6.02926 17.0547 5.97932 17.0547C5.97932 18.7529 6.32886 20.451 7.17775 22.0463C6.57854 23.1269 5.97932 24.1561 5.38011 25.2368C4.73096 26.3689 3.98195 27.501 3.3328 28.6846C3.28286 28.839 3.28286 28.9419 3.38273 28.9934C3.88208 28.8904 5.52991 26.5747 5.82952 26.1116C6.5286 25.1339 7.17775 24.2076 7.77696 23.1784C7.8269 23.2299 7.87683 23.3328 7.92676 23.3842C7.12781 24.6707 6.17906 26.1631 6.27893 26.3689C6.77827 26.3689 7.12781 25.6999 7.57722 25.2368C7.87683 24.8251 8.17644 24.4649 8.47604 24.0532C9.07525 24.7737 9.7244 25.3912 10.4235 25.9058C9.7244 27.0379 9.12519 28.2729 8.62585 29.9196C7.62716 30.4857 7.72703 30.2798 7.57722 32.1324C7.57722 32.6985 7.52729 33.316 7.52729 33.882C7.67709 34.1908 7.72703 33.8306 7.87683 33.5218C8.32624 32.4926 8.72571 31.4634 9.12519 30.4342C9.92414 29.0448 10.6732 27.7583 11.522 26.5747C14.8676 28.4788 19.1121 28.5817 22.6574 26.4204C27.9005 23.3328 29.6482 16.5401 26.5523 11.2912C26.3026 10.8795 26.003 10.4678 25.7034 10.1076C26.003 9.85033 26.3026 9.59303 26.6022 9.33573C27.1016 8.92405 27.6009 8.56383 28.2501 8.15215ZM7.92676 22.9211C8.47604 22.0977 8.97539 21.2229 9.47473 20.2967C9.97407 19.4733 10.5234 18.6499 11.0726 17.7751C11.2224 17.4664 11.4222 17.2605 11.3223 17.7237C11.0227 18.1868 10.773 18.6499 10.4235 19.216C9.97407 19.9879 9.52466 20.7083 9.07526 21.4288C8.97539 21.6346 8.52598 22.3036 8.02663 23.1269C8.02663 23.0755 7.9767 23.024 7.92676 22.9211ZM8.57591 23.7959C8.62585 23.7445 8.67578 23.693 8.72571 23.6415C10.2237 21.5317 11.7218 19.3704 12.8703 17.0547C12.9701 16.8489 13.1199 16.9003 13.07 17.1062C12.5707 18.0324 12.0713 18.8558 11.572 19.7821C11.0726 20.7083 10.4235 21.7375 9.82427 22.6638C9.5746 23.0755 8.97539 23.7959 9.5746 23.4357C11.4721 21.6346 13.2697 18.7014 14.568 16.3857C14.8676 16.1799 14.7678 16.3343 14.618 16.643C13.7192 18.2383 12.7704 19.885 11.6718 21.4288C11.6219 22.355 13.07 20.5025 13.869 19.5248C14.8676 18.2897 15.6666 17.0032 16.3657 15.5109C16.6653 15.2536 16.6653 15.2536 16.6153 15.7167C16.116 16.9518 15.5667 18.1868 14.8676 19.4733C13.5694 21.5831 12.321 23.6415 10.6732 25.597C9.87421 25.1339 9.17512 24.5164 8.57591 23.7959ZM25.9031 11.3941C28.8992 16.4372 27.2014 22.9726 22.1581 26.0087C18.8125 28.0156 14.8676 27.9642 11.6718 26.266C12.9701 24.5164 14.3683 22.9211 16.2159 21.4288C17.0648 21.12 18.3631 20.6054 19.1121 20.554C18.7625 20.8627 18.413 21.0171 18.0135 21.3259C17.5641 21.6861 16.7652 22.0977 16.116 22.8696C15.9163 22.7153 15.6666 23.024 15.4669 23.1784C15.0674 23.5901 13.1699 25.0824 13.5694 25.4426C14.5181 24.7222 15.4169 24.0018 16.3657 23.4357C18.6127 22.0977 20.7599 20.8113 23.3565 19.7821C24.0556 19.4733 24.505 19.3704 23.6062 19.0616C22.3079 18.7529 21.2592 18.7014 20.0608 18.7529C19.3118 18.8558 18.5628 19.0102 17.7638 19.0616C17.5142 19.0616 17.5641 18.9072 17.664 18.7529C18.0135 18.4956 18.1633 18.2897 18.4629 17.981C19.4616 17.1576 20.3604 16.1284 20.3604 14.8934C20.9097 14.6361 21.5089 14.1729 21.9084 13.7613C22.3578 13.401 22.7073 12.9379 23.1568 12.5262C23.8558 11.8573 24.5549 11.0854 25.3039 10.3649C25.5037 10.7766 25.7034 11.0854 25.9031 11.3941Z" fill="#8D8D9F"/>
</svg>
