<svg width="40" height="40" viewBox="0 0 40 40" fill="none" xmlns="http://www.w3.org/2000/svg">
<path d="M14.5828 17.7878L8.75978 14.2295C8.64906 14.1601 8.56212 14.0666 8.5043 13.9606C8.44617 13.854 8.41851 13.7369 8.4219 13.6202L8.42195 13.6183C8.42509 13.5024 8.45881 13.3873 8.52235 13.2838C8.58601 13.1801 8.67829 13.0904 8.79316 13.0262C8.79319 13.0261 8.79322 13.0261 8.79325 13.0261L14.067 10.0777C14.1738 10.0271 14.2927 10 14.4145 10C14.5424 10 14.6671 10.0298 14.7779 10.0855L14.7949 10.094L14.8121 10.1018L23.6407 14.1246L24.1014 14.3346L24.5434 14.0875L28.3396 11.9648L28.3428 11.9631C29.2207 11.468 30.1922 11.1452 31.2016 11.0142C32.2111 10.8832 33.2372 10.9467 34.2207 11.201C35.2041 11.4553 36.1244 11.8949 36.9291 12.4932C37.3782 12.8271 37.7611 13.4201 37.8994 13.6649C37.9945 13.8334 38.0225 14.0257 37.982 14.2089C37.9547 14.2909 37.9112 14.369 37.8523 14.4386C37.7886 14.514 37.708 14.578 37.6144 14.6252L37.5966 14.6341L37.5792 14.6437L12.6506 28.4563C12.6502 28.4565 12.6498 28.4568 12.6493 28.457C11.8444 28.8987 10.9112 29.079 9.98872 28.9681C9.06586 28.8572 8.20878 28.4617 7.54289 27.8456L7.51811 27.8227L7.49184 27.8014L2.24911 23.5697C2.14076 23.4775 2.06563 23.3606 2.02802 23.2351C1.98991 23.108 1.99068 22.9735 2.03031 22.8466C2.07004 22.7195 2.14841 22.6016 2.26076 22.5099C2.37325 22.418 2.5142 22.3572 2.66731 22.3387C2.66755 22.3387 2.66778 22.3387 2.66802 22.3386L11.1059 21.3461L11.3027 21.3229L11.4758 21.2265L14.5481 19.5146L16.0444 18.6809L14.5828 17.7878Z" stroke="white" stroke-width="2"/>
</svg>
