<svg width="24" height="16" viewBox="0 0 24 16" fill="none" xmlns="http://www.w3.org/2000/svg">
<rect width="24" height="16" rx="4" fill="#A5A5C5"/>
<path d="M14.659 8.68093L10.0224 11.893C9.91844 11.9631 9.80103 12 9.68158 12C9.56212 12 9.44471 11.9631 9.34079 11.893C9.23716 11.8218 9.15111 11.7193 9.09128 11.5959C9.03146 11.4725 8.99998 11.3325 9 11.19V4.81159C8.99998 4.6691 9.03146 4.52912 9.09128 4.40572C9.15111 4.28231 9.23716 4.17984 9.34079 4.10859C9.44514 4.03953 9.5622 4.00222 9.68158 4C9.80087 4.00292 9.91779 4.04017 10.0224 4.10859L14.659 7.2978C14.7627 7.36902 14.8488 7.47148 14.9086 7.59488C14.9685 7.71829 15 7.85829 15 8.0008C15 8.14331 14.9685 8.28331 14.9086 8.40672C14.8488 8.53012 14.7627 8.63258 14.659 8.7038V8.68093Z" fill="white"/>
</svg>
