<svg width="70" height="70" viewBox="0 0 70 70" fill="none" xmlns="http://www.w3.org/2000/svg">
<g clip-path="url(#clip0_957_97715)">
<path fill-rule="evenodd" clip-rule="evenodd" d="M69.7537 61.5905C69.8364 61.5171 69.918 61.4448 69.9984 61.3724C69.9984 61.3603 69.9984 61.3422 69.9863 61.3301C69.9771 61.3242 69.9677 61.3183 69.9582 61.3124C69.8999 61.2757 69.8397 61.2379 69.7928 61.191L61.1524 52.5506C61.092 52.4841 61.0315 52.4176 60.965 52.3511C65.657 47.3083 68.1603 41.3767 68.2449 34.5019C68.3296 27.621 66.0319 21.5806 61.4064 16.4834C57.1073 11.743 51.7441 8.883 45.3832 8.09091C37.1056 7.05696 29.8982 9.50579 23.7248 15.1532C22.8792 14.3077 22.0337 13.4628 21.1893 12.6191C19.5036 10.9347 17.8224 9.25485 16.1546 7.58301C16.0444 7.68221 15.9364 7.78142 15.8225 7.88605C15.7489 7.9536 15.6729 8.02342 15.5923 8.09696L15.5924 8.09708C18.8091 11.3138 22.0197 14.5244 25.2424 17.7229C21.9894 21.0666 19.855 25.0089 18.9662 29.5982C18.0774 34.1754 18.5127 38.6437 20.2541 42.9911C19.4862 43.3479 18.8211 43.8316 18.1983 44.3697C17.8282 44.689 17.4647 45.0148 17.1012 45.3406C16.8589 45.5577 16.6165 45.7749 16.3723 45.9902C16.4453 45.7554 16.5409 45.5341 16.6356 45.3147C16.6507 45.2798 16.6657 45.245 16.6806 45.2102C16.8923 44.7325 17.0616 44.2428 17.0374 43.7046C17.0071 43.1302 16.6141 42.7372 16.0337 42.7311C15.5681 42.7251 15.1448 42.8763 14.7337 43.0758C13.5667 43.6442 12.5569 44.4363 11.5834 45.2767C11.523 45.3311 11.4625 45.3795 11.3779 45.446C11.3476 45.2828 11.3295 45.1559 11.3114 45.0289L11.3114 45.0288C11.1542 43.8437 10.5616 43.1725 9.40067 42.8642C8.62068 42.6525 7.82859 42.6767 7.04255 42.7977C5.70628 43.0032 4.46675 43.4809 3.28769 44.1339C2.30212 44.6781 1.39514 45.3311 0.6998 46.2321C0.40957 46.6069 0.167711 47.006 0.0588741 47.4716C-0.140659 48.306 0.173757 48.9771 0.899334 49.213C1.12305 49.2855 1.377 49.352 1.60677 49.3158C1.65965 49.3081 1.71262 49.3006 1.76566 49.293C2.47067 49.192 3.18772 49.0893 3.86815 48.8925C5.15 48.5237 6.12953 47.653 7.09697 46.7762C7.1314 46.7467 7.16183 46.7052 7.19152 46.6647C7.19832 46.6554 7.20509 46.6462 7.21185 46.6372C7.35697 46.4255 7.34487 46.1897 7.19371 46.0386C7.03046 45.8814 6.7886 45.8753 6.57697 46.0446C6.48023 46.1212 6.38887 46.2085 6.29751 46.2959C6.25182 46.3395 6.20613 46.3832 6.15976 46.4255C5.08349 47.4353 3.88629 48.2274 2.36863 48.3846C2.01188 48.4209 1.64305 48.4209 1.29235 48.3665C0.911427 48.306 0.790497 48.0944 0.899334 47.7255C0.971891 47.4595 1.07468 47.1753 1.25003 46.9758C1.61886 46.5404 2.01188 46.1111 2.45932 45.7604C3.57187 44.8776 4.85373 44.3032 6.20814 43.8981C7.09697 43.6321 7.99789 43.4749 8.92905 43.6321C9.9509 43.8074 10.4769 44.4483 10.4649 45.4883C10.4528 46.1353 10.2411 46.7218 9.94486 47.2781C9.06207 48.9469 7.90719 50.3981 6.48627 51.6376C6.2501 51.8436 6.02228 52.0622 5.79587 52.2794C5.74984 52.3235 5.70387 52.3676 5.65791 52.4115C5.58535 52.4781 5.52488 52.5567 5.47651 52.6413C5.36768 52.8288 5.40395 53.0464 5.56116 53.2036C5.71837 53.3608 5.89372 53.3246 6.05697 53.2218C6.21418 53.125 6.35325 53.0101 6.49232 52.8953C8.22161 51.432 9.60625 49.6846 10.7007 47.7134C11.1904 46.8367 11.8132 46.099 12.5872 45.4762C13.476 44.7628 14.4072 44.1218 15.5016 43.7651C15.6399 43.7175 15.7876 43.6885 15.9534 43.6559C16.0194 43.643 16.0883 43.6294 16.1606 43.6139C16.1525 43.6935 16.1491 43.769 16.146 43.8405C16.1397 43.981 16.1342 44.1064 16.0941 44.2186C16.006 44.4683 15.9045 44.7136 15.8031 44.9584C15.7376 45.1167 15.6721 45.2749 15.6104 45.4339C14.8365 47.4655 13.7299 49.3158 12.4844 51.0874C12.3876 51.2204 12.2969 51.3655 12.2365 51.5167C12.1155 51.8069 12.1881 52.0064 12.442 52.1515C12.6355 52.2664 12.7927 52.212 12.9862 51.946C13.0245 51.8916 13.0628 51.8372 13.1012 51.7828C13.336 51.4499 13.5722 51.1151 13.7904 50.7669C14.7458 49.2251 15.8523 47.8041 17.1039 46.4921C17.9867 45.5669 18.9178 44.6902 20.0546 44.0735C20.157 44.0186 20.2638 43.9704 20.3738 43.9207C20.4456 43.8883 20.5187 43.8553 20.5927 43.8195C20.6327 43.8996 20.6682 43.976 20.7023 44.0494C20.7557 44.1646 20.8057 44.2724 20.8648 44.3758C20.9494 44.5209 20.9494 44.6479 20.8708 44.799C20.7013 45.1195 20.5335 45.4409 20.3659 45.7622C20.097 46.2773 19.8283 46.7921 19.5527 47.3023C18.9904 48.3483 18.4643 49.4064 18.1136 50.5432C17.9564 51.045 17.8415 51.5469 17.9443 52.079C18.0895 52.8408 18.7908 53.1976 19.4499 52.8167C19.8008 52.6187 20.1383 52.3974 20.4773 52.175C20.594 52.0985 20.7109 52.0218 20.8285 51.946C20.9313 51.8734 21.0341 51.8008 21.1611 51.7102C21.1635 51.7389 21.1668 51.7619 21.1696 51.7811C21.1738 51.8105 21.1768 51.831 21.1732 51.8492C21.0039 52.7078 22.0983 53.6208 23.0355 53.2157C23.7127 52.9194 24.3173 52.5204 24.9159 52.0971C24.9512 52.0714 24.9883 52.0458 25.0279 52.0183C25.0629 51.994 25.0999 51.9683 25.1396 51.9399C25.1633 52.0282 25.1839 52.1134 25.2039 52.1961C25.2401 52.3456 25.2743 52.4869 25.321 52.6232C25.4601 53.0222 25.6959 53.1613 26.095 53.0222C26.4396 52.9013 26.7722 52.7078 27.0926 52.5143C27.2317 52.4357 27.3043 52.4297 27.4252 52.5264C31.4582 55.6827 36.0293 57.3757 41.1507 57.5692C42.9828 57.6357 44.8028 57.4906 46.5986 57.1278C51.0609 56.2208 54.9306 54.165 58.2199 51.0148C58.2743 50.9664 58.3287 50.9181 58.4134 50.8455C62.0957 54.5278 65.7659 58.198 69.4361 61.8743C69.5438 61.7766 69.6497 61.6828 69.7537 61.5905ZM57.0121 49.7275C57.0021 49.7252 56.9915 49.7227 56.9804 49.7209C56.9804 49.6791 56.9789 49.6381 56.9775 49.5985C56.9749 49.5235 56.9724 49.4537 56.9804 49.3944C57.1557 48.4088 56.4422 47.5562 55.4808 47.3446C54.9246 47.2237 54.3804 47.2479 53.8967 47.5865C53.7334 47.7013 53.5701 47.8525 53.4795 48.0218C53.3706 48.2274 53.2134 48.3483 53.0199 48.4572C52.3427 48.826 51.8046 49.346 51.4176 50.0171C51.4112 50.0275 51.4047 50.0383 51.3981 50.0494C51.3739 50.0902 51.3481 50.1337 51.3148 50.1623C51.2434 50.226 51.172 50.2898 51.1007 50.3535C50.4958 50.8942 49.8931 51.4328 49.2711 51.952C49.1555 52.0476 49.0137 52.1118 48.8612 52.1807C48.7823 52.2164 48.7006 52.2534 48.6181 52.2967C48.5455 51.8129 48.5879 51.4139 48.7572 51.0511C48.9229 50.7107 49.1184 50.3869 49.3144 50.0625C49.383 49.9489 49.4516 49.8353 49.519 49.7209C49.5408 49.6846 49.5691 49.6548 49.5974 49.6251C49.6162 49.6053 49.6351 49.5854 49.652 49.5637C49.6706 49.5404 49.6905 49.5174 49.7105 49.4941C49.8206 49.3662 49.9344 49.2339 49.8576 49.0497C49.7618 48.8281 49.5295 48.8082 49.3194 48.7902L49.3134 48.7897C48.7874 48.7474 48.5032 48.5297 48.346 48.0218C48.3127 47.913 48.2886 47.8026 48.2644 47.6923C48.2402 47.5819 48.216 47.4716 48.1827 47.3627C48.1465 47.2539 48.1041 47.133 48.0316 47.0423C47.9046 46.879 47.6809 46.873 47.5358 47.0241C47.4632 47.0967 47.4148 47.1813 47.3665 47.266C47.1488 47.6288 46.9311 47.9916 46.7255 48.3604C46.1693 49.3399 45.3228 50.0474 44.4763 50.7548C43.5088 51.565 42.4809 52.2967 41.3079 52.7985C40.9209 52.9618 40.5279 53.0827 40.0986 53.0464C39.633 53.0101 39.4154 52.7864 39.5121 52.3329C39.6149 51.8734 39.76 51.4139 39.9535 50.9846C40.1063 50.6512 40.3016 50.3356 40.496 50.0214C40.5555 49.9253 40.6149 49.8293 40.673 49.733C40.7551 49.5969 40.8377 49.4613 40.9201 49.326C41.1051 49.0225 41.2895 48.7201 41.4651 48.4148C41.5679 48.2395 41.707 48.173 41.9065 48.173C42.6077 48.177 43.3062 48.1757 44.0055 48.1743C44.3556 48.1736 44.7058 48.173 45.0567 48.173C45.2381 48.173 45.4195 48.173 45.6009 48.1669C45.8428 48.1548 45.9818 48.0399 46.0181 47.8344C46.0483 47.6409 45.9335 47.4111 45.7339 47.3446C45.5888 47.2962 45.4256 47.2841 45.2683 47.2841L42.4144 47.2479C42.4011 47.2479 42.3897 47.2442 42.3731 47.2389C42.3594 47.2346 42.3422 47.2291 42.3177 47.2237C42.3308 47.203 42.3434 47.1823 42.3558 47.162C42.3831 47.117 42.4094 47.0737 42.4386 47.0362C42.6139 46.8004 42.7923 46.5661 42.9707 46.3318C43.1491 46.0975 43.3274 45.8632 43.5028 45.6274C43.5874 45.5125 43.666 45.3916 43.7265 45.2646C43.8111 45.0832 43.787 44.9018 43.6297 44.7688C43.4665 44.6297 43.273 44.6237 43.1098 44.7507C42.9525 44.8656 42.8074 45.0046 42.6925 45.1618C42.1907 45.8209 41.6949 46.4921 41.2051 47.1632C41.1265 47.2781 41.0419 47.3325 40.8967 47.3446C40.5219 47.3748 40.147 47.4111 39.7781 47.4837C39.6209 47.5139 39.4516 47.6167 39.3428 47.7376C39.1009 48.0037 39.24 48.3423 39.5968 48.3785C39.7306 48.3915 39.8645 48.3736 39.9984 48.3557C40.052 48.3486 40.1055 48.3414 40.1591 48.3362C40.2151 48.3316 40.2711 48.3233 40.3327 48.3142C40.3509 48.3115 40.3695 48.3088 40.3888 48.306C39.8054 49.6769 38.6594 50.4533 37.5027 51.237C37.4247 51.2898 37.3467 51.3427 37.2689 51.3957C37.2873 51.3155 37.307 51.2357 37.3268 51.1559C37.3785 50.9474 37.4301 50.7394 37.4563 50.525C37.5107 50.1139 37.547 49.6967 37.553 49.2855C37.5651 48.5358 37.5954 47.792 37.8916 47.0846C38.0186 46.7762 37.9219 46.486 37.6982 46.3046C37.553 46.1897 37.414 46.1716 37.2749 46.3107L37.2749 46.3107C37.2084 46.3711 37.1419 46.4316 37.0935 46.5102C36.247 47.8827 35.1345 49.0255 33.9675 50.1139C33.3507 50.6883 32.6977 51.2325 32.0145 51.7283C31.4461 52.1395 30.7689 52.3329 30.0615 52.3692C29.6745 52.3874 29.4145 52.1636 29.2089 51.8311C29.3659 51.7345 29.5048 51.6499 29.6437 51.5654L29.6443 51.565C30.5694 51.0027 31.4642 50.392 32.2624 49.6604C32.6614 49.2916 33.0242 48.8985 33.254 48.4027C33.4354 48.0158 33.4414 47.6469 33.1814 47.2902C32.8791 46.879 32.4559 46.7944 31.9903 46.8548C31.5126 46.9153 31.0773 47.1088 30.6722 47.3688C29.6866 47.9976 28.9791 48.8562 28.435 49.8962C28.2379 50.2816 27.9362 50.613 27.6355 50.9433C27.521 51.0691 27.4066 51.1948 27.2982 51.3232C27.274 51.3474 27.1652 51.3413 27.1289 51.3111C26.9233 51.1418 26.7178 50.9604 26.5243 50.7669C26.482 50.7246 26.4759 50.5976 26.5061 50.5371C26.5935 50.3582 26.6895 50.1879 26.7861 50.0164C26.8299 49.9386 26.8739 49.8605 26.9173 49.7813C27.014 49.606 27.0201 49.4125 26.881 49.2734C26.7843 49.1767 26.621 49.1041 26.494 49.1102C26.3792 49.1102 26.2522 49.2251 26.1736 49.3218C25.9943 49.537 25.8175 49.7572 25.6403 49.9778C25.4292 50.2408 25.2176 50.5044 25.0006 50.7609C24.5229 51.3232 23.9485 51.7646 23.2713 52.0548C23.0838 52.1334 22.8722 52.1999 22.6666 52.2181C22.3038 52.2543 22.1164 52.0729 22.0983 51.7041C22.0801 51.2748 22.2434 50.906 22.4973 50.5734C23.0173 49.8962 23.6099 49.2916 24.3052 48.7776C25.061 48.2153 25.8894 48.0279 26.8024 48.1488C27.014 48.173 27.2257 48.1851 27.3466 47.9734C27.4494 47.792 27.4373 47.5986 27.2982 47.4474C27.2257 47.3688 27.1168 47.3144 27.014 47.2841C26.1675 47.0604 25.3694 47.2237 24.5955 47.5865C24.4367 47.6614 24.2843 47.7429 24.1243 47.8284C24.065 47.8601 24.0046 47.8924 23.9424 47.9251C23.9274 47.9062 23.9123 47.888 23.8975 47.87C23.8645 47.8301 23.8325 47.7914 23.8034 47.7497C23.501 47.2841 23.2017 46.817 22.9024 46.35C22.6031 45.8829 22.3038 45.4158 22.0015 44.9502C21.9169 44.8232 21.929 44.7083 21.9713 44.5693C22.0499 44.2972 22.1224 44.019 22.1648 43.7349C22.2252 43.2995 22.0197 43.0032 21.6025 42.8763C21.587 42.8724 21.571 42.8667 21.5547 42.8609C21.52 42.8486 21.4842 42.8359 21.4513 42.84C21.022 42.8763 20.889 42.6102 20.7559 42.2595C20.0908 40.4577 19.6313 38.6135 19.4136 36.7089C19.2322 35.0703 19.2141 33.4317 19.3894 31.7991C19.9578 26.5447 22.0922 22.0159 25.7927 18.2429C29.0094 14.9657 32.8852 12.8555 37.3777 11.9002C39.4456 11.4648 41.5377 11.3318 43.6418 11.489C53.6608 12.2388 61.7813 19.416 64.0487 28.8182C64.5747 30.9768 64.7864 33.1656 64.6412 35.3786C64.2966 40.6028 62.3738 45.186 58.9636 49.1525C58.9092 49.219 58.8366 49.3037 58.758 49.3218C58.1957 49.4669 57.6334 49.5999 57.0711 49.733C57.0543 49.7371 57.0347 49.7326 57.0121 49.7275ZM66.9208 28.6791C68.9766 38.0572 65.4938 46.6976 60.4329 51.7646C59.9008 51.2264 59.3748 50.6943 58.8487 50.1562C58.9129 50.1201 58.9804 50.0827 59.0499 50.0441C59.19 49.9665 59.3381 49.8843 59.4836 49.7995C59.5864 49.733 59.6892 49.6664 59.7738 49.5818C59.9915 49.3702 59.9734 49.1102 59.7315 48.8562C64.0245 43.3479 65.8626 37.1744 64.7017 30.2331C63.7887 24.7913 61.1766 20.2443 56.9864 16.6527C52.506 12.8132 47.2818 10.9448 41.3744 11.096C35.4731 11.2411 30.4061 13.4541 26.101 17.4146L24.3355 15.649C27.3345 12.8011 30.8294 10.7574 34.8382 9.60253C38.8409 8.4537 42.886 8.27835 46.9614 9.09463C56.9804 11.096 64.7803 18.8899 66.9208 28.6791ZM50.8069 51.7767C50.8674 51.7222 50.9278 51.6678 51.0185 51.5892C51.2483 53.0404 52.5241 53.3064 53.4855 53.2036C54.4469 53.0767 55.1604 52.5083 55.7771 51.8129C56.031 51.5286 56.2464 51.2017 56.4594 50.8787C56.5 50.817 56.5406 50.7554 56.5813 50.6943C56.6599 50.5734 56.7385 50.5069 56.8836 50.5069C56.9828 50.5069 57.0819 50.5044 57.1817 50.5019C57.3496 50.4976 57.5194 50.4933 57.6938 50.5009C54.066 53.9715 49.779 56.0697 44.7907 56.6804C39.4577 57.3273 34.4996 56.2027 29.9345 53.3608C31.0168 53.2399 32.0145 52.9315 32.8912 52.2302C32.9517 52.3269 32.994 52.3934 33.0363 52.4599C33.6591 53.4153 34.548 53.7357 35.6242 53.3367C36.7005 52.9376 37.6558 52.3148 38.5749 51.6315C38.6354 51.5832 38.6958 51.5409 38.7563 51.4985C38.7607 51.4897 38.7715 51.4905 38.7863 51.4916C38.7919 51.492 38.7981 51.4925 38.8047 51.4925C38.7911 51.5655 38.7761 51.6381 38.7611 51.7105C38.7227 51.8957 38.6847 52.0795 38.6716 52.2664C38.6535 52.4962 38.6595 52.7381 38.714 52.9618C38.8349 53.4939 39.24 53.8143 39.8326 53.899C40.4554 53.9897 41.0358 53.8325 41.5921 53.5906C41.9589 53.4294 42.315 53.2413 42.671 53.0532C42.8491 52.9591 43.0271 52.865 43.2065 52.7743C43.267 52.7461 43.3328 52.734 43.3986 52.7219C43.4315 52.7159 43.4645 52.7098 43.4967 52.7018C43.5397 52.6892 43.5843 52.6788 43.6292 52.6683C43.7359 52.6434 43.8445 52.618 43.9381 52.5627C44.6697 52.1395 45.2683 51.5529 45.8428 50.9362C46.4897 50.2409 47.0641 49.4971 47.56 48.6869C47.5841 48.6385 47.6144 48.5962 47.6627 48.5297C47.7588 48.6669 47.8531 48.8024 47.9466 48.9367C48.1005 49.1577 48.2523 49.3758 48.4065 49.5939C48.3813 49.6646 48.3558 49.7363 48.3299 49.8087C48.1879 50.2064 48.0376 50.6274 47.9046 51.0571C47.8352 51.2839 47.7905 51.5249 47.7463 51.7638C47.7328 51.837 47.7192 51.9099 47.7051 51.9822C47.56 52.7078 48.1404 53.3246 48.9506 53.0767C49.1985 52.9981 49.4465 52.8771 49.652 52.726C49.9583 52.4986 50.2503 52.2499 50.5417 52.0017C50.63 51.9264 50.7183 51.8512 50.8069 51.7767ZM21.4815 45.6455C22.0983 46.5707 22.6969 47.4776 23.2834 48.3665C23.1096 48.5615 22.9383 48.7583 22.7671 48.9551C22.4022 49.3744 22.0377 49.7933 21.6508 50.1925C20.8466 51.0148 19.849 51.5771 18.7788 52.1697C18.7859 52.0698 18.7893 51.973 18.7927 51.8795C18.8007 51.6559 18.808 51.4503 18.8634 51.2627C18.8909 51.1705 18.9181 51.0781 18.9453 50.9857C19.1213 50.387 19.2977 49.7871 19.5648 49.2371C19.9923 48.3648 20.4606 47.5113 20.9336 46.6494C21.1162 46.3166 21.2996 45.9825 21.4815 45.6455ZM55.5851 50.4525C55.5987 50.4616 55.6169 50.4736 55.6441 50.4888C55.6266 50.5119 55.609 50.5351 55.5915 50.5582C55.0057 51.3324 54.4354 52.0862 53.4432 52.3269C53.0683 52.4176 52.7176 52.3329 52.4032 52.1274C52.0464 51.8976 51.8953 51.4864 52.0041 51.0329C52.1976 50.2348 52.6934 49.6423 53.3464 49.1706C53.3827 49.1404 53.5036 49.1465 53.5278 49.1827C54.0478 49.8539 54.7673 50.1925 55.5534 50.4343C55.5625 50.4374 55.5715 50.4434 55.5851 50.4525ZM36.6211 48.6274C36.6458 48.6045 36.6737 48.5786 36.7065 48.5479C36.773 49.7027 36.7368 50.779 36.12 51.7464C35.8056 52.2543 35.4005 52.6292 34.7475 52.5869C34.1973 52.5567 33.8587 52.2181 33.6168 51.7646C33.5926 51.7222 33.6349 51.6255 33.6773 51.5832C33.7603 51.5027 33.8464 51.4243 33.9327 51.3458C34.0537 51.2356 34.175 51.1253 34.2879 51.0088L36.501 48.7413C36.5369 48.7054 36.5729 48.672 36.6211 48.6274ZM30.6661 48.5418C31.3252 48.0158 32.0508 47.7376 32.5889 47.8344C32.5423 47.9081 32.5001 47.9831 32.4586 48.0567C32.3709 48.2125 32.2866 48.3623 32.1717 48.4813C31.8633 48.8078 31.5429 49.1344 31.1801 49.4004C30.6881 49.7624 30.1748 50.0995 29.662 50.4362C29.5067 50.5382 29.3514 50.6401 29.1968 50.7427C29.1821 50.7538 29.1651 50.7603 29.1348 50.772C29.1155 50.7795 29.0908 50.789 29.0578 50.8032C29.4326 49.8902 29.9284 49.1344 30.6661 48.5418ZM56.0376 49.5979C56.0299 49.6296 56.0217 49.6641 56.0129 49.7027C55.9279 49.681 55.8427 49.6609 55.7579 49.6409C55.3003 49.5329 54.8552 49.4278 54.5134 49.086C54.1748 48.7655 54.1808 48.4148 54.5194 48.1065C54.5739 48.0581 54.6767 48.0218 54.7553 48.0279C54.9004 48.0399 55.0515 48.0762 55.1967 48.1125C55.9283 48.2939 56.1762 48.6506 56.0794 49.3944C56.0708 49.4588 56.0562 49.5201 56.0376 49.5979ZM26.1373 52.0064C25.8954 51.9097 25.8954 51.6678 26.0889 51.3957C26.2582 51.5409 26.4094 51.6739 26.621 51.8674C26.5566 51.8875 26.4935 51.915 26.4339 51.941C26.3147 51.993 26.2099 52.0387 26.1373 52.0064ZM27.9843 51.7385C28.0406 51.6774 28.0983 51.6147 28.1629 51.5469C28.2415 51.8129 28.3019 52.0246 28.3624 52.2422C28.3564 52.2543 28.3443 52.2664 28.3322 52.2785C28.2426 52.2069 28.1509 52.1373 28.052 52.0623C27.9841 52.0108 27.9127 51.9567 27.8364 51.8976C27.8871 51.8441 27.9352 51.7919 27.9843 51.7385ZM36.8577 41.4615H37.1177C37.1177 41.3753 37.117 41.2912 37.1162 41.2085C37.1139 40.966 37.1118 40.7361 37.1298 40.5061C37.1298 40.361 37.0754 40.3126 36.9364 40.2945C36.6437 40.2539 36.3536 40.2084 36.0636 40.1629C35.7065 40.1069 35.3498 40.051 34.9894 40.0043C34.7596 39.974 34.7173 39.8833 34.7173 39.6717C34.7264 37.4405 34.7252 35.2126 34.7241 32.9856C34.7237 32.2434 34.7233 31.5013 34.7233 30.7592C34.7233 30.3781 34.7116 30.0029 34.6997 29.6219L34.6992 29.6043L34.5722 25.1602C34.5722 25.1473 34.579 25.1362 34.5881 25.1213C34.5962 25.1082 34.606 25.0921 34.6145 25.0695C34.6433 25.1378 34.6678 25.1933 34.6905 25.2449C34.706 25.28 34.7207 25.3133 34.7354 25.3476L38.2908 34.0183L38.2909 34.0187C39.2825 36.425 40.2741 38.8314 41.2535 41.2438C41.3261 41.4131 41.4047 41.4736 41.5861 41.4615C41.8642 41.4433 42.1484 41.4373 42.4265 41.4615C42.6865 41.4857 42.8014 41.395 42.8982 41.1471C44.6905 36.5178 46.4921 31.8978 48.2949 27.275C48.5477 26.6265 48.8006 25.9781 49.0535 25.3295C49.0837 25.2509 49.12 25.1723 49.1563 25.0937C49.1653 25.0967 49.1744 25.0982 49.1835 25.0997C49.1925 25.1012 49.2016 25.1027 49.2107 25.1058V25.3416C49.2107 25.9809 49.2114 26.6196 49.212 27.2579C49.2134 28.533 49.2147 29.8063 49.2107 31.0797C49.2059 32.2327 49.1991 33.3866 49.1923 34.5408C49.1822 36.2737 49.172 38.0071 49.1684 39.7382C49.1684 39.9438 49.12 40.0224 48.9023 40.0466C48.2312 40.1192 47.554 40.2099 46.8828 40.3006C46.8042 40.3126 46.6772 40.3731 46.6772 40.4154C46.6627 40.6863 46.6637 40.961 46.6646 41.2365C46.6649 41.3054 46.6651 41.3744 46.6651 41.4433H54.5316C54.5316 41.3622 54.5312 41.2825 54.5308 41.204C54.5297 40.9724 54.5286 40.75 54.5376 40.5243C54.5437 40.3489 54.4711 40.3126 54.3139 40.2945C54.064 40.2663 53.814 40.2361 53.5641 40.2058C53.0643 40.1454 52.5645 40.0849 52.0646 40.0406C51.8228 40.0164 51.7865 39.9136 51.7865 39.714C51.7839 39.1635 51.7779 38.6141 51.772 38.0654C51.7641 37.3364 51.7563 36.6085 51.7563 35.8806C51.7563 32.815 51.7623 29.7434 51.7683 26.6779C51.7683 26.0611 51.7749 25.4443 51.7814 24.8276C51.7858 24.4164 51.7901 24.0053 51.7925 23.5942C51.7925 23.4188 51.8228 23.316 52.0465 23.2979C52.8083 23.2314 53.5762 23.1346 54.3381 23.0379C54.4046 23.0258 54.5255 22.9714 54.5255 22.929C54.5346 22.676 54.5335 22.4195 54.5324 22.1546C54.532 22.0651 54.5316 21.9746 54.5316 21.883H54.2293C53.675 21.883 53.1207 21.8823 52.5665 21.8817C51.458 21.8803 50.3494 21.879 49.2409 21.883C49.0229 21.883 48.9398 21.8663 48.8915 21.8998C48.8433 21.9331 48.8296 22.0163 48.7512 22.2156C46.7205 27.4494 44.6958 32.6893 42.6712 37.9292L42.6684 37.9364C42.6527 37.9741 42.6353 38.0102 42.6155 38.0515C42.5972 38.0896 42.5767 38.1321 42.5535 38.1843C42.4991 38.0695 42.4689 38.0029 42.4387 37.9365L42.4386 37.9364C41.3563 35.2941 40.2801 32.6578 39.2038 30.0155C38.6657 28.6944 38.126 27.3747 37.5864 26.0551C37.0467 24.7355 36.5071 23.4158 35.9689 22.0946C35.9644 22.0836 35.96 22.0724 35.9557 22.0612C35.9197 21.9685 35.8842 21.877 35.7331 21.877C34.6365 21.881 33.5425 21.8796 32.4494 21.8783C31.9032 21.8776 31.3573 21.877 30.8113 21.877C30.6843 21.877 30.6299 21.9193 30.6299 22.0463C30.6339 22.2276 30.6326 22.409 30.6312 22.5904C30.6306 22.6811 30.6299 22.7718 30.6299 22.8625C30.6299 22.9895 30.6964 23.0318 30.8113 23.0439C31.0816 23.076 31.3511 23.1107 31.6203 23.1453C32.0617 23.2021 32.5025 23.2589 32.9457 23.3039C33.2834 23.3351 33.2818 23.3797 33.2747 23.5796C33.2735 23.6123 33.2722 23.6492 33.2722 23.6909V39.0852C33.2722 39.1602 33.2715 39.2346 33.2708 39.3085C33.2695 39.4549 33.2682 39.5996 33.2722 39.7443C33.2782 39.8954 33.2299 39.9619 33.0727 39.9801C32.6233 40.0376 32.176 40.1015 31.7284 40.1655C31.4232 40.2092 31.1177 40.2528 30.8113 40.2945C30.6783 40.3126 30.6299 40.3731 30.6299 40.5001C30.6299 40.5638 30.6309 40.628 30.6318 40.6924C30.6343 40.8542 30.6368 41.0173 30.6238 41.1773C30.6057 41.4131 30.6964 41.4675 30.9201 41.4675C32.4033 41.4585 33.8898 41.4596 35.3747 41.4607C35.8693 41.4611 36.3637 41.4615 36.8577 41.4615Z" fill="white"/>
</g>
<defs>
<clipPath id="clip0_957_97715">
<rect width="70" height="70" fill="white"/>
</clipPath>
</defs>
</svg>
