<svg width="70" height="70" viewBox="0 0 70 70" fill="none" xmlns="http://www.w3.org/2000/svg">
<path d="M36.5 28.617C36.3632 28.8649 36.1657 29.0818 35.8769 29.2522C35.5881 29.4225 35.2386 29.5 34.8283 29.5C33.4453 29.5 32.7462 28.71 32.7462 27.1145V23.6601H31.5V23.2573L33.6277 20.5H34.0228V22.2814H36.4544V23.6601H34.0228V26.8976C34.0228 27.3468 34.114 27.6721 34.2964 27.858C34.4787 28.0439 34.7523 28.1368 35.1322 28.1368C35.3906 28.1368 35.6033 28.0904 35.7857 27.9819C35.9681 27.8735 36.1353 27.7496 36.2568 27.5947L36.5 28.617Z" fill="white"/>
<path fill-rule="evenodd" clip-rule="evenodd" d="M26.5 43.1691C26.4125 43.3446 26.2812 43.5055 26.1062 43.681C25.9313 43.8272 25.7271 43.9735 25.4792 44.0905C25.2312 44.2075 24.9396 44.3099 24.6187 44.383C24.2979 44.4707 23.9625 44.5 23.5979 44.5C23.0583 44.5 22.5479 44.3976 22.0521 44.2075C21.5562 44.0174 21.1187 43.7395 20.7396 43.4031C20.375 43.0521 20.0688 42.628 19.8354 42.1307C19.6167 41.6335 19.5 41.0923 19.5 40.4927C19.5 39.9077 19.6167 39.3665 19.8354 38.8693C20.0688 38.372 20.3604 37.9479 20.7396 37.5969C21.1187 37.2459 21.5562 36.9826 22.0521 36.7925C22.5479 36.6024 23.0583 36.5 23.5979 36.5C23.9625 36.5 24.2833 36.5293 24.5896 36.6024C24.9104 36.6755 25.1875 36.7779 25.4208 36.8949C25.6687 37.0119 25.8875 37.1581 26.0479 37.3044C26.2229 37.4506 26.3542 37.6115 26.4417 37.7724L26.0625 38.8693C25.8438 38.6207 25.5375 38.4159 25.1292 38.2404C24.7354 38.0503 24.2979 37.9625 23.8458 37.9625C22.9563 37.9625 22.2563 38.1965 21.7167 38.6499C21.1917 39.1033 20.9292 39.7029 20.9292 40.4781C20.9292 40.8583 21.0021 41.2093 21.1333 41.5165C21.2792 41.8236 21.4833 42.0868 21.7313 42.3062C21.9792 42.5256 22.2854 42.6865 22.65 42.8181C23.0146 42.9351 23.4083 43.0082 23.8458 43.0082C24.3271 43.0082 24.7646 42.9205 25.1729 42.7303C25.5667 42.5402 25.8875 42.3208 26.1062 42.0722L26.5 43.1691ZM29.4506 40.5073C29.4506 40.8862 29.5092 41.2359 29.641 41.5419C29.7729 41.8479 29.9487 42.1102 30.1832 42.3288C30.4176 42.5474 30.6813 42.7076 30.989 42.8388C31.2967 42.9554 31.6337 43.0137 32 43.0137C32.3663 43.0137 32.6886 42.9554 32.9963 42.8388C33.3187 42.7222 33.5824 42.5474 33.8169 42.3288C34.0513 42.1102 34.2271 41.8333 34.359 41.5419C34.4908 41.2359 34.5495 40.9007 34.5495 40.5219C34.5495 40.143 34.4908 39.8078 34.359 39.5018C34.2271 39.1812 34.0513 38.9189 33.8169 38.7004C33.5824 38.4818 33.304 38.3069 32.9963 38.1758C32.6886 38.0592 32.3516 37.9863 32 37.9863C31.6337 37.9863 31.2967 38.0446 30.989 38.1758C30.6813 38.2924 30.4176 38.4672 30.1832 38.7004C29.9487 38.9189 29.7729 39.1958 29.641 39.5018C29.5238 39.8078 29.4506 40.143 29.4506 40.5073ZM35.663 38.9189C35.8828 39.4144 36 39.939 36 40.5073C36 41.0756 35.8828 41.6002 35.663 42.0956C35.4579 42.5911 35.1648 42.9991 34.7985 43.3634C34.4322 43.7131 34.022 44.0046 33.5238 44.2086C33.0549 44.398 32.5421 44.5 32 44.5C31.4579 44.5 30.9451 44.398 30.4615 44.2086C29.978 44.0046 29.5531 43.7277 29.1722 43.3634C28.8059 43.0137 28.5275 42.5911 28.3223 42.0956C28.1172 41.6002 28 41.0756 28 40.5073C28 39.939 28.1026 39.4144 28.3223 38.9189C28.5421 38.4235 28.8205 38.0155 29.1722 37.6512C29.5385 37.3015 29.9634 37.01 30.4615 36.806C30.9451 36.602 31.4579 36.5 32 36.5C32.5421 36.5 33.0403 36.602 33.5238 36.806C34.0073 37.01 34.4322 37.2869 34.7985 37.6512C35.1648 38.0155 35.4579 38.4381 35.663 38.9189ZM43.0993 36.814C42.648 36.6047 42.1667 36.5 41.6402 36.5C41.0536 36.5 40.5722 36.6047 40.1811 36.814C39.79 37.0084 39.5343 37.2477 39.429 37.5467V36.6794H38V44.5H39.4741V39.4607C39.5193 39.2514 39.5945 39.057 39.7148 38.8776C39.8351 38.6981 40.0006 38.5486 40.1811 38.429C40.3767 38.2944 40.5872 38.1897 40.8129 38.115C41.0536 38.0402 41.2792 38.0103 41.5349 38.0103C41.8057 38.0103 42.0614 38.0551 42.302 38.1449C42.5427 38.2196 42.7383 38.3542 42.9188 38.5336C43.0993 38.6981 43.2497 38.9075 43.34 39.1617C43.4452 39.4159 43.5054 39.685 43.5054 40.014V44.5H44.9795V39.4458C45.0247 39.2364 45.0999 39.0421 45.2202 38.8626C45.3406 38.6832 45.506 38.5336 45.6865 38.414C45.8821 38.2944 46.0927 38.1897 46.3183 38.115C46.559 38.0402 46.7846 38.0103 47.0403 38.0103C47.3111 38.0103 47.5668 38.0551 47.8075 38.1449C48.0481 38.2196 48.2437 38.3542 48.4242 38.5336C48.6047 38.6981 48.7551 38.9075 48.8454 39.1617C48.9507 39.4159 49.0108 39.685 49.0108 40.014V44.5H50.5V39.9692C50.5 39.3561 50.3947 38.8477 50.1841 38.414C49.9886 37.9804 49.7329 37.6215 49.4019 37.3374C49.071 37.0533 48.6949 36.8439 48.2888 36.7093C47.8827 36.5748 47.4916 36.5 47.0854 36.5C46.4236 36.5 45.852 36.6196 45.4007 36.8439C44.9495 37.0832 44.5734 37.3822 44.2876 37.786C43.9567 37.3374 43.5505 37.0084 43.0993 36.814Z" fill="white"/>
<path d="M50 32.5H20V33.5H50V32.5Z" fill="white"/>
<path d="M35 13.886C40.6365 13.886 45.9497 16.0883 49.9384 20.077C53.9271 24.0657 56.1294 29.3634 56.1294 35.0154C56.1294 40.6519 53.9271 45.9651 49.9384 49.9538C45.9497 53.9425 40.652 56.1448 35 56.1448C29.3634 56.1448 24.0503 53.9425 20.0616 49.9538C16.0729 45.9651 13.886 40.6365 13.886 35C13.886 29.3634 16.0883 24.0503 20.077 20.0616C24.0657 16.0883 29.3634 13.886 35 13.886ZM35 12.5C22.5719 12.5 12.5 22.5719 12.5 35C12.5 47.4281 22.5719 57.5 35 57.5C47.4281 57.5 57.5 47.4281 57.5 35C57.5 22.5719 47.4281 12.5 35 12.5Z" fill="white"/>
</svg>
