<svg width="70" height="70" viewBox="0 0 70 70" fill="none" xmlns="http://www.w3.org/2000/svg">
<path fill-rule="evenodd" clip-rule="evenodd" d="M35.3762 47.3482L42.4036 50.2125L56.2243 14.7507L48.5243 14.2313L35.3762 47.3482ZM42.5244 50.5L56.5355 14.5499L48.3824 14L35.0938 47.4713L42.5244 50.5Z" fill="white"/>
<path d="M42.0805 47L34.5977 43.9572L48.3042 9.5L56.5381 9.99327L42.0805 47Z" fill="url(#paint0_linear_957_97688)"/>
<path fill-rule="evenodd" clip-rule="evenodd" d="M33.3996 43.7164L44.7567 15.5445L36.8035 14.7343L26.3982 40.8804L33.3996 43.7164ZM33.5179 44L45.0657 15.3558L36.6641 14.5L26.1172 41.0023L33.5179 44Z" fill="white"/>
<path d="M33.0942 40.5L25.6211 37.4757L36.5604 10L45.0683 10.8024L33.0942 40.5Z" fill="url(#paint1_linear_957_97688)"/>
<path fill-rule="evenodd" clip-rule="evenodd" d="M24.9924 36.2137L33.2899 15.9521L25.684 14.7453L17.9278 33.3488L24.9924 36.2137ZM25.111 36.5L33.5973 15.7769L25.5501 14.5L17.6406 33.4707L25.111 36.5Z" fill="white"/>
<path d="M24.1031 34L16.6445 31.0004L25.022 11L33.0999 12.1554L24.1031 34Z" fill="url(#paint2_linear_957_97688)"/>
<path d="M58.0504 33V32.3583C58.1277 32.3031 58.204 32.2486 58.2796 32.1948C58.3552 32.1409 58.4315 32.0864 58.5088 32.0312C58.6854 31.9051 58.8383 31.7882 58.9668 31.6806C59.0953 31.5715 59.1943 31.4667 59.2633 31.3661C59.3324 31.2656 59.367 31.1643 59.367 31.0623C59.367 30.9773 59.3383 30.9136 59.2802 30.8711C59.224 30.8286 59.1388 30.8074 59.0246 30.8074C58.9506 30.8074 58.8743 30.8166 58.7957 30.835C58.7185 30.852 58.6412 30.8753 58.5642 30.9051C58.487 30.9348 58.4107 30.9688 58.3351 31.0071C58.2611 31.0453 58.1888 31.085 58.1181 31.1261L58.0312 30.2125C58.1069 30.1855 58.1911 30.16 58.2845 30.136C58.3793 30.1105 58.4797 30.0878 58.5857 30.068C58.692 30.0468 58.802 30.0305 58.9163 30.0191C59.0318 30.0064 59.1484 30 59.2656 30C59.5358 30 59.7633 30.0368 59.9482 30.1105C60.1332 30.1841 60.2728 30.2904 60.3676 30.4292C60.4627 30.5666 60.51 30.7323 60.51 30.9263C60.51 31.0666 60.4819 31.2047 60.4257 31.3407C60.3693 31.4766 60.2801 31.6091 60.1579 31.738C60.0374 31.8654 59.8799 31.9887 59.6854 32.1076L59.2756 32.3583L59.1501 32.1756H59.6708C59.8138 32.1756 59.9562 32.1756 60.0978 32.1756C60.2408 32.1756 60.3831 32.1756 60.5245 32.1756V33H58.0504Z" fill="white"/>
<path d="M62.5341 33.5C62.2547 33.5 62.0183 33.4547 61.8247 33.3641C61.6328 33.2718 61.4779 33.1456 61.3599 32.9854C61.2422 32.8252 61.1567 32.64 61.1033 32.4296C61.0503 32.2192 61.0234 31.9951 61.0234 31.7573C61.0234 31.4191 61.0728 31.1181 61.1713 30.8544C61.2711 30.589 61.4302 30.3803 61.648 30.2282C61.8658 30.0761 62.1532 30 62.5099 30C62.7794 30 63.0092 30.0437 63.1998 30.1311C63.3901 30.2184 63.5449 30.3406 63.6646 30.4976C63.7856 30.6545 63.8741 30.8398 63.9308 31.0534C63.9871 31.267 64.0153 31.5 64.0153 31.7524C64.0153 32.0987 63.9629 32.4029 63.8582 32.665C63.7547 32.9272 63.5933 33.1319 63.3738 33.2791C63.156 33.4264 62.8762 33.5 62.5341 33.5ZM62.5242 32.5922C62.6114 32.5922 62.68 32.5566 62.7301 32.4854C62.7818 32.4142 62.8179 32.3155 62.8391 32.1893C62.8617 32.0631 62.8729 31.9175 62.8729 31.7524C62.8729 31.5825 62.8607 31.4353 62.8365 31.3107C62.8139 31.1845 62.7768 31.0866 62.7251 31.017C62.6737 30.9474 62.6067 30.9126 62.5242 30.9126C62.4387 30.9126 62.3704 30.9474 62.3186 31.017C62.2669 31.085 62.2291 31.1821 62.2049 31.3083C62.1821 31.4329 62.1708 31.5809 62.1708 31.7524C62.1708 31.9175 62.1814 32.0631 62.2023 32.1893C62.2235 32.3155 62.2596 32.4142 62.3114 32.4854C62.3631 32.5566 62.434 32.5922 62.5242 32.5922Z" fill="white"/>
<path d="M64.5309 33V32.3583C64.5928 32.3031 64.6538 32.2486 64.7143 32.1948C64.7748 32.1409 64.8358 32.0864 64.8976 32.0312C65.039 31.9051 65.1613 31.7882 65.2641 31.6806C65.3671 31.5715 65.4461 31.4667 65.5013 31.3661C65.5568 31.2656 65.5842 31.1643 65.5842 31.0623C65.5842 30.9773 65.5613 30.9136 65.5148 30.8711C65.4699 30.8286 65.4017 30.8074 65.3103 30.8074C65.2511 30.8074 65.1901 30.8166 65.1272 30.835C65.0654 30.852 65.0036 30.8753 64.942 30.9051C64.8802 30.9348 64.8192 30.9688 64.7587 31.0071C64.6995 31.0453 64.6416 31.085 64.5851 31.1261L64.5156 30.2125C64.5761 30.1855 64.6435 30.16 64.7183 30.136C64.7941 30.1105 64.8744 30.0878 64.9592 30.068C65.0443 30.0468 65.1322 30.0305 65.2236 30.0191C65.3161 30.0064 65.4094 30 65.5034 30C65.7192 30 65.9013 30.0368 66.0492 30.1105C66.1972 30.1841 66.3089 30.2904 66.385 30.4292C66.4608 30.5666 66.4986 30.7323 66.4986 30.9263C66.4986 31.0666 66.4761 31.2047 66.4312 31.3407C66.386 31.4766 66.3147 31.6091 66.217 31.738C66.1205 31.8654 65.9945 31.9887 65.8389 32.1076L65.5111 32.3583L65.4107 32.1756H65.8273C65.942 32.1756 66.0556 32.1756 66.1689 32.1756C66.2833 32.1756 66.3971 32.1756 66.5102 32.1756V33H64.5309Z" fill="white"/>
<path d="M67.5231 33V32.3583C67.585 32.3031 67.646 32.2486 67.7065 32.1948C67.767 32.1409 67.828 32.0864 67.8898 32.0312C68.0312 31.9051 68.1532 31.7882 68.2562 31.6806C68.359 31.5715 68.4383 31.4667 68.4935 31.3661C68.5487 31.2656 68.5764 31.1643 68.5764 31.0623C68.5764 30.9773 68.5532 30.9136 68.507 30.8711C68.462 30.8286 68.3939 30.8074 68.3025 30.8074C68.2433 30.8074 68.1823 30.8166 68.1191 30.835C68.0576 30.852 67.9958 30.8753 67.9342 30.9051C67.8724 30.9348 67.8114 30.9688 67.7509 31.0071C67.6917 31.0453 67.6338 31.085 67.5773 31.1261L67.5078 30.2125C67.5683 30.1855 67.6357 30.16 67.7102 30.136C67.7863 30.1105 67.8666 30.0878 67.9514 30.068C68.0364 30.0468 68.1244 30.0305 68.2158 30.0191C68.3083 30.0064 68.4015 30 68.4953 30C68.7114 30 68.8935 30.0368 69.0414 30.1105C69.1893 30.1841 69.3011 30.2904 69.3769 30.4292C69.453 30.5666 69.4908 30.7323 69.4908 30.9263C69.4908 31.0666 69.4683 31.2047 69.4234 31.3407C69.3782 31.4766 69.3069 31.6091 69.2092 31.738C69.1127 31.8654 68.9867 31.9887 68.8311 32.1076L68.5033 32.3583L68.4029 32.1756H68.8195C68.9339 32.1756 69.0477 32.1756 69.1608 32.1756C69.2755 32.1756 69.3893 32.1756 69.5024 32.1756V33H67.5231Z" fill="white"/>
<path d="M14.8893 28.5993C14.6874 28.5993 14.4883 28.592 14.2923 28.5773C14.0991 28.5626 13.9118 28.5406 13.7304 28.5113C13.5519 28.4819 13.3836 28.4452 13.2256 28.4012C13.0705 28.3543 12.9286 28.3 12.7998 28.2384L12.8964 26.3457C13.0397 26.4513 13.1802 26.5408 13.3178 26.6142C13.4582 26.6846 13.5987 26.7404 13.7392 26.7815C13.8796 26.8226 14.0187 26.8534 14.1562 26.8739C14.2967 26.8915 14.4386 26.9003 14.582 26.9003C14.9742 26.9003 15.2827 26.8548 15.5083 26.7639C15.7365 26.6729 15.8975 26.5379 15.9912 26.3589C16.0875 26.177 16.1357 25.9525 16.1357 25.6855V24.9372C16.1357 24.7142 16.1007 24.5294 16.0304 24.3826C15.9604 24.233 15.8622 24.1156 15.7365 24.0305C15.6107 23.9454 15.4642 23.8853 15.2976 23.8501C15.1336 23.8148 14.9551 23.7972 14.7619 23.7972C14.5747 23.7972 14.383 23.8178 14.1869 23.8588C13.9908 23.8999 13.7874 23.9645 13.5767 24.0525C13.369 24.1376 13.1509 24.2506 12.9227 24.3914L12.7734 22.49C12.9081 22.4225 13.0588 22.3623 13.2256 22.3095C13.3924 22.2537 13.5724 22.2068 13.7655 22.1687C13.9587 22.1276 14.1577 22.0968 14.3625 22.0762C14.5703 22.0527 14.781 22.041 14.9946 22.041C15.5478 22.041 16.0304 22.1246 16.4433 22.2919C16.8588 22.4562 17.2027 22.688 17.4746 22.9873C17.7498 23.2867 17.9546 23.6373 18.0894 24.0393C18.2268 24.4384 18.2955 24.8727 18.2955 25.3422C18.2955 26.0141 18.1623 26.5937 17.8962 27.0808C17.6298 27.5679 17.2422 27.9435 16.7327 28.2076C16.2265 28.4687 15.612 28.5993 14.8893 28.5993ZM13.7918 26.0596V24.6247C14.0347 24.6247 14.2849 24.6247 14.5425 24.6247C14.8001 24.6247 15.1087 24.6247 15.4688 24.6247H16.4958V26.0596H15.4688C15.1233 26.0596 14.8206 26.0596 14.56 26.0596C14.3025 26.0596 14.0464 26.0596 13.7918 26.0596Z" fill="white"/>
<path d="M21.7323 28.4582C21.393 28.4582 21.0754 28.4582 20.7798 28.4582C20.4842 28.4582 20.2107 28.4582 19.9592 28.4582C19.7074 28.4582 19.4763 28.4582 19.2656 28.4582C19.2656 28.1325 19.2656 27.8156 19.2656 27.5075C19.2656 27.1965 19.2656 26.8414 19.2656 26.4423V24.2856C19.2656 23.866 19.2656 23.4948 19.2656 23.172C19.2656 22.8492 19.2656 22.5191 19.2656 22.1816C19.6429 22.1816 20.0791 22.1816 20.5737 22.1816C21.0712 22.1816 21.5628 22.1816 22.0486 22.1816C22.549 22.1816 22.96 22.2169 23.2818 22.2873C23.604 22.3548 23.8555 22.4516 24.037 22.5778C24.2185 22.704 24.3442 22.8521 24.4145 23.0224C24.4878 23.1925 24.5241 23.3789 24.5241 23.5813C24.5241 23.8513 24.4716 24.0846 24.3663 24.2812C24.2638 24.4748 24.1232 24.6333 23.9449 24.7565C23.7664 24.8769 23.5644 24.9605 23.3392 25.0074V25.1483C23.6286 25.2158 23.8701 25.3126 24.0632 25.4388C24.2593 25.562 24.4058 25.7234 24.5024 25.9229C24.599 26.1225 24.6473 26.369 24.6473 26.6624C24.6473 26.9412 24.6048 27.1921 24.5199 27.4151C24.435 27.6351 24.2859 27.8229 24.072 27.9785C23.8584 28.134 23.5615 28.2528 23.181 28.335C22.8035 28.4172 22.3206 28.4582 21.7323 28.4582ZM21.3813 26.9881H21.943C22.0367 26.9881 22.1186 26.9705 22.189 26.9353C22.2622 26.9001 22.3176 26.8458 22.3559 26.7725C22.3967 26.6962 22.4171 26.5978 22.4171 26.4775C22.4171 26.322 22.3805 26.1988 22.3076 26.1078C22.2344 26.0139 22.1157 25.967 21.9521 25.967H20.8634V24.6553H21.8289C21.9255 24.6553 22.0104 24.6377 22.0836 24.6025C22.1569 24.5673 22.2123 24.513 22.2506 24.4396C22.2914 24.3663 22.3118 24.2709 22.3118 24.1535C22.3118 23.9951 22.2781 23.866 22.211 23.7662C22.1465 23.6664 22.0367 23.6165 21.8817 23.6165H21.3813C21.3813 23.775 21.3813 23.9423 21.3813 24.1183C21.3813 24.2915 21.3813 24.4998 21.3813 24.7433V25.9758C21.3813 26.1988 21.3813 26.388 21.3813 26.5436C21.3813 26.6991 21.3813 26.8473 21.3813 26.9881Z" fill="white"/>
<path d="M28.7784 28.5993C28.1756 28.5993 27.659 28.5113 27.2289 28.3352C26.8018 28.1562 26.4534 27.9141 26.1844 27.609C25.915 27.3009 25.716 26.9517 25.5874 26.5614C25.4613 26.1682 25.3984 25.7588 25.3984 25.3334C25.3984 24.723 25.5154 24.1699 25.7498 23.674C25.9867 23.1752 26.3497 22.779 26.8384 22.4856C27.3301 22.1892 27.9591 22.041 28.7259 22.041C29.308 22.041 29.8117 22.1261 30.2359 22.2963C30.6601 22.4665 31.0098 22.7027 31.285 23.005C31.5602 23.3043 31.7634 23.652 31.8953 24.0481C32.0298 24.4443 32.0972 24.8697 32.0972 25.3245C32.0972 25.9525 31.974 26.513 31.7284 27.0059C31.4824 27.4989 31.1139 27.8877 30.6222 28.1724C30.1306 28.457 29.5161 28.5993 28.7784 28.5993ZM28.7522 26.8563C28.9249 26.8563 29.0786 26.8167 29.2131 26.7374C29.3476 26.6582 29.462 26.5482 29.5553 26.4073C29.6519 26.2665 29.7251 26.1036 29.775 25.9188C29.8246 25.7339 29.8496 25.5358 29.8496 25.3245C29.8496 25.1074 29.8217 24.9049 29.7663 24.7171C29.7135 24.5294 29.6373 24.3665 29.5378 24.2286C29.4412 24.0877 29.3258 23.9791 29.191 23.9029C29.0594 23.8236 28.9133 23.784 28.7522 23.784C28.5853 23.784 28.4333 23.8236 28.2955 23.9029C28.161 23.9791 28.0453 24.0877 27.9488 24.2286C27.8522 24.3665 27.7776 24.5294 27.7251 24.7171C27.6723 24.9049 27.646 25.1074 27.646 25.3245C27.646 25.5358 27.671 25.7339 27.7206 25.9188C27.7705 26.1036 27.8421 26.2665 27.9358 26.4073C28.0324 26.5482 28.1494 26.6582 28.2868 26.7374C28.4245 26.8167 28.5794 26.8563 28.7522 26.8563Z" fill="white"/>
<path d="M33.7035 28.5815C33.5719 28.5815 33.4474 28.5756 33.3304 28.5639C33.2163 28.5521 33.1094 28.5375 33.0099 28.5199C32.9133 28.5022 32.8242 28.4832 32.7422 28.4626L32.8167 26.6976C32.8812 26.7064 32.9324 26.7138 32.9703 26.7196C33.0115 26.7226 33.0465 26.724 33.0757 26.724C33.2484 26.724 33.3904 26.6404 33.5015 26.4732C33.6127 26.3059 33.6989 26.0535 33.7605 25.7161C33.825 25.3757 33.8687 24.9488 33.8921 24.4352C33.9099 24.0772 33.9274 23.7046 33.9449 23.3172C33.9624 22.927 33.9799 22.5484 33.9974 22.1816H38.9665C38.9665 22.5191 38.9665 22.8492 38.9665 23.172C38.9665 23.4948 38.9665 23.866 38.9665 24.2856V26.4423C38.9665 26.8414 38.9665 27.1965 38.9665 27.5075C38.9665 27.8156 38.9665 28.1325 38.9665 28.4582H36.807C36.807 28.1325 36.807 27.8156 36.807 27.5075C36.807 27.1965 36.807 26.8414 36.807 26.4423V24.6377C36.807 24.2181 36.807 23.8469 36.807 23.5241C36.807 23.2013 36.807 22.8712 36.807 22.5338L37.7991 23.9599H34.8712L36.0081 22.6174C35.9757 23.0576 35.942 23.4933 35.907 23.9247C35.8749 24.356 35.8412 24.8079 35.8062 25.2803C35.768 25.8144 35.7213 26.2868 35.6655 26.6976C35.613 27.1084 35.5194 27.4547 35.3845 27.7364C35.253 28.0151 35.054 28.2264 34.7876 28.3702C34.5244 28.511 34.163 28.5815 33.7035 28.5815Z" fill="white"/>
<path d="M46.0949 28.5993C45.492 28.5993 44.9784 28.5113 44.5541 28.3352C44.1325 28.1562 43.7902 27.9141 43.5267 27.609C43.2665 27.3009 43.0762 26.9517 42.9563 26.5614C42.8361 26.1682 42.7761 25.7588 42.7761 25.3334C42.7761 24.8756 42.839 24.4487 42.9651 24.0525C43.0908 23.6535 43.284 23.3028 43.5442 23.0005C43.8077 22.6983 44.1457 22.4636 44.5583 22.2963C44.9738 22.1261 45.4684 22.041 46.042 22.041C46.6186 22.041 47.1174 22.1261 47.539 22.2963C47.9633 22.4665 48.3114 22.7027 48.5836 23.005C48.8588 23.3043 49.062 23.652 49.1939 24.0481C49.3284 24.4443 49.3958 24.8697 49.3958 25.3245C49.3958 25.9525 49.273 26.513 49.027 27.0059C48.7813 27.4989 48.4138 27.8877 47.9254 28.1724C47.4366 28.457 46.8263 28.5993 46.0949 28.5993ZM40.125 28.4585C40.125 28.1327 40.125 27.8158 40.125 27.5077C40.125 27.1967 40.125 26.8416 40.125 26.4426V24.2858C40.125 23.8662 40.125 23.495 40.125 23.1722C40.125 22.8494 40.125 22.5193 40.125 22.1819H42.2845C42.2845 22.5193 42.2845 22.8494 42.2845 23.1722C42.2845 23.495 42.2845 23.8662 42.2845 24.2858V26.4426C42.2845 26.8416 42.2845 27.1967 42.2845 27.5077C42.2845 27.8158 42.2845 28.1327 42.2845 28.4585H40.125ZM41.7578 26.2049V24.4266H44.1195V26.2049H41.7578ZM46.0683 26.8563C46.2352 26.8563 46.3846 26.8167 46.5162 26.7374C46.6507 26.6582 46.7648 26.5482 46.8584 26.4073C46.9521 26.2665 47.0237 26.1036 47.0736 25.9188C47.1232 25.7339 47.1482 25.5358 47.1482 25.3245C47.1482 25.1074 47.1203 24.9049 47.0649 24.7171C47.0121 24.5294 46.9375 24.3665 46.8409 24.2286C46.7444 24.0877 46.6303 23.9791 46.4987 23.9029C46.3668 23.8236 46.2235 23.784 46.0683 23.784C45.9017 23.784 45.751 23.8236 45.6162 23.9029C45.4817 23.9791 45.3676 24.0877 45.2739 24.2286C45.1803 24.3665 45.107 24.5294 45.0545 24.7171C45.0046 24.9049 44.9796 25.1074 44.9796 25.3245C44.9796 25.5358 45.0033 25.7339 45.05 25.9188C45.0999 26.1036 45.1715 26.2665 45.2652 26.4073C45.3588 26.5482 45.4729 26.6582 45.6074 26.7374C45.7422 26.8167 45.8959 26.8563 46.0683 26.8563Z" fill="white"/>
<path d="M55.0341 28.4582L54.9201 28.1237L55.2493 28.4582H50.3594C50.3594 28.1325 50.3594 27.8156 50.3594 27.5075C50.3594 27.1965 50.3594 26.8414 50.3594 26.4423V24.2856C50.3594 23.866 50.3594 23.4948 50.3594 23.172C50.3594 22.8492 50.3594 22.5191 50.3594 22.1816H52.5192C52.5192 22.5191 52.5192 22.8492 52.5192 23.172C52.5192 23.4948 52.5192 23.866 52.5192 24.2856V26.0902C52.5192 26.4893 52.5192 26.8443 52.5192 27.1554C52.5192 27.4635 52.5192 27.7804 52.5192 28.1061L51.5533 26.68H54.2968C54.7065 26.68 55.1249 26.68 55.5524 26.68C55.9825 26.68 56.4067 26.68 56.8251 26.68C56.8251 26.9412 56.8251 27.2053 56.8251 27.4723C56.8251 27.7393 56.8251 28.0034 56.8251 28.2646C56.8251 28.514 56.8251 27.4444 56.8251 27.6968C56.8251 27.9521 56.8251 28.2059 56.8251 28.4582H55.0341ZM53.8622 28.1061C53.8622 27.7804 53.8622 27.4635 53.8622 27.1554C53.8622 26.8443 53.8622 26.4893 53.8622 26.0902V24.2856C53.8622 23.866 53.8622 23.4948 53.8622 23.172C53.8622 22.8492 53.8622 22.5191 53.8622 22.1816H56.022C56.022 22.5191 56.022 22.8492 56.022 23.172C56.022 23.4948 56.022 23.866 56.022 24.2856V26.0902C56.022 26.4893 56.022 26.8443 56.022 27.1554C56.022 27.4635 56.022 27.7804 56.022 28.1061H53.8622Z" fill="white"/>
<path d="M57.6836 28.4582C57.6836 28.1325 57.6836 27.8156 57.6836 27.5075C57.6836 27.1965 57.6836 26.8414 57.6836 26.4423V24.2856C57.6836 23.866 57.6836 23.4948 57.6836 23.172C57.6836 22.8492 57.6836 22.5191 57.6836 22.1816H59.7818C59.7818 22.522 59.7818 22.8551 59.7818 23.1808C59.7818 23.5065 59.7818 23.8792 59.7818 24.2988V24.9194H59.9267L60.5632 23.885C60.733 23.6122 60.9012 23.3407 61.0681 23.0707C61.2376 22.7979 61.4208 22.5015 61.6168 22.1816H63.4253C63.4253 22.5191 63.4253 22.8492 63.4253 23.172C63.4253 23.4948 63.4253 23.866 63.4253 24.2856V26.4423C63.4253 26.8414 63.4253 27.1965 63.4253 27.5075C63.4253 27.8156 63.4253 28.1325 63.4253 28.4582H61.3271C61.3271 28.1296 61.3271 27.8098 61.3271 27.4987C61.3271 27.1876 61.3271 26.8311 61.3271 26.4291V25.7205H61.191L60.5369 26.7637C60.3379 27.0806 60.1519 27.3755 59.9795 27.6484C59.8097 27.9213 59.6415 28.1912 59.4746 28.4582H57.6836Z" fill="white"/>
<path d="M64.2422 28.4582C64.3268 28.2969 64.4263 28.1091 64.5407 27.8948C64.6548 27.6806 64.7718 27.4606 64.8917 27.2346C65.0116 27.0057 65.1244 26.793 65.2297 26.5964L65.91 25.3156L66.7659 26.0198C66.4033 26.0198 66.0886 25.9772 65.8222 25.8921C65.5561 25.8041 65.335 25.6794 65.1594 25.518C64.987 25.3537 64.8567 25.1556 64.7688 24.9238C64.6839 24.692 64.6415 24.4308 64.6415 24.1403C64.6415 23.6268 64.7455 23.2292 64.9533 22.9475C65.161 22.6629 65.4595 22.4648 65.8487 22.3533C66.2409 22.2389 66.7105 22.1816 67.2576 22.1816C67.5677 22.1816 67.8941 22.1816 68.2367 22.1816C68.5818 22.1816 68.9095 22.1816 69.22 22.1816C69.5301 22.1816 69.7904 22.1816 70.0011 22.1816C70.0011 22.5191 70.0011 22.8492 70.0011 23.172C70.0011 23.4948 70.0011 23.866 70.0011 24.2856V26.4423C70.0011 26.8414 70.0011 27.1965 70.0011 27.5075C70.0011 27.8156 70.0011 28.1325 70.0011 28.4582H67.8854C67.8854 28.1325 67.8854 27.8156 67.8854 27.5075C67.8854 27.1965 67.8854 26.8414 67.8854 26.4423V24.6377C67.8854 24.2181 67.8854 23.8469 67.8854 23.5241C67.8854 23.2013 67.8854 22.8712 67.8854 22.5338L69.0002 23.8014H67.3192C67.2459 23.8014 67.1817 23.8146 67.126 23.841C67.0703 23.8645 67.0223 23.9012 66.9811 23.9511C66.9432 24.001 66.9137 24.0611 66.8933 24.1315C66.8729 24.202 66.8625 24.2826 66.8625 24.3736C66.8625 24.6142 66.9124 24.7712 67.0119 24.8446C67.1143 24.9179 67.2313 24.9546 67.3629 24.9546H68.2804V26.2487H66.8055L68.0348 25.4564L67.1963 27.217C67.1027 27.4136 67.0074 27.6131 66.9108 27.8156C66.8142 28.0181 66.7118 28.2323 66.6036 28.4582H64.2422Z" fill="white"/>
<path d="M1.60661 28.4582C1.60661 28.1325 1.60661 27.8156 1.60661 27.5075C1.60661 27.1965 1.60661 26.8414 1.60661 26.4423V24.6377C1.60661 24.2181 1.60661 23.8469 1.60661 23.5241C1.60661 23.2013 1.60661 22.8712 1.60661 22.5338L2.40551 24.0479H1.48368C1.17641 24.0479 0.904263 24.0479 0.667218 24.0479C0.433123 24.0479 0.210695 24.0479 0 24.0479V22.1816H5.36413V24.0479C5.1534 24.0479 4.92954 24.0479 4.6925 24.0479C4.45837 24.0479 4.18769 24.0479 3.88041 24.0479H2.95861L3.75751 22.5338C3.75751 22.8712 3.75751 23.2013 3.75751 23.5241C3.75751 23.8469 3.75751 24.2181 3.75751 24.6377V26.4423C3.75751 26.8414 3.75751 27.1965 3.75751 27.5075C3.75751 27.8156 3.75751 28.1325 3.75751 28.4582H1.60661Z" fill="#83E9FF"/>
<path d="M6.29688 28.4582C6.29688 28.1325 6.29688 27.8156 6.29688 27.5075C6.29688 27.1965 6.29688 26.8414 6.29688 26.4423V24.2856C6.29688 23.866 6.29688 23.4947 6.29688 23.172C6.29688 22.8492 6.29688 22.5191 6.29688 22.1816C6.5661 22.1816 6.94361 22.1816 7.4294 22.1816C7.9181 22.1816 8.48291 22.1816 9.12378 22.1816C9.66515 22.1816 10.1217 22.2447 10.4933 22.3709C10.865 22.4941 11.1459 22.7142 11.3362 23.0311C11.5293 23.3451 11.6259 23.7867 11.6259 24.356C11.6259 24.8049 11.5483 25.1967 11.3932 25.5312C11.241 25.8628 11.004 26.121 10.6821 26.3059C10.3631 26.4907 9.95194 26.5832 9.44862 26.5832C9.31107 26.5832 9.16329 26.5832 9.00526 26.5832C8.84723 26.5832 8.6936 26.5832 8.54436 26.5832C8.39511 26.5832 8.26635 26.5832 8.15807 26.5832V25.069H8.92187C9.04476 25.069 9.14426 25.0456 9.22036 24.9986C9.29642 24.9516 9.35204 24.8812 9.38717 24.7873C9.42227 24.6935 9.43984 24.5761 9.43984 24.4352C9.43984 24.3325 9.4296 24.243 9.40911 24.1667C9.38863 24.0875 9.35791 24.0215 9.31691 23.9687C9.27594 23.9158 9.22619 23.8762 9.16766 23.8498C9.11208 23.8234 9.04768 23.8102 8.97453 23.8102H7.40305L8.15142 22.9311C8.15142 23.2685 8.41265 23.2013 8.41265 23.5241C8.41265 23.8469 8.41265 24.2181 8.41265 24.6377V26.4423C8.41265 26.8414 8.41265 27.1965 8.41265 27.5075C8.41265 27.8156 8.41265 28.1325 8.41265 28.4582H6.29688Z" fill="#83E9FF"/>
<defs>
<linearGradient id="paint0_linear_957_97688" x1="38.3392" y1="45.4785" x2="53.3028" y2="8.6778" gradientUnits="userSpaceOnUse">
<stop stop-color="#C218FE"/>
<stop offset="0.34259" stop-color="#E824F4"/>
<stop offset="0.487989" stop-color="#F929F0"/>
</linearGradient>
<linearGradient id="paint1_linear_957_97688" x1="29.4941" y1="39.0431" x2="41.5062" y2="9.36095" gradientUnits="userSpaceOnUse">
<stop stop-color="#C218FE"/>
<stop offset="0.409915" stop-color="#F929F0"/>
</linearGradient>
<linearGradient id="paint2_linear_957_97688" x1="20.5327" y1="32.5641" x2="29.3471" y2="10.6462" gradientUnits="userSpaceOnUse">
<stop stop-color="#C218FE"/>
<stop offset="0.374142" stop-color="#F929F0"/>
</linearGradient>
</defs>
</svg>
