<svg width="32" height="32" viewBox="0 0 32 32" fill="none" xmlns="http://www.w3.org/2000/svg">
<path opacity="0.1" d="M24.2 6.8C21.7 4.4 18.5 3 15 3C13.3 3 11.6 3.3 10 4C8.4 4.7 7 5.6 5.8 6.8C3.4 9.3 2 12.5 2 16C2 19 3 21.9 4.9 24.2L2.3 26.8C2.2 27 2.1 27.2 2 27.5C2 27.7 2 28 2 28.2L2.1 28.3C2.2 28.5 2.4 28.7 2.6 28.8C2.8 28.9 3 29 3.3 29H15C18.5 29 21.7 27.6 24.2 25.2C26.7 22.7 28 19.5 28 16C28 12.5 26.6 9.3 24.2 6.8Z" fill="#E92B37"/>
<path d="M3 14C3 10.8 4.3 7.8 6.5 5.5C7.6 4.4 8.9 3.5 10.4 2.9C11.9 2.3 13.4 2 15 2C18.2 2 21.2 3.3 23.5 5.5C25.7 7.8 27 10.8 27 14C27 17.2 25.7 20.2 23.5 22.5C21.2 24.7 18.2 26 15 26H3.3C3.2 26 3.2 26 3.1 26L3 25.9C3 25.8 3 25.8 3 25.7C3 25.6 3 25.6 3.1 25.5L5.7 22.9L6.3 22.3L5.7 21.6C4 19.5 3 16.8 3 14Z" fill="white"/>
<path d="M3.3 27C3 27 2.8 26.9 2.6 26.8C2.4 26.7 2.3 26.5 2.1 26.3L2 26.2C2 26 2 25.7 2 25.5C2 25.3 2.2 25 2.3 24.8L5 22.2C3.1 19.9 2 17 2 14C2 10.5 3.4 7.3 5.8 4.8C7.1 3.6 8.5 2.6 10.1 2C11.7 1.3 13.4 1 15.1 1C18.6 1 21.8 2.4 24.3 4.8C26.6 7.3 28 10.5 28 14C28 17.5 26.6 20.7 24.2 23.2C21.7 25.6 18.5 27 15 27H3.3ZM15 3C13.6 3 12.1 3.3 10.8 3.8C9.5 4.4 8.3 5.2 7.3 6.2C5.2 8.3 4 11.1 4 14C4 16.5 4.9 19 6.5 20.9L7.7 22.3L5 25H15C17.9 25 20.7 23.9 22.8 21.8C24.9 19.7 26 17 26 14C26 11.1 24.9 8.3 22.8 6.2C20.7 4.1 18 3 15 3Z" fill="#E92B37"/>
<path d="M9 11H19C19.6 11 20 11.4 20 12C20 12.6 19.6 13 19 13H9C8.4 13 8 12.6 8 12C8 11.4 8.4 11 9 11Z" fill="#E92B37"/>
<path d="M9 15H15C15.6 15 16 15.4 16 16C16 16.6 15.6 17 15 17H9C8.4 17 8 16.6 8 16C8 15.4 8.4 15 9 15Z" fill="#E92B37"/>
<path opacity="0.2" d="M29.9985 22.3C29.8985 21.9 29.4985 21.6 29.0985 21.6L24.9985 21.2L23.3985 17.6C23.1985 17.2 22.8985 17 22.4985 17C22.0985 17 21.6985 17.2 21.5985 17.6L19.9985 21.2L15.8985 21.5C15.4985 21.5 15.1985 21.8 14.9985 22.2C14.7985 22.6 14.9985 23 15.2985 23.3L18.3985 25.9L17.4985 29.7C17.3985 30.1 17.5985 30.5 17.8985 30.7C18.1985 30.9 18.6985 31 18.9985 30.8L22.4985 28.7L25.9985 30.8C26.1985 30.9 26.2985 30.9 26.4985 30.9C26.6985 30.9 26.8985 30.8 27.0985 30.7C27.3985 30.5 27.5985 30.1 27.4985 29.7L26.5985 25.9L29.6985 23.3C29.9985 23.1 30.0985 22.7 29.9985 22.3Z" fill="#242429"/>
<path d="M22.5 25.6L26.5 28L25.4 23.6L28.9 20.6L24.2 20.2L22.5 16L20.7 20.2L16 20.6L19.5 23.6L18.5 28L22.5 25.6Z" fill="white"/>
<path d="M26.4984 28.9996C26.2984 28.9996 26.1984 28.9996 25.9984 28.8996L22.4984 26.7996L18.9984 28.8996C18.6984 29.0996 18.1984 29.0996 17.8984 28.7996C17.5984 28.5996 17.3984 28.1996 17.4984 27.7996L18.3984 23.9996L15.2984 21.3996C14.9984 21.0996 14.8984 20.6996 14.9984 20.2996C15.0984 19.8996 15.4984 19.5996 15.8984 19.5996L19.9984 19.2996L21.5984 15.6996C21.7984 15.2996 22.0984 15.0996 22.4984 15.0996C22.8984 15.0996 23.2984 15.2996 23.3984 15.6996L24.9984 19.2996L29.0984 19.5996C29.4984 19.5996 29.7984 19.8996 29.9984 20.2996C30.1984 20.6996 29.9984 21.0996 29.6984 21.3996L26.5984 23.9996L27.4984 27.7996C27.5984 28.1996 27.3984 28.5996 27.0984 28.7996C26.8984 28.8996 26.6984 28.9996 26.4984 28.9996ZM22.4984 24.5996C22.6984 24.5996 22.7984 24.5996 22.9984 24.6996L24.9984 25.8996L24.4984 23.6996C24.3984 23.2996 24.4984 22.8996 24.7984 22.6996L26.4984 21.2996L24.1984 21.0996C23.7984 21.0996 23.4984 20.7996 23.3984 20.4996L22.4984 18.3996L21.5984 20.4996C21.4984 20.7996 21.0984 21.0996 20.7984 21.0996L18.4984 21.2996L20.1984 22.6996C20.4984 22.8996 20.5984 23.2996 20.4984 23.6996L19.9984 25.8996L21.9984 24.6996C22.1984 24.6996 22.2984 24.5996 22.4984 24.5996Z" fill="#242429"/>
</svg>
