<svg width="24" height="24" viewBox="0 0 24 24" fill="none" xmlns="http://www.w3.org/2000/svg">
<path fill-rule="evenodd" clip-rule="evenodd" d="M5 10C5 6.68629 7.68629 4 11 4C14.3137 4 17 6.68629 17 10C17 13.3137 14.3137 16 11 16C7.68629 16 5 13.3137 5 10ZM11 2C6.58172 2 3 5.58172 3 10C3 14.4183 6.58172 18 11 18C12.8487 18 14.551 17.3729 15.9056 16.3199L20.2929 20.7071C20.6834 21.0976 21.3166 21.0976 21.7071 20.7071C22.0976 20.3166 22.0976 19.6834 21.7071 19.2929L17.3199 14.9056C18.3729 13.551 19 11.8487 19 10C19 5.58172 15.4183 2 11 2Z" fill="#A5A5C5"/>
</svg>
