<svg width="40" height="40" viewBox="0 0 40 40"  xmlns="http://www.w3.org/2000/svg">
<path fill-rule="evenodd" clip-rule="evenodd" d="M34.1721 5.81291C30.4119 2.06636 25.4113 0.00209427 20.0835 0C9.10589 0 0.171432 8.89108 0.167031 19.8197C0.165596 23.3131 1.08264 26.7231 2.82547 29.7288L0 40L10.558 37.2438C13.467 38.8229 16.7422 39.655 20.0755 39.6564H20.0837H20.0838C31.0603 39.6564 39.9955 30.7642 40 19.8355C40.002 14.5393 37.9324 9.55936 34.1721 5.81291Z" />
<path fill-rule="evenodd" clip-rule="evenodd" d="M28.9853 23.8145C28.4932 23.5757 26.0739 22.4216 25.6228 22.2625C25.1717 22.1033 24.8438 22.0237 24.5157 22.5012C24.1877 22.9788 23.2446 24.0533 22.9576 24.3717C22.6706 24.69 22.3835 24.7299 21.8915 24.4911C21.3994 24.2524 19.8139 23.7486 17.9344 22.1233C16.4715 20.8585 15.484 19.2962 15.1969 18.8186C14.9099 18.341 15.1663 18.0829 15.4127 17.845C15.634 17.6314 15.9047 17.2879 16.1508 17.0093C16.3968 16.7307 16.4788 16.5317 16.6429 16.2134C16.8069 15.895 16.7249 15.6164 16.6018 15.3776C16.4788 15.1389 15.4948 12.7908 15.0847 11.8357C14.6853 10.9055 14.2796 11.0314 13.9775 11.0168C13.6908 11.0029 13.3625 11 13.0344 11C12.7064 11 12.1733 11.1194 11.7222 11.5969C11.2712 12.0745 10 13.2287 10 15.5766C10 17.9246 11.7633 20.193 12.0093 20.5114C12.2553 20.8299 15.4791 25.6483 20.4153 27.7146C21.5893 28.2061 22.506 28.4996 23.2205 28.7195C24.3994 29.0825 25.4721 29.0313 26.3199 28.9085C27.2653 28.7715 29.2313 27.7544 29.6414 26.6401C30.0513 25.5258 30.0513 24.5707 29.9284 24.3717C29.8054 24.1727 29.4773 24.0533 28.9853 23.8145Z" fill="white"/>
</svg>
