<svg width="25" height="24" viewBox="0 0 25 24" fill="none" xmlns="http://www.w3.org/2000/svg">
<path d="M23.9062 9.95C23.8062 9.55 23.5063 9.25 23.1063 9.15C21.8063 8.95 19.3062 8.95 16.9062 10.15C16.3062 6.45 14.2063 4.15 12.7063 3.15C12.3063 2.95 11.8063 2.95 11.5063 3.15C10.0063 4.05 7.80625 6.45 7.30625 10.15C4.80625 8.95 2.30625 8.95 0.90625 9.15C0.50625 9.25 0.20625 9.55 0.10625 9.95C-0.09375 10.85 -0.39375 13.95 3.20625 17.35C5.40625 19.45 8.30625 20.05 10.5063 20.05C10.9062 20.05 11.3063 20.05 11.7063 19.95C12.0063 20.05 12.2063 20.05 12.5063 19.95C12.8063 19.95 13.2063 20.05 13.7063 20.05C15.5063 20.05 18.5063 19.65 20.9062 17.35C24.4062 13.95 24.1063 10.85 23.9062 9.95ZM12.0063 5.35C13.1063 6.35 14.6063 8.45 14.8063 11.55C14.7063 11.65 14.6063 11.75 14.5063 11.85C13.3063 12.95 12.6063 13.95 12.1063 14.85C11.6063 13.95 10.8063 12.85 9.70625 11.85C9.50625 11.75 9.40625 11.75 9.30625 11.65C9.40625 8.45 10.9062 6.35 12.0063 5.35ZM4.60625 15.95C2.50625 13.85 2.10625 12.05 2.10625 11.05C3.40625 10.95 5.90625 11.25 8.10625 13.35C10.1063 15.25 10.8062 16.95 10.9062 18.15C9.60625 18.15 6.80625 18.05 4.60625 15.95ZM19.4062 15.95C17.2062 18.05 14.4063 18.15 13.1063 18.05C13.2063 16.85 14.0063 15.15 15.9062 13.25C18.1063 11.15 20.7062 10.95 21.9062 10.95C21.9062 12.05 21.5063 13.85 19.4062 15.95Z" fill="#E92B37"/>
</svg>
