<svg width="24" height="24" viewBox="0 0 24 24" fill="none" xmlns="http://www.w3.org/2000/svg">
<path d="M11.9683 2C10.296 2.00171 8.65086 2.42276 7.18339 3.22463C5.71591 4.0265 4.47296 5.18359 3.56827 6.59C2.29583 8.58555 1.77241 10.9677 2.09109 13.3129C2.40977 15.658 3.54989 17.8142 5.30869 19.3978C7.0675 20.9815 9.33098 21.89 11.6966 21.9618C14.0622 22.0336 16.3766 21.264 18.2283 19.79C19.8398 18.4929 21.0094 16.7278 21.5759 14.7382C22.1423 12.7485 22.0777 10.6321 21.3911 8.68067C20.7044 6.72923 19.4294 5.03878 17.7418 3.84228C16.0542 2.64578 14.037 2.00212 11.9683 2ZM13.9683 4.26C15.3501 4.61769 16.6111 5.33858 17.6204 6.34789C18.6297 7.3572 19.3506 8.61817 19.7083 10C18.0363 10.0471 16.4043 10.5222 14.9683 11.38C14.2472 10.562 13.4428 9.82132 12.5683 9.17C13.4494 7.68096 13.9316 5.98983 13.9683 4.26ZM11.9683 4C11.965 5.43503 11.5709 6.84205 10.8283 8.07C10.6783 7.99 10.5383 7.9 10.3883 7.83C9.10063 7.15059 7.7238 6.65574 6.29827 6.36C7.04131 5.61252 7.92474 5.01923 8.89778 4.61423C9.87082 4.20922 10.9143 4.00048 11.9683 4ZM4.96827 8.16C6.53668 8.37788 8.05568 8.86504 9.45827 9.6L9.58827 9.68C8.85018 10.4174 7.97383 11.0019 7.00944 11.4C6.04506 11.7981 5.01159 12.002 3.96827 12C3.97383 10.6563 4.31774 9.33571 4.96827 8.16ZM9.96827 19.74C8.58643 19.3823 7.32546 18.6614 6.31615 17.6521C5.30684 16.6428 4.58596 15.3818 4.22827 14C5.56392 13.9703 6.87975 13.6707 8.09652 13.119C9.31328 12.5673 10.4058 11.7751 11.3083 10.79C12.0312 11.3244 12.7009 11.9272 13.3083 12.59C12.2956 13.4929 11.4773 14.5924 10.9031 15.8216C10.3289 17.0508 10.0109 18.384 9.96827 19.74ZM11.9683 20C11.9704 18.9014 12.1988 17.815 12.6393 16.8085C13.0797 15.802 13.7227 14.8971 14.5283 14.15C14.5883 14.23 14.6483 14.3 14.6983 14.38C15.5363 15.6632 16.1579 17.0753 16.5383 18.56C15.1999 19.4997 13.6036 20.0027 11.9683 20ZM18.1783 17C17.744 15.677 17.1389 14.4163 16.3783 13.25L16.1683 13C17.331 12.3532 18.6378 12.0093 19.9683 12C19.9583 13.8219 19.3269 15.5858 18.1783 17Z" fill="#E92B37"/>
</svg>
