<svg width="64" height="40" viewBox="0 0 64 40" fill="none" xmlns="http://www.w3.org/2000/svg">
<path opacity="0.2" d="M58 22C62 22 63.5 20.9 63.6 20.8C63.9 20.6 64 20.3 64 20V6C64 5.6 63.8 5.3 63.4 5.1C63.1 4.9 62.6 5 62.3 5.2C62.3 5.2 61.1 6 57.9 6C56.2 6 54.7 5.5 53.2 5C51.7 4.5 50 4 48 4C44 4 42.5 5.1 42.4 5.2C42.1 5.4 42 5.7 42 6V20C42 20.4 42.2 20.7 42.6 20.9C42.9 21.1 43.3 21 43.6 20.8C43.7 20.8 44.8 20 48 20C49.7 20 51.2 20.5 52.7 21C54.3 21.5 56 22 58 22ZM62 19.4C61.4 19.6 60.2 20 58 20C56.3 20 54.8 19.5 53.3 19C51.7 18.5 50 18 48 18C46.2 18 44.9 18.2 44 18.5V6.6C44.6 6.4 45.8 6 48 6C49.7 6 51.2 6.5 52.7 7C54.3 7.5 56 8 58 8C59.8 8 61.1 7.8 62 7.5V19.4Z" fill="#242429"/>
<path d="M43 18C43 18 44.3 17 48 17C51.7 17 54.3 19 58 19C61.7 19 63 18 63 18V4C63 4 61.7 5 58 5C54.3 5 51.7 3 48 3C44.3 3 43 4 43 4V18Z" fill="white"/>
<path d="M42.4 3.2C42.5 3.1 44 2 48 2C50 2 51.7 2.5 53.3 3C54.8 3.5 56.3 4 58 4C61.2 4 62.4 3.2 62.4 3.2C62.7 3 63.1 2.9 63.5 3.1C63.8 3.3 64 3.6 64 4V18C64 18.3 63.9 18.6 63.6 18.8C63.5 18.9 62 20 58 20C56 20 54.3 19.5 52.7 19C51.2 18.5 49.7 18 48 18C45.8 18 44.6 18.4 44 18.6V26C44 26.6 43.6 27 43 27C42.4 27 42 26.6 42 26V18V12V4C42 3.7 42.1 3.4 42.4 3.2ZM48 16C50 16 51.7 16.5 53.3 17C54.8 17.5 56.3 18 58 18C60.2 18 61.4 17.6 62 17.4V5.5C61.1 5.8 59.8 6 58 6C56 6 54.3 5.5 52.7 5C51.2 4.5 49.7 4 48 4C45.8 4 44.6 4.4 44 4.6V12V16.5C44.9 16.2 46.2 16 48 16Z" fill="#242429"/>
<path d="M11 35C13.2091 35 15 33.2091 15 31C15 28.7909 13.2091 27 11 27C8.79086 27 7 28.7909 7 31C7 33.2091 8.79086 35 11 35Z" fill="white"/>
<path d="M11 36C8.2 36 6 33.8 6 31C6 28.2 8.2 26 11 26C13.8 26 16 28.2 16 31C16 33.8 13.8 36 11 36ZM11 28C9.3 28 8 29.3 8 31C8 32.7 9.3 34 11 34C12.7 34 14 32.7 14 31C14 29.3 12.7 28 11 28Z" fill="#E92B37"/>
<path d="M27 35C29.2091 35 31 33.2091 31 31C31 28.7909 29.2091 27 27 27C24.7909 27 23 28.7909 23 31C23 33.2091 24.7909 35 27 35Z" fill="white"/>
<path d="M27 36C24.2 36 22 33.8 22 31C22 28.2 24.2 26 27 26C29.8 26 32 28.2 32 31C32 33.8 29.8 36 27 36ZM27 28C25.3 28 24 29.3 24 31C24 32.7 25.3 34 27 34C28.7 34 30 32.7 30 31C30 29.3 28.7 28 27 28Z" fill="#E92B37"/>
<path d="M43 35C45.2091 35 47 33.2091 47 31C47 28.7909 45.2091 27 43 27C40.7909 27 39 28.7909 39 31C39 33.2091 40.7909 35 43 35Z" fill="white"/>
<path d="M43 36C40.2 36 38 33.8 38 31C38 28.2 40.2 26 43 26C45.8 26 48 28.2 48 31C48 33.8 45.8 36 43 36ZM43 28C41.3 28 40 29.3 40 31C40 32.7 41.3 34 43 34C44.7 34 46 32.7 46 31C46 29.3 44.7 28 43 28Z" fill="#242429"/>
<path opacity="0.1" d="M11.6 35.9C11.4 36 11.2 36 11 36C10.8 36 10.6 36 10.4 35.9C8.3 35.6 6.5 34 6.1 32C6 32.3 6 32.7 6 33C6 35.8 8.2 38 11 38C13.8 38 16 35.8 16 33C16 32.7 16 32.3 15.9 32C15.5 34.1 13.7 35.7 11.6 35.9Z" fill="#E92B37"/>
<path opacity="0.1" d="M27.6 35.9C27.4 36 27.2 36 27 36C26.8 36 26.6 36 26.4 35.9C24.3 35.6 22.5 34 22.1 32C22 32.3 22 32.7 22 33C22 35.8 24.2 38 27 38C29.8 38 32 35.8 32 33C32 32.7 32 32.3 31.9 32C31.5 34.1 29.7 35.7 27.6 35.9Z" fill="#E92B37"/>
<path opacity="0.1" d="M43.6 35.9C43.4 36 43.2 36 43 36C42.8 36 42.6 36 42.4 35.9C40.3 35.6 38.5 34 38.1 32C38 32.3 38 32.7 38 33C38 35.8 40.2 38 43 38C45.8 38 48 35.8 48 33C48 32.7 48 32.3 47.9 32C47.5 34.1 45.7 35.7 43.6 35.9Z" fill="#242429"/>
<path opacity="0.4" d="M18 30H20C20.6 30 21 30.4 21 31C21 31.6 20.6 32 20 32H18C17.4 32 17 31.6 17 31C17 30.4 17.4 30 18 30Z" fill="#E92B37"/>
<path opacity="0.4" d="M2 30H4C4.6 30 5 30.4 5 31C5 31.6 4.6 32 4 32H2C1.4 32 1 31.6 1 31C1 30.4 1.4 30 2 30Z" fill="#E92B37"/>
<path opacity="0.4" d="M34 30H36C36.6 30 37 30.4 37 31C37 31.6 36.6 32 36 32H34C33.4 32 33 31.6 33 31C33 30.4 33.4 30 34 30Z" fill="#E92B37"/>
<path opacity="0.4" d="M51 30H53C53.6 30 54 30.4 54 31C54 31.6 53.6 32 53 32H51C50.4 32 50 31.6 50 31C50 30.4 50.4 30 51 30Z" fill="#242429"/>
</svg>
