<svg width="32" height="32" viewBox="0 0 32 32" fill="none" xmlns="http://www.w3.org/2000/svg">
<path opacity="0.1" fill-rule="evenodd" clip-rule="evenodd" d="M6 15C6 10.117 10.3853 6 16 6C21.6147 6 26 10.117 26 15V17V18H22C21.4477 18 21 18.4477 21 19V27C21 27.5523 21.4477 28 22 28H24C24.7286 28 25.4117 27.8052 26 27.4649V28C26 29.1046 25.1046 30 24 30H17C16.4477 30 16 30.4477 16 31C16 31.5523 16.4477 32 17 32H24C26.2091 32 28 30.2091 28 28V24V19V18.2946V17V15C28 8.83731 22.5356 4 16 4C9.46441 4 4 8.83731 4 15H4.03362C4.02086 15.0638 4.01416 15.1298 4.01416 15.1973V18.8314C4.00485 18.8862 4 18.9425 4 19V24C4 26.2091 5.79086 28 8 28H10C10.5523 28 11 27.5523 11 27V19C11 18.4477 10.5523 18 10 18H6.01416V15.1973C6.01416 15.1298 6.00746 15.0638 5.9947 15H6ZM26 24V20H23V26H24C25.1046 26 26 25.1046 26 24ZM6 20V24C6 25.1046 6.89543 26 8 26H9V20H6Z" fill="#E92B37"/>
<path d="M5 17H10V25H8C6.34315 25 5 23.6569 5 22V17Z" fill="white"/>
<path d="M27 17H22V25H24C25.6569 25 27 23.6569 27 22V17Z" fill="white"/>
<path fill-rule="evenodd" clip-rule="evenodd" d="M6 13C6 8.11699 10.3853 4 16 4C21.6147 4 26 8.11699 26 13V15V16H22C21.4477 16 21 16.4477 21 17V25C21 25.5523 21.4477 26 22 26H24C24.7286 26 25.4117 25.8052 26 25.4649V26C26 27.1046 25.1046 28 24 28H17C16.4477 28 16 28.4477 16 29C16 29.5523 16.4477 30 17 30H24C26.2091 30 28 28.2091 28 26V22V17V16.2946V15V13C28 6.83731 22.5356 2 16 2C9.46441 2 4 6.83731 4 13H4.03362C4.02086 13.0638 4.01416 13.1298 4.01416 13.1973V16.8314C4.00485 16.8862 4 16.9425 4 17V22C4 24.2091 5.79086 26 8 26H10C10.5523 26 11 25.5523 11 25V17C11 16.4477 10.5523 16 10 16H6.01416V13.1973C6.01416 13.1298 6.00746 13.0638 5.9947 13H6ZM26 22V18H23V24H24C25.1046 24 26 23.1046 26 22ZM6 18V22C6 23.1046 6.89543 24 8 24H9V18H6Z" fill="#E92B37"/>
</svg>
