<svg width="18" height="18" viewBox="0 0 18 18" fill="none" xmlns="http://www.w3.org/2000/svg">
<path fill-rule="evenodd" clip-rule="evenodd" d="M9 2C5.13401 2 2 5.13401 2 9C2 10.7136 2.61571 12.2833 3.63796 13.5001C4.92112 11.9728 6.84655 11 9 11C11.1535 11 13.0789 11.9728 14.362 13.5001C15.3843 12.2833 16 10.7136 16 9C16 5.13401 12.866 2 9 2ZM12.8701 14.8338C11.9522 13.7131 10.559 13 9 13C7.44105 13 6.04781 13.7131 5.1299 14.8338C6.23846 15.5707 7.56909 16 9 16C10.4309 16 11.7615 15.5707 12.8701 14.8338ZM0 9C0 4.02944 4.02944 0 9 0C13.9706 0 18 4.02944 18 9C18 13.9706 13.9706 18 9 18C4.02944 18 0 13.9706 0 9ZM9 6C8.44772 6 8 6.44772 8 7C8 7.55228 8.44772 8 9 8C9.55228 8 10 7.55228 10 7C10 6.44772 9.55228 6 9 6ZM6 7C6 5.34315 7.34315 4 9 4C10.6569 4 12 5.34315 12 7C12 8.65685 10.6569 10 9 10C7.34315 10 6 8.65685 6 7Z" fill="#A5A5C5"/>
</svg>
