<svg width="22" height="22" viewBox="0 0 22 22" fill="none" xmlns="http://www.w3.org/2000/svg">
<path d="M14 14C15.6569 14 17 12.6569 17 11C17 9.34315 15.6569 8 14 8C12.3431 8 11 9.34315 11 11C11 12.6569 12.3431 14 14 14Z" fill="#F7BE33"/>
<path d="M14 3C14.6 3 15 3.4 15 4V6C15 6.6 14.6 7 14 7C13.4 7 13 6.6 13 6V4C13 3.4 13.4 3 14 3Z" fill="#F7BE33"/>
<path d="M19 10H21C21.6 10 22 10.4 22 11C22 11.6 21.6 12 21 12H19C18.4 12 18 11.6 18 11C18 10.4 18.4 10 19 10Z" fill="#F7BE33"/>
<path d="M18.9998 14.5998L20.3998 15.9998C20.7998 16.3998 20.7998 16.9998 20.3998 17.3998C19.9998 17.7998 19.3998 17.7998 18.9998 17.3998L17.5998 15.9998C17.1998 15.5998 17.1998 14.9998 17.5998 14.5998C17.9998 14.1998 18.5998 14.1998 18.9998 14.5998Z" fill="#F7BE33"/>
<path d="M8.9998 4.5998L10.3998 5.9998C10.7998 6.3998 10.7998 6.9998 10.3998 7.3998C9.9998 7.7998 9.3998 7.7998 8.9998 7.3998L7.5998 5.9998C7.1998 5.5998 7.1998 4.9998 7.5998 4.5998C7.9998 4.1998 8.5998 4.1998 8.9998 4.5998Z" fill="#F7BE33"/>
<path d="M18.9998 4.5998L17.5998 5.9998C17.1998 6.3998 17.1998 6.9998 17.5998 7.3998C17.9998 7.7998 18.5998 7.7998 18.9998 7.3998L20.3998 5.9998C20.7998 5.5998 20.7998 4.9998 20.3998 4.5998C20.0998 4.1998 19.3998 4.1998 18.9998 4.5998Z" fill="#F7BE33"/>
<path d="M8.30014 19.0003C6.60014 19.0003 4.90014 19.1003 3.30014 19.0003C1.60014 18.9003 0.300144 17.7003 0.100144 16.0003C0.000143781 14.7003 0.600144 13.5003 1.70014 12.9003C2.50014 12.4003 3.50014 12.2003 4.40014 12.4003C4.50014 12.4003 4.60014 12.4003 4.60014 12.3003C5.00014 10.6003 6.50014 9.30032 8.20014 9.10032C10.6001 8.70032 12.8001 10.3003 13.4001 12.7003C13.5001 12.9003 13.5001 13.1003 13.5001 13.3003C13.5001 13.4003 13.6001 13.5003 13.7001 13.5003C14.4001 13.6003 15.0001 14.0003 15.4001 14.5003C16.3001 15.6003 16.2001 17.3003 15.0001 18.3003C14.8001 18.4003 14.6001 18.6003 14.4001 18.7003C14.0001 18.9003 13.6001 19.0003 13.1001 19.0003C11.5001 19.0003 9.90014 19.0003 8.30014 19.0003Z" fill="#9FB8F7"/>
</svg>
