<svg width="22" height="22" viewBox="0 0 22 22" fill="none" xmlns="http://www.w3.org/2000/svg">
<path d="M14 11C15.6569 11 17 9.65685 17 8C17 6.34315 15.6569 5 14 5C12.3431 5 11 6.34315 11 8C11 9.65685 12.3431 11 14 11Z" fill="#F7BE33"/>
<path d="M14 0C14.6 0 15 0.4 15 1V3C15 3.6 14.6 4 14 4C13.4 4 13 3.6 13 3V1C13 0.4 13.4 0 14 0Z" fill="#F7BE33"/>
<path d="M19 7H21C21.6 7 22 7.4 22 8C22 8.6 21.6 9 21 9H19C18.4 9 18 8.6 18 8C18 7.4 18.4 7 19 7Z" fill="#F7BE33"/>
<path d="M18.9998 11.5998L20.3998 12.9998C20.7998 13.3998 20.7998 13.9998 20.3998 14.3998C19.9998 14.7998 19.3998 14.7998 18.9998 14.3998L17.5998 12.9998C17.1998 12.5998 17.1998 11.9998 17.5998 11.5998C17.9998 11.1998 18.5998 11.1998 18.9998 11.5998Z" fill="#F7BE33"/>
<path d="M8.9998 1.5998L10.3998 2.9998C10.7998 3.3998 10.7998 3.9998 10.3998 4.3998C9.9998 4.7998 9.3998 4.7998 8.9998 4.3998L7.5998 2.9998C7.1998 2.5998 7.1998 1.9998 7.5998 1.5998C7.9998 1.1998 8.5998 1.1998 8.9998 1.5998Z" fill="#F7BE33"/>
<path d="M18.9998 1.5998L17.5998 2.9998C17.1998 3.3998 17.1998 3.9998 17.5998 4.3998C17.9998 4.7998 18.5998 4.7998 18.9998 4.3998L20.3998 2.9998C20.7998 2.5998 20.7998 1.9998 20.3998 1.5998C19.9998 1.1998 19.3998 1.1998 18.9998 1.5998Z" fill="#F7BE33"/>
<path d="M8.30014 16.0003C6.60014 16.0003 4.90014 16.1003 3.30014 16.0003C1.60014 15.9003 0.300144 14.7003 0.100144 13.0003C0.000143781 11.7003 0.600144 10.5003 1.70014 9.90032C2.50014 9.40032 3.50014 9.20032 4.40014 9.40032C4.50014 9.40032 4.60014 9.40032 4.60014 9.30032C5.00014 7.60032 6.50014 6.30032 8.20014 6.10032C10.6001 5.70032 12.8001 7.30032 13.4001 9.70032C13.5001 9.90032 13.5001 10.1003 13.5001 10.3003C13.5001 10.4003 13.6001 10.5003 13.7001 10.5003C14.4001 10.6003 15.0001 11.0003 15.4001 11.5003C16.3001 12.6003 16.2001 14.3003 15.0001 15.3003C14.8001 15.4003 14.6001 15.6003 14.4001 15.7003C14.0001 15.9003 13.5001 16.0003 13.1001 16.0003C11.5001 16.0003 9.90014 16.0003 8.30014 16.0003Z" fill="#9FB8F7"/>
<path d="M7.30008 17.3004L6.10008 19.2004C5.90008 19.5004 6.10008 19.8004 6.60008 19.9004C7.00008 20.0004 7.50008 19.9004 7.70008 19.6004L8.90008 17.7004C9.10008 17.4004 8.90008 17.1004 8.40008 17.0004C8.00008 16.9004 7.60008 17.0004 7.30008 17.3004Z" fill="#7296F0"/>
<path d="M2.30008 18.3004L1.10008 20.2004C0.900078 20.5004 1.10008 20.8004 1.60008 20.9004C2.00008 21.0004 2.50008 20.9004 2.70008 20.6004L3.90008 18.7004C4.10008 18.4004 3.90008 18.1004 3.40008 18.0004C3.00008 17.9004 2.60008 18.0004 2.30008 18.3004Z" fill="#7296F0"/>
<path d="M11.3001 18.3004L10.1001 20.2004C9.90008 20.5004 10.1001 20.8004 10.6001 20.9004C11.0001 21.0004 11.5001 20.9004 11.7001 20.6004L12.9001 18.7004C13.1001 18.4004 12.9001 18.1004 12.4001 18.0004C12.0001 17.9004 11.6001 18.0004 11.3001 18.3004Z" fill="#7296F0"/>
</svg>
