<svg width="22" height="22" viewBox="0 0 22 22" fill="none" xmlns="http://www.w3.org/2000/svg">
<path d="M11.4002 13.9002C9.50017 13.9002 7.60017 14.0002 5.60017 13.9002C3.70017 13.9002 2.20017 12.5002 2.00017 10.6002C1.90017 9.20022 2.60017 7.80022 3.80017 7.20022C4.70017 6.70022 5.80017 6.50022 6.80017 6.70022C6.90017 6.70022 7.00017 6.70022 7.00017 6.60022C7.60017 4.70022 9.20017 3.30022 11.1002 3.10022C13.9002 2.70022 16.5002 4.40022 17.1002 7.00022C17.2002 7.20022 17.2002 7.50022 17.2002 7.70022C17.2002 7.80022 17.3002 7.90022 17.4002 8.00022C18.2002 8.10022 18.8002 8.60022 19.3002 9.10022C20.3002 10.3002 20.2002 12.2002 19.0002 13.2002C18.8002 13.4002 18.5002 13.5002 18.3002 13.6002C17.8002 13.8002 17.3002 14.0002 16.8002 14.0002C15.0002 13.9002 13.2002 13.9002 11.4002 13.9002Z" fill="#9FB8F7"/>
<path d="M10.2 16.3998L11 15.9999C11.8 15.5999 12.5 16.6999 11.7 17.0999L10.9 17.4999L11.7 17.8998C12.5 18.2998 11.8 19.3999 11 18.9999L10.2 18.5999V19.3998C10.1 19.7998 9.80005 20.0999 9.40005 19.9999C9.10005 19.9999 8.80005 19.6999 8.80005 19.3998V18.5999L8.00005 18.9999C7.20005 19.3999 6.50005 18.2998 7.30005 17.8998L8.10005 17.4999L7.30005 17.0999C6.70005 16.6999 7.20005 15.5999 8.00005 15.9999L8.80005 16.3998V15.5999C8.90005 15.1999 9.20005 14.8999 9.60005 14.9999C9.90005 14.9999 10.2 15.2999 10.2 15.5999V16.3998Z" fill="#7296F0"/>
</svg>
