<svg width="22" height="22" viewBox="0 0 22 22" fill="none" xmlns="http://www.w3.org/2000/svg">
<path d="M11 7C13.2 7 15 8.8 15 11C15 13.2 13.2 15 11 15C8.8 15 7 13.2 7 11C7 8.8 8.8 7 11 7ZM11 2C11.6 2 12 2.4 12 3V5C12 5.6 11.6 6 11 6C10.4 6 10 5.6 10 5V3C10 2.4 10.4 2 11 2ZM11 16C11.6 16 12 16.4 12 17V19C12 19.6 11.6 20 11 20C10.4 20 10 19.6 10 19V17C10 16.4 10.4 16 11 16ZM17 10H19C19.6 10 20 10.4 20 11C20 11.6 19.6 12 19 12H17C16.4 12 16 11.6 16 11C16 10.4 16.4 10 17 10ZM3 10H5C5.6 10 6 10.4 6 11C6 11.6 5.6 12 5 12H3C2.4 12 2 11.6 2 11C2 10.4 2.4 10 3 10ZM17.4 4.6C17.8 5 17.8 5.6 17.4 6L16 7.5C15.6 7.9 15 7.9 14.6 7.5C14.2 7.1 14.2 6.5 14.6 6.1L16 4.6C16.3 4.2 17 4.2 17.4 4.6ZM7.5 14.5C7.9 14.9 7.9 15.5 7.5 15.9L6.1 17.3C5.7 17.7 5.1 17.7 4.7 17.3C4.3 16.9 4.3 16.3 4.7 15.9L6.1 14.5C6.4 14.1 7.1 14.1 7.5 14.5ZM15.9 14.5L17.3 15.9C17.7 16.3 17.7 16.9 17.3 17.3C16.9 17.7 16.3 17.7 15.9 17.3L14.5 16C14.1 15.6 14.1 15 14.4 14.6C14.7 14.2 15.5 14.1 15.9 14.5ZM6 4.6L7.4 6C7.8 6.4 7.8 7 7.5 7.4C7.1 7.8 6.5 7.8 6.1 7.5C6.1 7.5 6.1 7.5 6 7.4L4.6 6C4.2 5.6 4.2 5 4.6 4.6C5 4.2 5.7 4.2 6 4.6Z" fill="#F7BE33"/>
</svg>
