<svg width="22" height="22" viewBox="0 0 22 22" fill="none" xmlns="http://www.w3.org/2000/svg">
<path d="M11.4002 13.9002C9.50017 13.9002 7.60017 14.0002 5.60017 13.9002C3.70017 13.9002 2.20017 12.5002 2.00017 10.6002C1.90017 9.20022 2.60017 7.80022 3.80017 7.20022C4.70017 6.70022 5.80017 6.50022 6.80017 6.70022C6.90017 6.70022 7.00017 6.70022 7.00017 6.60022C7.60017 4.70022 9.20017 3.30022 11.1002 3.10022C13.8002 2.70022 16.4002 4.40022 17.0002 7.00022C17.1002 7.20022 17.1002 7.50022 17.1002 7.70022C17.1002 7.80022 17.2002 7.90022 17.3002 8.00022C18.1002 8.10022 18.7002 8.60022 19.2002 9.10022C20.2002 10.3002 20.1002 12.2002 18.9002 13.2002C18.7002 13.4002 18.4002 13.5002 18.2002 13.6002C17.7002 13.8002 17.2002 14.0002 16.7002 13.9002C15.1002 13.9002 13.2002 13.9002 11.4002 13.9002Z" fill="#9FB8F7"/>
<path d="M14.3001 16.3004L13.1001 18.2004C12.9001 18.5004 13.1001 18.8004 13.6001 18.9004C14.0001 19.0004 14.5001 18.9004 14.7001 18.6004L15.9001 16.7004C16.1001 16.4004 15.9001 16.1004 15.4001 16.0004C15.0001 15.9004 14.6001 16.0004 14.3001 16.3004Z" fill="#7296F0"/>
<path d="M8.20005 16.3998L9.00005 15.9999C9.80005 15.5999 10.5 16.6999 9.70005 17.0999L8.90005 17.4999L9.70005 17.8998C10.5 18.2998 9.80005 19.3999 9.00005 18.9999L8.20005 18.5999V19.3998C8.10005 19.7998 7.80005 20.0999 7.40005 19.9999C7.10005 19.9999 6.80005 19.6999 6.80005 19.3998V18.5999L6.00005 18.9999C5.20005 19.3999 4.50005 18.2998 5.30005 17.8998L6.10005 17.4999L5.30005 17.0999C4.60005 16.6999 5.20005 15.5999 6.00005 15.9999L6.80005 16.3998V15.5999C6.90005 15.1999 7.20005 14.8999 7.60005 14.9999C7.90005 14.9999 8.20005 15.2999 8.20005 15.5999V16.3998Z" fill="#7296F0"/>
</svg>
