<svg width="48" height="48" viewBox="0 0 48 48" fill="none" xmlns="http://www.w3.org/2000/svg">
<path opacity="0.1" d="M32 17H30V9C30 7.9 29.1 7 28 7H18C16.9 7 16 7.9 16 9V17H14C12.3 17 11 18.3 11 20V40C11 41.7 12.3 43 14 43H15V44C15 44.6 15.4 45 16 45C16.6 45 17 44.6 17 44V43H29V44C29 44.6 29.4 45 30 45C30.6 45 31 44.6 31 44V43H32C33.7 43 35 41.7 35 40V20C35 18.3 33.7 17 32 17ZM18 9H28V10H18V9ZM18 12H28V17H18V12Z" fill="#FA6069"/>
<path d="M14 16H32C33.1 16 34 16.9 34 18V38C34 39.1 33.1 40 32 40H14C12.9 40 12 39.1 12 38V18C12 16.9 12.9 16 14 16Z" fill="#FFF5F6"/>
<path d="M32 15H30V7C30 5.9 29.1 5 28 5H18C16.9 5 16 5.9 16 7V15H14C12.3 15 11 16.3 11 18V38C11 39.7 12.3 41 14 41H15V42C15 42.6 15.4 43 16 43C16.6 43 17 42.6 17 42V41H29V42C29 42.6 29.4 43 30 43C30.6 43 31 42.6 31 42V41H32C33.7 41 35 39.7 35 38V18C35 16.3 33.7 15 32 15ZM18 7H28V8H18V7ZM18 10H28V15H18V10ZM33 38C33 38.6 32.6 39 32 39H14C13.4 39 13 38.6 13 38V18C13 17.4 13.4 17 14 17H16H30H32C32.6 17 33 17.4 33 18V38Z" fill="#FA6069"/>
<path opacity="0.5" d="M21 20H25C25.6 20 26 20.4 26 21V23C26 23.6 25.6 24 25 24H21C20.4 24 20 23.6 20 23V21C20 20.4 20.4 20 21 20Z" fill="#FA6069"/>
<path opacity="0.7" d="M15 39V17C15 16.4 15.4 16 16 16C16.6 16 17 16.4 17 17V39C17 39.6 16.6 40 16 40C15.4 40 15 39.6 15 39Z" fill="#FA6069"/>
<path opacity="0.7" d="M29 39V17C29 16.4 29.4 16 30 16C30.6 16 31 16.4 31 17V39C31 39.6 30.6 40 30 40C29.4 40 29 39.6 29 39Z" fill="#FA6069"/>
<path opacity="0.2" d="M35.8 36.0996C35.2 36.6996 34.4 36.8996 33.7 36.8996C32.9 36.8996 32.2 36.5996 31.6 36.0996L28 32.5996C27.4 31.9996 27.1 31.2996 27.1 30.4996C27.1 29.6996 27.4 28.8996 28 28.3996C29.2 27.2996 31.1 27.2996 32.2 28.3996L33.7 29.8996L38.7 25.0996H28C26.3 25.0996 25 26.3996 25 28.0996V40.0996C25 41.7996 26.3 43.0996 28 43.0996H40C41.7 43.0996 43 41.7996 43 40.0996V29.1996L35.8 36.0996Z" fill="#242429"/>
<path d="M28 24H40C41.1 24 42 24.9 42 26V38C42 39.1 41.1 40 40 40H28C26.9 40 26 39.1 26 38V26C26 24.9 26.9 24 28 24Z" fill="white"/>
<path d="M41 31.1V38C41 38.6 40.6 39 40 39H28C27.4 39 27 38.6 27 38V26C27 25.4 27.4 25 28 25H38.6L40.6 23.1C40.4 23 40.2 23 40 23H28C26.3 23 25 24.3 25 26V38C25 39.7 26.3 41 28 41H40C41.7 41 43 39.7 43 38V29.2L41 31.1Z" fill="#242429"/>
<path d="M44 25C44 24.7 43.9 24.5 43.7 24.3C43.3 23.9 42.6 23.9 42.2 24.3L34.3 31.9C33.9 32.3 33.3 32.3 32.9 31.9L30.7 29.8C30.5 29.6 30.2 29.5 30 29.5C29.8 29.5 29.5 29.6 29.3 29.8C29.1 30 29 30.2 29 30.5C29 30.8 29.1 31 29.3 31.2L32.9 34.7C33.3 35.1 34 35.1 34.4 34.7L43.7 25.7C43.9 25.5 44 25.3 44 25Z" fill="#242429"/>
</svg>
