<svg width="48" height="48" viewBox="0 0 48 48" fill="none" xmlns="http://www.w3.org/2000/svg">
<g opacity="0.1">
<path d="M7 6H35C36.1 6 37 6.9 37 8V34C37 35.1 36.1 36 35 36H7C5.9 36 5 35.1 5 34V8C5 6.9 5.9 6 7 6Z" fill="white"/>
<path d="M35 37H7C5.3 37 4 35.7 4 34V8C4 6.3 5.3 5 7 5H35C36.7 5 38 6.3 38 8V34C38 35.7 36.7 37 35 37ZM7 7C6.4 7 6 7.4 6 8V34C6 34.6 6.4 35 7 35H35C35.6 35 36 34.6 36 34V8C36 7.4 35.6 7 35 7H7Z" fill="#FA6069"/>
</g>
<g opacity="0.6">
<path d="M7 4H35C36.1 4 37 4.9 37 6V32C37 33.1 36.1 34 35 34H7C5.9 34 5 33.1 5 32V6C5 4.9 5.9 4 7 4Z" fill="white"/>
<path d="M35 35H7C5.3 35 4 33.7 4 32V6C4 4.3 5.3 3 7 3H35C36.7 3 38 4.3 38 6V32C38 33.7 36.7 35 35 35ZM7 5C6.4 5 6 5.4 6 6V32C6 32.6 6.4 33 7 33H35C35.6 33 36 32.6 36 32V6C36 5.4 35.6 5 35 5H7Z" fill="#FA6069"/>
<path d="M36 9H6V5H36V9Z" fill="#FFF9FA"/>
</g>
<path opacity="0.4" d="M8 8C8.55228 8 9 7.55228 9 7C9 6.44772 8.55228 6 8 6C7.44772 6 7 6.44772 7 7C7 7.55228 7.44772 8 8 8Z" fill="#FA6069"/>
<path opacity="0.4" d="M11 8C11.5523 8 12 7.55228 12 7C12 6.44772 11.5523 6 11 6C10.4477 6 10 6.44772 10 7C10 7.55228 10.4477 8 11 8Z" fill="#FA6069"/>
<path opacity="0.4" d="M36 9H6V11H36V9Z" fill="#FA6069"/>
<g opacity="0.1">
<path d="M13 12H41C42.1 12 43 12.9 43 14V40C43 41.1 42.1 42 41 42H13C11.9 42 11 41.1 11 40V14C11 12.9 11.9 12 13 12Z" fill="white"/>
<path d="M41 43H13C11.3 43 10 41.7 10 40V14C10 12.3 11.3 11 13 11H41C42.7 11 44 12.3 44 14V40C44 41.7 42.7 43 41 43ZM13 13C12.4 13 12 13.4 12 14V40C12 40.6 12.4 41 13 41H41C41.6 41 42 40.6 42 40V14C42 13.4 41.6 13 41 13H13Z" fill="#FA6069"/>
</g>
<path d="M13 10H41C42.1 10 43 10.9 43 12V38C43 39.1 42.1 40 41 40H13C11.9 40 11 39.1 11 38V12C11 10.9 11.9 10 13 10Z" fill="white"/>
<path d="M41 41H13C11.3 41 10 39.7 10 38V12C10 10.3 11.3 9 13 9H41C42.7 9 44 10.3 44 12V38C44 39.7 42.7 41 41 41ZM13 11C12.4 11 12 11.4 12 12V38C12 38.6 12.4 39 13 39H41C41.6 39 42 38.6 42 38V12C42 11.4 41.6 11 41 11H13Z" fill="#FA6069"/>
<path opacity="0.4" d="M40 19H14V31H40V19Z" fill="#FA6069"/>
<path opacity="0.6" d="M15 34H23C23.6 34 24 34.4 24 35C24 35.6 23.6 36 23 36H15C14.4 36 14 35.6 14 35C14 34.4 14.4 34 15 34Z" fill="#FA6069"/>
<path opacity="0.8" d="M42 15H12V17H42V15Z" fill="#FA6069"/>
<path d="M42 15H12V11H42V15Z" fill="#FFF9FA"/>
<path opacity="0.7" d="M14 14C14.5523 14 15 13.5523 15 13C15 12.4477 14.5523 12 14 12C13.4477 12 13 12.4477 13 13C13 13.5523 13.4477 14 14 14Z" fill="#FA6069"/>
<path opacity="0.7" d="M17 14C17.5523 14 18 13.5523 18 13C18 12.4477 17.5523 12 17 12C16.4477 12 16 12.4477 16 13C16 13.5523 16.4477 14 17 14Z" fill="#FA6069"/>
<path opacity="0.2" d="M47.9 34.1998C47.9 34.0998 47.9 34.0998 47.9 34.1998C47.8 33.9998 47.8 33.8998 47.7 33.8998C47.6 33.7998 47.6 33.7998 47.5 33.6998L37.5 28.1998C37.2 27.9998 36.8 27.9998 36.5 28.1998L26.5 33.6998C26.2 33.7998 26 34.0998 26 34.4998C26 34.8998 26.2 35.1998 26.5 35.3998L29 36.7998C29 36.7998 29 36.8998 29 36.9998V42.9998C29 44.6998 30.3 45.9998 32 45.9998H42C43.7 45.9998 45 44.6998 45 42.9998V36.9998C45 36.8998 45 36.7998 45 36.7998L46 36.1998V39.9998C46 40.5998 46.4 40.9998 47 40.9998C47.6 40.9998 48 40.5998 48 39.9998V34.4998C48 34.3998 48 34.2998 47.9 34.1998Z" fill="#242429"/>
<path d="M47.9 32.1998C47.9 32.0998 47.9 32.0998 47.9 32.1998C47.8 31.9998 47.8 31.8998 47.7 31.8998C47.6 31.7998 47.6 31.7998 47.5 31.6998L37.5 26.1998C37.2 25.9998 36.8 25.9998 36.5 26.1998L26.5 31.6998C26.2 31.7998 26 32.0998 26 32.4998C26 32.8998 26.2 33.1998 26.5 33.3998L29 34.7998C29 34.7998 29 34.8998 29 34.9998V40.9998C29 42.6998 30.3 43.9998 32 43.9998H42C43.7 43.9998 45 42.6998 45 40.9998V34.9998C45 34.8998 45 34.7998 45 34.7998L46 34.1998V37.9998C46 38.5998 46.4 38.9998 47 38.9998C47.6 38.9998 48 38.5998 48 37.9998V32.4998C48 32.3998 48 32.2998 47.9 32.1998Z" fill="white"/>
<path d="M47.9 32.1998C47.9 32.0998 47.9 32.0998 47.9 32.1998C47.8 31.9998 47.8 31.8998 47.7 31.8998C47.6 31.7998 47.6 31.7998 47.5 31.6998L37.5 26.1998C37.2 25.9998 36.8 25.9998 36.5 26.1998L26.5 31.6998C26.2 31.7998 26 32.0998 26 32.4998C26 32.8998 26.2 33.1998 26.5 33.3998L29 34.7998C29 34.7998 29 34.8998 29 34.9998V40.9998C29 42.6998 30.3 43.9998 32 43.9998H42C43.7 43.9998 45 42.6998 45 40.9998V34.9998C45 34.8998 45 34.7998 45 34.7998L46 34.1998V37.9998C46 38.5998 46.4 38.9998 47 38.9998C47.6 38.9998 48 38.5998 48 37.9998V32.4998C48 32.3998 48 32.2998 47.9 32.1998ZM37 28.0998L44.9 32.4998L37 36.8998L29.1 32.4998L37 28.0998ZM43 40.9998C43 41.5998 42.6 41.9998 42 41.9998H32C31.4 41.9998 31 41.5998 31 40.9998V35.7998L36.5 38.7998C36.7 38.9998 36.8 38.9998 37 38.9998C37.2 38.9998 37.3 38.9998 37.5 38.8998L43 35.8998V40.9998Z" fill="#242429"/>
</svg>
