<svg width="48" height="48" viewBox="0 0 48 48" fill="none" xmlns="http://www.w3.org/2000/svg">
<g clip-path="url(#clip0_955_78028)">
<path opacity="0.1" d="M35 41.9951H9C7.3 41.9951 6 40.6951 6 38.9951V14.9951C6 13.2951 7.3 11.9951 9 11.9951H35C36.7 11.9951 38 13.2951 38 14.9951V38.9951C38 40.5951 36.7 41.9951 35 41.9951ZM9 13.9951C8.4 13.9951 8 14.3951 8 14.9951V38.9951C8 39.5951 8.4 39.9951 9 39.9951H35C35.6 39.9951 36 39.5951 36 38.9951V14.9951C36 14.3951 35.6 13.9951 35 13.9951H9Z" fill="#FA6069"/>
<path d="M36 16.9951H8V37.9951H36V16.9951Z" fill="white"/>
<path d="M36 11.9951H8V16.9951H36V11.9951Z" fill="#FFF5F6"/>
<path d="M35 9.99558H28.4C29.4 9.29558 30.2 8.49558 30.6 7.49558C31.1 6.19558 30.8 4.79558 29.7 3.69558C28.5 2.49558 27 2.09558 25.5 2.69558C23.8 3.39558 22.5 5.19558 21.7 7.19558C21 5.29558 19.6 3.49558 18 2.79558C16.6 2.19558 15.1 2.59558 13.8 3.79558C12.7 4.89558 12.4 6.19558 12.9 7.59558C13.3 8.49558 14.1 9.39558 15.1 10.0956H9C7.3 10.0956 6 11.3956 6 13.0956V36.9999C6 38.6999 7.3 39.9999 9 39.9999H35C36.7 39.9999 38 38.6999 38 36.9999V13.0956C38 11.2956 36.7 9.99558 35 9.99558ZM26.3 4.59558C26.5 4.59558 26.7 4.49558 26.9 4.49558C27.3 4.49558 27.7 4.69558 28.3 5.19558C29 5.89558 28.9 6.39558 28.7 6.79558C28.1 8.19558 25.6 9.59558 23.1 9.89558C23.5 7.59558 24.9 5.19558 26.3 4.59558ZM15.2 5.19558C15.7 4.69558 16.2 4.49558 16.6 4.49558C16.8 4.49558 17 4.59558 17.2 4.59558C18.6 5.19558 20.1 7.59558 20.4 9.89558C17.9 9.59558 15.4 8.19558 14.8 6.79558C14.6 6.39558 14.5 5.89558 15.2 5.19558ZM36 36.8999C36 37.4999 35.6 37.9999 35 37.9999H9C8.4 37.9999 8 37.5999 8 36.9999V12.9956C8 12.3956 8.4 11.9956 9 11.9956H21H21.5H22H22.5H35C35.6 11.9956 36 12.3956 36 12.9956V36.8999Z" fill="#FA6069"/>
<path opacity="0.7" d="M23 11.9951H21V39.9951H23V11.9951Z" fill="#FA6069"/>
<path d="M36 16.9951H8V18.9951H36V16.9951Z" fill="#FA6069"/>
<path opacity="0.3" d="M36 18.9951H8V20.9951H36V18.9951Z" fill="#FA6069"/>
<path opacity="0.15" d="M47.7982 33.3951L42.7982 27.3951C42.5982 27.0951 42.2982 26.9951 41.9982 26.9951H31.9982C31.6982 26.9951 31.3982 27.0951 31.1982 27.3951L26.1982 33.3951C25.8982 33.7951 25.8982 34.3951 26.2982 34.6951L36.2982 44.6951C36.4982 44.8951 36.7982 44.9951 36.9982 44.9951C37.1982 44.9951 37.4982 44.8951 37.6982 44.6951L47.6982 34.6951C48.0982 34.2951 48.0982 33.7951 47.7982 33.3951Z" fill="#242429"/>
<path d="M47.7982 31.3951L42.7982 25.3951C42.5982 25.0951 42.2982 24.9951 41.9982 24.9951H31.9982C31.6982 24.9951 31.3982 25.0951 31.1982 25.3951L26.1982 31.3951C25.8982 31.7951 25.8982 32.3951 26.2982 32.6951L36.2982 42.6951C36.4982 42.8951 36.7982 42.9951 36.9982 42.9951C37.1982 42.9951 37.4982 42.8951 37.6982 42.6951L47.6982 32.6951C48.0982 32.2951 48.0982 31.7951 47.7982 31.3951Z" fill="white"/>
<path d="M47.7982 31.3951L42.7982 25.3951C42.5982 25.0951 42.2982 24.9951 41.9982 24.9951H31.9982C31.6982 24.9951 31.3982 25.0951 31.1982 25.3951L26.1982 31.3951C25.8982 31.7951 25.8982 32.3951 26.2982 32.6951L36.2982 42.6951C36.4982 42.8951 36.7982 42.9951 36.9982 42.9951C37.1982 42.9951 37.4982 42.8951 37.6982 42.6951L47.6982 32.6951C48.0982 32.2951 48.0982 31.7951 47.7982 31.3951ZM34.8982 30.9951H29.0982L31.9982 27.5951L34.8982 30.9951ZM34.0982 26.9951H39.7982L36.9982 30.3951L34.0982 26.9951ZM41.9982 27.5951L44.8982 30.9951H39.1982L41.9982 27.5951ZM36.9982 40.5951L29.3982 32.9951H44.5982L36.9982 40.5951Z" fill="#242429"/>
<path opacity="0.2" d="M8 31.9951C3.6 31.9951 0 28.3951 0 23.9951C0 19.5951 3.6 15.9951 8 15.9951C12.4 15.9951 16 19.5951 16 23.9951C16 28.3951 12.4 31.9951 8 31.9951Z" fill="#FA6069"/>
<path d="M8 28.9951C11.866 28.9951 15 25.8611 15 21.9951C15 18.1291 11.866 14.9951 8 14.9951C4.13401 14.9951 1 18.1291 1 21.9951C1 25.8611 4.13401 28.9951 8 28.9951Z" fill="white"/>
<path d="M8 29.9951C3.6 29.9951 0 26.3951 0 21.9951C0 17.5951 3.6 13.9951 8 13.9951C12.4 13.9951 16 17.5951 16 21.9951C16 26.3951 12.4 29.9951 8 29.9951ZM8 15.9951C4.7 15.9951 2 18.6951 2 21.9951C2 25.2951 4.7 27.9951 8 27.9951C11.3 27.9951 14 25.2951 14 21.9951C14 18.6951 11.3 15.9951 8 15.9951Z" fill="#FA6069"/>
<path d="M11 20.9951H9V18.9951C9 18.3951 8.6 17.9951 8 17.9951C7.4 17.9951 7 18.3951 7 18.9951V20.9951H5C4.4 20.9951 4 21.3951 4 21.9951C4 22.5951 4.4 22.9951 5 22.9951H7V24.9951C7 25.5951 7.4 25.9951 8 25.9951C8.6 25.9951 9 25.5951 9 24.9951V22.9951H11C11.6 22.9951 12 22.5951 12 21.9951C12 21.3951 11.6 20.9951 11 20.9951Z" fill="#FA6069"/>
</g>
<defs>
<clipPath id="clip0_955_78028">
<rect width="48" height="48" fill="white"/>
</clipPath>
</defs>
</svg>
