<svg width="48" height="48" viewBox="0 0 48 48" fill="none" xmlns="http://www.w3.org/2000/svg">
<circle opacity="0.1" cx="23" cy="25" r="20" fill="#FA6069"/>
<circle cx="23" cy="22" r="19" fill="white" stroke="#FA6069" stroke-width="2"/>
<circle cx="23" cy="22" r="16" fill="#FFF5F6"/>
<circle cx="23" cy="22" r="15" stroke="#FA6069" stroke-opacity="0.5" stroke-width="2"/>
<circle cx="23" cy="17" r="4" fill="white" stroke="#FA6069" stroke-width="2"/>
<path d="M16 29C16.7253 26.1372 19.584 24 23 24C26.416 24 29.2747 26.1372 30 29" stroke="#FA6069" stroke-width="2" stroke-linecap="round"/>
<path opacity="0.2" d="M42.8701 43L39.1601 37.32C39.7146 36.3015 40.0035 35.1597 40.0001 34C40.0001 32.1435 39.2626 30.363 37.9498 29.0503C36.6371 27.7375 34.8566 27 33.0001 27C31.1436 27 29.3631 27.7375 28.0503 29.0503C26.7376 30.363 26.0001 32.1435 26.0001 34C25.9966 35.1597 26.2855 36.3015 26.8401 37.32L23.1301 43C23.0421 43.1523 22.9959 43.3251 22.9961 43.501C22.9963 43.6769 23.0428 43.8496 23.1311 44.0017C23.2193 44.1539 23.3461 44.28 23.4987 44.3675C23.6513 44.455 23.8242 44.5007 24.0001 44.5H26.8701L28.3301 46.96C28.3793 47.0415 28.4399 47.1156 28.5101 47.18C28.6955 47.3587 28.9426 47.459 29.2001 47.46H29.3401C29.491 47.4393 29.6353 47.3845 29.7618 47.2995C29.8883 47.2146 29.9938 47.1019 30.0701 46.97L33.0001 42.65L35.9301 47C36.0075 47.13 36.1134 47.2408 36.2399 47.3239C36.3663 47.4071 36.51 47.4604 36.6601 47.48H36.8001C37.061 47.4816 37.3122 47.3811 37.5001 47.2C37.5673 47.1393 37.6247 47.0684 37.6701 46.99L39.1301 44.53H42.0001C42.1763 44.5307 42.3495 44.4848 42.5023 44.397C42.6551 44.3092 42.782 44.1826 42.8701 44.03C42.9635 43.8745 43.0129 43.6964 43.0129 43.515C43.0129 43.3336 42.9635 43.1555 42.8701 43Z" fill="#242429"/>
<path d="M42.8701 41L39.1601 35.32C39.7146 34.3015 40.0035 33.1597 40.0001 32C40.0001 30.1435 39.2626 28.363 37.9498 27.0503C36.6371 25.7375 34.8566 25 33.0001 25C31.1436 25 29.3631 25.7375 28.0503 27.0503C26.7376 28.363 26.0001 30.1435 26.0001 32C25.9966 33.1597 26.2855 34.3015 26.8401 35.32L23.1301 41C23.0421 41.1523 22.9959 41.3251 22.9961 41.501C22.9963 41.6769 23.0428 41.8496 23.1311 42.0017C23.2193 42.1539 23.3461 42.28 23.4987 42.3675C23.6513 42.455 23.8242 42.5007 24.0001 42.5H26.8701L28.3301 44.96C28.3793 45.0415 28.4399 45.1156 28.5101 45.18C28.6955 45.3587 28.9426 45.459 29.2001 45.46H29.3401C29.491 45.4393 29.6353 45.3845 29.7618 45.2995C29.8883 45.2146 29.9938 45.1019 30.0701 44.97L33.0001 40.65L35.9301 45C36.0075 45.13 36.1134 45.2408 36.2399 45.3239C36.3663 45.4071 36.51 45.4604 36.6601 45.48H36.8001C37.061 45.4816 37.3122 45.3811 37.5001 45.2C37.5673 45.1393 37.6247 45.0684 37.6701 44.99L39.1301 42.53H42.0001C42.1763 42.5307 42.3495 42.4848 42.5023 42.397C42.6551 42.3092 42.782 42.1826 42.8701 42.03C42.9635 41.8745 43.0129 41.6964 43.0129 41.515C43.0129 41.3336 42.9635 41.1555 42.8701 41Z" fill="white"/>
<path d="M42.874 41L39.164 35.32C39.7185 34.3015 40.0074 33.1597 40.004 32C40.004 30.1435 39.2665 28.363 37.9537 27.0503C36.641 25.7375 34.8605 25 33.004 25C31.1475 25 29.367 25.7375 28.0542 27.0503C26.7415 28.363 26.004 30.1435 26.004 32C26.0005 33.1597 26.2894 34.3015 26.844 35.32L23.134 41C23.046 41.1523 22.9998 41.3251 23 41.501C23.0002 41.6769 23.0467 41.8496 23.135 42.0017C23.2232 42.1539 23.35 42.28 23.5026 42.3675C23.6552 42.455 23.8281 42.5007 24.004 42.5H26.874L28.334 44.96C28.3832 45.0415 28.4438 45.1156 28.514 45.18C28.6994 45.3587 28.9465 45.459 29.204 45.46H29.344C29.4949 45.4393 29.6392 45.3845 29.7657 45.2995C29.8922 45.2146 29.9977 45.1019 30.074 44.97L33.004 40.65L35.934 45C36.0114 45.13 36.1173 45.2408 36.2438 45.3239C36.3702 45.4071 36.5139 45.4604 36.664 45.48H36.804C37.0649 45.4816 37.3161 45.3811 37.504 45.2C37.5712 45.1393 37.6286 45.0684 37.674 44.99L39.134 42.53H42.004C42.1802 42.5307 42.3535 42.4848 42.5062 42.397C42.659 42.3092 42.7859 42.1826 42.874 42.03C42.9674 41.8745 43.0168 41.6964 43.0168 41.515C43.0168 41.3336 42.9674 41.1555 42.874 41ZM29.194 42.53L28.304 41.04C28.2163 40.8922 28.0921 40.7694 27.9432 40.6836C27.7943 40.5978 27.6258 40.5518 27.454 40.55H25.724L28.154 37.07C29.1387 38.0189 30.3798 38.6585 31.724 38.91L29.194 42.53ZM33.004 37C32.0151 37 31.0484 36.7068 30.2261 36.1573C29.4039 35.6079 28.763 34.827 28.3846 33.9134C28.0061 32.9998 27.9071 31.9945 28.1001 31.0245C28.293 30.0546 28.7692 29.1637 29.4684 28.4645C30.1677 27.7652 31.0586 27.289 32.0285 27.0961C32.9984 26.9031 34.0038 27.0022 34.9174 27.3806C35.831 27.759 36.6119 28.3999 37.1613 29.2221C37.7107 30.0444 38.004 31.0111 38.004 32C38.004 33.3261 37.4772 34.5979 36.5395 35.5355C35.6018 36.4732 34.3301 37 33.004 37ZM38.554 40.55C38.3821 40.5518 38.2136 40.5978 38.0648 40.6836C37.9159 40.7694 37.7916 40.8922 37.704 41.04L36.814 42.53L34.294 38.88C35.6335 38.6234 36.8699 37.9843 37.854 37.04L40.284 40.52L38.554 40.55Z" fill="#242429"/>
</svg>
