<svg width="48" height="48" viewBox="0 0 48 48" fill="none" xmlns="http://www.w3.org/2000/svg">
<path opacity="0.1" d="M38 19.94C37.9896 19.8481 37.9695 19.7576 37.94 19.67V19.58C37.8919 19.4772 37.8278 19.3827 37.75 19.3L27.75 9.3C27.6673 9.22222 27.5728 9.15808 27.47 9.11H27.38C27.2784 9.05174 27.1662 9.01434 27.05 9H13C12.2044 9 11.4413 9.31607 10.8787 9.87868C10.3161 10.4413 10 11.2044 10 12V40C10 40.7956 10.3161 41.5587 10.8787 42.1213C11.4413 42.6839 12.2044 43 13 43H35C35.7956 43 36.5587 42.6839 37.1213 42.1213C37.6839 41.5587 38 40.7956 38 40V20C38 20 38 20 38 19.94ZM28 12.41L34.59 19H29C28.7348 19 28.4804 18.8946 28.2929 18.7071C28.1054 18.5196 28 18.2652 28 18V12.41ZM36 40C36 40.2652 35.8946 40.5196 35.7071 40.7071C35.5196 40.8946 35.2652 41 35 41H13C12.7348 41 12.4804 40.8946 12.2929 40.7071C12.1054 40.5196 12 40.2652 12 40V12C12 11.7348 12.1054 11.4804 12.2929 11.2929C12.4804 11.1054 12.7348 11 13 11H26V18C26 18.7956 26.3161 19.5587 26.8787 20.1213C27.4413 20.6839 28.2044 21 29 21H36V40Z" fill="#FA6069"/>
<path d="M38 17.94C37.9896 17.8481 37.9695 17.7576 37.94 17.67V17.58C37.8919 17.4772 37.8278 17.3827 37.75 17.3L27.75 7.3C27.6673 7.22222 27.5728 7.15808 27.47 7.11H27.38C27.2784 7.05174 27.1662 7.01434 27.05 7H13C12.2044 7 11.4413 7.31607 10.8787 7.87868C10.3161 8.44129 10 9.20435 10 10V38C10 38.7956 10.3161 39.5587 10.8787 40.1213C11.4413 40.6839 12.2044 41 13 41H35C35.7956 41 36.5587 40.6839 37.1213 40.1213C37.6839 39.5587 38 38.7956 38 38V18C38 18 38 18 38 17.94Z" fill="white"/>
<path d="M28 10.4102L34.59 17.0002H29C28.7348 17.0002 28.4804 16.8948 28.2929 16.7073C28.1054 16.5197 28 16.2654 28 16.0002V10.4102Z" fill="#FFF5F6"/>
<path d="M38 17.94C37.9896 17.8481 37.9695 17.7576 37.94 17.67V17.58C37.8919 17.4772 37.8278 17.3827 37.75 17.3L27.75 7.3C27.6673 7.22222 27.5728 7.15808 27.47 7.11H27.38C27.2784 7.05174 27.1662 7.01434 27.05 7H13C12.2044 7 11.4413 7.31607 10.8787 7.87868C10.3161 8.44129 10 9.20435 10 10V38C10 38.7956 10.3161 39.5587 10.8787 40.1213C11.4413 40.6839 12.2044 41 13 41H35C35.7956 41 36.5587 40.6839 37.1213 40.1213C37.6839 39.5587 38 38.7956 38 38V18C38 18 38 18 38 17.94ZM28 10.41L34.59 17H29C28.7348 17 28.4804 16.8946 28.2929 16.7071C28.1054 16.5196 28 16.2652 28 16V10.41ZM36 38C36 38.2652 35.8946 38.5196 35.7071 38.7071C35.5196 38.8946 35.2652 39 35 39H13C12.7348 39 12.4804 38.8946 12.2929 38.7071C12.1054 38.5196 12 38.2652 12 38V10C12 9.73478 12.1054 9.48043 12.2929 9.29289C12.4804 9.10536 12.7348 9 13 9H26V16C26 16.7956 26.3161 17.5587 26.8787 18.1213C27.4413 18.6839 28.2044 19 29 19H36V38Z" fill="#FA6069"/>
<path opacity="0.6" d="M16 22H28C28.6 22 29 22.4 29 23C29 23.6 28.6 24 28 24H16C15.4 24 15 23.6 15 23C15 22.4 15.4 22 16 22Z" fill="#FA6069"/>
<path opacity="0.6" d="M16 26H28C28.6 26 29 26.4 29 27C29 27.6 28.6 28 28 28H16C15.4 28 15 27.6 15 27C15 26.4 15.4 26 16 26Z" fill="#FA6069"/>
<path opacity="0.6" d="M16 30H28C28.6 30 29 30.4 29 31C29 31.6 28.6 32 28 32H16C15.4 32 15 31.6 15 31C15 30.4 15.4 30 16 30Z" fill="#FA6069"/>
<path opacity="0.6" d="M16 34H20C20.6 34 21 34.4 21 35C21 35.6 20.6 36 20 36H16C15.4 36 15 35.6 15 35C15 34.4 15.4 34 16 34Z" fill="#FA6069"/>
<path d="M45.3017 33.08C45.0207 32.7427 44.669 32.4711 44.2716 32.2845C43.8741 32.0979 43.4406 32.0008 43.0015 32H38.4411L39.0011 30.57C39.2341 29.9439 39.3117 29.2706 39.2272 28.608C39.1428 27.9453 38.8988 27.313 38.5163 26.7653C38.1337 26.2176 37.624 25.7708 37.0309 25.4634C36.4378 25.1559 35.7789 24.9969 35.1108 25C34.9184 25.0004 34.7302 25.0563 34.5688 25.161C34.4074 25.2656 34.2796 25.4146 34.2007 25.59L31.3505 32H29.0003C28.2045 32 27.4414 32.3161 26.8788 32.8787C26.3161 33.4413 26 34.2044 26 35V42C26 42.7957 26.3161 43.5587 26.8788 44.1213C27.4414 44.6839 28.2045 45 29.0003 45H41.7314C42.4332 44.9998 43.1128 44.7535 43.6519 44.304C44.1909 43.8546 44.5553 43.2304 44.6816 42.54L45.9517 35.54C46.0303 35.1074 46.0128 34.6628 45.9005 34.2377C45.7881 33.8126 45.5837 33.4174 45.3017 33.08ZM31.0004 43H29.0003C28.735 43 28.4806 42.8946 28.2931 42.7071C28.1055 42.5196 28.0002 42.2652 28.0002 42V35C28.0002 34.7348 28.1055 34.4805 28.2931 34.2929C28.4806 34.1054 28.735 34 29.0003 34H31.0004V43ZM44.0016 35.18L42.7315 42.18C42.6889 42.413 42.565 42.6232 42.3818 42.7734C42.1987 42.9236 41.9682 43.0039 41.7314 43H33.0006V33.21L35.7208 27.09C36.0009 27.1717 36.2609 27.3104 36.4846 27.4976C36.7082 27.6848 36.8907 27.9163 37.0204 28.1775C37.15 28.4388 37.2242 28.724 37.238 29.0153C37.2519 29.3066 37.2052 29.5977 37.101 29.87L36.5709 31.3C36.458 31.6023 36.4198 31.9274 36.4598 32.2476C36.4997 32.5677 36.6165 32.8735 36.8003 33.1388C36.984 33.404 37.2292 33.6209 37.5149 33.7709C37.8006 33.9208 38.1184 33.9995 38.4411 34H43.0015C43.1484 33.9998 43.2936 34.0319 43.4267 34.0941C43.5598 34.1564 43.6775 34.2471 43.7715 34.36C43.8679 34.4713 43.9385 34.6026 43.9782 34.7443C44.018 34.8861 44.026 35.0348 44.0016 35.18Z" fill="#242429" fill-opacity="0.2"/>
<path d="M45.3017 31.08C45.0207 30.7427 44.669 30.4711 44.2716 30.2845C43.8741 30.0979 43.4406 30.0008 43.0015 30H38.4411L39.0011 28.57C39.2341 27.9439 39.3117 27.2706 39.2272 26.608C39.1428 25.9453 38.8988 25.313 38.5163 24.7653C38.1337 24.2176 37.624 23.7708 37.0309 23.4634C36.4378 23.1559 35.7789 22.9969 35.1108 23C34.9184 23.0004 34.7302 23.0563 34.5688 23.161C34.4074 23.2656 34.2796 23.4146 34.2007 23.59L31.3505 30H29.0003C28.2045 30 27.4414 30.3161 26.8788 30.8787C26.3161 31.4413 26 32.2044 26 33V40C26 40.7957 26.3161 41.5587 26.8788 42.1213C27.4414 42.6839 28.2045 43 29.0003 43H41.7314C42.4332 42.9998 43.1128 42.7535 43.6519 42.304C44.1909 41.8546 44.5553 41.2304 44.6816 40.54L45.9517 33.54C46.0303 33.1074 46.0128 32.6628 45.9004 32.2377C45.7881 31.8126 45.5837 31.4174 45.3017 31.08Z" fill="white"/>
<path d="M45.3017 31.08C45.0207 30.7427 44.669 30.4711 44.2716 30.2845C43.8741 30.0979 43.4406 30.0008 43.0015 30H38.4411L39.0011 28.57C39.2341 27.9439 39.3117 27.2706 39.2272 26.608C39.1428 25.9453 38.8988 25.313 38.5163 24.7653C38.1337 24.2176 37.624 23.7708 37.0309 23.4634C36.4378 23.1559 35.7789 22.9969 35.1108 23C34.9184 23.0004 34.7302 23.0563 34.5688 23.161C34.4074 23.2656 34.2796 23.4146 34.2007 23.59L31.3505 30H29.0003C28.2045 30 27.4414 30.3161 26.8788 30.8787C26.3161 31.4413 26 32.2044 26 33V40C26 40.7957 26.3161 41.5587 26.8788 42.1213C27.4414 42.6839 28.2045 43 29.0003 43H41.7314C42.4332 42.9998 43.1128 42.7535 43.6519 42.304C44.1909 41.8546 44.5553 41.2304 44.6816 40.54L45.9517 33.54C46.0303 33.1074 46.0128 32.6628 45.9005 32.2377C45.7881 31.8126 45.5837 31.4174 45.3017 31.08ZM31.0004 41H29.0003C28.735 41 28.4806 40.8946 28.2931 40.7071C28.1055 40.5196 28.0002 40.2652 28.0002 40V33C28.0002 32.7348 28.1055 32.4805 28.2931 32.2929C28.4806 32.1054 28.735 32 29.0003 32H31.0004V41ZM44.0016 33.18L42.7315 40.18C42.6889 40.413 42.565 40.6232 42.3818 40.7734C42.1987 40.9236 41.9682 41.0039 41.7314 41H33.0006V31.21L35.7208 25.09C36.0009 25.1717 36.2609 25.3104 36.4846 25.4976C36.7082 25.6848 36.8907 25.9163 37.0204 26.1775C37.15 26.4388 37.2242 26.724 37.238 27.0153C37.2519 27.3066 37.2052 27.5977 37.101 27.87L36.5709 29.3C36.458 29.6023 36.4198 29.9274 36.4598 30.2476C36.4997 30.5677 36.6165 30.8735 36.8003 31.1388C36.984 31.404 37.2292 31.6209 37.5149 31.7709C37.8006 31.9208 38.1184 31.9995 38.4411 32H43.0015C43.1484 31.9998 43.2936 32.0319 43.4267 32.0941C43.5598 32.1564 43.6775 32.2471 43.7715 32.36C43.8679 32.4713 43.9385 32.6026 43.9782 32.7443C44.018 32.8861 44.026 33.0348 44.0016 33.18Z" fill="#242429"/>
</svg>
