<svg width="48" height="48" viewBox="0 0 48 48" fill="none" xmlns="http://www.w3.org/2000/svg">
<path opacity="0.1" d="M26.0239 10C23.7946 10 21.5871 10.4397 19.5275 11.294C17.4678 12.1483 15.5964 13.4004 14.02 14.979C10.8364 18.1669 9.04785 22.4908 9.04785 26.9992C9.03301 30.9246 10.3903 34.7314 12.8844 37.7598L9.48923 41.1596C9.25367 41.3987 9.0941 41.7022 9.03066 42.032C8.96721 42.3618 9.00273 42.703 9.13273 43.0125C9.27373 43.3184 9.50231 43.5754 9.78944 43.751C10.0766 43.9265 10.4093 44.0127 10.7455 43.9985H26.0239C30.5263 43.9985 34.8442 42.2075 38.0278 39.0195C41.2115 35.8316 43 31.5077 43 26.9992C43 22.4908 41.2115 18.1669 38.0278 14.979C34.8442 11.791 30.5263 10 26.0239 10Z" fill="#FA6069"/>
<path d="M10.0478 25.003V24.9992C10.0478 20.7555 11.7314 16.6859 14.7276 13.6856C16.2112 12.2 17.9724 11.0216 19.9106 10.2177C21.8488 9.41376 23.9261 9 26.0239 9C30.2606 9 34.324 10.6853 37.3202 13.6856C40.3165 16.6859 42 20.7555 42 24.9992C42 29.243 40.3165 33.3126 37.3202 36.3129C34.324 39.3132 30.2606 40.9985 26.0239 40.9985H10.7455H10.7244L10.7033 40.9994C10.5655 41.0052 10.429 40.9699 10.311 40.8978C10.198 40.8287 10.1068 40.7286 10.0483 40.6094C9.99999 40.4861 9.98755 40.3513 10.0126 40.2209C10.0386 40.0858 10.1038 39.9615 10.1996 39.8634C10.2002 39.8628 10.2009 39.8622 10.2015 39.8615L13.592 36.4664L14.2332 35.8244L13.6563 35.124C11.3106 32.2758 10.0339 28.6953 10.0478 25.003Z" fill="white" stroke="#FA6069" stroke-width="2"/>
<path opacity="0.7" fill-rule="evenodd" clip-rule="evenodd" d="M19 20H33C33.6 20 34 20.4 34 21C34 21.6 33.6 22 33 22H19C18.4 22 18 21.6 18 21C18 20.4 18.4 20 19 20ZM19 24H33C33.6 24 34 24.4 34 25C34 25.6 33.6 26 33 26H19C18.4 26 18 25.6 18 25C18 24.4 18.4 24 19 24ZM25 28H19C18.4 28 18 28.4 18 29C18 29.6 18.4 30 19 30H25C25.6 30 26 29.6 26 29C26 28.4 25.6 28 25 28Z" fill="#FA6069"/>
<path opacity="0.2" d="M11 25C6.60228 25 3 21.3977 3 17C3 12.6023 6.60228 9 11 9C15.3977 9 19 12.6023 19 17C19 21.3977 15.3977 25 11 25Z" fill="white" stroke="#FA6069" stroke-width="2"/>
<path d="M11 23C6.60228 23 3 19.3977 3 15C3 10.6023 6.60228 7 11 7C15.3977 7 19 10.6023 19 15C19 19.3977 15.3977 23 11 23Z" fill="white" stroke="#FA6069" stroke-width="2"/>
<path fill-rule="evenodd" clip-rule="evenodd" d="M9.53624 10.4014C9.99267 10.1381 10.5104 9.99966 11.0373 10C11.7409 10.0055 12.4201 10.258 12.9563 10.7135C13.4925 11.169 13.8516 11.7985 13.9707 12.4919C14.0899 13.1853 13.9615 13.8985 13.6081 14.5069C13.2547 15.1152 12.6987 15.58 12.0373 15.82V16C12.0373 16.2652 11.932 16.5196 11.7444 16.7071C11.5569 16.8946 11.3026 17 11.0373 17C10.7721 17 10.5178 16.8946 10.3302 16.7071C10.1427 16.5196 10.0373 16.2652 10.0373 16V15C10.0373 14.7348 10.1427 14.4804 10.3302 14.2929C10.5178 14.1054 10.7721 14 11.0373 14C11.3026 14 11.5569 13.8946 11.7444 13.7071C11.932 13.5196 12.0373 13.2652 12.0373 13C12.0373 12.7348 11.932 12.4804 11.7444 12.2929C11.5569 12.1054 11.3026 12 11.0373 12C10.8611 11.9993 10.6879 12.0452 10.5351 12.133C10.3823 12.2208 10.2554 12.3474 10.1673 12.5C10.1048 12.6195 10.0188 12.7251 9.91438 12.8105C9.80999 12.8959 9.6894 12.9593 9.55987 12.9969C9.43034 13.0345 9.29455 13.0454 9.16067 13.0292C9.02678 13.0129 8.89757 12.9697 8.78081 12.9022C8.66404 12.8348 8.56213 12.7443 8.48122 12.6364C8.4003 12.5285 8.34205 12.4054 8.30996 12.2744C8.27788 12.1434 8.27262 12.0073 8.29451 11.8742C8.3164 11.7411 8.36498 11.6138 8.43733 11.5C8.7008 11.0437 9.07982 10.6648 9.53624 10.4014ZM11.0012 20C11.5535 20 12.0012 19.5523 12.0012 19C12.0012 18.4477 11.5535 18 11.0012 18C10.4489 18 10.0012 18.4477 10.0012 19C10.0012 19.5523 10.4489 20 11.0012 20Z" fill="#FA6069"/>
<path opacity="0.2" d="M45.6314 30.4011L45.6317 30.4015C46.064 30.8437 46.4082 31.37 46.6434 31.9509C46.8786 32.5319 47 33.1554 47 33.7855C47 34.4157 46.8786 35.0392 46.6434 35.6202C46.4082 36.2011 46.064 36.7274 45.6317 37.1696L45.6315 37.1698L39.0063 43.9504L32.3812 37.1698L32.3788 37.1673C31.5436 36.3186 31.0499 35.173 31.0036 33.96C30.9572 32.747 31.362 31.5645 32.1308 30.6504C32.8991 29.7369 33.9724 29.1602 35.1321 29.0287C36.2915 28.8973 37.4592 29.2198 38.4006 29.9365C38.7575 30.2082 39.2517 30.209 39.6095 29.9384C40.5032 29.2627 41.6004 28.9399 42.7021 29.0242C43.8039 29.1085 44.8439 29.5949 45.6314 30.4011Z" fill="white" stroke="#242429" stroke-width="2" stroke-linejoin="round"/>
<path d="M45.6314 28.4011L45.6317 28.4015C46.064 28.8437 46.4082 29.37 46.6434 29.9509C46.8786 30.5319 47 31.1554 47 31.7855C47 32.4157 46.8786 33.0392 46.6434 33.6202C46.4082 34.2011 46.064 34.7274 45.6317 35.1696L45.6315 35.1698L39.0063 41.9504L32.3812 35.1698L32.3788 35.1673C31.5436 34.3186 31.0499 33.173 31.0036 31.96C30.9572 30.747 31.362 29.5645 32.1308 28.6504C32.8991 27.7369 33.9724 27.1602 35.1321 27.0287C36.2915 26.8973 37.4592 27.2198 38.4006 27.9365C38.7575 28.2082 39.2517 28.209 39.6095 27.9384C40.5032 27.2627 41.6004 26.9399 42.7021 27.0242C43.8039 27.1085 44.8439 27.5949 45.6314 28.4011Z" fill="white" stroke="#242429" stroke-width="2" stroke-linejoin="round"/>
</svg>
