<svg width="48" height="48" viewBox="0 0 48 48" fill="none" xmlns="http://www.w3.org/2000/svg">
<path opacity="0.1" d="M9 8H29C30.7 8 32 9.3 32 11V39C32 40.7 30.7 42 29 42H9C7.3 42 6 40.7 6 39V11C6 9.3 7.3 8 9 8Z" fill="#FA6069"/>
<path d="M9 7H29C30.1 7 31 7.9 31 9V37C31 38.1 30.1 39 29 39H9C7.9 39 7 38.1 7 37V9C7 7.9 7.9 7 9 7Z" fill="#FFF5F6"/>
<path d="M29 40H9C7.3 40 6 38.7 6 37V9C6 7.3 7.3 6 9 6H29C30.7 6 32 7.3 32 9V37C32 38.7 30.7 40 29 40ZM9 8C8.4 8 8 8.4 8 9V37C8 37.6 8.4 38 9 38H29C29.6 38 30 37.6 30 37V9C30 8.4 29.6 8 29 8H9Z" fill="#FA6069"/>
<path opacity="0.5" d="M14 8H12V38H14V8Z" fill="#FA6069"/>
<path opacity="0.1" d="M13 19H43C44.7 19 46 20.3 46 22V34C46 35.7 44.7 37 43 37H13C11.3 37 10 35.7 10 34V22C10 20.3 11.3 19 13 19Z" fill="#FA6069"/>
<path d="M13 18H43C44.1 18 45 18.9 45 20V32C45 33.1 44.1 34 43 34H13C11.9 34 11 33.1 11 32V20C11 18.9 11.9 18 13 18Z" fill="white"/>
<path d="M43 35H13C11.3 35 10 33.7 10 32V20C10 18.3 11.3 17 13 17H43C44.7 17 46 18.3 46 20V32C46 33.7 44.7 35 43 35ZM13 19C12.4 19 12 19.4 12 20V32C12 32.6 12.4 33 13 33H43C43.6 33 44 32.6 44 32V20C44 19.4 43.6 19 43 19H13Z" fill="#FA6069"/>
<path opacity="0.6" d="M17 23H29C29.6 23 30 23.4 30 24C30 24.6 29.6 25 29 25H17C16.4 25 16 24.6 16 24C16 23.4 16.4 23 17 23Z" fill="#FA6069"/>
<path opacity="0.6" d="M17 27H29C29.6 27 30 27.4 30 28C30 28.6 29.6 29 29 29H17C16.4 29 16 28.6 16 28C16 27.4 16.4 27 17 27Z" fill="#FA6069"/>
<path opacity="0.4" d="M39 18C38.4 18 38 18.4 38 19V21C38 21.6 38.4 22 39 22C39.6 22 40 21.6 40 21V19C40 18.4 39.6 18 39 18ZM38 25C38 24.4 38.4 24 39 24C39.6 24 40 24.4 40 25V27C40 27.6 39.6 28 39 28C38.4 28 38 27.6 38 27V25ZM38 31C38 30.4 38.4 30 39 30C39.6 30 40 30.4 40 31V33C40 33.6 39.6 34 39 34C38.4 34 38 33.6 38 33V31Z" fill="#FA6069"/>
<path opacity="0.2" d="M41.9479 18.621C41.809 18.0458 41.2534 17.6144 40.6977 17.6144L35.0026 17.0392L32.78 11.8628C32.5022 11.2876 32.0855 11 31.5299 11C30.9742 11 30.4186 11.2876 30.2797 11.8628L28.0572 17.0392L22.362 17.4706C21.8064 17.4706 21.3896 17.902 21.1118 18.4772C20.834 19.0523 21.1118 19.6275 21.5286 20.0589L25.8347 23.7975L24.5845 29.2615C24.4456 29.8367 24.7234 30.4119 25.1401 30.6995C25.5569 30.987 26.2514 31.1308 26.6681 30.8432L31.5299 27.8236L36.3916 30.8432C36.6694 30.987 36.8083 30.987 37.0862 30.987C37.364 30.987 37.6418 30.8432 37.9196 30.6995C38.3363 30.4119 38.6141 29.8367 38.4752 29.2615L37.2251 23.7975L41.5312 20.0589C41.9479 19.7713 42.0868 19.1961 41.9479 18.621Z" fill="#242429"/>
<path d="M31.5736 24.4L37.4651 28L35.845 21.4L41 16.9L34.0775 16.3L31.5736 10L28.9225 16.3L22 16.9L27.155 21.4L25.6822 28L31.5736 24.4Z" fill="white"/>
<path d="M31.9969 24.937L31.4701 24.6105L30.9433 24.937L26.0816 27.95L26.0611 27.9627L26.0412 27.9764C26.0425 27.9755 26.0304 27.9837 26.0024 27.9909C25.9749 27.998 25.9422 28.0015 25.9088 27.9994C25.8397 27.9949 25.8088 27.9712 25.7989 27.961L25.7296 27.8894L25.6475 27.8329C25.6047 27.8034 25.5514 27.7442 25.5179 27.6635C25.4864 27.5877 25.4821 27.5173 25.4967 27.457L25.4968 27.457L25.4995 27.4452L26.7496 21.9931L26.884 21.4073L26.4297 21.0137L22.1636 17.3179C22.017 17.1521 21.9641 16.9437 22.024 16.6961C22.0355 16.6487 22.0721 16.5828 22.143 16.5264C22.2156 16.4687 22.279 16.4565 22.3023 16.4565H22.34L22.3776 16.4537L28.0728 16.0232L28.6767 15.9776L28.916 15.4213L31.1286 10.2792C31.2077 10.1213 31.2761 10.0608 31.308 10.0388C31.3332 10.0215 31.3741 10 31.4701 10C31.5845 10 31.6707 10.031 31.715 10.0592C31.7347 10.0716 31.7417 10.0805 31.7431 10.0823L31.7431 10.0824C31.7437 10.0831 31.7459 10.0858 31.7484 10.0961L31.7683 10.1784L31.8017 10.2561L34.0242 15.4213L34.2636 15.9776L34.8674 16.0232L40.5626 16.4537L40.6003 16.4565H40.638C40.6444 16.4565 40.6471 16.4571 40.6527 16.4594C40.6602 16.4624 40.6814 16.4726 40.7149 16.5014C40.7879 16.5642 40.8875 16.6887 40.9881 16.8966C40.9989 16.919 40.9997 16.93 40.9999 16.9351C41.0003 16.9423 40.9999 16.9615 40.9886 16.9967C40.9646 17.0709 40.9016 17.1834 40.7796 17.3154L36.5106 21.0137L36.0563 21.4073L36.1906 21.9931L37.4408 27.4452L37.4407 27.4453L37.4436 27.457C37.4581 27.5173 37.4538 27.5877 37.4224 27.6635C37.3967 27.7255 37.3592 27.7748 37.3238 27.8077C37.2191 27.8612 37.147 27.8961 37.082 27.9213C37.0436 27.9362 37.022 27.9417 37.0141 27.9435C36.9474 27.9435 36.9103 27.9433 36.8795 27.942C36.8659 27.9415 36.8575 27.9409 36.8528 27.9404C36.8476 27.9385 36.8372 27.9343 36.8202 27.9262L31.9969 24.937Z" stroke="#242429" stroke-width="2"/>
</svg>
