<svg width="240" height="83" viewBox="0 0 240 83" fill="none" xmlns="http://www.w3.org/2000/svg">
<g clip-path="url(#clip0_801_69457)">
<path fill-rule="evenodd" clip-rule="evenodd" d="M75.0003 6.25552C75.1503 5.95037 75.1503 5.79779 75.1503 5.49265C75.0003 5.1875 74.5503 5.49265 74.1003 5.49265C71.2503 7.17096 68.8503 9.00184 66.1503 10.8327C55.8003 -0.762866 38.2503 -3.66176 24.3003 4.57721C24.1503 4.57721 24.1503 4.72978 24.0003 4.72978C24.0003 4.88235 24.0003 4.72978 24.0003 4.88235C37.6503 -3.05147 55.0503 0.152575 64.9503 11.9007C63.6003 12.9688 62.2503 14.0368 60.7503 15.2574C58.8003 16.7831 56.4003 19.5294 54.3003 20.9026C53.5503 20.9026 53.5503 20.2923 53.4003 19.682C53.1003 18.1562 53.1003 17.6985 51.7503 16.9357C50.5503 16.6305 49.6503 16.7831 48.7503 17.6985C47.7003 18.614 47.5503 19.0717 47.8503 20.4449C47.8503 20.9026 48.1503 21.3603 48.7503 21.818C48.9003 22.1232 49.2003 21.9706 49.2003 22.4283C49.0503 22.886 48.7503 23.4963 48.3003 23.954C46.8003 24.5643 46.3503 24.2592 44.7003 23.6489C44.4003 22.886 44.1003 22.4283 44.4003 21.6654C45.6003 19.9871 46.6503 18.1562 47.8503 15.8676C48.6003 13.4265 48.3003 10.5276 46.9503 8.39154C45.1503 5.64522 43.8003 5.03493 40.6503 4.11949C37.0503 3.35662 34.8003 5.1875 33.0003 6.86581C28.8003 11.443 27.4503 17.3934 24.1503 23.4963C22.2003 27.7684 19.9503 31.7353 17.8503 36.0074C16.0503 39.6691 14.1003 43.3309 12.0003 46.8401C9.60029 42.2629 8.25029 37.5331 8.25029 32.6507C8.10029 32.6507 8.25029 32.6507 8.10029 32.6507C8.10029 37.6857 9.15029 42.7206 11.7003 47.4504C9.90029 50.6544 8.10029 53.7059 6.30029 56.9099C4.35029 60.2665 2.10029 63.6232 0.150286 67.1323C0.000285953 67.5901 0.000285953 67.8952 0.300286 68.0478C1.80029 67.7426 6.75029 60.8768 7.65029 59.5037C9.75029 56.6048 11.7003 53.8584 13.5003 50.807C13.6503 50.9596 13.8003 51.2647 13.9503 51.4173C11.5503 55.2316 8.70029 59.6562 9.00029 60.2665C10.5003 60.2665 11.5503 58.2831 12.9003 56.9099C13.8003 55.6893 14.7003 54.6213 15.6003 53.4007C17.4003 55.5368 19.3503 57.3676 21.4503 58.8934C19.3503 62.25 17.5503 65.9118 16.0503 70.7941C13.0503 72.4724 13.3503 71.8621 12.9003 77.3548C12.9003 79.0331 12.7503 80.864 12.7503 82.5423C13.2003 83.4577 13.3503 82.3897 13.8003 81.4743C15.1503 78.4228 16.3503 75.3713 17.5503 72.3198C19.9503 68.2004 22.2003 64.386 24.7503 60.8768C34.8003 66.5221 47.5503 66.8272 58.2003 60.4191C73.9503 51.2647 79.2003 31.125 69.9003 15.5625C69.1503 14.3419 68.2503 13.1213 67.3503 12.0533C68.2503 11.2904 69.1503 10.5276 70.0503 9.76471C71.5503 8.54412 73.0503 7.4761 75.0003 6.25552ZM13.9503 50.0441C15.6003 47.6029 17.1003 45.0092 18.6003 42.2629C20.1003 39.8217 21.7503 37.3805 23.4003 34.7868C23.8503 33.8713 24.4503 33.261 24.1503 34.6342C23.2503 36.0074 22.5003 37.3805 21.4503 39.0588C20.1003 41.3474 18.7503 43.4835 17.4003 45.6195C17.1003 46.2298 15.7503 48.2132 14.2503 50.6544C14.2503 50.5018 14.1003 50.3493 13.9503 50.0441ZM15.9003 52.6379C16.0503 52.4853 16.2003 52.3327 16.3503 52.1801C20.8503 45.9246 25.3503 39.5165 28.8003 32.6507C29.1003 32.0404 29.5503 32.193 29.4003 32.8033C27.9003 35.5496 26.4003 37.9908 24.9003 40.7371C23.4003 43.4835 21.4503 46.5349 19.6503 49.2812C18.9003 50.5018 17.1003 52.6379 18.9003 51.5698C24.6003 46.2298 30.0003 37.5331 33.9003 30.6673C34.8003 30.057 34.5003 30.5147 34.0503 31.4301C31.3503 36.1599 28.5003 41.0423 25.2003 45.6195C25.0503 48.3658 29.4003 42.8732 31.8003 39.9743C34.8003 36.3125 37.2003 32.4982 39.3003 28.0735C40.2003 27.3107 40.2003 27.3107 40.0503 28.6838C38.5503 32.3456 36.9003 36.0074 34.8003 39.8217C30.9003 46.0772 27.1503 52.1801 22.2003 57.9779C19.8003 56.6048 17.7003 54.7739 15.9003 52.6379ZM67.9503 15.8676C76.9503 30.8199 71.8503 50.1967 56.7003 59.1985C46.6503 65.1489 34.8003 64.9963 25.2003 59.9614C29.1003 54.7739 33.3003 50.0441 38.8503 45.6195C41.4003 44.704 45.3003 43.1783 47.5503 43.0257C46.5003 43.9412 45.4503 44.3989 44.2503 45.3143C42.9003 46.3824 40.5003 47.6029 38.5503 49.8915C37.9503 49.4338 37.2003 50.3493 36.6003 50.807C35.4003 52.0276 29.7003 56.4522 30.9003 57.5202C33.7503 55.3842 36.4503 53.2482 39.3003 51.5698C46.0503 47.6029 52.5003 43.7886 60.3003 40.7371C62.4003 39.8217 63.7503 39.5165 61.0503 38.6011C57.1503 37.6857 54.0003 37.5331 50.4003 37.6857C48.1503 37.9908 45.9003 38.4485 43.5003 38.6011C42.7503 38.6011 42.9003 38.1434 43.2003 37.6857C44.2503 36.9228 44.7003 36.3125 45.6003 35.3971C48.6003 32.9559 51.3003 29.9044 51.3003 26.2426C52.9503 25.4798 54.7503 24.1066 55.9503 22.886C57.3003 21.818 58.3503 20.4449 59.7003 19.2243C61.8003 17.2408 63.9003 14.9522 66.1503 12.8162C66.7503 14.0368 67.3503 14.9522 67.9503 15.8676Z" fill="#E92B37"/>
<path d="M92.1629 7.45236C93.9985 7.45236 95.9752 7.7396 97.2459 8.88853C98.3755 9.89385 99.0815 11.6173 99.0815 13.3407C99.0815 15.2077 98.3755 16.6439 97.5283 17.5056C96.1164 18.9417 94.2808 19.229 91.0334 19.3726V21.9577C91.0334 23.2502 91.0334 24.9736 91.7393 27.4151H87.3623C87.7859 25.979 88.0683 24.83 88.0683 21.9577V13.0534C88.0683 11.4736 87.9271 10.3247 87.7859 9.463C87.6447 8.74492 87.5035 8.02683 87.3623 7.30875H92.1629V7.45236ZM94.1396 17.0747C95.128 16.3566 95.6928 15.3513 95.6928 13.7715C95.6928 10.4683 93.7161 9.31938 91.8805 9.31938H90.8922V17.7928C92.3041 17.7928 93.4337 17.6492 94.1396 17.0747Z" fill="#E92B37"/>
<path d="M107.412 24.9736L108.4 22.8194L104.164 12.6226C103.176 10.3247 102.329 8.74492 101.058 7.30875H106.706C106.706 7.59598 106.565 7.88321 106.565 8.02683C106.565 9.31938 106.988 10.6119 107.553 11.9045L110.236 18.9417L112.495 13.0534C113.06 11.6173 113.624 9.89385 113.624 8.45768C113.624 8.02683 113.624 7.59598 113.483 7.30875H118.425C117.295 9.03215 116.307 11.1864 115.178 13.7715L110.801 24.6864C109.53 27.846 107.835 28.8513 104.729 28.8513C104.306 28.8513 103.882 28.7077 103.317 28.7077C105.435 27.9896 106.706 26.697 107.412 24.9736Z" fill="#E92B37"/>
<path d="M135.368 11.3301C133.533 10.0375 131.838 9.46304 130.003 9.46304C125.343 9.46304 123.084 13.0535 123.084 17.362C123.084 22.1013 125.626 25.1173 129.72 25.1173C131.415 25.1173 133.533 24.5428 134.945 23.3939L135.933 22.6758L135.792 25.979C133.109 27.2715 131.415 27.4152 129.72 27.4152C123.931 27.4152 119.978 23.2503 119.978 17.5056C119.978 11.9045 123.649 6.87793 130.426 6.87793C132.121 6.87793 133.674 7.16516 135.368 7.73963V11.3301Z" fill="#E92B37"/>
<path d="M154.994 11.3301C153.159 10.0375 151.464 9.46304 149.629 9.46304C144.969 9.46304 142.71 13.0535 142.71 17.362C142.71 22.1013 145.252 25.1173 149.346 25.1173C151.041 25.1173 153.159 24.5428 154.571 23.3939L155.559 22.6758L155.418 25.979C152.735 27.2715 151.041 27.4152 149.346 27.4152C143.557 27.4152 139.604 23.2503 139.604 17.5056C139.604 11.9045 143.275 6.87793 150.052 6.87793C151.747 6.87793 153.3 7.16516 155.135 7.73963V11.3301H154.994Z" fill="#E92B37"/>
<path d="M159.795 27.4151C160.501 25.2609 160.501 23.5375 160.501 21.2396V12.7662C160.501 10.7556 160.36 9.17577 159.795 7.45236H164.172C163.748 8.74492 163.466 10.7556 163.466 12.1917V16.7875L167.137 11.6173C168.267 10.0375 168.831 8.88853 168.973 7.59598H173.491C172.079 9.31938 170.667 11.1864 169.255 13.197L166.713 16.9311C169.114 20.8087 172.079 24.9736 174.479 27.5587H170.949C168.125 24.83 165.584 21.3832 163.466 18.08V21.2396C163.466 23.2502 163.607 25.6917 164.172 27.5587H159.795V27.4151Z" fill="#E92B37"/>
<path d="M182.668 7.45236C182.245 9.03215 181.962 10.4683 181.962 12.6226V20.9524L189.445 11.7609C190.151 10.8992 190.434 10.0375 190.434 9.31938C190.434 8.74492 190.293 8.17045 190.01 7.59598H194.387C193.681 9.75023 193.681 11.33 193.681 13.3407V20.6651C193.681 23.5375 193.823 25.6917 194.387 27.4151H190.01C190.575 25.6917 190.716 23.1066 190.716 21.096V13.6279L183.515 22.5321C182.668 23.5375 182.245 24.3992 182.245 25.5481C182.245 26.1226 182.386 26.697 182.527 27.4151H178.15C178.573 25.8353 178.856 23.9683 178.856 22.2449V13.7715C178.856 11.4736 178.856 9.463 178.15 7.45236H182.668Z" fill="#E92B37"/>
<path d="M204.554 7.45219C204.13 9.03198 203.848 10.4681 203.848 12.6224V20.9522L211.331 11.7607C212.037 10.899 212.319 10.0373 212.319 9.31921C212.319 8.74474 212.178 8.17027 211.896 7.59581H216.273C215.567 9.75006 215.567 11.3298 215.567 13.3405V20.665C215.567 23.5373 215.708 25.6915 216.273 27.415H211.896C212.461 25.6915 212.602 23.1064 212.602 21.0958V13.6277L205.401 22.532C204.554 23.5373 204.13 24.399 204.13 25.5479C204.13 26.1224 204.271 26.6969 204.554 27.415H200.177C200.6 25.8352 200.883 23.9681 200.883 22.2447V13.7713C200.883 11.4735 200.883 9.46283 200.177 7.45219H204.554ZM206.954 3.00006C206.954 3.14368 206.954 3.2873 206.954 3.43091C206.954 4.43623 207.66 4.72347 208.366 4.72347C209.072 4.72347 209.778 4.29261 209.778 3.43091C209.778 3.2873 209.778 3.14368 209.778 3.00006H212.743C212.037 5.29793 210.343 6.01602 208.225 6.01602C206.107 6.01602 204.13 5.29793 203.848 3.00006H206.954Z" fill="#E92B37"/>
<path d="M86.9386 37.4682C88.4917 36.7501 90.0448 36.4629 92.0216 36.4629C97.2458 36.4629 101.764 40.0533 101.764 46.8033C101.764 52.8352 97.2458 57.0001 91.7392 57.0001C89.9036 57.0001 88.0681 56.5692 86.515 55.4203V52.548C88.2093 53.8405 89.7624 54.5586 92.0216 54.5586C95.8338 54.5586 98.5165 51.399 98.5165 47.3778C95.6926 47.3778 93.2923 47.665 90.4684 48.6703L91.598 45.2235H98.5165C98.0929 41.2022 95.1278 38.7607 91.7392 38.7607C90.0448 38.7607 87.2209 39.6224 85.9502 41.3458L86.9386 37.4682Z" fill="#E92B37"/>
<path d="M106.706 56.7128C107.412 54.5586 107.412 52.8352 107.412 50.5373V42.2075C107.412 40.1969 107.271 38.6171 106.706 36.8937H111.083C110.66 38.1862 110.377 40.1969 110.377 41.633V45.9416L114.048 40.7713C115.178 39.1915 115.743 38.0426 115.884 36.7501H120.402C118.99 38.4735 117.578 40.3405 116.166 42.3511L113.766 45.9416C116.025 49.8192 119.131 53.9841 121.531 56.5692H118.002C115.178 53.8405 112.495 50.3937 110.518 47.0905V50.2501C110.518 52.2607 110.659 54.7022 111.224 56.5692H106.706V56.7128Z" fill="#E92B37"/>
<path d="M138.051 40.6278C136.356 39.3352 134.521 38.7607 132.827 38.7607C128.167 38.7607 125.908 42.3512 125.908 46.6597C125.908 51.399 128.45 54.415 132.544 54.415C134.239 54.415 136.356 53.8405 137.768 52.6916L138.757 51.9735L138.616 55.2767C135.933 56.5692 134.239 56.7129 132.544 56.7129C126.755 56.7129 122.802 52.548 122.802 46.8033C122.802 41.2022 126.473 36.1756 133.25 36.1756C134.944 36.1756 136.498 36.4629 138.192 37.0373V40.6278H138.051Z" fill="#E92B37"/>
<path d="M158.524 36.7501C158.101 38.0426 157.818 39.4788 157.818 41.3458V49.9628C157.818 53.4096 157.959 54.9894 158.524 56.7128H154.147C154.712 55.133 154.853 53.8405 154.853 51.2554V39.3352H146.523V50.8245C146.523 53.6969 146.805 55.133 147.229 56.8564H142.852C143.416 55.2767 143.558 54.1277 143.558 50.9681V43.0692C143.558 39.766 143.275 38.4735 142.852 36.8937H158.524V36.7501Z" fill="#E92B37"/>
<path d="M169.114 36.7501C170.95 36.7501 172.926 37.0373 174.197 38.1862C175.327 39.1916 176.033 40.915 176.033 42.6384C176.033 44.5054 175.327 45.9416 174.479 46.8033C173.068 48.2394 171.232 48.5267 167.985 48.6703V51.2554C167.985 52.5479 167.985 54.2713 168.691 56.7128H164.313C164.737 55.2767 165.019 54.1277 165.019 51.2554V42.4947C165.019 40.7713 164.878 39.766 164.737 38.9043C164.596 38.1862 164.455 37.4681 164.313 36.7501H169.114ZM171.091 46.3724C172.079 45.6543 172.644 44.649 172.644 43.0692C172.644 39.766 170.667 38.6171 168.832 38.6171H167.843V47.0905C169.255 47.0905 170.385 46.9469 171.091 46.3724Z" fill="#E92B37"/>
<path d="M191.423 36.7501L189.87 39.9096C188.317 39.0479 186.763 38.9043 185.069 38.9043C184.787 38.9043 184.504 38.9043 184.222 38.9043V45.3671H190.576L188.74 48.5267C187.328 47.665 185.634 47.5213 184.081 47.5213V54.5586C185.351 54.5586 190.011 54.2713 192.411 52.8352L190.858 56.7128H180.41C180.974 55.2767 181.116 53.1224 181.116 50.1064V42.6384C181.116 40.0533 180.833 38.7607 180.41 36.7501H191.423Z" fill="#E92B37"/>
<path d="M210.907 40.6278C209.072 39.3352 207.377 38.7607 205.542 38.7607C200.882 38.7607 198.623 42.3512 198.623 46.6597C198.623 51.399 201.165 54.415 205.26 54.415C206.954 54.415 209.072 53.8405 210.484 52.6916L211.472 51.9735L211.331 55.2767C208.648 56.5692 206.954 56.7129 205.26 56.7129C199.471 56.7129 195.517 52.548 195.517 46.8033C195.517 41.2022 199.188 36.1756 205.966 36.1756C207.66 36.1756 209.213 36.4629 210.907 37.0373V40.6278Z" fill="#E92B37"/>
<path d="M230.392 40.6278C228.557 39.3352 226.862 38.7607 225.027 38.7607C220.367 38.7607 218.108 42.3512 218.108 46.6597C218.108 51.399 220.65 54.415 224.744 54.415C226.439 54.415 228.557 53.8405 229.969 52.6916L230.957 51.9735L230.816 55.2767C228.133 56.5692 226.439 56.7129 224.744 56.7129C218.955 56.7129 215.002 52.548 215.002 46.8033C215.002 41.2022 218.673 36.1756 225.45 36.1756C227.145 36.1756 228.698 36.4629 230.533 37.0373V40.6278H230.392Z" fill="#E92B37"/>
</g>
<path d="M93.49 68.3H87.143V69.257H89.772V76H90.85V69.257H93.49V68.3ZM99.0047 70.17L96.9917 74.834L94.9567 70.17H93.8567L96.4307 75.989L96.2437 76.396C95.9577 77.067 95.6387 77.298 95.1327 77.298C94.7367 77.298 94.3737 77.144 94.0877 76.869L93.6367 77.661C93.9997 78.013 94.5717 78.2 95.1327 78.2C96.0237 78.2 96.6947 77.815 97.2117 76.583L100.039 70.17H99.0047ZM104.761 70.115C103.903 70.115 103.155 70.445 102.682 71.094V70.17H101.67V78.134H102.726V75.12C103.21 75.747 103.936 76.066 104.761 76.066C106.466 76.066 107.709 74.878 107.709 73.085C107.709 71.303 106.466 70.115 104.761 70.115ZM104.673 75.142C103.562 75.142 102.715 74.328 102.715 73.085C102.715 71.853 103.562 71.039 104.673 71.039C105.795 71.039 106.642 71.853 106.642 73.085C106.642 74.328 105.795 75.142 104.673 75.142ZM112.29 76.066C114.039 76.066 115.315 74.823 115.315 73.085C115.315 71.347 114.039 70.115 112.29 70.115C110.541 70.115 109.254 71.347 109.254 73.085C109.254 74.823 110.541 76.066 112.29 76.066ZM112.29 75.142C111.168 75.142 110.321 74.328 110.321 73.085C110.321 71.842 111.168 71.039 112.29 71.039C113.412 71.039 114.248 71.842 114.248 73.085C114.248 74.328 113.412 75.142 112.29 75.142ZM117.39 70.17V76H118.446V71.094H121.735V76H122.791V70.17H117.39ZM130.653 73.118C130.653 71.325 129.454 70.115 127.771 70.115C126.088 70.115 124.845 71.358 124.845 73.085C124.845 74.823 126.099 76.066 127.98 76.066C128.948 76.066 129.751 75.736 130.279 75.12L129.696 74.438C129.267 74.911 128.695 75.142 128.013 75.142C126.858 75.142 126.033 74.46 125.901 73.437H130.631C130.642 73.338 130.653 73.206 130.653 73.118ZM127.771 71.006C128.794 71.006 129.531 71.699 129.641 72.678H125.901C126.011 71.688 126.759 71.006 127.771 71.006ZM135.933 70.115C135.075 70.115 134.327 70.445 133.854 71.094V70.17H132.842V78.134H133.898V75.12C134.382 75.747 135.108 76.066 135.933 76.066C137.638 76.066 138.881 74.878 138.881 73.085C138.881 71.303 137.638 70.115 135.933 70.115ZM135.845 75.142C134.734 75.142 133.887 74.328 133.887 73.085C133.887 71.853 134.734 71.039 135.845 71.039C136.967 71.039 137.814 71.853 137.814 73.085C137.814 74.328 136.967 75.142 135.845 75.142ZM142.99 70.115C142.055 70.115 141.186 70.379 140.581 70.863L141.021 71.655C141.472 71.27 142.176 71.028 142.869 71.028C143.914 71.028 144.431 71.545 144.431 72.436V72.645H142.759C141.021 72.645 140.416 73.415 140.416 74.35C140.416 75.362 141.252 76.066 142.572 76.066C143.485 76.066 144.134 75.758 144.486 75.23V76H145.487V72.48C145.487 70.885 144.585 70.115 142.99 70.115ZM142.748 75.252C141.945 75.252 141.461 74.889 141.461 74.306C141.461 73.811 141.758 73.404 142.803 73.404H144.431V74.218C144.167 74.889 143.54 75.252 142.748 75.252ZM152.284 70.17H146.96V71.094H149.094V76H150.15V71.094H152.284V70.17ZM156.153 76.066C157.902 76.066 159.178 74.823 159.178 73.085C159.178 71.347 157.902 70.115 156.153 70.115C154.404 70.115 153.117 71.347 153.117 73.085C153.117 74.823 154.404 76.066 156.153 76.066ZM156.153 75.142C155.031 75.142 154.184 74.328 154.184 73.085C154.184 71.842 155.031 71.039 156.153 71.039C157.275 71.039 158.111 71.842 158.111 73.085C158.111 74.328 157.275 75.142 156.153 75.142ZM164.343 70.115C163.485 70.115 162.737 70.445 162.264 71.094V70.17H161.252V78.134H162.308V75.12C162.792 75.747 163.518 76.066 164.343 76.066C166.048 76.066 167.291 74.878 167.291 73.085C167.291 71.303 166.048 70.115 164.343 70.115ZM164.255 75.142C163.144 75.142 162.297 74.328 162.297 73.085C162.297 71.853 163.144 71.039 164.255 71.039C165.377 71.039 166.224 71.853 166.224 73.085C166.224 74.328 165.377 75.142 164.255 75.142ZM175.421 76.066C176.466 76.066 177.335 75.626 177.797 74.812L176.994 74.306C176.62 74.878 176.048 75.142 175.41 75.142C174.266 75.142 173.408 74.35 173.408 73.085C173.408 71.842 174.266 71.039 175.41 71.039C176.048 71.039 176.62 71.303 176.994 71.875L177.797 71.358C177.335 70.544 176.466 70.115 175.421 70.115C173.628 70.115 172.341 71.347 172.341 73.085C172.341 74.823 173.628 76.066 175.421 76.066ZM182.283 68.3V69.257H184.021V76H185.11V68.3H182.283ZM189.841 68.212C188.312 68.212 187.124 69.158 187.124 70.643C187.124 72.062 188.224 72.975 189.753 72.975C190.71 72.975 191.524 72.634 191.975 71.963V72.238C191.975 74.163 190.985 75.142 189.423 75.142C188.862 75.142 188.345 75.043 187.938 74.779L187.52 75.637C188.015 75.945 188.708 76.088 189.434 76.088C191.59 76.088 193.075 74.68 193.075 72.051C193.075 69.598 191.909 68.212 189.841 68.212ZM189.94 72.084C188.862 72.084 188.191 71.501 188.191 70.599C188.191 69.686 188.884 69.103 189.885 69.103C191.084 69.103 191.722 69.796 191.722 70.588C191.722 71.435 190.996 72.084 189.94 72.084ZM197.18 68.212C195.651 68.212 194.463 69.158 194.463 70.643C194.463 72.062 195.563 72.975 197.092 72.975C198.049 72.975 198.863 72.634 199.314 71.963V72.238C199.314 74.163 198.324 75.142 196.762 75.142C196.201 75.142 195.684 75.043 195.277 74.779L194.859 75.637C195.354 75.945 196.047 76.088 196.773 76.088C198.929 76.088 200.414 74.68 200.414 72.051C200.414 69.598 199.248 68.212 197.18 68.212ZM197.279 72.084C196.201 72.084 195.53 71.501 195.53 70.599C195.53 69.686 196.223 69.103 197.224 69.103C198.423 69.103 199.061 69.796 199.061 70.588C199.061 71.435 198.335 72.084 197.279 72.084ZM205.345 71.325C204.388 71.325 203.574 71.677 203.134 72.337C203.123 72.238 203.123 72.15 203.123 72.062C203.123 70.137 204.124 69.158 205.686 69.158C206.236 69.158 206.764 69.257 207.16 69.521L207.578 68.663C207.083 68.355 206.39 68.212 205.664 68.212C203.508 68.212 202.023 69.62 202.023 72.249C202.023 74.702 203.189 76.088 205.257 76.088C206.786 76.088 207.985 75.142 207.985 73.657C207.985 72.238 206.874 71.325 205.345 71.325ZM205.213 75.197C204.025 75.197 203.387 74.504 203.387 73.712C203.387 72.865 204.113 72.216 205.158 72.216C206.236 72.216 206.918 72.799 206.918 73.701C206.918 74.614 206.214 75.197 205.213 75.197ZM217.651 70.17H213.361V76H214.417V71.094H217.651V70.17ZM221.521 76.066C223.27 76.066 224.546 74.823 224.546 73.085C224.546 71.347 223.27 70.115 221.521 70.115C219.772 70.115 218.485 71.347 218.485 73.085C218.485 74.823 219.772 76.066 221.521 76.066ZM221.521 75.142C220.399 75.142 219.552 74.328 219.552 73.085C219.552 71.842 220.399 71.039 221.521 71.039C222.643 71.039 223.479 71.842 223.479 73.085C223.479 74.328 222.643 75.142 221.521 75.142ZM231.616 75.076V70.17H227.095L227.007 72.139C226.93 73.613 226.787 75.032 225.951 75.076H225.643V77.353H226.644V76H231.517V77.353H232.507V75.076H231.616ZM227.975 72.216L228.03 71.094H230.56V75.076H227.293C227.821 74.614 227.931 73.426 227.975 72.216ZM236.512 70.115C235.577 70.115 234.708 70.379 234.103 70.863L234.543 71.655C234.994 71.27 235.698 71.028 236.391 71.028C237.436 71.028 237.953 71.545 237.953 72.436V72.645H236.281C234.543 72.645 233.938 73.415 233.938 74.35C233.938 75.362 234.774 76.066 236.094 76.066C237.007 76.066 237.656 75.758 238.008 75.23V76H239.009V72.48C239.009 70.885 238.107 70.115 236.512 70.115ZM236.27 75.252C235.467 75.252 234.983 74.889 234.983 74.306C234.983 73.811 235.28 73.404 236.325 73.404H237.953V74.218C237.689 74.889 237.062 75.252 236.27 75.252Z" fill="#8D8D9F"/>
<defs>
<clipPath id="clip0_801_69457">
<rect width="240" height="83" fill="white"/>
</clipPath>
</defs>
</svg>
