<svg width="144" height="50" viewBox="0 0 144 50" fill="none" xmlns="http://www.w3.org/2000/svg">
<g clip-path="url(#clip0_1534_20237)">
<path fill-rule="evenodd" clip-rule="evenodd" d="M45.0004 3.76777C45.0904 3.58395 45.0904 3.49203 45.0904 3.30821C45.0004 3.12439 44.7304 3.30821 44.4604 3.30821C42.7504 4.31924 41.3104 5.42218 39.6904 6.52512C33.4804 -0.460171 22.9504 -2.20649 14.5804 2.75674C14.4904 2.75674 14.4904 2.84865 14.4004 2.84865C14.4004 2.94056 14.4004 2.84865 14.4004 2.94056C22.5904 -1.83885 33.0304 0.0912996 38.9704 7.1685C38.1604 7.81189 37.3504 8.45527 36.4504 9.19056C35.2804 10.1097 33.8404 11.7641 32.5804 12.5913C32.1304 12.5913 32.1304 12.2236 32.0404 11.856C31.8604 10.9369 31.8604 10.6611 31.0504 10.2016C30.3304 10.0178 29.7904 10.1097 29.2504 10.6611C28.6204 11.2126 28.5304 11.4884 28.7104 12.3156C28.7104 12.5913 28.8904 12.867 29.2504 13.1428C29.3404 13.3266 29.5204 13.2347 29.5204 13.5104C29.4304 13.7861 29.2504 14.1538 28.9804 14.4295C28.0804 14.7972 27.8104 14.6134 26.8204 14.2457C26.6404 13.7861 26.4604 13.5104 26.6404 13.0509C27.3604 12.0398 27.9904 10.9369 28.7104 9.55821C29.1604 8.08762 28.9804 6.3413 28.1704 5.05453C27.0904 3.40012 26.2804 3.03247 24.3904 2.481C22.2304 2.02145 20.8804 3.12439 19.8004 4.13542C17.2804 6.89277 16.4704 10.4773 14.4904 14.1538C13.3204 16.7273 11.9704 19.117 10.7104 21.6906C9.63037 23.8964 8.46037 26.1023 7.20037 28.2163C5.76037 25.4589 4.95037 22.6097 4.95037 19.6685C4.86037 19.6685 4.95037 19.6685 4.86037 19.6685C4.86037 22.7016 5.49037 25.7347 7.02037 28.5839C5.94037 30.5141 4.86037 32.3523 3.78037 34.2825C2.61037 36.3045 1.26037 38.3266 0.0903669 40.4406C0.000366885 40.7163 0.000366885 40.9001 0.180367 40.992C1.08037 40.8082 4.05037 36.6722 4.59037 35.845C5.85037 34.0986 7.02037 32.4442 8.10037 30.606C8.19037 30.6979 8.28037 30.8817 8.37037 30.9736C6.93037 33.2714 5.22037 35.9369 5.40037 36.3045C6.30037 36.3045 6.93037 35.1097 7.74037 34.2825C8.28037 33.5472 8.82037 32.9038 9.36037 32.1685C10.4404 33.4553 11.6104 34.5582 12.8704 35.4773C11.6104 37.4994 10.5304 39.7053 9.63037 42.6464C7.83037 43.6575 8.01037 43.2898 7.74037 46.5986C7.74037 47.6097 7.65037 48.7126 7.65037 49.7236C7.92037 50.2751 8.01037 49.6317 8.28037 49.0803C9.09037 47.242 9.81037 45.4038 10.5304 43.5656C11.9704 41.0839 13.3204 38.7861 14.8504 36.6722C20.8804 40.0729 28.5304 40.2567 34.9204 36.3964C44.3704 30.8817 47.5204 18.7494 41.9404 9.37438C41.4904 8.63909 40.9504 7.9038 40.4104 7.26042C40.9504 6.80086 41.4904 6.3413 42.0304 5.88174C42.9304 5.14645 43.8304 4.50306 45.0004 3.76777ZM8.37037 30.1464C9.36037 28.6758 10.2604 27.1134 11.1604 25.4589C12.0604 23.9884 13.0504 22.5178 14.0404 20.9553C14.3104 20.4038 14.6704 20.0361 14.4904 20.8634C13.9504 21.6906 13.5004 22.5178 12.8704 23.5288C12.0604 24.9075 11.2504 26.1942 10.4404 27.481C10.2604 27.8486 9.45037 29.0435 8.55037 30.5141C8.55037 30.4222 8.46037 30.3303 8.37037 30.1464ZM9.54037 31.7089C9.63037 31.617 9.72037 31.5251 9.81037 31.4332C12.5104 27.6648 15.2104 23.8045 17.2804 19.6685C17.4604 19.3009 17.7304 19.3928 17.6404 19.7604C16.7404 21.4148 15.8404 22.8854 14.9404 24.5398C14.0404 26.1942 12.8704 28.0325 11.7904 29.6869C11.3404 30.4222 10.2604 31.7089 11.3404 31.0656C14.7604 27.8486 18.0004 22.6097 20.3404 18.4736C20.8804 18.106 20.7004 18.3817 20.4304 18.9332C18.8104 21.7825 17.1004 24.7236 15.1204 27.481C15.0304 29.1354 17.6404 25.8266 19.0804 24.0803C20.8804 21.8744 22.3204 19.5766 23.5804 16.9111C24.1204 16.4516 24.1204 16.4516 24.0304 17.2788C23.1304 19.4847 22.1404 21.6906 20.8804 23.9884C18.5404 27.7567 16.2904 31.4332 13.3204 34.9258C11.8804 34.0986 10.6204 32.9957 9.54037 31.7089ZM40.7704 9.55821C46.1704 18.5656 43.1104 30.2383 34.0204 35.6611C27.9904 39.2457 20.8804 39.1538 15.1204 36.1207C17.4604 32.9957 19.9804 30.1464 23.3104 27.481C24.8404 26.9295 27.1804 26.0104 28.5304 25.9185C27.9004 26.47 27.2704 26.7457 26.5504 27.2972C25.7404 27.9406 24.3004 28.6759 23.1304 30.0545C22.7704 29.7788 22.3204 30.3303 21.9604 30.606C21.2404 31.3413 17.8204 34.0067 18.5404 34.6501C20.2504 33.3633 21.8704 32.0766 23.5804 31.0656C27.6304 28.6758 31.5004 26.3781 36.1804 24.5398C37.4404 23.9884 38.2504 23.8045 36.6304 23.2531C34.2904 22.7016 32.4004 22.6097 30.2404 22.7016C28.8904 22.8854 27.5404 23.1611 26.1004 23.2531C25.6504 23.2531 25.7404 22.9773 25.9204 22.7016C26.5504 22.242 26.8204 21.8744 27.3604 21.3229C29.1604 19.8523 30.7804 18.0141 30.7804 15.8082C31.7704 15.3486 32.8504 14.5214 33.5704 13.7861C34.3804 13.1428 35.0104 12.3156 35.8204 11.5803C37.0804 10.3854 38.3404 9.00674 39.6904 7.71997C40.0504 8.45527 40.4104 9.00674 40.7704 9.55821Z" fill="#E92B37"/>
<path d="M55.2979 4.48886C56.3992 4.48886 57.5852 4.66189 58.3477 5.35402C59.0254 5.95964 59.449 6.99783 59.449 8.03603C59.449 9.16074 59.0254 10.0259 58.5171 10.545C57.6699 11.4102 56.5686 11.5832 54.6201 11.6697V13.227C54.6201 14.0057 54.6201 15.0438 55.0437 16.5146H52.4175C52.6716 15.6495 52.8411 14.9573 52.8411 13.227V7.86299C52.8411 6.91132 52.7563 6.21919 52.6716 5.70009C52.5869 5.26751 52.5022 4.83493 52.4175 4.40234H55.2979V4.48886ZM56.4839 10.2855C57.0769 9.85287 57.4158 9.24726 57.4158 8.29558C57.4158 6.3057 56.2297 5.61357 55.1284 5.61357H54.5354V10.718C55.3826 10.718 56.0603 10.6315 56.4839 10.2855Z" fill="#E92B37"/>
<path d="M64.4475 15.0438L65.0405 13.7461L62.499 7.60345C61.906 6.21919 61.3977 5.26751 60.6353 4.40234H64.0239C64.0239 4.57538 63.9392 4.74841 63.9392 4.83493C63.9392 5.61357 64.1934 6.39222 64.5322 7.17086L66.1418 11.4102L67.4973 7.86299C67.8362 6.99783 68.175 5.95964 68.175 5.09447C68.175 4.83493 68.175 4.57538 68.0903 4.40234H71.0554C70.3777 5.44054 69.7847 6.73828 69.1069 8.29558L66.4807 14.8708C65.7183 16.7742 64.7017 17.3798 62.8379 17.3798C62.5837 17.3798 62.3296 17.2933 61.9907 17.2933C63.2615 16.8607 64.0239 16.082 64.4475 15.0438Z" fill="#E92B37"/>
<path d="M81.2209 6.82458C80.1196 6.04594 79.103 5.69987 78.0017 5.69987C75.2061 5.69987 73.8506 7.86278 73.8506 10.4583C73.8506 13.3133 75.3755 15.1301 77.8323 15.1301C78.8489 15.1301 80.1196 14.7841 80.9668 14.0919L81.5598 13.6594L81.4751 15.6492C79.8655 16.4279 78.8489 16.5144 77.8323 16.5144C74.3589 16.5144 71.9868 14.0054 71.9868 10.5448C71.9868 7.17065 74.1895 4.14258 78.2559 4.14258C79.2725 4.14258 80.2043 4.31561 81.2209 4.66168V6.82458Z" fill="#E92B37"/>
<path d="M92.9968 6.82458C91.8955 6.04594 90.8789 5.69987 89.7776 5.69987C86.9819 5.69987 85.6265 7.86278 85.6265 10.4583C85.6265 13.3133 87.1514 15.1301 89.6081 15.1301C90.6247 15.1301 91.8955 14.7841 92.7427 14.0919L93.3357 13.6594L93.251 15.6492C91.6413 16.4279 90.6247 16.5144 89.6081 16.5144C86.1348 16.5144 83.7627 14.0054 83.7627 10.5448C83.7627 7.17065 85.9653 4.14258 90.0317 4.14258C91.0483 4.14258 91.9802 4.31561 93.0815 4.66168V6.82458H92.9968Z" fill="#E92B37"/>
<path d="M95.877 16.514C96.3005 15.2163 96.3005 14.1781 96.3005 12.7938V7.68938C96.3005 6.47816 96.2158 5.52648 95.877 4.48828H98.5032C98.249 5.26693 98.0796 6.47816 98.0796 7.34332V10.1118L100.282 6.99725C100.96 6.04557 101.299 5.35344 101.384 4.5748H104.094C103.247 5.61299 102.4 6.7377 101.553 7.94893L100.028 10.1984C101.468 12.5343 103.247 15.0433 104.687 16.6006H102.57C100.875 14.9568 99.3503 12.8804 98.0796 10.8905V12.7938C98.0796 14.0051 98.1643 15.4758 98.5032 16.6006H95.877V16.514Z" fill="#E92B37"/>
<path d="M109.601 4.48828C109.347 5.43996 109.177 6.30512 109.177 7.60287V12.6208L113.667 7.08377C114.091 6.56467 114.26 6.04557 114.26 5.61299C114.26 5.26693 114.176 4.92086 114.006 4.5748H116.633C116.209 5.87254 116.209 6.82422 116.209 8.03545V12.4478C116.209 14.1781 116.294 15.4758 116.633 16.514H114.006C114.345 15.4758 114.43 13.9186 114.43 12.7073V8.20848L110.109 13.5725C109.601 14.1781 109.347 14.6972 109.347 15.3893C109.347 15.7354 109.432 16.0815 109.516 16.514H106.89C107.144 15.5624 107.314 14.4377 107.314 13.3995V8.295C107.314 6.91074 107.314 5.69951 106.89 4.48828H109.601Z" fill="#E92B37"/>
<path d="M122.732 4.48865C122.478 5.44032 122.309 6.30549 122.309 7.60323V12.6212L126.799 7.08413C127.222 6.56504 127.392 6.04594 127.392 5.61336C127.392 5.26729 127.307 4.92123 127.137 4.57516H129.764C129.34 5.87291 129.34 6.82458 129.34 8.03581V12.4481C129.34 14.1785 129.425 15.4762 129.764 16.5144H127.137C127.476 15.4762 127.561 13.9189 127.561 12.7077V8.20884L123.24 13.5729C122.732 14.1785 122.478 14.6976 122.478 15.3897C122.478 15.7358 122.563 16.0818 122.732 16.5144H120.106C120.36 15.5627 120.53 14.438 120.53 13.3998V8.29536C120.53 6.9111 120.53 5.69987 120.106 4.48865H122.732ZM124.172 1.80664C124.172 1.89316 124.172 1.97967 124.172 2.06619C124.172 2.6718 124.596 2.84484 125.02 2.84484C125.443 2.84484 125.867 2.58529 125.867 2.06619C125.867 1.97967 125.867 1.89316 125.867 1.80664H127.646C127.222 3.1909 126.206 3.62348 124.935 3.62348C123.664 3.62348 122.478 3.1909 122.309 1.80664H124.172Z" fill="#E92B37"/>
<path d="M52.1633 22.5705C53.0952 22.1379 54.0271 21.9648 55.2131 21.9648C58.3477 21.9648 61.0586 24.1278 61.0586 28.194C61.0586 31.8277 58.3477 34.3367 55.0437 34.3367C53.9424 34.3367 52.8411 34.0771 51.9092 33.385V31.6547C52.9258 32.4333 53.8577 32.8659 55.2131 32.8659C57.5005 32.8659 59.1101 30.9625 59.1101 28.5401C57.4158 28.5401 55.9756 28.7131 54.2812 29.3187L54.959 27.2423H59.1101C58.856 24.8199 57.0769 23.3491 55.0437 23.3491C54.0271 23.3491 52.3328 23.8682 51.5703 24.9064L52.1633 22.5705Z" fill="#E92B37"/>
<path d="M64.0239 34.1644C64.4475 32.8667 64.4475 31.8285 64.4475 30.4442V25.4263C64.4475 24.2151 64.3628 23.2634 64.0239 22.2252H66.6501C66.396 23.0038 66.2266 24.2151 66.2266 25.0802V27.6757L68.4292 24.5611C69.1069 23.6094 69.4458 22.9173 69.5305 22.1387H72.2414C71.3943 23.1769 70.5471 24.3016 69.6999 25.5128L68.2598 27.6757C69.6152 30.0117 71.479 32.5206 72.9192 34.0779H70.8013C69.1069 32.4341 67.4973 30.3577 66.3113 28.3678V30.2712C66.3113 31.4824 66.396 32.9532 66.7349 34.0779H64.0239V34.1644Z" fill="#E92B37"/>
<path d="M82.8306 24.473C81.814 23.6944 80.7126 23.3483 79.696 23.3483C76.9004 23.3483 75.5449 25.5112 75.5449 28.1067C75.5449 30.9617 77.0698 32.7786 79.5266 32.7786C80.5432 32.7786 81.814 32.4325 82.6611 31.7404L83.2541 31.3078L83.1694 33.2977C81.5598 34.0763 80.5432 34.1628 79.5266 34.1628C76.0532 34.1628 73.6812 31.6539 73.6812 28.1932C73.6812 24.8191 75.8838 21.791 79.9502 21.791C80.9668 21.791 81.8987 21.964 82.9153 22.3101V24.473H82.8306Z" fill="#E92B37"/>
<path d="M95.1145 22.1387C94.8603 22.9173 94.6909 23.7825 94.6909 24.9072V30.0982C94.6909 32.1746 94.7756 33.1262 95.1145 34.1644H92.4883C92.8271 33.2128 92.9119 32.4341 92.9119 30.8768V23.696H87.9136V30.6173C87.9136 32.3476 88.083 33.2128 88.3372 34.2509H85.7109C86.0498 33.2993 86.1345 32.6071 86.1345 30.7038V25.9454C86.1345 23.9555 85.9651 23.1769 85.7109 22.2252H95.1145V22.1387Z" fill="#E92B37"/>
<path d="M101.469 22.1387C102.57 22.1387 103.756 22.3117 104.519 23.0038C105.196 23.6094 105.62 24.6476 105.62 25.6858C105.62 26.8106 105.196 27.6757 104.688 28.1948C103.841 29.06 102.739 29.233 100.791 29.3195V30.8768C100.791 31.6555 100.791 32.6937 101.215 34.1644H98.5884C98.8425 33.2993 99.012 32.6071 99.012 30.8768V25.5993C99.012 24.5611 98.9272 23.9555 98.8425 23.4364C98.7578 23.0038 98.6731 22.5713 98.5884 22.1387H101.469ZM102.655 27.9353C103.248 27.5027 103.587 26.8971 103.587 25.9454C103.587 23.9555 102.401 23.2634 101.299 23.2634H100.706V28.3678C101.553 28.3678 102.231 28.2813 102.655 27.9353Z" fill="#E92B37"/>
<path d="M114.854 22.1387L113.922 24.042C112.99 23.5229 112.058 23.4364 111.042 23.4364C110.872 23.4364 110.703 23.4364 110.533 23.4364V27.3296H114.346L113.244 29.233C112.397 28.7139 111.381 28.6274 110.449 28.6274V32.8667C111.211 32.8667 114.007 32.6937 115.447 31.8285L114.515 34.1644H108.246C108.585 33.2993 108.67 32.0015 108.67 30.1847V25.6858C108.67 24.1285 108.5 23.3499 108.246 22.1387H114.854Z" fill="#E92B37"/>
<path d="M126.545 24.473C125.443 23.6944 124.427 23.3483 123.325 23.3483C120.53 23.3483 119.174 25.5112 119.174 28.1067C119.174 30.9617 120.699 32.7786 123.156 32.7786C124.173 32.7786 125.443 32.4325 126.291 31.7404L126.884 31.3078L126.799 33.2977C125.189 34.0763 124.173 34.1628 123.156 34.1628C119.683 34.1628 117.311 31.6539 117.311 28.1932C117.311 24.8191 119.513 21.791 123.58 21.791C124.596 21.791 125.528 21.964 126.545 22.3101V24.473Z" fill="#E92B37"/>
<path d="M138.236 24.473C137.134 23.6944 136.118 23.3483 135.016 23.3483C132.221 23.3483 130.865 25.5112 130.865 28.1067C130.865 30.9617 132.39 32.7786 134.847 32.7786C135.864 32.7786 137.134 32.4325 137.981 31.7404L138.574 31.3078L138.49 33.2977C136.88 34.0763 135.864 34.1628 134.847 34.1628C131.374 34.1628 129.001 31.6539 129.001 28.1932C129.001 24.8191 131.204 21.791 135.271 21.791C136.287 21.791 137.219 21.964 138.32 22.3101V24.473H138.236Z" fill="#E92B37"/>
</g>
<defs>
<clipPath id="clip0_1534_20237">
<rect width="144" height="50" fill="white"/>
</clipPath>
</defs>
</svg>
