<svg width="24" height="24" viewBox="0 0 24 24" fill="none" xmlns="http://www.w3.org/2000/svg">
<g opacity="0.7">
<path fill-rule="evenodd" clip-rule="evenodd" d="M2 7C2 5.34315 3.34315 4 5 4H6V3C6 2.44772 6.44772 2 7 2C7.55228 2 8 2.44772 8 3V4H16V3C16 2.44772 16.4477 2 17 2C17.5523 2 18 2.44772 18 3V4H19C20.6569 4 22 5.34315 22 7V19C22 20.6569 20.6569 22 19 22H5C3.34315 22 2 20.6569 2 19V7ZM18 6H19C19.5523 6 20 6.44771 20 7V8H4V7C4 6.44772 4.44772 6 5 6H6C6 6.55229 6.44772 7 7 7C7.55228 7 8 6.55229 8 6H16C16 6.55229 16.4477 7 17 7C17.5523 7 18 6.55229 18 6ZM4 10H20V19C20 19.5523 19.5523 20 19 20H5C4.44772 20 4 19.5523 4 19V10ZM10 12H6V15H10V12Z" fill="#A5A5C5"/>
</g>
</svg>
