<svg width="16" height="16" viewBox="0 0 16 16" fill="none" xmlns="http://www.w3.org/2000/svg">
<path fill-rule="evenodd" clip-rule="evenodd" d="M8.68529 11.7108L13.6677 6.72304C13.7689 6.63336 13.8506 6.52428 13.9077 6.40234C13.9647 6.2804 13.996 6.14819 13.9996 6.01389C14.0033 5.87958 13.9791 5.74597 13.9286 5.62121C13.8782 5.49645 13.8025 5.3832 13.7063 5.28833C13.61 5.19347 13.4951 5.11901 13.3687 5.06951C13.2423 5.02001 13.107 4.99648 12.9711 5.00043C12.8352 5.00437 12.7016 5.03567 12.5784 5.09242C12.4551 5.14916 12.3449 5.23024 12.2544 5.33053L7.97865 9.60705L3.67191 5.30087C3.4821 5.1303 3.23316 5.0384 2.97666 5.04419C2.72016 5.04998 2.47573 5.15302 2.29399 5.33198C2.11225 5.51093 2.00711 5.75212 2.00035 6.00557C1.99358 6.25901 2.0857 6.50533 2.25764 6.6935L7.27204 11.7108C7.45947 11.8959 7.71363 12 7.97865 12C8.24368 12 8.49786 11.8959 8.68529 11.7108Z" fill="#81899C"/>
</svg>
