<svg width="18" height="14" viewBox="0 0 18 14" fill="none" xmlns="http://www.w3.org/2000/svg">
<path fill-rule="evenodd" clip-rule="evenodd" d="M10.2929 12.2929C9.90237 12.6834 9.90237 13.3166 10.2929 13.7071C10.6834 14.0976 11.3166 14.0976 11.7071 13.7071L17.7071 7.70711C18.0976 7.31658 18.0976 6.68342 17.7071 6.29289L11.7071 0.292893C11.3166 -0.0976315 10.6834 -0.0976315 10.2929 0.292893C9.90237 0.683417 9.90237 1.31658 10.2929 1.70711L14.5858 6L1 6C0.447716 6 -3.72529e-09 6.44772 -3.72529e-09 7C-3.72529e-09 7.55228 0.447716 8 1 8L14.5858 8L10.2929 12.2929Z" fill="#81899C"/>
</svg>
