<svg width="7" height="12" viewBox="0 0 7 12" fill="none" xmlns="http://www.w3.org/2000/svg">
<path fill-rule="evenodd" clip-rule="evenodd" d="M6.71077 5.31471L1.72304 0.332316C1.63336 0.231082 1.52428 0.149423 1.40234 0.0923452C1.2804 0.0352678 1.14819 0.00396156 1.01389 0.000351906C0.879581 -0.00325775 0.74597 0.0209131 0.621209 0.0713596C0.496448 0.121806 0.383199 0.197474 0.288332 0.293747C0.193466 0.39002 0.119005 0.504867 0.0695089 0.631263C0.0200125 0.757659 -0.00352169 0.892952 0.000425839 1.02885C0.00437337 1.16475 0.0356685 1.2984 0.092416 1.42164C0.149164 1.54487 0.230239 1.65511 0.33053 1.74558L4.60705 6.02135L0.300871 10.3281C0.130297 10.5179 0.0384027 10.7668 0.0441905 11.0233C0.0499783 11.2798 0.153018 11.5243 0.331976 11.706C0.510935 11.8878 0.75212 11.9929 1.00557 11.9997C1.25901 12.0064 1.50533 11.9143 1.6935 11.7424L6.71077 6.72796C6.89593 6.54053 7 6.28637 7 6.02135C7 5.75632 6.89593 5.50214 6.71077 5.31471Z" fill="white" fill-opacity="0.9"/>
</svg>
