<svg width="24" height="24" viewBox="0 0 24 24" fill="none" xmlns="http://www.w3.org/2000/svg">
<path fill-rule="evenodd" clip-rule="evenodd" d="M12 5C8.13401 5 5 8.13401 5 12C5 13.7135 5.61569 15.2833 6.63793 16.5C7.92108 14.9727 9.8465 14 11.9999 14C14.1534 14 16.0788 14.9728 17.362 16.5001C18.3843 15.2834 19 13.7136 19 12C19 8.13401 15.866 5 12 5ZM15.87 17.8338C14.9521 16.7131 13.5589 16 11.9999 16C10.441 16 9.04776 16.7131 8.12986 17.8337C9.23842 18.5706 10.5691 19 12 19C13.4309 19 14.7615 18.5707 15.87 17.8338ZM3 12C3 7.02944 7.02944 3 12 3C16.9706 3 21 7.02944 21 12C21 16.9706 16.9706 21 12 21C7.02944 21 3 16.9706 3 12ZM12 9C11.4477 9 11 9.44772 11 10C11 10.5523 11.4477 11 12 11C12.5523 11 13 10.5523 13 10C13 9.44772 12.5523 9 12 9ZM9 10C9 8.34315 10.3431 7 12 7C13.6569 7 15 8.34315 15 10C15 11.6569 13.6569 13 12 13C10.3431 13 9 11.6569 9 10Z" fill="#A5A5C5"/>
</svg>
