<svg width="144" height="50" viewBox="0 0 144 50" fill="none" xmlns="http://www.w3.org/2000/svg"><g clip-path="url(#a)" fill="#E92B37"><path fill-rule="evenodd" clip-rule="evenodd" d="M45 3.768c.09-.184.09-.276.09-.46-.09-.184-.36 0-.63 0-1.71 1.011-3.15 2.114-4.77 3.217C33.48-.46 22.95-2.206 14.58 2.757c-.09 0-.09.092-.18.092v.092C22.59-1.84 33.03.09 38.97 7.169c-.81.643-1.62 1.286-2.52 2.022-1.17.919-2.61 2.573-3.87 3.4-.45 0-.45-.367-.54-.735-.18-.92-.18-1.195-.99-1.654-.72-.184-1.26-.092-1.8.46-.63.55-.72.826-.54 1.654 0 .275.18.551.54.827.09.184.27.092.27.367a2.46 2.46 0 0 1-.54.92c-.9.367-1.17.183-2.16-.184-.18-.46-.36-.736-.18-1.195.72-1.011 1.35-2.114 2.07-3.493.45-1.47.27-3.217-.54-4.503-1.08-1.655-1.89-2.023-3.78-2.574-2.16-.46-3.51.643-4.59 1.654-2.52 2.758-3.33 6.342-5.31 10.019-1.17 2.573-2.52 4.963-3.78 7.537a90.648 90.648 0 0 1-3.51 6.525C5.76 25.46 4.95 22.61 4.95 19.67h-.09c0 3.033.63 6.066 2.16 8.915-1.08 1.93-2.16 3.768-3.24 5.698-1.17 2.023-2.52 4.045-3.69 6.159-.09.275-.09.46.09.551.9-.184 3.87-4.32 4.41-5.147 1.26-1.746 2.43-3.4 3.51-5.239.09.092.18.276.27.368-1.44 2.297-3.15 4.963-2.97 5.33.9 0 1.53-1.194 2.34-2.022.54-.735 1.08-1.378 1.62-2.113a19.903 19.903 0 0 0 3.51 3.308c-1.26 2.022-2.34 4.228-3.24 7.17-1.8 1.01-1.62.643-1.89 3.952 0 1.01-.09 2.114-.09 3.125.27.551.36-.092.63-.644.81-1.838 1.53-3.676 2.25-5.514 1.44-2.482 2.79-4.78 4.32-6.894 6.03 3.4 13.68 3.585 20.07-.276 9.45-5.514 12.6-17.647 7.02-27.022-.45-.735-.99-1.47-1.53-2.114l1.62-1.378c.9-.736 1.8-1.379 2.97-2.114ZM8.37 30.146c.99-1.47 1.89-3.033 2.79-4.687.9-1.47 1.89-2.941 2.88-4.504.27-.551.63-.919.45-.092-.54.828-.99 1.655-1.62 2.666-.81 1.378-1.62 2.665-2.43 3.952-.18.368-.99 1.563-1.89 3.033 0-.092-.09-.184-.18-.368Zm1.17 1.563.27-.276c2.7-3.768 5.4-7.628 7.47-11.764.18-.368.45-.276.36.091-.9 1.655-1.8 3.125-2.7 4.78-.9 1.654-2.07 3.492-3.15 5.147-.45.735-1.53 2.022-.45 1.379 3.42-3.217 6.66-8.456 9-12.592.54-.368.36-.092.09.46-1.62 2.848-3.33 5.79-5.31 8.547-.09 1.654 2.52-1.654 3.96-3.4 1.8-2.207 3.24-4.504 4.5-7.17.54-.46.54-.46.45.368-.9 2.206-1.89 4.412-3.15 6.71-2.34 3.768-4.59 7.444-7.56 10.937-1.44-.827-2.7-1.93-3.78-3.217Zm31.23-22.15c5.4 9.007 2.34 20.68-6.75 26.102-6.03 3.585-13.14 3.493-18.9.46 2.34-3.125 4.86-5.975 8.19-8.64 1.53-.552 3.87-1.47 5.22-1.563-.63.552-1.26.828-1.98 1.38-.81.643-2.25 1.378-3.42 2.757-.36-.276-.81.275-1.17.551-.72.735-4.14 3.4-3.42 4.044 1.71-1.287 3.33-2.573 5.04-3.584 4.05-2.39 7.92-4.688 12.6-6.526 1.26-.552 2.07-.735.45-1.287-2.34-.551-4.23-.643-6.39-.551-1.35.183-2.7.46-4.14.551-.45 0-.36-.276-.18-.551.63-.46.9-.828 1.44-1.38 1.8-1.47 3.42-3.308 3.42-5.514.99-.46 2.07-1.287 2.79-2.022.81-.643 1.44-1.47 2.25-2.206 1.26-1.195 2.52-2.573 3.87-3.86.36.735.72 1.287 1.08 1.838Z"/><path d="M55.298 4.489c1.101 0 2.287.173 3.05.865.677.606 1.101 1.644 1.101 2.682 0 1.125-.424 1.99-.932 2.509-.847.865-1.948 1.038-3.897 1.125v1.557c0 .779 0 1.817.424 3.288h-2.627c.255-.866.424-1.558.424-3.288V7.863c0-.952-.085-1.644-.17-2.163l-.254-1.298h2.88v.087Zm1.186 5.797c.593-.433.932-1.039.932-1.99 0-1.99-1.186-2.682-2.288-2.682h-.593v5.104c.848 0 1.525-.086 1.949-.432Zm7.964 4.758.593-1.298-2.542-6.143c-.593-1.384-1.101-2.335-1.864-3.2h3.389c0 .172-.085.345-.085.432 0 .779.254 1.557.593 2.336l1.61 4.24 1.355-3.548c.34-.865.678-1.903.678-2.769 0-.26 0-.519-.085-.692h2.965c-.677 1.039-1.27 2.336-1.948 3.894L66.48 14.87c-.763 1.903-1.78 2.509-3.643 2.509-.254 0-.508-.087-.847-.087 1.27-.432 2.033-1.211 2.457-2.25ZM81.22 6.825c-1.1-.78-2.117-1.125-3.218-1.125-2.796 0-4.151 2.163-4.151 4.758 0 2.855 1.525 4.672 3.981 4.672 1.017 0 2.288-.346 3.135-1.038l.593-.433-.085 1.99c-1.61.779-2.626.865-3.643.865-3.473 0-5.845-2.509-5.845-5.97 0-3.373 2.203-6.401 6.269-6.401 1.016 0 1.948.173 2.965.519v2.163Zm11.777 0c-1.102-.78-2.118-1.125-3.22-1.125-2.795 0-4.15 2.163-4.15 4.758 0 2.855 1.524 4.672 3.981 4.672 1.017 0 2.287-.346 3.135-1.038l.593-.433-.085 1.99c-1.61.779-2.626.865-3.643.865-3.473 0-5.845-2.509-5.845-5.97 0-3.373 2.202-6.401 6.269-6.401 1.016 0 1.948.173 3.05.519v2.163h-.085Zm2.88 9.689c.424-1.298.424-2.336.424-3.72V7.689c0-1.21-.085-2.163-.424-3.2h2.626c-.254.778-.423 1.99-.423 2.854v2.769l2.202-3.115c.678-.951 1.017-1.644 1.102-2.422h2.71a57.116 57.116 0 0 0-2.541 3.374l-1.525 2.25c1.44 2.335 3.219 4.844 4.659 6.402h-2.117c-1.695-1.644-3.22-3.72-4.49-5.71v1.903c0 1.211.084 2.682.423 3.807h-2.626v-.087Zm13.724-12.026c-.254.952-.424 1.817-.424 3.115v5.018l4.49-5.537c.424-.52.593-1.038.593-1.471 0-.346-.084-.692-.254-1.038h2.627c-.424 1.298-.424 2.25-.424 3.46v4.413c0 1.73.085 3.028.424 4.066h-2.627c.339-1.038.424-2.595.424-3.807V8.208l-4.321 5.364c-.508.606-.762 1.125-.762 1.817 0 .346.085.692.169 1.125h-2.626c.254-.952.424-2.076.424-3.114V8.294c0-1.384 0-2.595-.424-3.807h2.711Zm13.131.001c-.254.951-.423 1.816-.423 3.114v5.018l4.49-5.537c.423-.519.593-1.038.593-1.47 0-.347-.085-.693-.255-1.039h2.627c-.424 1.298-.424 2.25-.424 3.46v4.413c0 1.73.085 3.028.424 4.066h-2.627c.339-1.038.424-2.595.424-3.806v-4.5l-4.321 5.365c-.508.605-.762 1.125-.762 1.817 0 .346.085.692.254 1.124h-2.626c.254-.951.424-2.076.424-3.114V8.295c0-1.384 0-2.595-.424-3.806h2.626Zm1.44-2.682v.26c0 .605.424.778.848.778.423 0 .847-.26.847-.779v-.26h1.779c-.424 1.385-1.44 1.817-2.711 1.817s-2.457-.432-2.626-1.816h1.863ZM52.163 22.57c.932-.432 1.864-.605 3.05-.605 3.135 0 5.846 2.163 5.846 6.229 0 3.634-2.711 6.143-6.015 6.143-1.102 0-2.203-.26-3.135-.952v-1.73c1.017.778 1.949 1.21 3.304 1.21 2.288 0 3.897-1.903 3.897-4.325-1.694 0-3.134.173-4.829.779l.678-2.077h4.151c-.254-2.422-2.033-3.893-4.066-3.893-1.017 0-2.711.52-3.474 1.557l.593-2.335Zm11.861 11.594c.424-1.297.424-2.336.424-3.72v-5.018c0-1.21-.085-2.163-.424-3.2h2.626c-.254.778-.423 1.99-.423 2.854v2.596l2.202-3.115c.678-.952 1.017-1.644 1.102-2.422h2.71a57.173 57.173 0 0 0-2.541 3.374l-1.44 2.163c1.355 2.336 3.219 4.845 4.66 6.402H70.8c-1.694-1.644-3.304-3.72-4.49-5.71v1.903c0 1.211.085 2.682.424 3.807h-2.711v.086Zm18.806-9.691c-1.016-.779-2.117-1.125-3.134-1.125-2.796 0-4.151 2.163-4.151 4.759 0 2.855 1.525 4.672 3.982 4.672 1.016 0 2.287-.347 3.134-1.039l.593-.432-.085 1.99c-1.61.778-2.626.865-3.642.865-3.474 0-5.846-2.51-5.846-5.97 0-3.374 2.203-6.402 6.27-6.402 1.016 0 1.948.173 2.964.52v2.162h-.084Zm12.285-2.334c-.255.778-.424 1.643-.424 2.768v5.191c0 2.077.085 3.028.424 4.066h-2.627c.34-.951.424-1.73.424-3.287v-7.181h-4.998v6.921c0 1.73.169 2.596.423 3.634h-2.626c.339-.952.424-1.644.424-3.547v-4.759c0-1.99-.17-2.768-.424-3.72h9.404v-.086Zm6.354 0c1.101 0 2.287.173 3.05.865.677.605 1.101 1.644 1.101 2.682 0 1.125-.424 1.99-.932 2.509-.847.865-1.949 1.038-3.897 1.125v1.557c0 .779 0 1.817.424 3.287h-2.627c.255-.865.424-1.557.424-3.287v-5.278c0-1.038-.085-1.643-.17-2.163l-.254-1.297h2.881Zm1.186 5.796c.593-.432.932-1.038.932-1.99 0-1.99-1.186-2.682-2.288-2.682h-.593v5.105c.847 0 1.525-.087 1.949-.433Zm12.199-5.796-.932 1.903c-.932-.52-1.864-.606-2.88-.606h-.509v3.894h3.813l-1.102 1.903c-.847-.52-1.863-.606-2.795-.606v4.24c.762 0 3.558-.173 4.998-1.038l-.932 2.335h-6.269c.339-.865.424-2.163.424-3.98v-4.498c0-1.558-.17-2.336-.424-3.547h6.608Zm11.691 2.334c-1.102-.779-2.118-1.125-3.22-1.125-2.795 0-4.151 2.163-4.151 4.759 0 2.855 1.525 4.672 3.982 4.672 1.017 0 2.287-.347 3.135-1.039l.593-.432-.085 1.99c-1.61.778-2.626.865-3.643.865-3.473 0-5.845-2.51-5.845-5.97 0-3.374 2.202-6.402 6.269-6.402 1.016 0 1.948.173 2.965.52v2.162Zm11.691 0c-1.102-.779-2.118-1.125-3.22-1.125-2.795 0-4.151 2.163-4.151 4.759 0 2.855 1.525 4.672 3.982 4.672 1.017 0 2.287-.347 3.134-1.039l.593-.432-.084 1.99c-1.61.778-2.626.865-3.643.865-3.473 0-5.846-2.51-5.846-5.97 0-3.374 2.203-6.402 6.27-6.402 1.016 0 1.948.173 3.049.52v2.162h-.084Z"/></g><defs><clipPath id="a"><path fill="#fff" d="M0 0h144v50H0z"/></clipPath></defs></svg>