<svg width="240" height="83" viewBox="0 0 240 83" fill="none" xmlns="http://www.w3.org/2000/svg"><g clip-path="url(#a)" fill="#E92B37"><path fill-rule="evenodd" clip-rule="evenodd" d="M75 6.256c.15-.306.15-.458.15-.763-.15-.306-.6 0-1.05 0-2.85 1.678-5.25 3.509-7.95 5.34C55.8-.763 38.25-3.662 24.3 4.577c-.15 0-.15.153-.3.153v.152C37.65-3.05 55.05.152 64.95 11.901c-1.35 1.068-2.7 2.136-4.2 3.356-1.95 1.526-4.35 4.272-6.45 5.646-.75 0-.75-.61-.9-1.221-.3-1.526-.3-1.983-1.65-2.746-1.2-.305-2.1-.153-3 .762-1.05.916-1.2 1.374-.9 2.747 0 .458.3.915.9 1.373.15.305.45.153.45.61-.15.458-.45 1.068-.9 1.526-1.5.61-1.95.305-3.6-.305-.3-.763-.6-1.22-.3-1.984 1.2-1.678 2.25-3.509 3.45-5.797.75-2.441.45-5.34-.9-7.476-1.8-2.747-3.15-3.357-6.3-4.273-3.6-.762-5.85 1.069-7.65 2.747-4.2 4.577-5.55 10.527-8.85 16.63-1.95 4.272-4.2 8.24-6.3 12.511-1.8 3.662-3.75 7.324-5.85 10.833-2.4-4.577-3.75-9.307-3.75-14.19H8.1c0 5.036 1.05 10.07 3.6 14.8-1.8 3.204-3.6 6.256-5.4 9.46-1.95 3.357-4.2 6.713-6.15 10.222-.15.458-.15.763.15.916 1.5-.305 6.45-7.171 7.35-8.544 2.1-2.9 4.05-5.646 5.85-8.697.15.153.3.458.45.61-2.4 3.815-5.25 8.24-4.95 8.85 1.5 0 2.55-1.984 3.9-3.357.9-1.22 1.8-2.289 2.7-3.51 1.8 2.137 3.75 3.968 5.85 5.493-2.1 3.357-3.9 7.019-5.4 11.901-3 1.678-2.7 1.068-3.15 6.56 0 1.68-.15 3.51-.15 5.188.45.916.6-.152 1.05-1.068 1.35-3.051 2.55-6.103 3.75-9.154 2.4-4.12 4.65-7.934 7.2-11.443 10.05 5.645 22.8 5.95 33.45-.458 15.75-9.154 21-29.294 11.7-44.856a29.758 29.758 0 0 0-2.55-3.51l2.7-2.288c1.5-1.22 3-2.289 4.95-3.51ZM13.95 50.044c1.65-2.441 3.15-5.035 4.65-7.781 1.5-2.441 3.15-4.883 4.8-7.476.45-.916 1.05-1.526.75-.153-.9 1.373-1.65 2.746-2.7 4.425-1.35 2.288-2.7 4.425-4.05 6.56-.3.61-1.65 2.594-3.15 5.035 0-.152-.15-.305-.3-.61Zm1.95 2.594.45-.458c4.5-6.255 9-12.663 12.45-19.53.3-.61.75-.457.6.153-1.5 2.747-3 5.188-4.5 7.934-1.5 2.746-3.45 5.798-5.25 8.544-.75 1.22-2.55 3.357-.75 2.289 5.7-5.34 11.1-14.037 15-20.903.9-.61.6-.152.15.763-2.7 4.73-5.55 9.612-8.85 14.19-.15 2.746 4.2-2.747 6.6-5.646 3-3.661 5.4-7.476 7.5-11.9.9-.763.9-.763.75.61-1.5 3.662-3.15 7.323-5.25 11.138-3.9 6.255-7.65 12.358-12.6 18.156-2.4-1.373-4.5-3.204-6.3-5.34Zm52.05-36.77c9 14.952 3.9 34.329-11.25 43.33-10.05 5.95-21.9 5.798-31.5.763 3.9-5.187 8.1-9.917 13.65-14.341 2.55-.916 6.45-2.442 8.7-2.594-1.05.915-2.1 1.373-3.3 2.288-1.35 1.068-3.75 2.289-5.7 4.578-.6-.458-1.35.457-1.95.915-1.2 1.22-6.9 5.645-5.7 6.713 2.85-2.136 5.55-4.272 8.4-5.95 6.75-3.967 13.2-7.781 21-10.833 2.1-.915 3.45-1.22.75-2.136-3.9-.915-7.05-1.068-10.65-.915-2.25.305-4.5.763-6.9.915-.75 0-.6-.458-.3-.915 1.05-.763 1.5-1.373 2.4-2.289 3-2.441 5.7-5.493 5.7-9.154 1.65-.763 3.45-2.136 4.65-3.357 1.35-1.068 2.4-2.441 3.75-3.662 2.1-1.983 4.2-4.272 6.45-6.408.6 1.22 1.2 2.136 1.8 3.052Z"/><path d="M92.163 7.452c1.836 0 3.812.288 5.083 1.437 1.13 1.005 1.836 2.728 1.836 4.452 0 1.867-.706 3.303-1.554 4.165-1.412 1.436-3.247 1.723-6.495 1.867v2.585c0 1.292 0 3.016.706 5.457h-4.377c.424-1.436.706-2.585.706-5.457v-8.905c0-1.58-.14-2.728-.282-3.59l-.424-2.154h4.8v.143Zm1.977 9.623c.988-.718 1.553-1.724 1.553-3.303 0-3.304-1.977-4.453-3.813-4.453h-.988v8.474c1.412 0 2.542-.144 3.248-.718Zm13.272 7.899.988-2.155-4.236-10.196c-.988-2.298-1.835-3.878-3.106-5.314h5.648c0 .287-.141.574-.141.718 0 1.292.423 2.585.988 3.878l2.683 7.037 2.259-5.889c.565-1.436 1.129-3.16 1.129-4.595 0-.431 0-.862-.141-1.15h4.942c-1.13 1.724-2.118 3.878-3.247 6.463l-4.377 10.915c-1.271 3.16-2.966 4.165-6.072 4.165-.423 0-.847-.143-1.412-.143 2.118-.718 3.389-2.011 4.095-3.734Zm27.956-13.644c-1.835-1.293-3.53-1.867-5.365-1.867-4.66 0-6.919 3.59-6.919 7.899 0 4.74 2.542 7.755 6.636 7.755 1.695 0 3.813-.574 5.225-1.723l.988-.718-.141 3.303c-2.683 1.293-4.377 1.436-6.072 1.436-5.789 0-9.742-4.165-9.742-9.91 0-5.6 3.671-10.627 10.448-10.627 1.695 0 3.248.287 4.942.862v3.59Zm19.626 0c-1.835-1.293-3.53-1.867-5.365-1.867-4.66 0-6.919 3.59-6.919 7.899 0 4.74 2.542 7.755 6.636 7.755 1.695 0 3.813-.574 5.225-1.723l.988-.718-.141 3.303c-2.683 1.293-4.377 1.436-6.072 1.436-5.789 0-9.742-4.165-9.742-9.91 0-5.6 3.671-10.627 10.448-10.627 1.695 0 3.248.287 5.083.862v3.59h-.141Zm4.801 16.085c.706-2.154.706-3.877.706-6.175v-8.474c0-2.01-.141-3.59-.706-5.314h4.377c-.424 1.293-.706 3.304-.706 4.74v4.596l3.671-5.17c1.13-1.58 1.694-2.73 1.836-4.022h4.518a94.863 94.863 0 0 0-4.236 5.601l-2.542 3.734c2.401 3.878 5.366 8.043 7.766 10.628h-3.53c-2.824-2.729-5.365-6.176-7.483-9.479v3.16c0 2.01.141 4.452.706 6.319h-4.377v-.144Zm22.873-19.963c-.423 1.58-.706 3.016-.706 5.17v8.33l7.483-9.191c.706-.862.989-1.723.989-2.442a3.87 3.87 0 0 0-.424-1.723h4.377c-.706 2.154-.706 3.734-.706 5.745v7.324c0 2.873.142 5.027.706 6.75h-4.377c.565-1.723.706-4.308.706-6.319v-7.468l-7.201 8.904c-.847 1.006-1.27 1.867-1.27 3.016 0 .575.141 1.149.282 1.867h-4.377c.423-1.58.706-3.447.706-5.17V13.77c0-2.297 0-4.308-.706-6.319h4.518Zm21.886 0c-.424 1.58-.706 3.016-.706 5.17v8.33l7.483-9.191c.706-.862.988-1.724.988-2.442a3.88 3.88 0 0 0-.423-1.723h4.377c-.706 2.154-.706 3.734-.706 5.745v7.324c0 2.872.141 5.027.706 6.75h-4.377c.565-1.723.706-4.309.706-6.32v-7.467l-7.201 8.904c-.847 1.005-1.271 1.867-1.271 3.016 0 .574.141 1.149.424 1.867h-4.377c.423-1.58.706-3.447.706-5.17V13.77c0-2.298 0-4.308-.706-6.319h4.377Zm2.4-4.452v.43c0 1.006.706 1.293 1.412 1.293s1.412-.43 1.412-1.292V3h2.965c-.706 2.297-2.4 3.015-4.518 3.015S204.13 5.298 203.848 3h3.106ZM86.939 37.468c1.553-.718 3.106-1.005 5.083-1.005 5.224 0 9.742 3.59 9.742 10.34 0 6.032-4.518 10.197-10.025 10.197-1.835 0-3.67-.43-5.224-1.58v-2.872c1.694 1.292 3.247 2.01 5.507 2.01 3.812 0 6.494-3.159 6.494-7.18-2.823 0-5.224.287-8.048 1.292l1.13-3.447h6.918c-.423-4.02-3.388-6.462-6.777-6.462-1.694 0-4.518.861-5.789 2.585l.989-3.878Zm19.767 19.245c.706-2.154.706-3.878.706-6.176v-8.33c0-2.01-.141-3.59-.706-5.313h4.377c-.423 1.292-.706 3.303-.706 4.739v4.309l3.671-5.17c1.13-1.58 1.695-2.73 1.836-4.022h4.518a94.862 94.862 0 0 0-4.236 5.601l-2.4 3.59c2.259 3.878 5.365 8.043 7.765 10.628h-3.529c-2.824-2.729-5.507-6.175-7.484-9.479v3.16c0 2.01.141 4.452.706 6.32h-4.518v.143Zm31.345-16.085c-1.695-1.293-3.53-1.867-5.224-1.867-4.66 0-6.919 3.59-6.919 7.899 0 4.739 2.542 7.755 6.636 7.755 1.695 0 3.812-.575 5.224-1.723l.989-.718-.141 3.303c-2.683 1.292-4.377 1.436-6.072 1.436-5.789 0-9.742-4.165-9.742-9.91 0-5.6 3.671-10.627 10.448-10.627 1.694 0 3.248.287 4.942.861v3.59h-.141Zm20.473-3.878c-.423 1.293-.706 2.729-.706 4.596v8.617c0 3.447.141 5.026.706 6.75h-4.377c.565-1.58.706-2.873.706-5.458v-11.92h-8.33v11.49c0 2.872.282 4.308.706 6.031h-4.377c.564-1.58.706-2.728.706-5.888V43.07c0-3.303-.283-4.596-.706-6.175h15.672v-.144Zm10.59 0c1.836 0 3.812.287 5.083 1.436 1.13 1.006 1.836 2.729 1.836 4.452 0 1.867-.706 3.304-1.554 4.165-1.411 1.436-3.247 1.724-6.494 1.867v2.585c0 1.293 0 3.016.706 5.458h-4.378c.424-1.436.706-2.585.706-5.458v-8.76c0-1.724-.141-2.729-.282-3.59l-.424-2.155h4.801Zm1.977 9.622c.988-.718 1.553-1.723 1.553-3.303 0-3.303-1.977-4.452-3.812-4.452h-.989v8.474c1.412 0 2.542-.144 3.248-.719Zm20.332-9.622-1.553 3.16c-1.553-.862-3.107-1.006-4.801-1.006h-.847v6.463h6.354l-1.836 3.16c-1.412-.862-3.106-1.006-4.659-1.006v7.038c1.27 0 5.93-.288 8.33-1.724l-1.553 3.878H180.41c.564-1.436.706-3.59.706-6.607v-7.468c0-2.585-.283-3.877-.706-5.888h11.013Zm19.484 3.878c-1.835-1.293-3.53-1.867-5.365-1.867-4.66 0-6.919 3.59-6.919 7.899 0 4.739 2.542 7.755 6.637 7.755 1.694 0 3.812-.575 5.224-1.723l.988-.718-.141 3.303c-2.683 1.292-4.377 1.436-6.071 1.436-5.789 0-9.743-4.165-9.743-9.91 0-5.6 3.671-10.627 10.449-10.627 1.694 0 3.247.287 4.941.861v3.59Zm19.485 0c-1.835-1.293-3.53-1.867-5.365-1.867-4.66 0-6.919 3.59-6.919 7.899 0 4.739 2.542 7.755 6.636 7.755 1.695 0 3.813-.575 5.225-1.723l.988-.718-.141 3.303c-2.683 1.292-4.377 1.436-6.072 1.436-5.789 0-9.742-4.165-9.742-9.91 0-5.6 3.671-10.627 10.448-10.627 1.695 0 3.248.287 5.083.861v3.59h-.141Z"/></g><path d="M93.49 68.3h-6.347v.957h2.629V76h1.078v-6.743h2.64V68.3Zm5.515 1.87-2.013 4.664-2.035-4.664h-1.1l2.574 5.819-.187.407c-.286.671-.605.902-1.111.902a1.49 1.49 0 0 1-1.045-.429l-.451.792c.363.352.935.539 1.496.539.89 0 1.562-.385 2.079-1.617l2.827-6.413h-1.034Zm5.756-.055c-.858 0-1.606.33-2.079.979v-.924h-1.012v7.964h1.056V75.12c.484.627 1.21.946 2.035.946 1.705 0 2.948-1.188 2.948-2.981 0-1.782-1.243-2.97-2.948-2.97Zm-.088 5.027c-1.111 0-1.958-.814-1.958-2.057 0-1.232.847-2.046 1.958-2.046 1.122 0 1.969.814 1.969 2.046 0 1.243-.847 2.057-1.969 2.057Zm7.617.924c1.749 0 3.025-1.243 3.025-2.981 0-1.738-1.276-2.97-3.025-2.97-1.749 0-3.036 1.232-3.036 2.97 0 1.738 1.287 2.981 3.036 2.981Zm0-.924c-1.122 0-1.969-.814-1.969-2.057 0-1.243.847-2.046 1.969-2.046s1.958.803 1.958 2.046c0 1.243-.836 2.057-1.958 2.057Zm5.1-4.972V76h1.056v-4.906h3.289V76h1.056v-5.83h-5.401Zm13.263 2.948c0-1.793-1.199-3.003-2.882-3.003s-2.926 1.243-2.926 2.97c0 1.738 1.254 2.981 3.135 2.981.968 0 1.771-.33 2.299-.946l-.583-.682c-.429.473-1.001.704-1.683.704-1.155 0-1.98-.682-2.112-1.705h4.73c.011-.099.022-.231.022-.319Zm-2.882-2.112c1.023 0 1.76.693 1.87 1.672h-3.74c.11-.99.858-1.672 1.87-1.672Zm8.162-.891c-.858 0-1.606.33-2.079.979v-.924h-1.012v7.964h1.056V75.12c.484.627 1.21.946 2.035.946 1.705 0 2.948-1.188 2.948-2.981 0-1.782-1.243-2.97-2.948-2.97Zm-.088 5.027c-1.111 0-1.958-.814-1.958-2.057 0-1.232.847-2.046 1.958-2.046 1.122 0 1.969.814 1.969 2.046 0 1.243-.847 2.057-1.969 2.057Zm7.145-5.027c-.935 0-1.804.264-2.409.748l.44.792c.451-.385 1.155-.627 1.848-.627 1.045 0 1.562.517 1.562 1.408v.209h-1.672c-1.738 0-2.343.77-2.343 1.705 0 1.012.836 1.716 2.156 1.716.913 0 1.562-.308 1.914-.836V76h1.001v-3.52c0-1.595-.902-2.365-2.497-2.365Zm-.242 5.137c-.803 0-1.287-.363-1.287-.946 0-.495.297-.902 1.342-.902h1.628v.814c-.264.671-.891 1.034-1.683 1.034Zm9.536-5.082h-5.324v.924h2.134V76h1.056v-4.906h2.134v-.924Zm3.869 5.896c1.749 0 3.025-1.243 3.025-2.981 0-1.738-1.276-2.97-3.025-2.97-1.749 0-3.036 1.232-3.036 2.97 0 1.738 1.287 2.981 3.036 2.981Zm0-.924c-1.122 0-1.969-.814-1.969-2.057 0-1.243.847-2.046 1.969-2.046s1.958.803 1.958 2.046c0 1.243-.836 2.057-1.958 2.057Zm8.19-5.027c-.858 0-1.606.33-2.079.979v-.924h-1.012v7.964h1.056V75.12c.484.627 1.21.946 2.035.946 1.705 0 2.948-1.188 2.948-2.981 0-1.782-1.243-2.97-2.948-2.97Zm-.088 5.027c-1.111 0-1.958-.814-1.958-2.057 0-1.232.847-2.046 1.958-2.046 1.122 0 1.969.814 1.969 2.046 0 1.243-.847 2.057-1.969 2.057Zm11.166.924c1.045 0 1.914-.44 2.376-1.254l-.803-.506c-.374.572-.946.836-1.584.836-1.144 0-2.002-.792-2.002-2.057 0-1.243.858-2.046 2.002-2.046.638 0 1.21.264 1.584.836l.803-.517c-.462-.814-1.331-1.243-2.376-1.243-1.793 0-3.08 1.232-3.08 2.97 0 1.738 1.287 2.981 3.08 2.981Zm6.862-7.766v.957h1.738V76h1.089v-7.7h-2.827Zm7.558-.088c-1.529 0-2.717.946-2.717 2.431 0 1.419 1.1 2.332 2.629 2.332.957 0 1.771-.341 2.222-1.012v.275c0 1.925-.99 2.904-2.552 2.904-.561 0-1.078-.099-1.485-.363l-.418.858c.495.308 1.188.451 1.914.451 2.156 0 3.641-1.408 3.641-4.037 0-2.453-1.166-3.839-3.234-3.839Zm.099 3.872c-1.078 0-1.749-.583-1.749-1.485 0-.913.693-1.496 1.694-1.496 1.199 0 1.837.693 1.837 1.485 0 .847-.726 1.496-1.782 1.496Zm7.24-3.872c-1.529 0-2.717.946-2.717 2.431 0 1.419 1.1 2.332 2.629 2.332.957 0 1.771-.341 2.222-1.012v.275c0 1.925-.99 2.904-2.552 2.904-.561 0-1.078-.099-1.485-.363l-.418.858c.495.308 1.188.451 1.914.451 2.156 0 3.641-1.408 3.641-4.037 0-2.453-1.166-3.839-3.234-3.839Zm.099 3.872c-1.078 0-1.749-.583-1.749-1.485 0-.913.693-1.496 1.694-1.496 1.199 0 1.837.693 1.837 1.485 0 .847-.726 1.496-1.782 1.496Zm8.066-.759c-.957 0-1.771.352-2.211 1.012-.011-.099-.011-.187-.011-.275 0-1.925 1.001-2.904 2.563-2.904.55 0 1.078.099 1.474.363l.418-.858c-.495-.308-1.188-.451-1.914-.451-2.156 0-3.641 1.408-3.641 4.037 0 2.453 1.166 3.839 3.234 3.839 1.529 0 2.728-.946 2.728-2.431 0-1.419-1.111-2.332-2.64-2.332Zm-.132 3.872c-1.188 0-1.826-.693-1.826-1.485 0-.847.726-1.496 1.771-1.496 1.078 0 1.76.583 1.76 1.485 0 .913-.704 1.496-1.705 1.496Zm12.438-5.027h-4.29V76h1.056v-4.906h3.234v-.924Zm3.87 5.896c1.749 0 3.025-1.243 3.025-2.981 0-1.738-1.276-2.97-3.025-2.97-1.749 0-3.036 1.232-3.036 2.97 0 1.738 1.287 2.981 3.036 2.981Zm0-.924c-1.122 0-1.969-.814-1.969-2.057 0-1.243.847-2.046 1.969-2.046s1.958.803 1.958 2.046c0 1.243-.836 2.057-1.958 2.057Zm10.095-.066V70.17h-4.521l-.088 1.969c-.077 1.474-.22 2.893-1.056 2.937h-.308v2.277h1.001V76h4.873v1.353h.99v-2.277h-.891Zm-3.641-2.86.055-1.122h2.53v3.982h-3.267c.528-.462.638-1.65.682-2.86Zm8.537-2.101c-.935 0-1.804.264-2.409.748l.44.792c.451-.385 1.155-.627 1.848-.627 1.045 0 1.562.517 1.562 1.408v.209h-1.672c-1.738 0-2.343.77-2.343 1.705 0 1.012.836 1.716 2.156 1.716.913 0 1.562-.308 1.914-.836V76h1.001v-3.52c0-1.595-.902-2.365-2.497-2.365Zm-.242 5.137c-.803 0-1.287-.363-1.287-.946 0-.495.297-.902 1.342-.902h1.628v.814c-.264.671-.891 1.034-1.683 1.034Z" fill="#8D8D9F"/><defs><clipPath id="a"><path fill="#fff" d="M0 0h240v83H0z"/></clipPath></defs></svg>